<?xml version="1.0" standalone="no"?>
<!DOCTYPE svg PUBLIC "-//W3C//DTD SVG 1.1//EN" "http://www.w3.org/Graphics/SVG/1.1/DTD/svg11.dtd" >
<svg>
<metadata>
Created by FontForge 20090622 at Thu Mar 29 15:40:35 2018
 By deploy user
Part of the digitally encoded machine readable outline data for producing the Typefaces provided is copyrighted (c) 1991,2005 Linotype Library GmbH, www.linotype.com. All rights reserved. This software is the property of Linotype Library GmbH, and may not be reproduced, used, displayed, modified, disclosed or transferred without the express written approval of Linotype Library GmbH.Copyright (c) 1991 Adobe Systems Incorporated. All rights reserved. All Cyrillic characters are designed for Linotype Library by Double Alex.
</metadata>
<defs>
<font id="FrutigerLTCYR-LightCondensed" horiz-adv-x="480" >
  <font-face 
    font-family="Frutiger LT CYR 47 Light Cond"
    font-weight="300"
    font-stretch="normal"
    units-per-em="1000"
    panose-1="2 0 4 6 3 0 0 2 0 4"
    ascent="800"
    descent="-200"
    x-height="508"
    cap-height="698"
    bbox="-40 -250 1000 869"
    underline-thickness="50"
    underline-position="-50"
    unicode-range="U+0020-U+F8FF"
  />
<missing-glyph horiz-adv-x="512" 
d="M222 117v67h56v-67h-56zM225 234l-2 17q0 56 13 81q7 13 18 27.5t28 31.5q16 15 26 26.5t15 21t7 18t2 17.5q0 36 -22.5 60.5t-53.5 24.5t-53.5 -22t-28.5 -73l-50 8q7 72 44 104.5t91 32.5t89 -35.5t35 -95.5q0 -32 -12.5 -58.5t-50.5 -61.5q-37 -33 -43 -52
q-6 -20 -6 -72h-46zM462 50v617h-412v-617h412zM512 718v-718h-512v718h512z" />
    <glyph glyph-name=".notdef" horiz-adv-x="512" 
d="M222 117v67h56v-67h-56zM225 234l-2 17q0 56 13 81q7 13 18 27.5t28 31.5q16 15 26 26.5t15 21t7 18t2 17.5q0 36 -22.5 60.5t-53.5 24.5t-53.5 -22t-28.5 -73l-50 8q7 72 44 104.5t91 32.5t89 -35.5t35 -95.5q0 -32 -12.5 -58.5t-50.5 -61.5q-37 -33 -43 -52
q-6 -20 -6 -72h-46zM462 50v617h-412v-617h412zM512 718v-718h-512v718h512z" />
    <glyph glyph-name=".null" horiz-adv-x="0" 
 />
    <glyph glyph-name="nonmarkingreturn" horiz-adv-x="240" 
 />
    <glyph glyph-name="space" unicode=" " horiz-adv-x="240" 
 />
    <glyph glyph-name="exclam" unicode="!" horiz-adv-x="352" 
d="M203 172h-54l-10 526h74zM139 0v90h74v-90h-74z" />
    <glyph glyph-name="quotedbl" unicode="&#x22;" 
d="M332 419h-37l-7 279h51zM185 419h-37l-7 279h51z" />
    <glyph glyph-name="numbersign" unicode="#" 
d="M377 444l-32 -176h115v-45h-124l-41 -223h-51l42 223h-141l-41 -223h-51l42 223h-115v45h123l33 176h-115v46h123l41 222h51l-41 -222h140l42 222h50l-41 -222h115v-46h-124zM186 444l-32 -176h140l33 176h-141z" />
    <glyph glyph-name="dollar" unicode="$" 
d="M221 783h36v-78h3q29 0 53 -5t57 -17l-3 -70q-16 9 -28 15t-23.5 10t-25.5 6t-33 3v-255l56.5 -42.5t46 -42.5t31 -52t11.5 -70q0 -76 -38 -122.5t-107 -66.5v-89h-36v86h-6q-35 0 -68 8t-64 25l4 72q27 -22 57 -34.5t66 -12.5h11v284q-29 20 -54.5 39.5t-45.5 42
t-31.5 51t-11.5 66.5q0 72 34.5 112.5t108.5 54.5v82zM257 58q79 31 79 122q0 46 -22 75t-57 55v-252zM221 643q-41 -14 -59 -37.5t-18 -61.5q0 -23 5.5 -40.5t16 -32t24.5 -26.5t31 -25v223z" />
    <glyph glyph-name="percent" unicode="%" horiz-adv-x="815" 
d="M610 -7q-65 0 -99 48.5t-34 140.5t34 140.5t99 48.5t99 -48.5t34 -140.5t-34 -140.5t-99 -48.5zM205 327q-65 0 -99 48.5t-34 140.5t34 140.5t99 48.5t99 -48.5t34 -140.5t-34 -140.5t-99 -48.5zM536 731h54l-313 -764h-54zM610 47q39 0 57 32.5t18 102.5t-18 102.5
t-57 32.5t-57 -32.5t-18 -102.5t18 -102.5t57 -32.5zM205 381q39 0 57 32.5t18 102.5t-18 102.5t-57 32.5t-57 -32.5t-18 -102.5t18 -102.5t57 -32.5z" />
    <glyph glyph-name="ampersand" unicode="&#x26;" horiz-adv-x="574" 
d="M527 393q0 -69 -16.5 -136t-50.5 -127l99 -130h-79l-56 83q-31 -45 -78.5 -68t-101.5 -23q-88 0 -138 52.5t-50 144.5q0 74 38 123.5t99 82.5q-41 55 -57.5 91t-16.5 71q0 32 11.5 59t32.5 46.5t49 30.5t61 11q63 0 102 -38.5t39 -100.5q0 -34 -11.5 -61t-30.5 -49.5
t-43.5 -41.5t-50.5 -35l143 -201q10 21 19 48t15 55.5t9.5 56.5t3.5 51v5h59zM244 420q19 11 38.5 25.5t35 32t25 38.5t9.5 45q0 39 -21.5 62t-58.5 23q-38 0 -64 -26.5t-26 -64.5q0 -54 62 -135zM227 355q-57 -35 -82.5 -74t-25.5 -90q0 -30 9.5 -56t26.5 -44.5t40 -29
t51 -10.5q44 0 81.5 21.5t61.5 56.5l-162 226v0z" />
    <glyph glyph-name="quotesingle" unicode="'" horiz-adv-x="240" 
d="M138 419h-37l-7 279h51z" />
    <glyph glyph-name="parenleft" unicode="(" horiz-adv-x="259" 
d="M231 751q-25 -45 -47 -100.5t-38.5 -115.5t-26.5 -119.5t-10 -111.5q0 -57 10 -113.5t26.5 -112t39 -109t46.5 -104.5l-48 -7q-30 49 -55 104.5t-43 114t-28 118.5t-10 118q0 118 39.5 229.5t96.5 213.5z" />
    <glyph glyph-name="parenright" unicode=")" horiz-adv-x="259" 
d="M231 313q0 -58 -10 -118t-28 -118.5t-43 -114t-55 -104.5l-48 7q24 51 46.5 104.5t39 109t26.5 112t10 113.5q0 52 -10 111.5t-26.5 119.5t-38.5 115.5t-47 100.5l48 5q57 -102 96.5 -213.5t39.5 -229.5z" />
    <glyph glyph-name="asterisk" unicode="*" 
d="M271 750l-9 -129l112 52l22 -52l-120 -44l77 -115l-53 -29l-59 114l-59 -114l-52 29l73 115l-118 39l21 57l111 -52l-8 129h62z" />
    <glyph glyph-name="plus" unicode="+" horiz-adv-x="600" 
d="M325 219v-219h-50v219h-223v45h223v218h50v-218h223v-45h-223z" />
    <glyph glyph-name="comma" unicode="," horiz-adv-x="240" 
d="M95 -132h-58l48 222h74z" />
    <glyph glyph-name="hyphen" unicode="-" horiz-adv-x="296" 
d="M46 308h204v-58h-204v58z" />
    <glyph glyph-name="period" unicode="." horiz-adv-x="240" 
d="M81 96h78v-96h-78v96z" />
    <glyph glyph-name="slash" unicode="/" horiz-adv-x="259" 
d="M61 -8h-50l187 713h50z" />
    <glyph glyph-name="zero" unicode="0" 
d="M434 338q0 -32 -2.5 -70t-10 -76.5t-21 -74t-35 -63.5t-52.5 -44.5t-73 -16.5q-44 0 -75.5 18t-53 47t-34.5 67t-20 78t-9 79.5t-2 71.5q0 168 51.5 258.5t147.5 90.5q43 0 74 -18.5t52 -48.5t33.5 -68.5t19 -79t8.5 -80t2 -70.5zM372 349q0 146 -33.5 222t-96.5 76
q-64 0 -99 -74.5t-35 -214.5q0 -21 1 -52t4.5 -66t11.5 -69t22.5 -62t36 -45t53.5 -17t54.5 16.5t37.5 43t23.5 60t13 67t5.5 64t1 51.5z" />
    <glyph glyph-name="one" unicode="1" 
d="M306 0h-62v628l-86 -98l-38 40l124 128h62v-698z" />
    <glyph glyph-name="two" unicode="2" 
d="M414 0h-347v60l45.5 54l46 56l42.5 54.5t35 49.5l36.5 57t33.5 62t24 65t9 67q0 56 -31 88.5t-85 32.5q-34 0 -63.5 -13t-62.5 -42l-9 71q11 9 29 17t38 14t40 9t35 3q80 0 127 -47.5t47 -130.5q0 -34 -9.5 -68t-24 -67t-32.5 -64t-36 -58q-37 -57 -79.5 -109l-86.5 -103
h278v-58z" />
    <glyph glyph-name="three" unicode="3" 
d="M125 392h6q21 0 35.5 0.5t25.5 1.5t20.5 2.5t18.5 3.5q46 11 74 44t28 78q0 56 -37 91t-97 35q-35 0 -63.5 -10.5t-57.5 -30.5l-5 66q30 17 63.5 24.5t68.5 7.5q44 0 80 -13t61.5 -36t39.5 -56.5t14 -73.5q0 -63 -35.5 -100.5t-90.5 -54.5q62 -20 95.5 -64t33.5 -112
q0 -95 -59.5 -148t-164.5 -53q-79 0 -131 29l6 67q24 -17 58.5 -27.5t66.5 -10.5q35 0 64 11t50 31t32.5 47t11.5 60q0 37 -13 62.5t-35 41t-52 22.5t-63 7h-21t-28 -1v59z" />
    <glyph glyph-name="four" unicode="4" 
d="M450 166h-80v-166h-62v166h-277v64l257 468h82v-475h80v-57zM308 637l-223 -414h223v414z" />
    <glyph glyph-name="five" unicode="5" 
d="M390 640h-238v-218q21 7 40 11t42 4q91 0 141.5 -56t50.5 -157q0 -109 -58 -169.5t-163 -60.5q-68 0 -119 28l4 67q25 -17 57 -26.5t64 -9.5q69 0 110 46.5t41 126.5q0 76 -41.5 114t-115.5 38q-58 0 -112 -25v345h297v-58z" />
    <glyph glyph-name="six" unicode="6" 
d="M401 616q-24 17 -48.5 24t-54.5 7q-37 0 -65.5 -14.5t-50 -38.5t-36 -55.5t-23.5 -65t-13 -67.5t-5 -63q20 45 59 71.5t90 26.5q40 0 73 -16.5t57 -46.5t37 -72t13 -93q0 -50 -14 -90.5t-38.5 -69.5t-59 -45t-76.5 -16q-199 0 -199 322q0 194 63.5 292.5t188.5 98.5
q29 0 54.5 -4.5t52.5 -14.5zM369 219q0 73 -34.5 118.5t-90.5 45.5q-57 0 -90 -45.5t-33 -121.5t32.5 -120.5t88.5 -44.5q57 0 92 46t35 122z" />
    <glyph glyph-name="seven" unicode="7" 
d="M415 698v-62l-220 -636h-71l229 640h-289v58h351z" />
    <glyph glyph-name="eight" unicode="8" 
d="M179 363q-51 29 -83.5 72t-32.5 105q0 36 13 66.5t37 52.5t57 34t72 12t71.5 -12t56.5 -33t37 -50.5t13 -64.5q0 -52 -29 -95t-91 -85q72 -34 104.5 -75.5t32.5 -103.5q0 -43 -14 -78.5t-39.5 -61t-61.5 -39.5t-80 -14t-80 14t-61.5 39t-40 60.5t-14.5 77.5
q0 60 33.5 104t99.5 75zM252 389q19 13 37 30t32 36.5t22.5 41.5t8.5 47q0 47 -30 76t-80 29t-82.5 -32.5t-32.5 -81.5q0 -29 10.5 -51.5t28 -40.5t40 -31t46.5 -23zM230 337q-23 -12 -44.5 -26.5t-39 -33.5t-28 -42t-10.5 -51t10.5 -52.5t28.5 -42.5t42.5 -28.5t52.5 -10.5
t51.5 10t40.5 27.5t26.5 41.5t9.5 53q0 33 -12.5 56.5t-32.5 41t-45 31z" />
    <glyph glyph-name="nine" unicode="9" 
d="M79 81q45 -30 100 -30q57 0 94 30t59.5 75.5t32 98.5t10.5 99q-22 -45 -60 -71t-89 -26q-41 0 -74 16.5t-56.5 46.5t-36.5 72t-13 93q0 49 14 90t39 69.5t60.5 44.5t77.5 16q63 0 101.5 -31t59.5 -77.5t28 -101.5t7 -103q0 -40 -3.5 -85.5t-13 -90t-26.5 -85t-44 -71.5
t-66 -49.5t-92 -18.5q-12 0 -27 1.5t-30.5 4t-30 6t-26.5 8.5zM239 647q-58 0 -93 -46t-35 -122q0 -36 9 -66.5t25.5 -52.5t39.5 -34t51 -12q57 0 90 45.5t33 122.5q0 75 -32.5 120t-87.5 45z" />
    <glyph glyph-name="colon" unicode=":" horiz-adv-x="240" 
d="M81 508h78v-96h-78v96zM81 96h78v-96h-78v96z" />
    <glyph glyph-name="semicolon" unicode=";" horiz-adv-x="240" 
d="M95 -132h-58l48 222h74zM81 508h78v-96h-78v96z" />
    <glyph glyph-name="less" unicode="&#x3c;" horiz-adv-x="600" 
d="M52 215v50l495 201v-51l-437 -175l437 -174v-50z" />
    <glyph glyph-name="equal" unicode="=" horiz-adv-x="600" 
d="M52 309v46h496v-46h-496zM52 127v45h496v-45h-496z" />
    <glyph glyph-name="greater" unicode="&#x3e;" horiz-adv-x="600" 
d="M52 16v50l437 174l-437 175v51l495 -201v-50z" />
    <glyph glyph-name="question" unicode="?" horiz-adv-x="444" 
d="M89 682q34 13 58 18t52 5q85 0 131 -45t46 -128q0 -22 -3.5 -41t-13 -40.5t-26 -48.5t-43.5 -66q-17 -24 -28 -42t-17 -35.5t-8.5 -37.5t-2.5 -50h-58q2 43 5.5 68.5t11.5 45.5t22 41.5l37 56.5q32 47 45 80t13 66q0 54 -30.5 86t-81.5 32q-29 0 -54.5 -9.5t-49.5 -23.5z
M164 90h74v-90h-74v90z" />
    <glyph glyph-name="at" unicode="@" horiz-adv-x="800" 
d="M770 430q0 -36 -9 -73.5t-26.5 -70.5t-44 -60t-61.5 -42q-15 -6 -30.5 -10t-31.5 -4q-31 0 -53 18t-22 50q0 10 2 19.5t5 19.5q-22 -46 -57.5 -76.5t-89.5 -30.5q-32 0 -57 12t-42 32.5t-26 47.5t-9 57q0 40 14.5 82.5t40.5 77t62.5 56.5t80.5 22q22 0 43.5 -6.5t38 -19
t27.5 -31t13 -42.5l26 85h48l-58 -190l-7 -23.5t-8 -28.5t-6.5 -29t-2.5 -24q0 -22 15 -33t35 -11q21 0 40 9.5t35 22.5q20 16 35 39t25.5 49.5t15.5 53.5t5 53q0 64 -25 112.5t-66.5 81t-96 49t-113.5 16.5q-74 0 -141.5 -24.5t-118.5 -70t-81 -109.5t-30 -143
q0 -75 29 -135t78 -102t113.5 -64t135.5 -22q84 0 150.5 25t134.5 71l19 -24q-71 -52 -144 -78.5t-162 -26.5q-78 0 -148 24.5t-123.5 70t-85 111.5t-31.5 150q0 85 32.5 155t88 120.5t129.5 78t156 27.5q66 0 126 -19.5t106.5 -57t74 -92t27.5 -125.5zM515 425
q0 41 -23.5 70t-66.5 29q-35 0 -63 -21t-48 -52.5t-30.5 -67.5t-10.5 -66q0 -21 5 -41.5t16.5 -36t28.5 -25.5t41 -10q36 0 64 23.5t47.5 57t29.5 72t10 68.5z" />
    <glyph glyph-name="A" unicode="A" horiz-adv-x="556" 
d="M478 0l-63 192h-277l-64 -192h-61l233 698h67l230 -698h-65zM397 250l-119 383l-122 -383h241z" />
    <glyph glyph-name="B" unicode="B" horiz-adv-x="500" 
d="M227 698q42 0 77 -9.5t61 -30.5t40.5 -54t14.5 -80q0 -61 -28.5 -98.5t-81.5 -59.5q62 -14 93.5 -61t31.5 -108q0 -59 -19.5 -97.5t-53 -60.5t-77.5 -30.5t-93 -8.5h-112v698h147zM142 391h84q59 0 94 35t35 95q0 33 -11 56t-30.5 37.5t-45 21t-54.5 6.5h-72v-251z
M226 58q62 0 102.5 32.5t40.5 100.5q0 66 -35.5 103.5t-97.5 37.5h-94v-274h84z" />
    <glyph glyph-name="C" unicode="C" horiz-adv-x="537" 
d="M472 609q-10 9 -25.5 15.5t-32.5 11t-33.5 6.5t-29.5 2q-62 0 -105.5 -26t-70.5 -68t-39.5 -95t-12.5 -106q0 -66 16.5 -120.5t47 -93.5t73 -60t94.5 -21q32 0 61.5 8t53.5 24l3 -69q-48 -23 -118 -23q-67 0 -122 25t-94 71.5t-60 111.5t-21 145q0 82 21 148t59.5 112
t93.5 71t123 25q61 0 120 -23z" />
    <glyph glyph-name="D" unicode="D" horiz-adv-x="556" 
d="M196 698q80 0 139.5 -24.5t99 -68.5t59 -106t19.5 -137q0 -78 -19.5 -144.5t-59 -114.5t-98.5 -75.5t-138 -27.5h-118v698h116zM142 58h53q66 0 114 22t79 62t45.5 95.5t14.5 123.5q0 64 -14 116.5t-44 89.5t-77.5 57t-115.5 20h-55v-586z" />
    <glyph glyph-name="E" unicode="E" horiz-adv-x="444" 
d="M376 698v-58h-234v-248h223v-58h-223v-276h245v-58h-307v698h296z" />
    <glyph glyph-name="F" unicode="F" horiz-adv-x="407" 
d="M365 698v-58h-223v-248h212v-58h-212v-334h-62v698h285z" />
    <glyph glyph-name="G" unicode="G" horiz-adv-x="593" 
d="M518 31q-42 -17 -80 -28t-84 -11q-76 0 -132.5 31t-94.5 81.5t-57 116t-19 134.5q0 77 22.5 141t63 110.5t97 72.5t123.5 26q42 0 73.5 -8.5t69.5 -26.5l-2 -68l-34.5 17t-33 14t-34.5 9.5t-40 3.5q-54 0 -98 -21.5t-75.5 -60t-48.5 -92.5t-17 -119q0 -54 14 -108
t43.5 -96.5t74 -69.5t106.5 -27q26 0 52 5t49 16v244h-126v59h188v-345z" />
    <glyph glyph-name="H" unicode="H" horiz-adv-x="556" 
d="M142 0h-62v698h62v-306h272v306h62v-698h-62v334h-272v-334z" />
    <glyph glyph-name="I" unicode="I" horiz-adv-x="222" 
d="M142 698v-698h-62v698h62z" />
    <glyph glyph-name="J" unicode="J" horiz-adv-x="296" 
d="M217 698v-529q0 -176 -145 -176q-28 0 -50 7v67q25 -12 52 -12q29 0 45.5 13.5t24.5 34.5t9.5 45.5t1.5 46.5v503h62z" />
    <glyph glyph-name="K" unicode="K" horiz-adv-x="500" 
d="M142 389l255 309h75l-279 -332l302 -366h-80l-273 344v-344h-62v698h62v-309z" />
    <glyph glyph-name="L" unicode="L" horiz-adv-x="389" 
d="M142 58h227v-58h-289v698h62v-640z" />
    <glyph glyph-name="M" unicode="M" horiz-adv-x="740" 
d="M175 698l198 -609l206 609h95v-698h-59v646l-220 -646h-49l-207 646v-646h-59v698h95z" />
    <glyph glyph-name="N" unicode="N" horiz-adv-x="593" 
d="M507 0h-78l-291 614v-614h-58v698h76l293 -623v623h58v-698z" />
    <glyph glyph-name="O" unicode="O" horiz-adv-x="594" 
d="M296 705q76 0 124 -34t75 -87t37 -117t10 -125q0 -83 -16.5 -148t-48 -110t-77 -68.5t-103.5 -23.5q-75 0 -122.5 33.5t-74.5 86t-37.5 116.5t-10.5 124q0 59 11 121.5t38.5 114t74.5 84.5t120 33zM297 647q-39 0 -67.5 -14t-48.5 -37.5t-32.5 -54t-19.5 -64t-9.5 -67
t-2.5 -63.5q0 -29 3 -62.5t10 -66.5t20 -63.5t33 -53.5t48 -37t66 -14q58 0 93 30.5t54.5 76.5t26 98.5t6.5 96.5t-6.5 95.5t-26 96t-55 74t-92.5 29.5z" />
    <glyph glyph-name="P" unicode="P" horiz-adv-x="463" 
d="M213 698q103 0 156.5 -51t53.5 -145q0 -56 -17 -93.5t-46.5 -60.5t-68 -33t-81.5 -10h-68v-305h-62v698h133zM142 363h73q31 0 57.5 7t45.5 22.5t30 42t11 65.5q0 74 -38.5 107t-113.5 33h-65v-277z" />
    <glyph glyph-name="Q" unicode="Q" horiz-adv-x="594" 
d="M447 -129l-111 124q-17 -2 -25 -2.5t-18 -0.5q-56 0 -101 24.5t-76 71t-47.5 113t-16.5 150.5q0 59 11.5 122t39.5 114.5t76 84.5t121 33t120 -33t74.5 -84.5t38 -114t10.5 -121.5q0 -50 -5 -99.5t-20.5 -94t-44.5 -82t-77 -62.5l131 -143h-80zM298 647q-56 0 -91 -29.5
t-54.5 -74t-27 -95.5t-7.5 -94q0 -44 6.5 -96.5t25.5 -99t54 -77.5t93 -31q57 0 92.5 30t55 75t26 97t6.5 96q0 43 -6.5 95.5t-25.5 97.5t-54 75.5t-93 30.5z" />
    <glyph glyph-name="R" unicode="R" horiz-adv-x="500" 
d="M223 698q45 0 82 -10t63.5 -31.5t41.5 -56t15 -82.5q0 -71 -38.5 -113.5t-98.5 -53.5q17 -6 28.5 -12t20 -14.5t15 -20.5t12.5 -30l100 -274h-67l-85 239q-6 18 -12.5 33.5t-16 27t-24 18.5t-36.5 7h-81v-325h-62v698h143zM142 383h64q29 0 56.5 6t49.5 21.5t35 41.5
t13 67q0 37 -11.5 61t-31.5 37t-48.5 18t-62.5 5h-64v-257z" />
    <glyph glyph-name="S" unicode="S" horiz-adv-x="426" 
d="M340 610q-23 15 -53 24t-56 9q-52 0 -83.5 -30t-31.5 -79q0 -22 6.5 -39t18 -30.5t26 -25l30.5 -23.5l69 -50q26 -19 46.5 -38t34.5 -41t21 -48.5t7 -59.5q0 -42 -14 -76.5t-39 -58.5t-60.5 -37.5t-78.5 -13.5q-34 0 -67.5 8.5t-59.5 24.5l4 73q20 -20 54 -33t69 -13
q57 0 91.5 35t34.5 92q0 26 -7 45.5t-19 35t-28.5 29t-35.5 27.5l-32 23l-53.5 38.5t-43 40t-29 48.5t-10.5 65q0 80 49 125t135 45q55 0 107 -22z" />
    <glyph glyph-name="T" unicode="T" horiz-adv-x="426" 
d="M408 640h-164v-640h-62v640h-164v58h390v-58z" />
    <glyph glyph-name="U" unicode="U" horiz-adv-x="574" 
d="M143 698v-426q0 -41 2.5 -80.5t16.5 -71.5t44 -51.5t84 -19.5q52 0 80.5 20.5t42 52.5t16 72t2.5 78v426h62v-458q0 -52 -9 -97t-32 -78.5t-63 -53t-102 -19.5q-60 0 -99.5 18.5t-63 51.5t-33.5 78.5t-10 99.5v458h62z" />
    <glyph glyph-name="V" unicode="V" horiz-adv-x="519" 
d="M83 698l170 -612h2l187 612h61l-220 -698h-58l-209 698h67z" />
    <glyph glyph-name="W" unicode="W" horiz-adv-x="778" 
d="M77 698l126 -624h2l144 624h83l134 -624h2l137 624h62l-162 -698h-73l-143 632h-2l-148 -632h-73l-155 698h66z" />
    <glyph glyph-name="X" unicode="X" horiz-adv-x="519" 
d="M112 698l159 -275l160 275h68l-196 -326l206 -372h-73l-171 317l-182 -317h-73l222 372l-195 326h75z" />
    <glyph glyph-name="Y" unicode="Y" horiz-adv-x="500" 
d="M112 698l138 -339h3l135 339h69l-176 -395v-303h-62v303l-176 395h69z" />
    <glyph glyph-name="Z" unicode="Z" horiz-adv-x="444" 
d="M401 698v-60l-300 -580h308v-58h-373v63l300 576h-290v59h355z" />
    <glyph glyph-name="bracketleft" unicode="[" horiz-adv-x="259" 
d="M78 761h127v-46h-73v-805h73v-46h-127v897z" />
    <glyph glyph-name="backslash" unicode="\" horiz-adv-x="259" 
d="M11 705h50l187 -713h-50z" />
    <glyph glyph-name="bracketright" unicode="]" horiz-adv-x="259" 
d="M54 -136v46h73v805h-73v46h127v-897h-127z" />
    <glyph glyph-name="asciicircum" unicode="^" horiz-adv-x="600" 
d="M439 285l-140 356l-137 -356h-54l167 414h50l167 -414h-53z" />
    <glyph glyph-name="underscore" unicode="_" horiz-adv-x="500" 
d="M0 -125v50h500v-50h-500z" />
    <glyph glyph-name="grave" unicode="`" horiz-adv-x="186" 
d="M63 728l76 -142h-50l-96 142h70z" />
    <glyph glyph-name="a" unicode="a" horiz-adv-x="444" 
d="M330 0v73h-2q-29 -43 -61 -62t-76 -19q-32 0 -59 12t-47 32.5t-31.5 48.5t-11.5 60q0 49 21.5 80.5t55 50t75 25.5t82.5 7q11 0 21 -0.5t26 -1.5v32q0 28 -5 50.5t-17 38.5t-32.5 25t-51.5 9q-32 0 -67.5 -15t-59.5 -36l-9 63q38 23 71 33.5t68 10.5q96 0 136 -66
q11 -18 15.5 -36t6 -36.5t1 -37.5t-0.5 -39v-117q0 -45 1 -88t5 -97h-54zM323 259q-17 0 -27 0.5t-35 0.5q-75 1 -116 -29.5t-41 -85.5q0 -45 26.5 -72.5t68.5 -27.5q39 0 63 16.5t37.5 40.5t18.5 51.5t5 49.5v56v0z" />
    <glyph glyph-name="b" unicode="b" horiz-adv-x="463" 
d="M122 440h2q16 35 49 55.5t78 20.5q39 0 70 -18t53.5 -51.5t34.5 -81t12 -105.5q0 -42 -7.5 -88.5t-27 -86t-53.5 -65.5t-87 -26q-47 0 -77.5 22.5t-50.5 58.5h-2v-75h-56q0 37 2 73.5t2 73.5v603h58v-310zM358 248q0 214 -116 214q-44 0 -69 -22t-37.5 -55t-15.5 -71
t-3 -70q0 -30 5 -65t19 -64.5t38.5 -49t63.5 -19.5q38 0 60.5 21t34.5 52t16 66t4 63z" />
    <glyph glyph-name="c" unicode="c" horiz-adv-x="370" 
d="M344 433q-20 13 -43.5 19t-46.5 6q-73 0 -112.5 -50.5t-39.5 -143.5q0 -100 42.5 -156t117.5 -56q23 0 45 5.5t40 19.5l5 -65q-41 -19 -93 -19q-50 0 -90 18.5t-68.5 53t-44 83t-15.5 109.5q0 50 12.5 96.5t39 82.5t67 57.5t96.5 21.5q24 0 47.5 -4.5t43.5 -13.5z" />
    <glyph glyph-name="d" unicode="d" horiz-adv-x="463" 
d="M397 140q0 -35 1 -70t3 -70h-55v76h-2q-18 -38 -53 -60t-77 -22q-53 0 -86.5 25t-53 63.5t-26.5 84.5t-7 88q0 41 7 86.5t26 84t52 63.5t85 25q44 0 76.5 -20t49.5 -54h2v310h58v-610zM344 256q0 38 -5.5 75t-19.5 66t-38 47t-62 18t-61 -21t-35 -51.5t-16 -65.5t-4 -63
q0 -214 116 -214q25 0 47.5 11t40 35.5t27.5 64.5t10 98z" />
    <glyph glyph-name="e" unicode="e" horiz-adv-x="426" 
d="M102 237q0 -34 7.5 -68t25 -61.5t45 -45t66.5 -17.5q32 0 59.5 12.5t51.5 29.5l3 -65q-32 -14 -58 -22t-61 -8q-95 0 -147.5 66.5t-52.5 186.5q0 61 13 111.5t37 86t58 55t76 19.5q81 0 121 -67.5t40 -192.5v-20h-284zM325 291q0 82 -28 128t-77 46q-33 0 -54 -18
t-34 -44t-19.5 -56.5t-9.5 -55.5h222v0z" />
    <glyph glyph-name="f" unicode="f" horiz-adv-x="259" 
d="M242 455h-90v-455h-58v455h-79v53h79v66q0 26 0.5 45t2 33.5t4 25t6.5 19.5q26 63 109 63q12 0 21.5 -1t25.5 -5v-58q-17 6 -26 8t-20 2q-27 0 -40.5 -10.5t-19 -27t-5.5 -36.5v-39v-85h90v-53z" />
    <glyph glyph-name="g" unicode="g" horiz-adv-x="463" 
d="M403 508q-2 -26 -3.5 -56.5t-1.5 -59.5v-402q0 -47 -12 -85.5t-37 -66t-62 -43t-88 -15.5q-35 0 -68 8t-70 25l4 64q32 -20 68.5 -30.5t74.5 -10.5q39 0 65 14.5t41 38t21 54t6 62.5v66h-2q-31 -38 -60 -54.5t-67 -16.5q-82 0 -126.5 68.5t-44.5 194.5q0 121 44.5 186.5
t125.5 65.5q85 0 134 -78h2v71h56v0zM347 263q0 93 -35 146t-96 53q-57 0 -85.5 -50t-28.5 -147q0 -104 29 -157.5t86 -53.5q39 0 64.5 21.5t40 53t20 68t5.5 66.5z" />
    <glyph glyph-name="h" unicode="h" horiz-adv-x="463" 
d="M131 441h2q21 38 50 56.5t71 18.5q37 0 64.5 -12t45.5 -33t26.5 -49t8.5 -59v-363h-58v370q0 42 -27 67t-68 25q-26 0 -47 -10.5t-36 -30t-23.5 -46.5t-8.5 -59v-316h-58v750h58v-309z" />
    <glyph glyph-name="i" unicode="i" horiz-adv-x="204" 
d="M131 0h-58v508h58v-508zM138 624h-72v89h72v-89z" />
    <glyph glyph-name="j" unicode="j" horiz-adv-x="204" 
d="M131 -88q0 -26 -3.5 -50t-14 -42.5t-30 -30t-50.5 -11.5q-11 0 -20 1t-23 6l1 54q10 -4 15 -4.5t14 -0.5q29 0 41.5 16t12.5 52v606h57v-596zM138 624h-72v89h72v-89z" />
    <glyph glyph-name="k" unicode="k" horiz-adv-x="426" 
d="M128 305l190 203h76l-215 -224l237 -284h-78l-210 261v-261h-58v750h58v-445z" />
    <glyph glyph-name="l" unicode="l" horiz-adv-x="204" 
d="M131 0h-58v750h58v-750z" />
    <glyph glyph-name="m" unicode="m" horiz-adv-x="686" 
d="M119 435h2q17 40 49.5 61t77.5 21q82 0 114 -82q21 38 50.5 60t75.5 22q38 0 64 -14t41.5 -36.5t22 -52t6.5 -60.5v-354h-58v354q0 54 -22 82t-64 28q-48 0 -74.5 -36t-26.5 -101v-327h-58v355q0 52 -20.5 79.5t-60.5 27.5q-29 0 -49.5 -12t-34.5 -31t-20.5 -43t-6.5 -49
v-327h-58v380q0 41 -1.5 70.5t-3.5 57.5h55v-73z" />
    <glyph glyph-name="n" unicode="n" horiz-adv-x="463" 
d="M121 433h2q20 41 54 61.5t78 20.5q40 0 67.5 -13.5t44 -36.5t23.5 -54t7 -65v-346h-58v348q0 22 -4.5 43t-15 36.5t-29 25t-45.5 9.5q-52 0 -84.5 -40t-32.5 -106v-316h-57v350q0 13 -0.5 32t-1 40l-1 43t-1.5 43h54v-75z" />
    <glyph glyph-name="o" unicode="o" horiz-adv-x="464" 
d="M423 257q0 -47 -9 -94t-30.5 -85t-58.5 -62t-93 -24t-92.5 24t-58.5 62t-31 85t-9 93q0 125 50 193t141 68t141 -68t50 -192zM361 250q0 215 -129 215t-129 -215q0 -102 33 -153t96 -51t96 51t33 153z" />
    <glyph glyph-name="p" unicode="p" horiz-adv-x="463" 
d="M114 434h2q22 38 54.5 60t78.5 22q82 0 127 -68.5t45 -193.5q0 -121 -44.5 -190t-123.5 -69q-44 0 -77.5 21t-52.5 54h-2v-286h-57v631q0 23 -1 48t-3 45h54v-74zM357 250q0 29 -3 66t-14.5 69.5t-34.5 55t-63 22.5q-37 0 -61 -19t-38.5 -47.5t-20 -62t-5.5 -62.5
q0 -30 4 -69t17 -73.5t37.5 -58.5t65.5 -24q40 0 63 20.5t35 51.5t15 66.5t3 64.5z" />
    <glyph glyph-name="q" unicode="q" horiz-adv-x="463" 
d="M402 508q-2 -26 -3 -53t-1 -53v-618h-57v285h-2q-22 -35 -54 -54.5t-76 -19.5q-79 0 -123.5 69t-44.5 191q0 125 45 193t127 68q44 0 79.5 -22.5t55.5 -60.5h2v75h52v0zM345 264q0 30 -5 65t-18.5 64.5t-38 49.5t-63.5 20q-40 0 -63 -22t-34.5 -54.5t-14.5 -69t-3 -65.5
t3 -65t15 -67t35 -52t63 -21t64.5 23t38 56t17.5 70.5t4 67.5z" />
    <glyph glyph-name="r" unicode="r" horiz-adv-x="278" 
d="M120 423h2q20 42 49.5 68t79.5 26h10v-64q-5 1 -13 1q-59 0 -90.5 -36t-31.5 -103v-315h-58v361q0 37 -2 74l-4 73h54z" />
    <glyph glyph-name="s" unicode="s" horiz-adv-x="352" 
d="M280 441q-45 23 -84 23q-41 0 -65.5 -22.5t-24.5 -59.5q0 -21 8.5 -35.5t22 -25.5t29.5 -19.5l32 -16.5q24 -12 46 -25t38 -30t25.5 -39.5t9.5 -53.5q0 -32 -11.5 -58.5t-32 -46t-48.5 -30t-62 -10.5q-66 0 -126 24l8 65q25 -14 57 -24.5t61 -10.5q42 0 67 25t25 65
q0 22 -8 36.5t-20.5 25.5t-29 19l-32.5 16q-24 12 -46 24.5t-38.5 28t-26 37t-9.5 53.5q0 65 41 103t109 38q23 0 44.5 -3.5t48.5 -11.5z" />
    <glyph glyph-name="t" unicode="t" horiz-adv-x="278" 
d="M256 455h-104v-330q0 -42 12.5 -59t43.5 -17q12 0 25 2.5t22 6.5v-55q-15 -5 -31 -7t-32 -2q-52 0 -75 32.5t-23 81.5v347h-76v53h76v104l58 17v-121h104v-53z" />
    <glyph glyph-name="u" unicode="u" horiz-adv-x="463" 
d="M389 146q0 -13 0.5 -32t1.5 -39l2 -40t2 -35h-57l-1 74h-2q-18 -37 -53 -59t-77 -22q-41 0 -67.5 15t-42.5 39.5t-22 57t-6 67.5v336h58v-345q0 -57 23.5 -87.5t67.5 -30.5q28 0 49.5 11.5t36 31t22 45.5t7.5 55v320h58v-362z" />
    <glyph glyph-name="v" unicode="v" horiz-adv-x="390" 
d="M229 0h-69l-149 508h62l121 -443h2l123 443h60z" />
    <glyph glyph-name="w" unicode="w" horiz-adv-x="648" 
d="M504 0h-67l-116 446h-2l-108 -446h-63l-137 508h61l108 -449h2l108 449h67l114 -449h2l106 449h58z" />
    <glyph glyph-name="x" unicode="x" horiz-adv-x="389" 
d="M226 270l151 -270h-70l-118 223l-114 -223h-65l144 274l-132 234h69l102 -189l104 189h68z" />
    <glyph glyph-name="y" unicode="y" horiz-adv-x="370" 
d="M194 -98q-6 -23 -13 -45t-19 -39.5t-31.5 -28.5t-51.5 -11q-20 0 -41 7l3 57q22 -11 38 -11q15 0 25.5 9.5t18 23t12 29.5t7.5 28l18 66l-151 521h64l113 -431h2l114 431h59z" />
    <glyph glyph-name="z" unicode="z" horiz-adv-x="370" 
d="M337 448l-245 -395h249v-53h-310v59l245 396h-237v53h298v-60z" />
    <glyph glyph-name="braceleft" unicode="{" horiz-adv-x="259" 
d="M299 -138q-56 2 -91.5 17t-55.5 41.5t-28 62.5t-8 81v84q0 37 -6 63t-21.5 43.5t-42.5 27.5t-69 15v34q46 5 74 16.5t42 29.5t18.5 43.5t4.5 59.5v75q0 44 7 81.5t26.5 65t55.5 44.5t94 20v-33q-42 -3 -68.5 -16t-41 -34t-19.5 -50.5t-5 -65.5v-54q0 -36 -2.5 -69
t-14 -59.5t-36 -45t-69.5 -25.5q45 -8 70 -26t36.5 -44t13.5 -58t2 -69v-56q0 -41 6 -70.5t21 -49.5t41 -31t66 -15v-33v0z" />
    <glyph glyph-name="bar" unicode="|" horiz-adv-x="222" 
d="M86 -250v1000h51v-1000h-51z" />
    <glyph glyph-name="braceright" unicode="}" horiz-adv-x="259" 
d="M282 297q-42 -5 -69 -15t-42.5 -27.5t-21.5 -43.5t-6 -63v-84q0 -45 -8 -81t-28 -62.5t-56 -41.5t-91 -17v33q40 4 66 15t41 31t21 49.5t6 70.5v56q0 37 2 69t13.5 58t36.5 44t70 26q-45 7 -69.5 25.5t-36 45t-14 59.5t-2.5 69v54q0 36 -5 65.5t-19.5 50.5t-41 34
t-68.5 16v33q58 -3 94 -20t55.5 -44.5t26.5 -65t7 -81.5v-75q0 -34 4.5 -59.5t18.5 -43.5t41.5 -29.5t74.5 -16.5v-34v0z" />
    <glyph glyph-name="asciitilde" unicode="~" horiz-adv-x="600" 
d="M557 308q-3 -25 -11.5 -48t-23 -40t-35 -27.5t-47.5 -10.5q-34 0 -71 11.5t-69 22.5l-33 12t-39 13t-39 10.5t-32 4.5q-35 0 -57 -25.5t-27 -57.5h-36q4 24 12.5 47t22 41t34 29t49.5 11q42 0 86.5 -16l83.5 -29l26.5 -9t29.5 -9.5t30 -8t27 -3.5q39 0 57.5 24t27.5 58
h34v0z" />
    <glyph glyph-name="uni00A0" unicode="&#xa0;" horiz-adv-x="240" 
 />
    <glyph glyph-name="sterling" unicode="&#xa3;" 
d="M63 58h71v287h-71v54h71v64q0 38 3.5 63.5t8.5 44.5q17 61 65 97.5t114 36.5q29 0 58 -6t55 -20l-10 -63q-46 31 -102 31q-62 0 -96 -44t-34 -122v-82h160v-54h-160v-287h232v-58h-365v58z" />
    <glyph glyph-name="currency" unicode="&#xa4;" 
d="M435 129l-64 64q-29 -21 -62 -34t-69 -13q-37 0 -69.5 13t-61.5 34l-63 -63l-32 31l63 64q-46 56 -46 131q0 74 46 131l-64 64l32 31l63 -63q33 22 62 34t70 12q38 0 69.5 -11.5t61.5 -34.5l64 63l32 -32l-63 -63q21 -30 33 -61.5t12 -69.5t-11.5 -70t-34.5 -61l64 -64z
M401 356q0 33 -13 62.5t-34.5 51t-51 34t-62.5 12.5t-62 -12.5t-51 -34.5t-34.5 -51t-12.5 -62t12.5 -62.5t34 -51.5t50.5 -34.5t63 -12.5q33 0 62.5 12.5t51 34.5t34.5 51.5t13 62.5z" />
    <glyph glyph-name="section" unicode="&#xa7;" 
d="M90 -28q67 -44 129 -44q48 0 79.5 27.5t31.5 70.5q0 22 -8.5 38.5t-22 29t-30.5 22.5l-34 20l-50 29t-45.5 34t-33 43.5t-12.5 57.5q0 43 19.5 76.5t64.5 68.5q-32 20 -49.5 46t-17.5 67q0 32 12 59t33 46.5t50 30.5t64 11q27 0 55.5 -6.5t60.5 -20.5l-10 -62l-51 21.5
t-53 9.5q-45 0 -72 -22t-27 -60q0 -16 4 -28.5t16 -25.5t33.5 -29t56.5 -38l45.5 -29.5t37.5 -32t25.5 -40t9.5 -54.5q0 -47 -20 -79t-54 -61q36 -31 50.5 -58t14.5 -64q0 -34 -13 -62.5t-36 -49.5t-55 -32.5t-70 -11.5q-40 0 -72 10.5t-67 25.5zM292 174q20 25 35.5 48
t15.5 58q0 26 -12.5 47t-32 37.5t-42 29.5l-42.5 24q-35 -29 -48.5 -52t-13.5 -54q0 -27 14.5 -48t35.5 -37.5t45.5 -29.5z" />
    <glyph glyph-name="copyright" unicode="&#xa9;" horiz-adv-x="800" 
d="M757 349q0 -74 -28 -139t-76.5 -113.5t-113.5 -76.5t-139 -28q-75 0 -140 28.5t-113 77t-76 113.5t-28 138q0 74 28 139t77 113t113.5 76t138.5 28t139 -28.5t113.5 -77t76.5 -113t28 -137.5zM723 349q0 66 -25 125t-69 102.5t-103 69t-126 25.5q-68 0 -126.5 -25.5
t-102.5 -69t-69 -102.5t-25 -125q0 -68 25.5 -127t69.5 -102.5t103 -69t125 -25.5q68 0 127 25.5t102.5 70t68.5 103.5t25 125zM577 272q-11 -64 -57.5 -99t-108.5 -35q-47 0 -83.5 17t-62 46.5t-39 68t-13.5 82.5q0 42 13.5 80.5t38 68t59.5 47t79 17.5q31 0 60.5 -10.5
t53.5 -29.5t39 -45.5t18 -58.5h-42q-7 49 -42.5 77t-83.5 28q-36 0 -63 -15t-45 -39t-27 -55t-9 -63q0 -34 10 -66t29 -57t47 -40t64 -15q47 0 79.5 25.5t43.5 70.5h42v0z" />
    <glyph glyph-name="guillemotleft" unicode="&#xab;" 
d="M340 54l-115 210l115 202h54l-107 -202l107 -210h-54zM201 54l-115 210l115 202h54l-107 -202l107 -210h-54z" />
    <glyph glyph-name="logicalnot" unicode="&#xac;" horiz-adv-x="600" 
d="M500 127v182h-449v46h496v-228h-47z" />
    <glyph glyph-name="registered" unicode="&#xae;" horiz-adv-x="400" 
d="M382 522q0 -38 -14.5 -71.5t-39.5 -58.5t-58.5 -39.5t-70.5 -14.5q-38 0 -71.5 14.5t-58 40t-38.5 58.5t-14 71t14.5 71.5t39 58t57.5 39t71 14.5t71.5 -14.5t58 -39.5t39 -58.5t14.5 -70.5zM356 522q0 32 -12.5 60.5t-34 50t-50 34t-60.5 12.5t-60.5 -12.5t-49.5 -34.5
t-33.5 -50.5t-12.5 -59.5q0 -32 12.5 -60.5t33.5 -50t49.5 -34.5t60.5 -13t60.5 12.5t50 34t34 50.5t12.5 61zM254 430q-5 10 -5 20q0 19 -3.5 30t-10.5 16.5t-19 7t-28 1.5h-29v-75h-30v186h69q14 0 29 -2t27 -8t20 -17t8 -28q0 -32 -34 -44q20 -11 25.5 -24.5t5.5 -34.5
q0 -8 0.5 -14.5t5.5 -13.5h-31zM252 561q0 12 -6 18t-14.5 9t-18.5 3h-18h-36v-62h38q7 0 17 1t18 4.5t14 10t6 16.5z" />
    <glyph glyph-name="degree" unicode="&#xb0;" horiz-adv-x="400" 
d="M347 558q0 -30 -11.5 -57t-32 -47t-47 -31.5t-56.5 -11.5t-57 11.5t-47 32t-31.5 47t-11.5 56.5t11.5 56.5t31.5 47t47 32t57 11.5q31 0 57.5 -11.5t46.5 -32t31.5 -47t11.5 -56.5zM302 558q0 21 -8 39.5t-22 32.5t-32.5 22t-39.5 8t-39.5 -8t-32.5 -22t-22 -32.5
t-8 -39.5t8 -39.5t22 -32.5t32.5 -22t39.5 -8t40 8t32.5 22t21.5 32.5t8 39.5z" />
    <glyph glyph-name="plusminus" unicode="&#xb1;" horiz-adv-x="600" 
d="M325 264v-180h-51v180h-222v45h222v180h51v-180h222v-45h-222zM52 -7v45h495v-45h-495z" />
    <glyph glyph-name="mu" unicode="&#xb5;" horiz-adv-x="463" 
d="M395 158q0 -42 0.5 -61.5t1 -31.5l1 -24.5t1.5 -40.5h-54q-2 19 -2.5 33l-1.5 42h-2q-15 -39 -49.5 -60.5t-81.5 -21.5q-61 0 -80 31h-2v-240h-58v724h58v-342q0 -62 22.5 -90.5t70.5 -28.5q52 0 85 40.5t33 105.5v315h58v-350z" />
    <glyph glyph-name="paragraph" unicode="&#xb6;" 
d="M416 656v-828h-50v828h-89v-828h-50v422q-42 0 -80 16.5t-66 44.5t-44.5 65.5t-16.5 79.5q0 61 18.5 106.5t52 75.5t80 45t102.5 15h197v-42h-54z" />
    <glyph glyph-name="periodcentered" unicode="&#xb7;" horiz-adv-x="240" 
d="M82 354h78v-96h-78v96z" />
    <glyph glyph-name="guillemotright" unicode="&#xbb;" 
d="M279 54h-54l107 202l-107 210h54l115 -210zM140 54h-54l107 202l-107 210h54l115 -210z" />
    <glyph glyph-name="divide" unicode="&#xf7;" horiz-adv-x="600" 
d="M52 218v45h495v-45h-495zM261 382v80h77v-80h-77zM261 19v80h77v-80h-77z" />
    <glyph glyph-name="florin" unicode="&#x192;" 
d="M135 412h98l11 70q9 60 22 102.5t30.5 69.5t41 39t53.5 12q16 0 28.5 -2.5t28.5 -10.5l-9 -57q-13 9 -23 12.5t-22 3.5q-21 0 -34.5 -12t-23 -35t-16.5 -55.5t-14 -72.5l-11 -64h90v-50h-98l-56 -355q-36 -229 -152 -229q-27 0 -47 10l8 60q8 -4 18 -6t18 -2
q21 0 36 12.5t26 36.5t19 59t15 80l53 334h-90v50z" />
    <glyph glyph-name="endash" unicode="&#x2013;" horiz-adv-x="500" 
d="M0 306h500v-54h-500v54z" />
    <glyph glyph-name="emdash" unicode="&#x2014;" horiz-adv-x="1000" 
d="M0 306h1000v-54h-1000v54z" />
    <glyph glyph-name="quoteleft" unicode="&#x2018;" horiz-adv-x="240" 
d="M132 530h-74l65 220h58z" />
    <glyph glyph-name="quoteright" unicode="&#x2019;" horiz-adv-x="240" 
d="M116 530h-58l49 220h74z" />
    <glyph glyph-name="quotesinglbase" unicode="&#x201a;" horiz-adv-x="240" 
d="M116 -130h-58l49 220h74z" />
    <glyph glyph-name="quotedblleft" unicode="&#x201c;" 
d="M324 530h-74l65 220h58zM180 530h-74l65 220h58z" />
    <glyph glyph-name="quotedblright" unicode="&#x201d;" 
d="M308 530h-58l49 220h74zM164 530h-58l49 220h74z" />
    <glyph glyph-name="quotedblbase" unicode="&#x201e;" 
d="M308 -130h-58l49 220h74zM164 -130h-58l49 220h74z" />
    <glyph glyph-name="dagger" unicode="&#x2020;" 
d="M213 467h-140v50h140v181h54v-181h140v-50h-140v-467h-54v467z" />
    <glyph glyph-name="daggerdbl" unicode="&#x2021;" 
d="M213 698h54v-174h140v-50h-140v-250h140v-50h-140v-174h-54v174h-140v50h140v250h-140v50h140v174z" />
    <glyph glyph-name="bullet" unicode="&#x2022;" horiz-adv-x="500" 
d="M428 356q0 -38 -14 -70.5t-38 -56.5t-56.5 -37.5t-69.5 -13.5t-69.5 14t-56.5 38.5t-38 57t-14 68.5q0 37 14.5 69.5t38.5 56.5t56.5 38t68.5 14q37 0 69.5 -14t56.5 -38t38 -56.5t14 -69.5z" />
    <glyph glyph-name="ellipsis" unicode="&#x2026;" horiz-adv-x="1000" 
d="M794 0v96h78v-96h-78zM461 0v96h78v-96h-78zM128 0v96h78v-96h-78z" />
    <glyph glyph-name="perthousand" unicode="&#x2030;" horiz-adv-x="870" 
d="M449 -7q-112 0 -112 185t112 185q56 0 84 -47t28 -138q0 -185 -112 -185zM721 -7q-112 0 -112 185t112 185q56 0 84 -47t28 -138q0 -185 -112 -185zM149 335q-112 0 -112 185t112 185q56 0 84 -47t28 -138q0 -185 -112 -185zM405 730h42l-256 -763h-42zM449 43
q24 0 36.5 17t17 40.5t4.5 48.5v40q0 66 -13.5 95t-44.5 29q-24 0 -36.5 -17t-17 -41t-4.5 -49v-40q0 -66 13.5 -94.5t44.5 -28.5zM721 43q24 0 36.5 17t17 40.5t4.5 48.5v40q0 66 -13.5 95t-44.5 29q-24 0 -36.5 -17t-17 -41t-4.5 -49v-40q0 -66 13.5 -94.5t44.5 -28.5z
M149 385q24 0 36.5 17t17 40.5t4.5 48.5v40q0 66 -13.5 95t-44.5 29q-24 0 -36.5 -17t-17 -41t-4.5 -49v-40q0 -66 13.5 -94.5t44.5 -28.5z" />
    <glyph glyph-name="guilsinglleft" unicode="&#x2039;" horiz-adv-x="259" 
d="M160 466h54l-107 -202l107 -210h-54l-115 210z" />
    <glyph glyph-name="guilsinglright" unicode="&#x203a;" horiz-adv-x="259" 
d="M99 54h-54l107 202l-107 210h54l115 -210z" />
    <glyph glyph-name="trademark" unicode="&#x2122;" horiz-adv-x="1000" 
d="M793 342v316l-121 -316h-34l-121 316v-316h-35v356h59l115 -298l115 298h57v-356h-35zM289 663v-321h-39v321h-125v35h290v-35h-126z" />
    <glyph glyph-name="Delta" unicode="&#x2206;" horiz-adv-x="667" 
d="M18 0l285 698h58l288 -698h-631zM331 648l-241 -600h484z" />
    <glyph glyph-name="radical" unicode="&#x221a;" 
d="M277 -250h-51l-170 350l-44 -21l-19 37l86 42l167 -349l196 941h46z" />
    <glyph glyph-name="infinity" unicode="&#x221e;" horiz-adv-x="722" 
d="M681 249q0 -29 -9 -54.5t-26.5 -44.5t-41.5 -29.5t-54 -10.5q-28 0 -54 10t-49 25t-44.5 34l-40.5 37l-39.5 -33.5t-47.5 -34t-51 -26.5t-51 -11q-59 0 -95.5 38t-36.5 97q0 28 9 53.5t26 44.5t41 30t53 11q28 0 54.5 -10.5t50.5 -27t45.5 -36l41.5 -37.5l33.5 31
t44.5 37t51.5 31t56.5 13q30 0 54.5 -10.5t42 -29.5t27 -44t9.5 -53zM636 246q0 41 -22.5 67.5t-64.5 26.5q-20 0 -41.5 -9.5t-42.5 -24t-39.5 -31t-32.5 -30.5l35 -31t37.5 -28.5t41 -21t45.5 -8.5q40 0 62 26t22 64zM330 246l-35.5 28t-40.5 31t-42.5 25t-41.5 10
q-39 0 -61 -29t-22 -65q0 -41 23 -65.5t63 -24.5q21 0 42.5 8.5t42.5 22t39.5 29.5t32.5 30z" />
    <glyph glyph-name="approxequal" unicode="&#x2248;" horiz-adv-x="600" 
d="M560 389q-3 -25 -11.5 -48t-23 -40t-35 -27.5t-47.5 -10.5q-34 0 -71 11.5t-69 22.5l-33 12t-39 13t-39 10.5t-32 4.5q-35 0 -57 -25.5t-27 -57.5h-36q4 24 12.5 47t22 41t34 29t49.5 11q42 0 86.5 -16l83.5 -29l26.5 -9t29.5 -9.5t30 -8t27 -3.5q39 0 57.5 24t27.5 58
h34v0zM560 227q-3 -25 -11.5 -48t-23 -40t-35 -27.5t-47.5 -10.5q-34 0 -71 11.5t-69 22.5l-33 12t-39 13t-39 10.5t-32 4.5q-35 0 -57 -25.5t-27 -57.5h-36q4 24 12.5 47t22 41t34 29t49.5 11q42 0 86.5 -16l83.5 -29l26.5 -9t29.5 -9.5t30 -8t27 -3.5q39 0 57.5 24
t27.5 58h34v0z" />
    <glyph glyph-name="notequal" unicode="&#x2260;" horiz-adv-x="600" 
d="M261 127l-76 -141l-39 21l65 120h-159v45h183l73 137h-256v46h281l77 144l39 -21l-66 -123h165v-46h-189l-74 -137h263v-45h-287z" />
    <glyph glyph-name="lessequal" unicode="&#x2264;" horiz-adv-x="600" 
d="M52 260v51l495 194v-51l-433 -169l433 -168v-51zM52 -23v45h495v-45h-495z" />
    <glyph glyph-name="greaterequal" unicode="&#x2265;" horiz-adv-x="600" 
d="M52 66v51l433 168l-433 169v51l495 -194v-51zM52 -23v45h495v-45h-495z" />
    <glyph glyph-name="uniF8FF" unicode="&#xf8ff;" horiz-adv-x="512" 
d="M222 117v67h56v-67h-56zM225 234l-2 17q0 56 13 81q7 13 18 27.5t28 31.5q16 15 26 26.5t15 21t7 18t2 17.5q0 36 -22.5 60.5t-53.5 24.5t-53.5 -22t-28.5 -73l-50 8q7 72 44 104.5t91 32.5t89 -35.5t35 -95.5q0 -32 -12.5 -58.5t-50.5 -61.5q-37 -33 -43 -52
q-6 -20 -6 -72h-46zM462 50v617h-412v-617h412zM512 718v-718h-512v718h512z" />
    <glyph glyph-name="brokenbar" unicode="&#xa6;" horiz-adv-x="222" 
d="M86 410v250h50v-250h-50zM86 -89v249h50v-249h-50z" />
    <glyph glyph-name="uni00AD" unicode="&#xad;" horiz-adv-x="296" 
d="M46 308h204v-58h-204v58z" />
    <glyph glyph-name="uni0394" unicode="&#x394;" horiz-adv-x="667" 
d="M18 0l285 698h58l288 -698h-631zM331 648l-241 -600h484z" />
    <glyph glyph-name="afii10023" unicode="&#x401;" horiz-adv-x="444" 
d="M80 0v698h296v-58h-234v-248h223v-58h-223v-276h245v-58h-307zM204 759h-68v89h68v-89zM344 759h-68v89h68v-89z" />
    <glyph glyph-name="afii10051" unicode="&#x402;" horiz-adv-x="594" 
d="M547 195q0 -47 -10 -94.5t-33 -86.5t-61 -63.5t-94 -24.5q-11 0 -23 2.5t-20 4.5l1 57q10 -4 19.5 -4.5t18.5 -0.5q63 0 100 52t37 154q0 107 -33 157.5t-97 50.5q-27 0 -51 -11t-42 -30.5t-28 -47t-10 -59.5v-251h-62v640h-146v58h390v-58h-182v-262h2q22 36 57.5 56.5
t80.5 20.5q91 0 138.5 -68t47.5 -192z" />
    <glyph glyph-name="afii10052" unicode="&#x403;" horiz-adv-x="393" 
d="M80 0v698h300v-58h-238v-640h-62zM312 869l-96 -142h-50l76 142h70z" />
    <glyph glyph-name="afii10053" unicode="&#x404;" horiz-adv-x="537" 
d="M472 609q-10 9 -25.5 15.5t-32.5 11t-33.5 6.5t-29.5 2q-56 0 -96.5 -21.5t-67.5 -56.5t-42.5 -80.5t-19.5 -93.5h264v-58h-266q2 -63 19.5 -115t47.5 -88.5t71.5 -56.5t92.5 -20q32 0 61.5 8t53.5 24l3 -69q-48 -23 -118 -23q-67 0 -122 25t-94 71.5t-60 111.5t-21 145
q0 82 21 148t59.5 112t93.5 71t123 25q61 0 120 -23z" />
    <glyph glyph-name="afii10054" unicode="&#x405;" horiz-adv-x="426" 
d="M340 610q-23 15 -53 24t-56 9q-52 0 -83.5 -30t-31.5 -79q0 -22 6.5 -39t18 -30.5t26 -25l30.5 -23.5l69 -50q26 -19 46.5 -38t34.5 -41t21 -48.5t7 -59.5q0 -42 -14 -76.5t-39 -58.5t-60.5 -37.5t-78.5 -13.5q-34 0 -67.5 8.5t-59.5 24.5l4 73q20 -20 54 -33t69 -13
q57 0 91.5 35t34.5 92q0 26 -7 45.5t-19 35t-28.5 29t-35.5 27.5l-32 23l-53.5 38.5t-43 40t-29 48.5t-10.5 65q0 80 49 125t135 45q55 0 107 -22z" />
    <glyph glyph-name="afii10055" unicode="&#x406;" horiz-adv-x="222" 
d="M142 698v-698h-62v698h62z" />
    <glyph glyph-name="afii10056" unicode="&#x407;" horiz-adv-x="222" 
d="M142 698v-698h-62v698h62zM75 759h-68v89h68v-89zM215 759h-68v89h68v-89z" />
    <glyph glyph-name="afii10057" unicode="&#x408;" horiz-adv-x="296" 
d="M217 698v-529q0 -176 -145 -176q-28 0 -50 7v67q25 -12 52 -12q29 0 45.5 13.5t24.5 34.5t9.5 45.5t1.5 46.5v503h62z" />
    <glyph glyph-name="afii10058" unicode="&#x409;" horiz-adv-x="784" 
d="M208 640v-250q0 -74 -4.5 -145t-19.5 -126.5t-44 -89.5t-79 -34q-13 0 -29.5 2.5t-28.5 9.5l4 56q11 -7 23.5 -9t25.5 -2q30 0 48 27t27.5 76.5t12.5 118t3 152.5v272h309v-301h73q43 0 82 -10t68.5 -33.5t47 -61.5t17.5 -94q0 -95 -54 -146.5t-158 -51.5h-138v640h-186z
M680 208q0 39 -12.5 64.5t-33.5 40.5t-49 20.5t-59 5.5h-70v-281h62q76 0 119 37.5t43 112.5z" />
    <glyph glyph-name="afii10059" unicode="&#x40a;" horiz-adv-x="784" 
d="M744 198q0 -95 -54 -146.5t-158 -51.5h-143v339h-247v-339h-62v698h62v-301h247v301h62v-301h78q43 0 82 -10t68.5 -33.5t47 -61.5t17.5 -94zM680 208q0 39 -12.5 64.5t-33.5 40.5t-49 20.5t-59 5.5h-75v-281h67q76 0 119 37.5t43 112.5z" />
    <glyph glyph-name="afii10060" unicode="&#x40b;" horiz-adv-x="594" 
d="M462 0v300q0 42 -29.5 70t-80.5 28q-28 0 -52 -10.5t-41.5 -30t-27.5 -46.5t-10 -59v-252l-62 -3v642l-146 1v58h390v-58h-182v-260h2q23 38 56.5 56.5t81.5 18.5q42 0 73 -13t51 -35t29.5 -51t9.5 -60v-296h-62z" />
    <glyph glyph-name="afii10061" unicode="&#x40c;" horiz-adv-x="500" 
d="M352 869l-96 -142h-50l76 142h70zM142 389l255 309h75l-279 -331l302 -367h-80l-273 344v-344h-62v698h62v-309z" />
    <glyph glyph-name="afii10062" unicode="&#x40e;" horiz-adv-x="500" 
d="M381 819q-5 -8 -15.5 -21t-26.5 -25.5t-38.5 -21.5t-50.5 -9t-50 9t-38 21.5t-26.5 25.5t-15.5 21l35 35q4 -6 12 -16.5t20 -20t28 -16.5t35 -7t35 7t28 16.5t20.5 20t12.5 16.5l35 -35v0zM80 698l175 -455l168 455h63l-221 -582q-8 -22 -18 -44t-25.5 -40t-37.5 -29
t-54 -11q-20 0 -41 7l3 57q22 -11 38 -11q15 0 28.5 9.5t24 23.5t18 29.5t12.5 27.5l13 33l-212 530h66z" />
    <glyph glyph-name="afii10145" unicode="&#x40f;" horiz-adv-x="556" 
d="M309 0v-190h-62v190h-167v698h62v-640h272v640h62v-698h-167z" />
    <glyph glyph-name="afii10017" unicode="&#x410;" horiz-adv-x="556" 
d="M478 0l-63 192h-277l-64 -192h-61l233 698h67l230 -698h-65zM397 250l-119 383l-122 -383h241z" />
    <glyph glyph-name="afii10018" unicode="&#x411;" horiz-adv-x="500" 
d="M443 206q0 -99 -56.5 -152.5t-163.5 -53.5h-143v698h315v-58h-253v-227h78q44 0 84.5 -10.5t71 -34.5t49 -64t18.5 -98zM379 208q0 42 -12 70t-32.5 45t-48.5 24.5t-61 7.5h-83v-297h75q78 0 120 35.5t42 114.5z" />
    <glyph glyph-name="afii10019" unicode="&#x412;" horiz-adv-x="500" 
d="M227 698q42 0 77 -9.5t61 -30.5t40.5 -54t14.5 -80q0 -61 -28.5 -98.5t-81.5 -59.5q62 -14 93.5 -61t31.5 -108q0 -59 -19.5 -97.5t-53 -60.5t-77.5 -30.5t-93 -8.5h-112v698h147zM142 391h84q59 0 94 35t35 95q0 33 -11 56t-30.5 37.5t-45 21t-54.5 6.5h-72v-251z
M226 58q62 0 102.5 32.5t40.5 100.5q0 66 -35.5 103.5t-97.5 37.5h-94v-274h84z" />
    <glyph glyph-name="afii10020" unicode="&#x413;" horiz-adv-x="393" 
d="M80 0v698h300v-58h-238v-640h-62z" />
    <glyph glyph-name="afii10021" unicode="&#x414;" horiz-adv-x="556" 
d="M477 -190v190h-406v-190h-62v248h58q49 81 69 191.5t20 239.5v209h310v-640h73v-248h-62zM404 640h-186v-188q0 -116 -21 -217t-61 -177h268v582z" />
    <glyph glyph-name="afii10022" unicode="&#x415;" horiz-adv-x="444" 
d="M376 698v-58h-234v-248h223v-58h-223v-276h245v-58h-307v698h296z" />
    <glyph glyph-name="afii10024" unicode="&#x416;" horiz-adv-x="738" 
d="M84 0h-79l273 367l-250 331h73l237 -320v320h62v-320l236 320h74l-250 -331l273 -367h-78l-255 356v-356h-62v356z" />
    <glyph glyph-name="afii10025" unicode="&#x417;" horiz-adv-x="444" 
d="M374 531q0 -63 -29 -104.5t-84 -58.5q62 -20 93 -62.5t31 -110.5q0 -95 -57 -148t-162 -53q-34 0 -67.5 8.5t-59.5 24.5l4 73q20 -20 54 -33t69 -13q70 0 111.5 40.5t41.5 106.5q0 37 -12 62.5t-33.5 41t-50.5 22.5t-62 7h-34v58h35q30 0 56.5 8.5t47 25.5t32 42.5
t11.5 58.5q0 56 -32 87t-87 31q-13 0 -29.5 -2.5t-33 -6.5t-32 -10.5t-26.5 -13.5l-2 68q20 8 55 16t74 8q84 0 131 -46t47 -127z" />
    <glyph glyph-name="afii10026" unicode="&#x418;" horiz-adv-x="567" 
d="M80 0v698h62v-496v-22v-27.5t-0.5 -28t-1.5 -22.5h3l271 596h73v-698h-62v501v22v26.5t0.5 26t1.5 20.5h-3l-271 -596h-73z" />
    <glyph glyph-name="afii10027" unicode="&#x419;" horiz-adv-x="567" 
d="M414 819q-5 -8 -15.5 -21t-26.5 -25.5t-38.5 -21.5t-50.5 -9t-50 9t-38 21.5t-26.5 25.5t-15.5 21l35 35q4 -6 12 -16.5t20 -20t28 -16.5t35 -7t35 7t28 16.5t20.5 20t12.5 16.5l35 -35v0zM80 0v698h62v-496v-22v-27.5t-0.5 -28t-1.5 -22.5h3l271 596h73v-698h-62v501v22
v26.5t0.5 26t1.5 20.5h-3l-271 -596h-73z" />
    <glyph glyph-name="afii10028" unicode="&#x41a;" horiz-adv-x="500" 
d="M142 389l255 309h75l-279 -331l302 -367h-80l-273 344v-344h-62v698h62v-309z" />
    <glyph glyph-name="afii10029" unicode="&#x41b;" horiz-adv-x="556" 
d="M472 0h-62v640h-202v-250q0 -74 -4.5 -145t-19.5 -126.5t-44 -89.5t-79 -34q-13 0 -29.5 2.5t-28.5 9.5l4 56q11 -7 23.5 -9t25.5 -2q30 0 48 27t27.5 76.5t12.5 118t3 152.5v272h325v-698z" />
    <glyph glyph-name="afii10030" unicode="&#x41c;" horiz-adv-x="740" 
d="M175 698l198 -609l206 609h95v-698h-59v646l-220 -646h-49l-207 646v-646h-59v698h95z" />
    <glyph glyph-name="afii10031" unicode="&#x41d;" horiz-adv-x="556" 
d="M142 0h-62v698h62v-306h272v306h62v-698h-62v334h-272v-334z" />
    <glyph glyph-name="afii10032" unicode="&#x41e;" horiz-adv-x="594" 
d="M296 705q76 0 124 -34t75 -87t37 -117t10 -125q0 -83 -16.5 -148t-48 -110t-77 -68.5t-103.5 -23.5q-75 0 -122.5 33.5t-74.5 86t-37.5 116.5t-10.5 124q0 59 11 121.5t38.5 114t74.5 84.5t120 33zM297 647q-39 0 -67.5 -14t-48.5 -37.5t-32.5 -54t-19.5 -64t-9.5 -67
t-2.5 -63.5q0 -29 3 -62.5t10 -66.5t20 -63.5t33 -53.5t48 -37t66 -14q58 0 93 30.5t54.5 76.5t26 98.5t6.5 96.5t-6.5 95.5t-26 96t-55 74t-92.5 29.5z" />
    <glyph glyph-name="afii10033" unicode="&#x41f;" horiz-adv-x="556" 
d="M142 0h-62v698h396v-698h-62v640h-272v-640z" />
    <glyph glyph-name="afii10034" unicode="&#x420;" horiz-adv-x="463" 
d="M213 698q103 0 156.5 -51t53.5 -145q0 -56 -17 -93.5t-46.5 -60.5t-68 -33t-81.5 -10h-68v-305h-62v698h133zM142 363h73q31 0 57.5 7t45.5 22.5t30 42t11 65.5q0 74 -38.5 107t-113.5 33h-65v-277z" />
    <glyph glyph-name="afii10035" unicode="&#x421;" horiz-adv-x="537" 
d="M472 609q-10 9 -25.5 15.5t-32.5 11t-33.5 6.5t-29.5 2q-62 0 -105.5 -26t-70.5 -68t-39.5 -95t-12.5 -106q0 -66 16.5 -120.5t47 -93.5t73 -60t94.5 -21q32 0 61.5 8t53.5 24l3 -69q-48 -23 -118 -23q-67 0 -122 25t-94 71.5t-60 111.5t-21 145q0 82 21 148t59.5 112
t93.5 71t123 25q61 0 120 -23z" />
    <glyph glyph-name="afii10036" unicode="&#x422;" horiz-adv-x="426" 
d="M408 640h-164v-640h-62v640h-164v58h390v-58z" />
    <glyph glyph-name="afii10037" unicode="&#x423;" horiz-adv-x="500" 
d="M80 698l175 -455l168 455h63l-221 -582q-8 -22 -18 -44t-25.5 -40t-37.5 -29t-54 -11q-20 0 -41 7l3 57q22 -11 38 -11q15 0 28.5 9.5t24 23.5t18 29.5t12.5 27.5l13 33l-212 530h66z" />
    <glyph glyph-name="afii10038" unicode="&#x424;" horiz-adv-x="667" 
d="M626 361q0 -58 -17 -109.5t-49.5 -90.5t-80.5 -61.5t-109 -22.5h-6v-80h-62v80h-6q-62 0 -109.5 22.5t-80 61.5t-49.5 90.5t-17 109.5q0 60 17 111.5t50 89t80.5 58.5t108.5 21h6v59h62v-59h6q61 0 108.5 -21t80.5 -58.5t50 -89t17 -111.5zM561 361q0 49 -14 89.5t-39 70
t-60 46t-78 16.5h-6v-449h6q41 0 76 17t60.5 47.5t40 72t14.5 90.5zM302 583h-6q-43 0 -78 -16.5t-60 -46t-39 -70t-14 -89.5t14.5 -90.5t40 -72t60.5 -47.5t76 -17h6v449z" />
    <glyph glyph-name="afii10039" unicode="&#x425;" horiz-adv-x="519" 
d="M112 698l159 -275l160 275h68l-196 -326l206 -372h-73l-171 317l-182 -317h-73l222 372l-195 326h75z" />
    <glyph glyph-name="afii10040" unicode="&#x426;" horiz-adv-x="567" 
d="M547 58v-248h-62v190h-405v698h62v-640h270v640h62v-640h73z" />
    <glyph glyph-name="afii10041" unicode="&#x427;" horiz-adv-x="520" 
d="M378 310q-29 -6 -63 -10.5t-55 -4.5q-38 0 -74 5.5t-64 25.5t-45 58.5t-17 103.5v210h62v-211q0 -33 5 -59t20 -44t43 -27t74 -9q7 0 20.5 1t29.5 3l32.5 4t31.5 5v337h62v-698h-62v310v0z" />
    <glyph glyph-name="afii10042" unicode="&#x428;" horiz-adv-x="834" 
d="M80 698h62v-640h244v640h62v-640h244v640h62v-698h-674v698z" />
    <glyph glyph-name="afii10043" unicode="&#x429;" horiz-adv-x="847" 
d="M80 698h62v-640h244v640h62v-640h244v640h62v-640h73v-248h-62v190h-685v698z" />
    <glyph glyph-name="afii10044" unicode="&#x42a;" horiz-adv-x="573" 
d="M533 206q0 -99 -56.5 -152.5t-163.5 -53.5h-143v640h-152v58h214v-285h78q44 0 84.5 -10.5t71 -34.5t49 -64t18.5 -98zM469 208q0 42 -12 70t-32.5 45t-48.5 24.5t-61 7.5h-83v-297h75q78 0 120 35.5t42 114.5z" />
    <glyph glyph-name="afii10045" unicode="&#x42b;" horiz-adv-x="696" 
d="M443 206q0 -99 -56.5 -152.5t-163.5 -53.5h-143v698h62v-285h78q44 0 84.5 -10.5t71 -34.5t49 -64t18.5 -98zM379 208q0 42 -12 70t-32.5 45t-48.5 24.5t-61 7.5h-83v-297h75q78 0 120 35.5t42 114.5zM616 698v-698h-62v698h62z" />
    <glyph glyph-name="afii10046" unicode="&#x42c;" horiz-adv-x="483" 
d="M443 206q0 -99 -56.5 -152.5t-163.5 -53.5h-143v698h62v-285h78q44 0 84.5 -10.5t71 -34.5t49 -64t18.5 -98zM379 208q0 42 -12 70t-32.5 45t-48.5 24.5t-61 7.5h-83v-297h75q78 0 120 35.5t42 114.5z" />
    <glyph glyph-name="afii10047" unicode="&#x42d;" horiz-adv-x="537" 
d="M481 347q0 -80 -21 -145t-60 -111.5t-94 -71.5t-122 -25q-70 0 -118 23l3 69q24 -16 53.5 -24t61.5 -8q51 0 92.5 20t71.5 56.5t47.5 88.5t19.5 115h-266v58h264q-5 48 -20 93.5t-42 80.5t-68 56.5t-96 21.5q-13 0 -29.5 -2t-33.5 -6.5t-32.5 -11t-25.5 -15.5l-2 71
q59 23 120 23q68 0 123 -25t93.5 -71t59.5 -112t21 -148z" />
    <glyph glyph-name="afii10048" unicode="&#x42e;" horiz-adv-x="790" 
d="M492 705q76 0 124 -34t75 -87t37 -117t10 -125q0 -83 -16.5 -148t-48 -110t-77 -68.5t-103.5 -23.5q-72 0 -118.5 31.5t-74.5 81t-39.5 110t-12.5 119.5h-106v-334h-62v698h62v-306h107q3 56 16.5 112t41.5 100.5t73 72.5t112 28zM493 647q-39 0 -67.5 -14t-48.5 -37.5
t-32.5 -54t-19.5 -64t-9.5 -67t-2.5 -63.5q0 -29 3 -62.5t10 -66.5t20 -63.5t33 -53.5t48 -37t66 -14q58 0 93 30.5t54.5 76.5t26 98.5t6.5 96.5t-6.5 95.5t-26 96t-55 74t-92.5 29.5z" />
    <glyph glyph-name="afii10049" unicode="&#x42f;" horiz-adv-x="500" 
d="M360 0v310h-94q-22 0 -37 -9t-25 -22.5t-16 -28l-11 -26.5l-95 -224h-67l110 259q11 27 28.5 46.5t47.5 30.5q-30 6 -55.5 20t-44.5 36t-29.5 51.5t-10.5 64.5q0 48 16 84t43.5 59.5t65.5 35t83 11.5h153v-698h-62zM360 640h-74q-34 0 -63.5 -6.5t-51 -21.5t-33.5 -40.5
t-12 -62.5q0 -41 13.5 -68t36 -43t50.5 -23t57 -7h77v272z" />
    <glyph glyph-name="afii10065" unicode="&#x430;" horiz-adv-x="444" 
d="M330 0v73h-2q-29 -43 -61 -62t-76 -19q-32 0 -59 12t-47 32.5t-31.5 48.5t-11.5 60q0 49 21.5 80.5t55 50t75 25.5t82.5 7q11 0 21 -0.5t26 -1.5v32q0 28 -5 50.5t-17 38.5t-32.5 25t-51.5 9q-32 0 -67.5 -15t-59.5 -36l-9 63q38 23 71 33.5t68 10.5q96 0 136 -66
q11 -18 15.5 -36t6 -36.5t1 -37.5t-0.5 -39v-117q0 -45 1 -88t5 -97h-54zM323 259q-17 0 -27 0.5t-35 0.5q-75 1 -116 -29.5t-41 -85.5q0 -45 26.5 -72.5t68.5 -27.5q39 0 63 16.5t37.5 40.5t18.5 51.5t5 49.5v56v0z" />
    <glyph glyph-name="afii10066" unicode="&#x431;" horiz-adv-x="464" 
d="M424 254q0 -47 -9 -93.5t-30.5 -84t-57.5 -61t-91 -23.5q-59 0 -95.5 26t-57 68t-28 94t-7.5 103q0 57 2 112t10 104t22.5 90.5t40.5 72.5q29 36 63 50.5t70.5 20.5t73 9t71.5 16l-2 -66q-27 -10 -60.5 -13t-67 -8t-64 -15.5t-50.5 -35.5q-23 -27 -36 -57t-20 -62.5
t-10 -66t-5 -68.5h2q5 32 19 59t34.5 46t44.5 29.5t50 10.5q90 0 139 -67t49 -190zM362 247q0 107 -32 159.5t-94 52.5t-94 -52.5t-32 -159.5q0 -102 32.5 -151.5t93.5 -49.5t93.5 49.5t32.5 151.5z" />
    <glyph glyph-name="afii10067" unicode="&#x432;" horiz-adv-x="430" 
d="M383 143q0 -43 -14.5 -71t-38.5 -44t-56 -22t-67 -6h-144v508h166q61 0 100.5 -29.5t39.5 -97.5q0 -45 -21 -71t-59 -42q45 -10 69.5 -45t24.5 -80zM308 378q0 44 -27.5 61.5t-67.5 17.5h-92v-166h100q40 0 63.5 23.5t23.5 63.5zM321 143q0 46 -23.5 71t-65.5 25h-111
v-188h103q44 0 70.5 23t26.5 69z" />
    <glyph glyph-name="afii10068" unicode="&#x433;" horiz-adv-x="348" 
d="M126 0h-58v508h273v-53h-215v-455z" />
    <glyph glyph-name="afii10069" unicode="&#x434;" horiz-adv-x="463" 
d="M387 -180v180h-321v-180h-58v233h55q17 33 29 62.5t19 64t10 79t3 108.5v141h257v-455h64v-233h-58zM323 455h-142v-106q0 -89 -10.5 -162.5t-45.5 -133.5h198v402z" />
    <glyph glyph-name="afii10070" unicode="&#x435;" horiz-adv-x="426" 
d="M102 237q0 -34 7.5 -68t25 -61.5t45 -45t66.5 -17.5q32 0 59.5 12.5t51.5 29.5l3 -65q-32 -14 -58 -22t-61 -8q-95 0 -147.5 66.5t-52.5 186.5q0 61 13 111.5t37 86t58 55t76 19.5q81 0 121 -67.5t40 -192.5v-20h-284zM325 291q0 82 -28 128t-77 46q-33 0 -54 -18
t-34 -44t-19.5 -56.5t-9.5 -55.5h222v0z" />
    <glyph glyph-name="afii10072" unicode="&#x436;" horiz-adv-x="600" 
d="M523 0l-194 256v-256h-57v256l-194 -256h-71l207 269l-185 239h69l174 -234v234h57v-234l174 234h69l-185 -239l207 -269h-71z" />
    <glyph glyph-name="afii10073" unicode="&#x437;" horiz-adv-x="370" 
d="M319 143q0 -71 -45 -110.5t-123 -39.5q-63 0 -123 24l8 65q25 -14 55.5 -24.5t59.5 -10.5q49 0 77.5 27.5t28.5 72.5q0 27 -8 45t-23 28.5t-35 14.5t-44 4h-29v52h30q43 0 73.5 24t30.5 70q0 38 -21.5 58t-59.5 20q-34 0 -68.5 -14.5t-58.5 -30.5l-8 60l19 10.5
t29.5 12.5t40 10.5t51.5 4.5q63 0 99.5 -34t36.5 -95q0 -43 -23.5 -73t-59.5 -42q47 -14 68.5 -48t21.5 -81z" />
    <glyph glyph-name="afii10074" unicode="&#x438;" horiz-adv-x="475" 
d="M409 508v-508h-58v339v20v25t0.5 24.5t1.5 19.5h-2l-214 -428h-71v508h58v-325q0 -24 -0.5 -54.5t-1.5 -48.5h2l214 428h71z" />
    <glyph glyph-name="afii10075" unicode="&#x439;" horiz-adv-x="475" 
d="M366 667q-5 -8 -15.5 -21t-26.5 -25.5t-38 -21.5t-50 -9t-50 9t-38 21.5t-26.5 25.5t-15.5 21l34 35q4 -6 12.5 -16.5t20.5 -20t28 -16.5t35 -7t35 7t28 16.5t20 20t13 16.5l34 -35v0zM409 508v-508h-58v339v20v25t0.5 24.5t1.5 19.5h-2l-214 -428h-71v508h58v-325
q0 -24 -0.5 -54.5t-1.5 -48.5h2l214 428h71z" />
    <glyph glyph-name="afii10076" unicode="&#x43a;" horiz-adv-x="426" 
d="M126 287l198 221h73l-221 -239l243 -269h-75l-218 243v-243h-58v508h58v-221z" />
    <glyph glyph-name="afii10077" unicode="&#x43b;" horiz-adv-x="463" 
d="M337 0v455h-158v-128q0 -32 0.5 -69.5t-2.5 -74.5t-10 -71t-22 -60.5t-39.5 -42t-61.5 -15.5q-14 0 -24 2t-17 4l4 55q8 -3 14.5 -4t17.5 -1q26 0 42 15t25 51t12 97t3 153v142h274v-508h-58z" />
    <glyph glyph-name="afii10078" unicode="&#x43c;" horiz-adv-x="572" 
d="M451 0v433h-2l-133 -433h-60l-133 433h-2v-433h-55v508h82l137 -440h2l137 440h82v-508h-55z" />
    <glyph glyph-name="afii10079" unicode="&#x43d;" horiz-adv-x="463" 
d="M124 238v-238h-58v508h58v-217h215v217h58v-508h-58v238h-215z" />
    <glyph glyph-name="afii10080" unicode="&#x43e;" horiz-adv-x="464" 
d="M423 257q0 -47 -9 -94t-30.5 -85t-58.5 -62t-93 -24t-92.5 24t-58.5 62t-31 85t-9 93q0 125 50 193t141 68t141 -68t50 -192zM361 250q0 215 -129 215t-129 -215q0 -102 33 -153t96 -51t96 51t33 153z" />
    <glyph glyph-name="afii10081" unicode="&#x43f;" horiz-adv-x="463" 
d="M124 455v-455h-58v508h331v-508h-58v455h-215z" />
    <glyph glyph-name="afii10082" unicode="&#x440;" horiz-adv-x="463" 
d="M114 434h2q22 38 54.5 60t78.5 22q82 0 127 -68.5t45 -193.5q0 -121 -44.5 -190t-123.5 -69q-44 0 -77.5 21t-52.5 54h-2v-286h-57v631q0 23 -1 48t-3 45h54v-74zM357 250q0 29 -3 66t-14.5 69.5t-34.5 55t-63 22.5q-37 0 -61 -19t-38.5 -47.5t-20 -62t-5.5 -62.5
q0 -30 4 -69t17 -73.5t37.5 -58.5t65.5 -24q40 0 63 20.5t35 51.5t15 66.5t3 64.5z" />
    <glyph glyph-name="afii10083" unicode="&#x441;" horiz-adv-x="370" 
d="M344 433q-20 13 -43.5 19t-46.5 6q-73 0 -112.5 -50.5t-39.5 -143.5q0 -100 42.5 -156t117.5 -56q23 0 45 5.5t40 19.5l5 -65q-41 -19 -93 -19q-50 0 -90 18.5t-68.5 53t-44 83t-15.5 109.5q0 50 12.5 96.5t39 82.5t67 57.5t96.5 21.5q24 0 47.5 -4.5t43.5 -13.5z" />
    <glyph glyph-name="afii10084" unicode="&#x442;" horiz-adv-x="370" 
d="M214 455v-455h-58v455h-142v53h342v-53h-142z" />
    <glyph glyph-name="afii10085" unicode="&#x443;" horiz-adv-x="370" 
d="M194 -98q-6 -23 -13 -45t-19 -39.5t-31.5 -28.5t-51.5 -11q-20 0 -41 7l3 57q22 -11 38 -11q15 0 25.5 9.5t18 23t12 29.5t7.5 28l18 66l-151 521h64l113 -431h2l114 431h59z" />
    <glyph glyph-name="afii10086" unicode="&#x444;" horiz-adv-x="654" 
d="M612 255q0 -57 -10.5 -105t-30.5 -83t-49 -54.5t-66 -19.5q-33 0 -58.5 13t-39.5 39h-2v-261h-58v261h-2q-14 -26 -39.5 -39t-59.5 -13q-37 0 -65.5 19.5t-48.5 54.5t-30.5 83t-10.5 105q0 58 8.5 106t26.5 82.5t47 53.5t70 19q38 0 64 -19t38 -42h2v295h58v-295h2
q12 23 38 42t63 19q41 0 70 -19t47.5 -53.5t27 -82.5t8.5 -106zM549 255q0 37 -4.5 74t-16 66.5t-31.5 48t-51 18.5q-34 0 -56 -25.5t-34 -63.5v-241q12 -37 34 -61t56 -24q31 0 51 18.5t31.5 48.5t16 67t4.5 74zM298 373q-12 38 -34 63.5t-56 25.5q-31 0 -51 -18.5
t-31.5 -48t-16 -66.5t-4.5 -74t4.5 -74t16 -67t31.5 -48.5t51 -18.5q34 0 56 24t34 61v241z" />
    <glyph glyph-name="afii10087" unicode="&#x445;" horiz-adv-x="389" 
d="M226 270l151 -270h-70l-118 223l-114 -223h-65l144 274l-132 234h69l102 -189l104 189h68z" />
    <glyph glyph-name="afii10088" unicode="&#x446;" horiz-adv-x="475" 
d="M66 508h58v-455h212v455h58v-455h64v-233h-58v180h-334v508z" />
    <glyph glyph-name="afii10089" unicode="&#x447;" horiz-adv-x="420" 
d="M297 218q-6 -2 -16.5 -4t-23 -4t-25.5 -3.5t-23 -1.5q-29 0 -57 4.5t-50 19.5t-36 43.5t-14 76.5v159h58v-156q0 -23 4 -40.5t15 -29.5t31 -18t52 -6q18 0 43.5 4.5l41.5 7.5v238h57v-508h-57v218z" />
    <glyph glyph-name="afii10090" unicode="&#x448;" horiz-adv-x="672" 
d="M66 508h58v-455h183v455h58v-455h183v455h58v-508h-540v508z" />
    <glyph glyph-name="afii10091" unicode="&#x449;" horiz-adv-x="690" 
d="M614 -180v180h-546v508h58v-455h183v455h58v-455h183v455h58v-455h64v-233h-58z" />
    <glyph glyph-name="afii10092" unicode="&#x44a;" horiz-adv-x="494" 
d="M458 153q0 -72 -41 -112.5t-119 -40.5h-152v455h-132v53h190v-201h92q32 0 61.5 -8t52 -26.5t35.5 -48t13 -71.5zM395 155q0 55 -28 77t-73 22h-90v-201h85q106 0 106 102z" />
    <glyph glyph-name="afii10093" unicode="&#x44b;" horiz-adv-x="574" 
d="M508 508v-508h-58v508h58zM372 153q0 -72 -41 -112.5t-119 -40.5h-146v508h58v-201h86q32 0 61.5 -8t52 -26.5t35.5 -48t13 -71.5zM309 154q0 55 -28 77.5t-73 22.5h-84v-201h79q106 0 106 101z" />
    <glyph glyph-name="afii10094" unicode="&#x44c;" horiz-adv-x="414" 
d="M378 153q0 -72 -41 -112.5t-119 -40.5h-152v508h58v-201h92q32 0 61.5 -8t52 -26.5t35.5 -48t13 -71.5zM315 154q0 55 -28 77.5t-73 22.5h-90v-201h85q106 0 106 101z" />
    <glyph glyph-name="afii10095" unicode="&#x44d;" horiz-adv-x="370" 
d="M329 257q0 -61 -15.5 -109.5t-44 -83t-68.5 -53t-90 -18.5q-52 0 -93 19l5 65q18 -14 40 -20t45 -6q71 0 113 49.5t47 137.5h-189v53h189q-6 80 -44 124t-108 44q-49 0 -90 -26l-3 64q20 9 43.5 13.5t47.5 4.5q56 0 96.5 -20t67 -54.5t39 -81.5t12.5 -102z" />
    <glyph glyph-name="afii10096" unicode="&#x44e;" horiz-adv-x="624" 
d="M583 257q0 -47 -9 -94t-30.5 -85t-58.5 -62t-93 -24q-53 0 -89 22t-58 57t-32.5 79t-11.5 88h-77v-238h-58v508h58v-217h78q7 108 56 167t134 59q91 0 141 -68t50 -192zM521 250q0 215 -129 215t-129 -215q0 -102 33 -153t96 -51t96 51t33 153z" />
    <glyph glyph-name="afii10097" unicode="&#x44f;" horiz-adv-x="430" 
d="M308 0v220h-89q-14 0 -24.5 -7t-18.5 -16.5t-13 -20.5t-9 -19l-71 -157h-65l82 183q9 20 26 35t34 21q-21 4 -40 15t-33.5 27.5t-23.5 38t-9 47.5q0 71 41.5 106t107.5 35h163v-508h-58zM220 455q-48 0 -76 -20t-28 -67q0 -26 8.5 -44.5t23 -29.5t33.5 -16t39 -5h88v182
h-88z" />
    <glyph glyph-name="afii10071" unicode="&#x451;" horiz-adv-x="426" 
d="M177 624h-68v89h68v-89zM317 624h-68v89h68v-89zM102 237q0 -34 7.5 -68t25 -61.5t45 -45t66.5 -17.5q32 0 59.5 12.5t51.5 29.5l3 -65q-32 -14 -58 -22t-61 -8q-95 0 -147.5 66.5t-52.5 186.5q0 61 13 111.5t37 86t58 55t76 19.5q81 0 121 -67.5t40 -192.5v-20h-284z
M325 291q0 82 -28 128t-77 46q-33 0 -54 -18t-34 -44t-19.5 -56.5t-9.5 -55.5h222v0z" />
    <glyph glyph-name="afii10099" unicode="&#x452;" horiz-adv-x="463" 
d="M421 146q0 -114 -42.5 -177t-130.5 -63q-8 0 -19 1.5t-16 3.5l1 54q13 -5 29 -5q57 0 87 45.5t30 142.5q0 82 -27 128t-84 46q-26 0 -47.5 -10.5t-37 -30t-24.5 -46.5t-9 -59v-176h-58v455h-58v53h58v242h58v-242h211v-53h-211v-154h2q18 32 50 53.5t74 21.5
q81 0 122.5 -59.5t41.5 -170.5z" />
    <glyph glyph-name="afii10100" unicode="&#x453;" horiz-adv-x="348" 
d="M126 0h-58v508h268v-53h-210v-455zM273 728l-96 -142h-50l76 142h70z" />
    <glyph glyph-name="afii10101" unicode="&#x454;" horiz-adv-x="370" 
d="M352 12q-41 -19 -93 -19q-50 0 -90 18.5t-68.5 53t-44 83t-15.5 109.5q0 55 12.5 102t39 81.5t67 54.5t96.5 20q24 0 47.5 -4.5t43.5 -13.5l-3 -64q-20 13 -43.5 19t-46.5 6q-68 0 -106.5 -43.5t-44.5 -123.5h188v-53h-188q5 -88 47 -137t112 -49q23 0 45 5.5t40 19.5
l5 -65v0z" />
    <glyph glyph-name="afii10102" unicode="&#x455;" horiz-adv-x="352" 
d="M280 441q-45 23 -84 23q-41 0 -65.5 -22.5t-24.5 -59.5q0 -21 8.5 -35.5t22 -25.5t29.5 -19.5l32 -16.5q24 -12 46 -25t38 -30t25.5 -39.5t9.5 -53.5q0 -32 -11.5 -58.5t-32 -46t-48.5 -30t-62 -10.5q-66 0 -126 24l8 65q25 -14 57 -24.5t61 -10.5q42 0 67 25t25 65
q0 22 -8 36.5t-20.5 25.5t-29 19l-32.5 16q-24 12 -46 24.5t-38.5 28t-26 37t-9.5 53.5q0 65 41 103t109 38q23 0 44.5 -3.5t48.5 -11.5z" />
    <glyph glyph-name="afii10103" unicode="&#x456;" horiz-adv-x="204" 
d="M131 0h-58v508h58v-508zM138 624h-72v89h72v-89z" />
    <glyph glyph-name="afii10104" unicode="&#x457;" horiz-adv-x="204" 
d="M131 0h-58v508h58v-508zM66 624h-68v89h68v-89zM206 624h-68v89h68v-89z" />
    <glyph glyph-name="afii10105" unicode="&#x458;" horiz-adv-x="204" 
d="M131 -88q0 -26 -3.5 -50t-14 -42.5t-30 -30t-50.5 -11.5q-11 0 -20 1t-23 6l1 54q10 -4 15 -4.5t14 -0.5q29 0 41.5 16t12.5 52v606h57v-596zM138 624h-72v89h72v-89z" />
    <glyph glyph-name="afii10106" unicode="&#x459;" horiz-adv-x="677" 
d="M187 455v-128v-69.5t-3 -74.5t-10.5 -71t-23 -60.5t-40 -42t-61.5 -15.5q-14 0 -24 1.5t-21 4.5l4 56q15 -6 36 -6q26 0 42.5 15t26 51t13 97t3.5 153v142h258v-205h92q32 0 61.5 -8t52 -26t35.5 -47t13 -71q0 -72 -41 -111.5t-119 -39.5h-152v455h-142zM578 152
q0 55 -28 76t-73 21h-90v-196h85q54 0 80 23.5t26 75.5z" />
    <glyph glyph-name="afii10107" unicode="&#x45a;" horiz-adv-x="677" 
d="M124 249v-249h-58v508h58v-205h205v205h58v-205h92q32 0 61.5 -8t52 -26t35.5 -47t13 -71q0 -72 -41 -111.5t-119 -39.5h-152v249h-205zM578 152q0 55 -28 76t-73 21h-90v-196h85q54 0 80 23.5t26 75.5z" />
    <glyph glyph-name="afii10108" unicode="&#x45b;" horiz-adv-x="463" 
d="M341 0v230q0 42 -27 67t-68 25q-26 0 -47 -10.5t-36 -30t-23.5 -46.5t-8.5 -59v-176h-58v455h-58v53h58v242h58v-242h211v-53h-211v-154h2q21 38 50 56.5t71 18.5q37 0 64.5 -12t45.5 -33t26.5 -49t8.5 -59v-223h-58z" />
    <glyph glyph-name="afii10109" unicode="&#x45c;" horiz-adv-x="426" 
d="M323 728l-96 -142h-50l76 142h70zM126 287l198 221h73l-221 -239l243 -269h-75l-218 243v-243h-58v508h58v-221z" />
    <glyph glyph-name="afii10110" unicode="&#x45e;" horiz-adv-x="370" 
d="M315 667q-5 -8 -15.5 -21t-26.5 -25.5t-38 -21.5t-50 -9t-50 9t-38 21.5t-26.5 25.5t-15.5 21l34 35q4 -6 12.5 -16.5t20.5 -20t28 -16.5t35 -7t35 7t28 16.5t20 20t13 16.5l34 -35v0zM194 -98q-6 -23 -13 -45t-19 -39.5t-31.5 -28.5t-51.5 -11q-20 0 -41 7l3 57
q22 -11 38 -11q15 0 25.5 9.5t18 23t12 29.5t7.5 28l18 66l-151 521h64l113 -431h2l114 431h59z" />
    <glyph glyph-name="afii10193" unicode="&#x45f;" horiz-adv-x="463" 
d="M261 0v-180h-58v180h-137v508h58v-455h215v455h58v-508h-136z" />
    <glyph glyph-name="afii10050" unicode="&#x490;" horiz-adv-x="393" 
d="M142 640v-640h-62v698h238v124h62v-182h-238z" />
    <glyph glyph-name="afii10098" unicode="&#x491;" horiz-adv-x="348" 
d="M126 455v-455h-58v508h210v108h58v-161h-210z" />
    <glyph glyph-name="Euro" unicode="&#x20ac;" 
d="M466 617q-6 7 -19 12.5t-28.5 9.5t-30.5 6.5t-23 2.5q-47 0 -82.5 -17.5t-60.5 -46.5t-41 -67t-24 -79h281l-8 -42h-279q-4 -47 0 -94h265l-7 -42h-252q8 -40 24 -78t41 -67t60 -47t82 -18q29 0 52.5 7t49.5 20l6 -66q-28 -8 -52.5 -13t-53.5 -5q-62 0 -109 21t-81 57
t-55.5 84.5t-30.5 104.5h-73l8 42h61q-4 47 0 94h-69l8 42h66q9 56 31 104.5t56.5 84.5t82 57t109.5 21q58 0 108 -23z" />
    <glyph glyph-name="afii61352" unicode="&#x2116;" horiz-adv-x="859" 
d="M481 0h-78l-265 610v-610h-58v698h76l267 -619v619h58v-698zM676 110q-63 0 -95.5 46.5t-32.5 134.5q0 89 32.5 135.5t95.5 46.5t95.5 -46.5t32.5 -135.5q0 -88 -32.5 -134.5t-95.5 -46.5zM676 162q38 0 55 31t17 98q0 68 -17 99t-55 31t-55 -31t-17 -99q0 -67 17 -98
t55 -31zM549 0v49h255v-49h-255z" />
    <glyph glyph-name="uni2219" unicode="&#x2219;" horiz-adv-x="240" 
d="M82 354h78v-96h-78v96z" />
  </font>
</defs>
</svg>
