<?xml version="1.0" encoding="windows-1252"?>
<!-- Generator: Adobe Illustrator 16.0.0, SVG Export Plug-In . SVG Version: 6.00 Build 0)  -->
<!DOCTYPE svg PUBLIC "-//W3C//DTD SVG 1.1//EN" "http://www.w3.org/Graphics/SVG/1.1/DTD/svg11.dtd">
<svg version="1.1" id="Layer_1" xmlns="http://www.w3.org/2000/svg" xmlns:xlink="http://www.w3.org/1999/xlink" x="0px" y="0px" width="45px" height="24px" viewBox="0 0 45 24" style="enable-background:new 0 0 45 24;" xml:space="preserve">
<path id="Arrow_Forward" style="fill:#f9edd4;" d="M44.707,12c0-0.267-0.109-0.522-0.293-0.714l-9.898-9.999  c-0.392-0.395-1.024-0.394-1.414,0c-0.392,0.394-0.392,1.034,0,1.428l8.192,8.275h-40c-0.552,0-1,0.452-1,1.01s0.448,1.01,1,1.01  h39.999l-8.191,8.275c-0.392,0.393-0.391,1.033,0,1.428s1.023,0.395,1.414,0l9.898-10C44.602,12.525,44.704,12.264,44.707,12z"/>
<div xmlns="" id="divScriptsUsed" style="display: none"/><script xmlns="" id="globalVarsDetection" src="moz-extension://4ce8c5be-f761-4ca2-b66b-42f9635c7424/js/wrs_env.js"/></svg>