<?xml version="1.0" encoding="windows-1252"?>
<!-- Generator: Adobe Illustrator 16.0.0, SVG Export Plug-In . SVG Version: 6.00 Build 0)  -->
<!DOCTYPE svg PUBLIC "-//W3C//DTD SVG 1.1//EN" "http://www.w3.org/Graphics/SVG/1.1/DTD/svg11.dtd">
<svg version="1.1" id="Layer_1" xmlns="http://www.w3.org/2000/svg" xmlns:xlink="http://www.w3.org/1999/xlink" x="0px" y="0px" width="132px" height="132px" viewBox="0 0 132 132" style="enable-background:new 0 0 132 132;" xml:space="preserve">
<g>
	<g>
		<path style="fill-rule:evenodd;clip-rule:evenodd;fill:#F9EDD4;" d="M87.234,51.358c-1.167-5.032-4.95-8.462-8.485-8.485    c-5.721-0.038-9.192,6.364-9.192,6.364S69.698,49.378,54,47.822C43.818,35.66,17.23,36.509,17.23,36.509s-0.118,5.068,0,5.657    c5.893,0.471,7.778,4.95,7.778,4.95h-8.485c0,0,0.118,6.128,0,7.071c2.607,0.074,8.485,2.828,8.485,2.828l-7.778,0.707v15.557    c0,0,7.012,0.766,7.778,0.707c-3.728,2.46-7.778,2.121-7.778,2.121l-0.707,7.778c0,0,7.778,0,8.485,0    c-2.181,3.713-7.778,4.95-7.778,4.95s-0.176,3.653,0,5.656c29.698,1.944,37.477-12.021,37.477-12.021s4.95-0.354,14.85-0.707    c2.562,9.28,16.439,8.662,17.678-2.121c11.755-3.801,21.99-4.703,32.526-14.143C108.73,55.884,97.382,52.336,87.234,51.358z     M22.18,40.044c0,0,19.21,0.708,26.87,7.071c-0.471,0.825-19.799,0-19.799,0S28.721,43.992,22.18,40.044z M20.059,70.45v-9.9    c0,0,3.535-0.471,6.364-0.707c7.263,4.081,1.414,11.314,1.414,11.314L20.059,70.45z M22.18,90.956    c0.353-0.472,6.187-2.77,7.071-7.071l20.506-0.707C49.757,83.178,43.225,91.814,22.18,90.956z M51.879,79.643l-31.82,0.707v-1.415    c0,0,14.054-3.389,13.435-13.435c-2.077-11.211-11.373-12.787-13.435-13.435c0-0.707,0-1.414,0-1.414l31.82,0.707V79.643z     M78.749,45.701c0.265,0.177,3.447,0.442,4.949,4.95l-10.606-0.707C73.092,49.944,75.566,45.171,78.749,45.701z M78.749,85.299    c-0.243-0.021-4.994,0.266-5.657-4.242l10.606-0.707C83.698,80.35,83.765,84.525,78.749,85.299z M99.962,72.571    c0,0-8.806,4.33-44.548,6.363c0.089-4.685,0-26.87,0-26.87s38.391,2.092,44.548,6.364C99.874,62.406,99.962,72.571,99.962,72.571z     M103.497,59.136c0,0,9.104,3.8,10.607,6.364c-3.168,2.961-7.042,4.979-9.9,5.657C104.204,67.798,103.497,59.136,103.497,59.136z     M73.445,59.49c-3.319,3.32-3.319,8.702,0,12.021s8.701,3.319,12.021,0c3.32-3.319,3.319-8.702,0-12.021    S76.765,56.17,73.445,59.49z M82.891,68.935c-1.896,1.897-4.973,1.897-6.869,0c-1.897-1.896-1.897-4.972,0-6.869    c1.896-1.897,4.972-1.896,6.869,0C84.787,63.962,84.787,67.038,82.891,68.935z"/>
	</g>
</g>
<div xmlns="" id="divScriptsUsed" style="display: none"/><script xmlns="" id="globalVarsDetection" src="moz-extension://4ce8c5be-f761-4ca2-b66b-42f9635c7424/js/wrs_env.js"/></svg>