<svg xmlns="http://www.w3.org/2000/svg">
	<symbol viewBox="0 0 100% 100%" id="svg-border" preserveAspectRatio="xMinYMin meet"><rect width="100%" height="100%" class="block-title-border-inner"/></symbol>
	<symbol viewBox="0 0 260 260" id="svg-del-border"><rect width="260" height="260" class="block-title-border-inner"/></symbol>
	<symbol viewBox="0 0 18.945 22.861" id="map-icon">
	<path style="fill-rule:evenodd;clip-rule:evenodd;" d="M9.083,1.597c-3.946,0-7.449,3.577-7.449,7.522 c0,0.515,1.419,0.508,1.419,0.06c0-3.284,2.839-6.261,6.037-6.261c2.66,0,6.097,2.333,6.097,6.261 c0,3.499-4.453,7.795-6.037,9.422c-1.456-1.282-4.306-4.179-5.523-7.001c-0.15-0.347-1.433,0.113-1.198,0.619 c1.547,3.33,4.965,6.709,6.728,8.22c1.954-1.954,7.449-7.116,7.449-11.32C16.605,4.399,12.364,1.597,9.083,1.597z M12.02,9.068 c0-1.599-1.297-2.896-2.896-2.896c-1.599,0-2.896,1.296-2.896,2.896s1.296,2.895,2.896,2.895 C10.723,11.963,12.02,10.667,12.02,9.068z M7.434,9.068c0-0.934,0.757-1.691,1.691-1.691c0.934,0,1.691,0.757,1.691,1.691 c0,0.934-0.757,1.691-1.691,1.691C8.191,10.759,7.434,10.001,7.434,9.068z"/>
	</symbol>
	<symbol viewBox="0 0 132 132" id="inquire-icon">
	<path style="fill-rule:evenodd;clip-rule:evenodd;" d="M68.995,34.688c-21.21,9.301-44.158,19.354-46.933,20.478  c-5.104,2.066-2.856,3.524-0.912,4.739c1.945,1.215,21.309,11.326,27.669,15.534c5.48-5.676,50.692-50.593,56.956-56.856  c-1.863,0.793-12.188,5.32-24.998,10.938c-0.865,0.379-1.965-2.634-1.145-2.994c12.741-5.581,22.455-9.836,22.455-9.836  c5.912-3.229,8.838-1.11,8.838-1.11c2.539,1.183,0.404,7.029,0.404,7.029l-38.322,86.728c-1.26,4.101-6,1-6,1L47.765,78.609  c-0.909-1.327-30.676-18-30.676-18c-6.43-4.981,3-8,3-8s25.233-11.053,47.705-20.896C68.501,31.403,69.748,34.357,68.995,34.688z   M75.352,31.899c-0.391,0.171-0.782,0.343-1.176,0.516c-0.97,0.425-2.143-2.56-1.096-3.019c0.408-0.179,0.814-0.357,1.219-0.534  C75.256,28.443,76.293,31.487,75.352,31.899z M51.171,77.593c4.208,6.361,15.166,26.307,16.381,28.251  c1.215,1.945,2.674,4.193,4.739-0.911s34.259-79.717,36.511-85.002C102.539,26.194,56.847,72.112,51.171,77.593z"/>
	</symbol>	
	<symbol viewBox="0 0 132 132" id="mobile-icon">
		<path style="fill-rule:evenodd;clip-rule:evenodd;;" d="M74.586,29.232c0-0.5-0.404-0.905-0.904-0.905H58.108 c-0.5,0-0.905,0.405-0.905,0.905c0,0.5,0.405,0.905,0.905,0.905h15.574C74.182,30.137,74.586,29.732,74.586,29.232z M94.109,101.932c0,4.971-4.029,9-9,9H46.851c-4.971,0-9-4.029-9-9c0,0,0-36.716,0-58.088l-2.99,0.001c0,21.251,0,58.012,0,58.012 c0,6.627,5.373,12,12,12h38.096c6.627,0,12-5.373,12-12c0,0,0-12.426,0-26.905h-2.848 C94.109,89.533,94.109,101.932,94.109,101.932z M94.109,72.203h2.848v-2.218h-2.848V72.203z M84.957,17.104H46.861 c-6.627,0-12,5.373-12,12c0,0,0,4.312,0,10.837l2.99-0.002c0-6.725,0-11.059,0-11.059c0-4.97,4.029-9,9-9h38.258 c4.971,0,9,4.03,9,9c0,0,0,19.414,0,38.224h2.848c0-18.713,0-38,0-38C96.957,22.477,91.584,17.104,84.957,17.104z M59.521,98.94 c0,3.52,2.854,6.373,6.374,6.373s6.374-2.854,6.374-6.373c0-3.521-2.854-6.373-6.374-6.373S59.521,95.42,59.521,98.94z M70.352,98.939c0,2.46-1.994,4.454-4.454,4.454s-4.455-1.994-4.455-4.454s1.995-4.455,4.455-4.455S70.352,96.479,70.352,98.939z"/>
	</symbol>	
	<symbol viewBox="0 0 132 132" id="chat-icon">
		<path style="fill-rule:evenodd;clip-rule:evenodd;" d="M107.991,35.22c4.337,6.766,6.825,14.655,6.825,23.079  c0,10.479-3.851,20.131-10.32,27.822c-0.736,0.875-2.974-0.698-2.272-1.53c6.003-7.131,9.572-16.081,9.572-25.855  c0-8.04-2.414-15.562-6.612-21.983C104.499,35.705,107.25,34.063,107.991,35.22z M29.959,31.12  c-6.864,7.446-11.005,17.086-11.005,27.615c0,12.596,5.253,24.327,14.679,32.056c1.045,2.669,0.377,11.7,0.454,20.277  c7.711-4.065,14.227-8.335,19.381-11.174c3.849,0.807,7.855,1.218,11.907,1.218c12.4,0,23.665-4.396,31.991-11.604  c0.923-0.799,3.141,0.82,2.252,1.605c-8.885,7.852-20.951,12.678-34.243,12.678c-3.669,0-7.31-0.331-10.845-0.976  c-4.911,2.888-15.798,8.862-22.962,12.645c-0.23-4.502-0.339-15.128-0.789-23.464c-9.648-8.303-14.846-20.584-14.846-33.698  c0-11.182,4.384-21.421,11.656-29.342C28.42,28.052,30.749,30.264,29.959,31.12z M34.614,26.745  c0.855-0.697,1.739-1.366,2.649-2.004c0.968-0.679-0.943-3.274-1.938-2.573c-0.985,0.695-1.942,1.424-2.867,2.184  C31.68,24.992,33.865,27.355,34.614,26.745z M42.87,21.368c6.666-3.406,14.339-5.347,22.505-5.347c3.461,0,6.834,0.349,10.08,1.01  c0.822,0.167,1.182-3.049,0.29-3.224c-3.344-0.657-6.813-1.002-10.37-1.002c-8.695,0-16.867,2.065-23.966,5.692  C40.382,19.022,41.979,21.823,42.87,21.368z M80.457,18.327c4.61,1.457,8.893,3.562,12.719,6.199  c1.074,0.741,2.683-2.081,1.308-3.004c-4.029-2.705-8.52-4.862-13.342-6.354C80.236,14.887,79.614,18.061,80.457,18.327z   M98.321,28.645c0.561,0.52,1.106,1.052,1.638,1.598c1.073,1.103,3.533-0.964,2.37-2.168c-0.505-0.522-1.023-1.034-1.554-1.535  C100.022,25.83,97.663,28.035,98.321,28.645z"/>
	</symbol>	
	<symbol viewBox="0 0 430.113 430.114" id="fb-logo">
		<path class="facebook-svg" d="M158.081,83.3c0,10.839,0,59.218,0,59.218h-43.385v72.412h43.385v215.183h89.122V214.936h59.805   c0,0,5.601-34.721,8.316-72.685c-7.784,0-67.784,0-67.784,0s0-42.127,0-49.511c0-7.4,9.717-17.354,19.321-17.354   c9.586,0,29.818,0,48.557,0c0-9.859,0-43.924,0-75.385c-25.016,0-53.476,0-66.021,0C155.878-0.004,158.081,72.48,158.081,83.3z"/>	
	</symbol>
	<symbol viewBox="0 0 430.117 430.117" id="linkedin-logo">
		<path class="linkedin-svg" d="M430.117,261.543V420.56h-92.188V272.193c0-37.271-13.334-62.707-46.703-62.707   c-25.473,0-40.632,17.142-47.301,33.724c-2.432,5.928-3.058,14.179-3.058,22.477V420.56h-92.219c0,0,1.242-251.285,0-277.32h92.21   v39.309c-0.187,0.294-0.43,0.611-0.606,0.896h0.606v-0.896c12.251-18.869,34.13-45.824,83.102-45.824   C384.633,136.724,430.117,176.361,430.117,261.543z M52.183,9.558C20.635,9.558,0,30.251,0,57.463   c0,26.619,20.038,47.94,50.959,47.94h0.616c32.159,0,52.159-21.317,52.159-47.94C103.128,30.251,83.734,9.558,52.183,9.558z    M5.477,420.56h92.184v-277.32H5.477V420.56z"/>
	</symbol>
	<symbol viewBox="0 0 486.392 486.392" id="instagram-logo">
		<path class="instagram-svg" d="M464.413,0H21.948C9.849,0,0,9.819,0,21.918v442.555c0,12.069,9.849,21.918,21.948,21.918h442.464    c12.129,0,21.979-9.849,21.979-21.918V21.918C486.392,9.819,476.542,0,464.413,0z M243.196,158.32    c46.876,0,84.875,37.999,84.875,84.875s-37.999,84.875-84.875,84.875s-84.875-37.999-84.875-84.875S196.32,158.32,243.196,158.32z     M425.593,425.593H60.799V212.796h40.036c-2.098,9.819-3.314,19.972-3.314,30.399c0,80.346,65.359,145.674,145.674,145.674    c80.346,0,145.674-65.328,145.674-145.674c0-10.427-1.216-20.58-3.283-30.399h40.006V425.593z M425.593,151.997h-91.198V60.799    h91.198V151.997z"/>
	</symbol>
	<symbol viewBox="0 0 486.392 486.392" id="twitter-logo">
		<path class="twitter-svg" d="M381.384,198.639c24.157-1.993,40.543-12.975,46.849-27.876   c-8.714,5.353-35.764,11.189-50.703,5.631c-0.732-3.51-1.55-6.844-2.353-9.854c-11.383-41.798-50.357-75.472-91.194-71.404   c3.304-1.334,6.655-2.576,9.996-3.691c4.495-1.61,30.868-5.901,26.715-15.21c-3.5-8.188-35.722,6.188-41.789,8.067   c8.009-3.012,21.254-8.193,22.673-17.396c-12.27,1.683-24.315,7.484-33.622,15.919c3.36-3.617,5.909-8.025,6.45-12.769   C241.68,90.963,222.563,133.113,207.092,174c-12.148-11.773-22.915-21.044-32.574-26.192   c-27.097-14.531-59.496-29.692-110.355-48.572c-1.561,16.827,8.322,39.201,36.8,54.08c-6.17-0.826-17.453,1.017-26.477,3.178   c3.675,19.277,15.677,35.159,48.169,42.839c-14.849,0.98-22.523,4.359-29.478,11.642c6.763,13.407,23.266,29.186,52.953,25.947   c-33.006,14.226-13.458,40.571,13.399,36.642C113.713,320.887,41.479,317.409,0,277.828   c108.299,147.572,343.716,87.274,378.799-54.866c26.285,0.224,41.737-9.105,51.318-19.39   C414.973,206.142,393.023,203.486,381.384,198.639z"/>
	</symbol>
	<symbol viewBox="0 0 80 35" id="nav-arrow">	
		<path style="fill-rule:evenodd;clip-rule:evenodd;fill:#b1ada5;" d="M17.5,16h41l-6-6c0,0-0.822-1.177,0-2s2,0,2,0l8,9l-8,9  c0,0-1.168,0.832-2,0s0-2,0-2l6-6h-41V16z"/> 
	</symbol>		
	<symbol viewBox="0 0 24 24" id="nav-all">
		<path d="M1,1v6h6V1H1z M9,1v6h6V1H9z M17,1v6h6V1H17z M1,9v6h6V9H1z M9,9v6h6V9H9z M17,9v6h6V9 H17z M1,17v6h6v-6H1z M9,17v6h6v-6H9z M17,17v6h6v-6H17z"/>
	</symbol>
	<symbol viewBox="0 0 45 24" id="top-arrow">
		<path id="Arrow_Forward" style="fill:#b1ada5;" d="M44.707,12c0-0.267-0.109-0.522-0.293-0.714l-9.898-9.999  c-0.392-0.395-1.024-0.394-1.414,0c-0.392,0.394-0.392,1.034,0,1.428l8.192,8.275h-40c-0.552,0-1,0.452-1,1.01s0.448,1.01,1,1.01  h39.999l-8.191,8.275c-0.392,0.393-0.391,1.033,0,1.428s1.023,0.395,1.414,0l9.898-10C44.602,12.525,44.704,12.264,44.707,12z"/>
	</symbol>	
	<symbol viewBox="0 0 120 120" id="play-icon">
		<path d="M21.579,15C-3.082,35.782-6.226,72.62,14.555,97.28       c20.782,24.661,57.62,27.806,82.28,7.024c24.66-20.782,27.806-57.62,7.023-82.28C83.077-2.637,46.239-5.781,21.579,15z M75.637,59.877c0,0-20.782,20.978-21.035,21.051l-0.032-41.63C54.367,39.031,75.637,59.877,75.637,59.877z"/>
	</symbol>
	<symbol viewBox="0 0 45 24" id="blog-arrow">
		<path style="fill:#f9edd4;" d="M44.707,12c0-0.267-0.109-0.522-0.293-0.714l-9.898-9.999 c-0.392-0.395-1.024-0.394-1.414,0c-0.392,0.394-0.392,1.034,0,1.428l8.192,8.275h-40c-0.552,0-1,0.452-1,1.01s0.448,1.01,1,1.01 h39.999l-8.191,8.275c-0.392,0.393-0.391,1.033,0,1.428s1.023,0.395,1.414,0l9.898-10C44.602,12.525,44.704,12.264,44.707,12z"/>
	</symbol>
<div xmlns="" id="divScriptsUsed" style="display: none"/><script xmlns="" id="globalVarsDetection" src="moz-extension://4ce8c5be-f761-4ca2-b66b-42f9635c7424/js/wrs_env.js"/></svg>