<?xml version="1.0" encoding="UTF-8"?>
<svg width="12px" height="23px" viewBox="0 0 12 23" version="1.1" xmlns="http://www.w3.org/2000/svg" xmlns:xlink="http://www.w3.org/1999/xlink">
    <!-- Generator: sketchtool 49 (51002) - http://www.bohemiancoding.com/sketch -->
    <title>E2792F55-C652-4382-BC2C-586FABA8EB0C</title>
    <desc>Created with sketchtool.</desc>
    <defs></defs>
    <g id="Page-1" stroke="none" stroke-width="1" fill="none" fill-rule="evenodd">
        <g id="Главная" transform="translate(-516.000000, -4746.000000)" fill="#909090" fill-rule="nonzero">
            <g id="footer" transform="translate(0.000000, 4210.000000)">
                <g id="social" transform="translate(384.000000, 532.000000)">
                    <path d="M143.548115,4.00461814 L140.669861,4 C137.436241,4 135.346534,6.14397044 135.346534,9.46233331 L135.346534,11.9808347 L132.452577,11.9808347 C132.202505,11.9808347 132,12.183571 132,12.4336431 L132,16.0826647 C132,16.3327368 132.202736,16.5352422 132.452577,16.5352422 L135.346534,16.5352422 L135.346534,25.7428852 C135.346534,25.9929573 135.549039,26.1954627 135.799111,26.1954627 L139.5749,26.1954627 C139.824973,26.1954627 140.027478,25.9927264 140.027478,25.7428852 L140.027478,16.5352422 L143.411187,16.5352422 C143.66126,16.5352422 143.863765,16.3327368 143.863765,16.0826647 L143.86515,12.4336431 C143.86515,12.3135716 143.817353,12.1985799 143.73261,12.1136062 C143.647867,12.0286325 143.532414,11.9808347 143.412342,11.9808347 L140.027478,11.9808347 L140.027478,9.84586965 C140.027478,8.81971945 140.272008,8.29879351 141.608728,8.29879351 L143.547653,8.29810079 C143.797495,8.29810079 144,8.09536454 144,7.84552329 L144,4.45719564 C144,4.20758529 143.797726,4.00507995 143.548115,4.00461814 Z" id="fb"></path>
                </g>
            </g>
        </g>
    </g>
</svg>