<?xml version="1.0" encoding="UTF-8"?>
<svg width="22px" height="22px" viewBox="0 0 22 22" version="1.1" xmlns="http://www.w3.org/2000/svg" xmlns:xlink="http://www.w3.org/1999/xlink">
    <!-- Generator: sketchtool 49 (51002) - http://www.bohemiancoding.com/sketch -->
    <title>BADDF765-162C-4ECE-B4AC-8F487BD336C9</title>
    <desc>Created with sketchtool.</desc>
    <defs></defs>
    <g id="Page-1" stroke="none" stroke-width="1" fill="none" fill-rule="evenodd">
        <g id="Главная" transform="translate(-638.000000, -4747.000000)" fill="#909090" fill-rule="nonzero">
            <g id="footer" transform="translate(0.000000, 4210.000000)">
                <g id="social" transform="translate(384.000000, 532.000000)">
                    <path d="M275.169533,5.83086451 C274.615688,5.27687123 273.951976,5 273.17875,5 L256.821752,5 C256.048274,5 255.384764,5.27697156 254.830768,5.83086451 C254.276872,6.38460696 254,7.04821497 254,7.82153803 L254,24.1783115 C254,24.9515342 254.276822,25.6152927 254.830768,26.1690853 C255.384764,26.7229281 256.048425,27 256.821752,27 L273.178549,27 C273.951625,27 274.615537,26.7229281 275.169383,26.1690853 C275.723378,25.6152927 276,24.9515342 276,24.1783115 L276,7.82153803 C275.99995,7.04806447 275.723378,6.38480763 275.169533,5.83086451 Z M261.899369,12.9276274 C262.763448,12.0922478 263.801908,11.6743574 265.014599,11.6743574 C266.23667,11.6743574 267.279796,12.0922478 268.144075,12.9276274 C269.008355,13.7631574 269.440244,14.7730175 269.440244,15.957007 C269.440244,17.1408459 269.008355,18.1507562 268.144075,18.9860354 C267.279796,19.8217661 266.237022,20.2396063 265.014599,20.2396063 C263.801958,20.2396063 262.763599,19.8214149 261.899369,18.9860354 C261.03509,18.1506558 260.603,17.1408459 260.603,15.957007 C260.603,14.7730175 261.03509,13.7632076 261.899369,12.9276274 Z M273.508198,23.5913084 C273.508198,23.8393838 273.422011,24.0469745 273.250288,24.2141808 C273.078065,24.3812367 272.873082,24.4648147 272.634136,24.4648147 L257.323122,24.4648147 C257.074895,24.4648147 256.867052,24.3812367 256.700096,24.2141808 C256.532889,24.0473256 256.449361,23.8393838 256.449361,23.5913084 L256.449361,14.309726 L258.468839,14.309726 C258.277953,14.9113779 258.182485,15.5369092 258.182485,16.1860691 C258.182485,18.0198205 258.850812,19.583122 260.187616,20.8772279 C261.524571,22.170832 263.133481,22.8179351 265.014548,22.8179351 C266.255884,22.8179351 267.401652,22.5217998 268.452353,21.9298302 C269.502702,21.3375093 270.332918,20.5332333 270.944456,19.5161994 C271.555642,18.4992156 271.86121,17.389122 271.86121,16.1861193 C271.86121,15.5369593 271.765391,14.9115785 271.574505,14.3097762 L273.508298,14.309726 L273.508298,23.5913585 L273.508198,23.5913585 L273.508198,23.5913084 Z M273.508198,10.8006002 C273.508198,11.0775216 273.41273,11.3115001 273.221442,11.5024354 C273.030556,11.6935212 272.796727,11.7889387 272.519654,11.7889387 L270.027551,11.7889387 C269.750779,11.7889387 269.516598,11.693471 269.325712,11.5024354 C269.134776,11.3115001 269.039358,11.0775216 269.039358,10.8006002 L269.039358,8.43753763 C269.039358,8.17014795 269.134776,7.93862762 269.325712,7.74282613 C269.516649,7.54712498 269.750829,7.44914899 270.027551,7.44914899 L272.519654,7.44914899 C272.796727,7.44914899 273.030607,7.54707481 273.221442,7.74282613 C273.41268,7.93862762 273.508198,8.17014795 273.508198,8.43753763 L273.508198,10.8006002 Z" id="insta"></path>
                </g>
            </g>
        </g>
    </g>
</svg>