<?xml version="1.0" encoding="UTF-8"?>
<svg width="12px" height="20px" viewBox="0 0 12 20" version="1.1" xmlns="http://www.w3.org/2000/svg" xmlns:xlink="http://www.w3.org/1999/xlink">
    <!-- Generator: sketchtool 49 (51002) - http://www.bohemiancoding.com/sketch -->
    <title>47EFD88E-9C7A-4132-8C8E-75E8D2FD8FF1</title>
    <desc>Created with sketchtool.</desc>
    <defs></defs>
    <g id="Page-1" stroke="none" stroke-width="1" fill="none" fill-rule="evenodd">
        <g id="Главная" transform="translate(-769.000000, -4748.000000)" fill="#909090" fill-rule="nonzero">
            <g id="footer" transform="translate(0.000000, 4210.000000)">
                <g id="social" transform="translate(384.000000, 532.000000)">
                    <g id="odnoklassniki-logo" transform="translate(385.000000, 6.000000)">
                        <path d="M5.01629491,14.0445148 C3.46705782,13.8816421 2.07019099,13.4970345 0.874251952,12.554187 C0.725858397,12.4368849 0.572650946,12.3238022 0.437233978,12.1927867 C-0.0862248111,11.6860246 -0.13896836,11.1056323 0.275235936,10.507518 C0.629580491,9.99569249 1.22441051,9.85876968 1.84268211,10.1526579 C1.96240159,10.2096212 2.07646998,10.2807198 2.18572447,10.3570928 C4.414558,11.9007973 7.47640471,11.9434142 9.71361023,10.4265036 C9.93525872,10.2551918 10.1721861,10.1155263 10.4467874,10.0442168 C10.9807112,9.90602809 11.4786354,10.1037117 11.7651668,10.574608 C12.0925117,11.1123835 12.0883257,11.6372894 11.685005,12.054809 C11.0663148,12.6949074 10.322254,13.1579976 9.49551985,13.4812114 C8.71378511,13.7867033 7.85753964,13.9405041 7.01008477,14.042616 C7.13796694,14.1829144 7.19824529,14.2519033 7.27819781,14.3329177 C8.42892809,15.4983439 9.58468156,16.6589177 10.7316444,17.8279305 C11.1224072,18.2262514 11.2040341,18.720144 10.9888739,19.1834452 C10.7536209,19.6897854 10.2270226,20.022915 9.71068004,19.9872602 C9.38354445,19.9644749 9.128408,19.8003363 8.90173632,19.5701625 C8.03335147,18.6893417 7.14864123,17.8247659 6.29783756,16.927278 C6.05023591,16.6663018 5.93114432,16.71567 5.71263533,16.9422572 C4.83901799,17.848817 3.95116825,18.7414525 3.05808602,19.6290246 C2.65706761,20.0275564 2.17986408,20.099288 1.71479993,19.8716459 C1.22043381,19.6300794 0.905856222,19.1214186 0.930134998,18.610226 C0.946878982,18.2644379 1.11557462,18.0002971 1.35103689,17.7633721 C2.48983708,16.6171447 3.62549777,15.4679635 4.76157706,14.3198373 C4.83671569,14.2434643 4.90683112,14.1624499 5.01629491,14.0445148 Z" id="Shape"></path>
                        <path d="M5.63000537,9.99996942 C2.89416588,9.99065829 0.650798207,7.72557004 0.666751228,4.98892464 C0.682497066,2.22206978 2.92731501,-0.00763616426 5.69008818,1.96560784e-05 C8.45845527,0.00746856236 10.6804832,2.26924619 10.666602,5.0648621 C10.6525136,7.79592082 8.39360727,10.0094875 5.63000537,9.99996942 Z M8.11639764,4.99554589 C8.11163245,3.63674123 7.02807012,2.55499451 5.6701987,2.55375302 C4.30093227,2.55230463 3.20763238,3.65370819 3.21819867,5.02492768 C3.22835059,6.37855948 4.32123611,7.45265039 5.68283681,7.44768445 C7.04029386,7.44292543 8.12095564,6.35414363 8.11639764,4.99554589 Z" id="Shape"></path>
                    </g>
                </g>
            </g>
        </g>
    </g>
</svg>