<?xml version="1.0" encoding="UTF-8"?>
<svg width="30px" height="18px" viewBox="0 0 30 18" version="1.1" xmlns="http://www.w3.org/2000/svg" xmlns:xlink="http://www.w3.org/1999/xlink">
    <!-- Generator: sketchtool 49 (51002) - http://www.bohemiancoding.com/sketch -->
    <title>AE443912-65A6-46A6-8E02-98CFD5BB6ED8</title>
    <desc>Created with sketchtool.</desc>
    <defs></defs>
    <g id="Page-1" stroke="none" stroke-width="1" fill="none" fill-rule="evenodd">
        <g id="Главная" transform="translate(-384.000000, -4749.000000)" fill="#909090" fill-rule="nonzero">
            <g id="footer" transform="translate(0.000000, 4210.000000)">
                <g id="social" transform="translate(384.000000, 532.000000)">
                    <path d="M29.8060656,22.4398701 C29.7697814,22.3616734 29.7359563,22.29681 29.7045355,22.2448428 C29.1846448,21.308504 28.1911475,20.1592144 26.7246448,18.7966461 L26.6936612,18.7654439 L26.6781421,18.7501434 L26.662459,18.7344603 L26.6467213,18.7344603 C25.9811475,18.0999794 25.5596721,17.6733674 25.3831694,17.4549521 C25.0602186,17.0388865 24.9878689,16.617739 25.1643716,16.1910177 C25.289071,15.8686133 25.7574863,15.187739 26.5685246,14.1474658 C26.9951366,13.5961543 27.3330055,13.1542964 27.5825137,12.8214002 C29.3820219,10.4290505 30.1621858,8.90030731 29.9228415,8.2345696 L29.8298907,8.07899583 C29.7674317,7.98533463 29.6062295,7.89965157 29.3465027,7.82150949 C29.0861749,7.74353135 28.7534426,7.73063518 28.3477049,7.78260239 L23.8545902,7.81364064 C23.7818033,7.78784829 23.6778689,7.79025266 23.542459,7.82150949 C23.4072131,7.85276632 23.3395628,7.86844938 23.3395628,7.86844938 L23.2613661,7.90752042 L23.1992896,7.95446031 C23.1472678,7.98549857 23.0900546,8.04008873 23.0275956,8.11812152 C22.9654645,8.19588108 22.9134973,8.28713791 22.8719672,8.39112698 C22.3827869,9.64965157 21.826612,10.8197609 21.2024044,11.9014002 C20.817541,12.5463729 20.4640984,13.1053346 20.1413115,13.5786133 C19.8189617,14.0517281 19.5485246,14.4003073 19.3302732,14.6237499 C19.111694,14.8474111 18.9144262,15.0265915 18.7372678,15.1619467 C18.5603825,15.2973565 18.4253552,15.3545696 18.3318579,15.3336406 C18.2381421,15.3127117 18.1498907,15.2919467 18.0663388,15.2711816 C17.9208197,15.1775204 17.8037705,15.0501434 17.7155191,14.8889412 C17.6268852,14.727739 17.5672131,14.5248428 17.5360109,14.2804166 C17.5049727,14.0358264 17.486612,13.8254439 17.4813661,13.6485587 C17.4765027,13.471892 17.4787432,13.2220013 17.4892896,12.8995969 C17.5001093,12.5770286 17.5049727,12.3587773 17.5049727,12.244351 C17.5049727,11.8490505 17.5126776,11.4200341 17.5281421,10.9571926 C17.5438798,10.494351 17.556612,10.1276297 17.5672678,9.85746578 C17.5778689,9.58702862 17.5827869,9.3009084 17.5827869,8.99926906 C17.5827869,8.69762971 17.5644262,8.46107234 17.5281421,8.28937835 C17.4922951,8.11790294 17.4372678,7.95145485 17.3647541,7.79008873 C17.2918033,7.62888654 17.1850273,7.50418709 17.044918,7.4156625 C16.9045355,7.3272472 16.73,7.25708326 16.5222951,7.20495212 C15.9709836,7.08019802 15.2689617,7.01271168 14.4159016,7.00221988 C12.4814208,6.98145485 11.2384153,7.10637288 10.6871585,7.37681004 C10.4687432,7.49107234 10.2710929,7.64719255 10.0943716,7.84467889 C9.90710383,8.073586 9.88098361,8.19850403 10.0161749,8.21905048 C10.6403279,8.31254775 11.0821858,8.53620895 11.3422404,8.88981551 L11.4359563,9.07719255 C11.5088525,9.21238381 11.5816393,9.45172807 11.6544809,9.79489747 C11.7272131,10.1380669 11.774153,10.5176844 11.7948087,10.9335314 C11.8467213,11.6929303 11.8467213,12.3429849 11.7948087,12.8837499 C11.7427322,13.4247335 11.6935519,13.8458811 11.646612,14.1475204 C11.5996721,14.4491598 11.5295082,14.693586 11.4359563,14.8807445 C11.3422404,15.0679576 11.2798907,15.1823838 11.2486339,15.2239139 C11.2174317,15.2654439 11.1914208,15.2916188 11.170765,15.301892 C11.0355738,15.3536953 10.8949727,15.3800887 10.7494536,15.3800887 C10.6037158,15.3800887 10.4269945,15.3071926 10.2190164,15.1615095 C10.0110929,15.0158264 9.79530055,14.8157171 9.57163934,14.5608538 C9.34797814,14.3059357 9.0957377,13.9497062 8.81480874,13.4921106 C8.53409836,13.034515 8.24284153,12.4936953 7.94120219,11.8696516 L7.69163934,11.4170833 C7.53562842,11.1259357 7.32251366,10.7020013 7.0520765,10.1456625 C6.78147541,9.58910512 6.54229508,9.05074447 6.33437158,8.53068982 C6.25125683,8.31227452 6.12639344,8.14599037 5.96,8.03156414 L5.88191257,7.98462425 C5.83,7.94309419 5.74666667,7.89899583 5.63234973,7.8520013 C5.51786885,7.80506141 5.3984153,7.7714002 5.27349727,7.75068982 L0.998688525,7.78172807 C0.561857923,7.78172807 0.265464481,7.88068982 0.109398907,8.0783401 L0.0469398907,8.17183736 C0.0157377049,8.22391387 0,8.30708326 0,8.42156414 C0,8.53599037 0.0312021858,8.67642753 0.0936612022,8.84271168 C0.717704918,10.3093783 1.3963388,11.7238592 2.12956284,13.0863729 C2.86278689,14.4488865 3.49994536,15.5464275 4.04065574,16.3780122 C4.58147541,17.210198 5.13273224,17.9956079 5.69442623,18.7338592 C6.25612022,19.4723838 6.6279235,19.9456625 6.80983607,20.153586 C6.99196721,20.361892 7.13502732,20.5176297 7.23901639,20.6216188 L7.62912568,20.9959904 C7.87874317,21.2456625 8.24530055,21.5446789 8.72896175,21.8930395 C9.21273224,22.2416188 9.74830601,22.5847882 10.3359563,22.9230942 C10.9237158,23.2608538 11.6074863,23.5364822 12.3876503,23.7496516 C13.1677049,23.9630395 13.9269399,24.048668 14.6654645,24.0073565 L16.4596721,24.0073565 C16.8235519,23.9759357 17.099235,23.8615095 17.286612,23.6640232 L17.3486885,23.5858264 C17.3904372,23.5237499 17.4295082,23.4273018 17.4655738,23.2975204 C17.5020765,23.1675204 17.5202186,23.0242964 17.5202186,22.868504 C17.5095628,22.4213456 17.5436066,22.0183401 17.6214208,21.6595423 C17.6991803,21.3008538 17.7878142,21.0304166 17.8869399,20.8482855 C17.9860109,20.6663182 18.0978142,20.5127663 18.2222404,20.3882855 C18.3469399,20.2635314 18.4357923,20.1879576 18.4879235,20.1619467 C18.5397268,20.1357718 18.5810929,20.1180122 18.6122951,20.1073565 C18.8619126,20.0241871 19.1556831,20.1047335 19.4940437,20.3493783 C19.8321311,20.5938046 20.149235,20.8956079 20.445847,21.2542964 C20.7422951,21.6133128 21.0984699,22.0160997 21.5144262,22.4632581 C21.9306557,22.9105805 22.2945902,23.2430942 22.6065027,23.4618374 L22.9184153,23.6490505 C23.1267213,23.7739685 23.3971585,23.8883947 23.7300546,23.9923838 C24.0623497,24.0963182 24.3534973,24.1223292 24.6034973,24.070362 L28.5973224,24.0080669 C28.9923497,24.0080669 29.2997268,23.942657 29.5177596,23.8128756 C29.7362295,23.6828756 29.8660109,23.5396516 29.9078689,23.3838592 C29.9496175,23.2279029 29.9518579,23.050963 29.9157923,22.8531488 C29.8787978,22.6558264 29.8423497,22.5178483 29.8060656,22.4398701 Z" id="vk"></path>
                </g>
            </g>
        </g>
    </g>
</svg>