<?xml version="1.0" standalone="no"?>
<!DOCTYPE svg PUBLIC "-//W3C//DTD SVG 1.1//EN" "http://www.w3.org/Graphics/SVG/1.1/DTD/svg11.dtd" >
<svg>
<metadata>
Created by FontForge 20090622 at Thu Mar 29 15:41:09 2018
 By deploy user
Part of the digitally encoded machine readable outline data for producing the Typefaces provided is copyrighted (c) 1991,2005 Linotype Library GmbH, www.linotype.com. All rights reserved. This software is the property of Linotype Library GmbH, and may not be reproduced, used, displayed, modified, disclosed or transferred without the express written approval of Linotype Library GmbH.Copyright (c) 1991 Adobe Systems Incorporated. All rights reserved. All Cyrillic characters are designed for Linotype Library by Double Alex.
</metadata>
<defs>
<font id="FrutigerLTCYR-Condensed" horiz-adv-x="480" >
  <font-face 
    font-family="Frutiger LT CYR 57 Condensed"
    font-weight="400"
    font-stretch="normal"
    units-per-em="1000"
    panose-1="2 0 5 6 4 0 0 2 0 4"
    ascent="800"
    descent="-200"
    x-height="508"
    cap-height="698"
    bbox="-28 -250 1000 876"
    underline-thickness="50"
    underline-position="-50"
    unicode-range="U+0020-U+F8FF"
  />
<missing-glyph horiz-adv-x="512" 
d="M222 117v67h56v-67h-56zM225 234l-2 17q0 56 13 81q7 13 18 27.5t28 31.5q16 15 26 26.5t15 21t7 18t2 17.5q0 36 -22.5 60.5t-53.5 24.5t-53.5 -22t-28.5 -73l-50 8q7 72 44 104.5t91 32.5t89 -35.5t35 -95.5q0 -32 -12.5 -58.5t-50.5 -61.5q-37 -33 -43 -52
q-6 -20 -6 -72h-46zM462 50v617h-412v-617h412zM512 718v-718h-512v718h512z" />
    <glyph glyph-name=".notdef" horiz-adv-x="512" 
d="M222 117v67h56v-67h-56zM225 234l-2 17q0 56 13 81q7 13 18 27.5t28 31.5q16 15 26 26.5t15 21t7 18t2 17.5q0 36 -22.5 60.5t-53.5 24.5t-53.5 -22t-28.5 -73l-50 8q7 72 44 104.5t91 32.5t89 -35.5t35 -95.5q0 -32 -12.5 -58.5t-50.5 -61.5q-37 -33 -43 -52
q-6 -20 -6 -72h-46zM462 50v617h-412v-617h412zM512 718v-718h-512v718h512z" />
    <glyph glyph-name=".null" horiz-adv-x="0" 
 />
    <glyph glyph-name="nonmarkingreturn" horiz-adv-x="240" 
 />
    <glyph glyph-name="space" unicode=" " horiz-adv-x="240" 
 />
    <glyph glyph-name="exclam" unicode="!" horiz-adv-x="352" 
d="M140 186l-14 512h100l-14 -512h-72zM128 112h96v-112h-96v112z" />
    <glyph glyph-name="quotedbl" unicode="&#x22;" horiz-adv-x="500" 
d="M146 415l-11 283h71l-11 -283h-49zM303 415l-10 283h71l-11 -283h-50z" />
    <glyph glyph-name="numbersign" unicode="#" 
d="M42 0l38 206h-105v60h116l30 165h-105v61h116l38 206h70l-38 -206h128l38 206h70l-38 -206h105v-61h-116l-30 -165h105v-60h-117l-37 -206h-70l37 206h-127l-38 -206h-70zM319 431h-128l-30 -165h128z" />
    <glyph glyph-name="dollar" unicode="$" 
d="M221 -6q-11 -1 -12 -1h-7q-35 0 -68.5 8t-65.5 22v91q41 -23 73 -34t61 -11q5 0 9.5 0.5t9.5 0.5v249q-33 20 -61.5 39t-50 42t-34 53t-12.5 72q0 80 43 122t115 56v82h40v-80q32 -2 62.5 -6t59.5 -17v-85q-27 14 -56.5 23t-60.5 9h-5v-227l60.5 -40.5t49.5 -43t33.5 -54
t12.5 -74.5q0 -81 -40.5 -128.5t-115.5 -63.5v-92h-40v88zM261 82q34 17 49 41t15 61q0 39 -17 61.5t-47 45.5v-209zM221 621q-35 -14 -50.5 -37.5t-15.5 -59.5q0 -14 3 -25.5t10.5 -22.5t20 -22.5t32.5 -25.5v193z" />
    <glyph glyph-name="percent" unicode="%" horiz-adv-x="814" 
d="M58 509q0 96 35.5 146t103.5 50q69 0 104 -50.5t35 -148.5q0 -89 -36.5 -138t-102.5 -49q-67 0 -103 49.5t-36 140.5zM478 183q0 96 35.5 146t103.5 50q69 0 104 -50.5t35 -148.5q0 -89 -36.5 -138t-102.5 -49q-67 0 -103 49.5t-36 140.5zM532 731h64l-313 -764h-64z
M130 512q0 -69 16 -101t51 -32t51 32t16 101t-16 101t-51 32t-51 -32t-16 -101zM550 186q0 -69 16 -101t51 -32t51 32t16 101t-16 101t-51 32t-51 -32t-16 -101z" />
    <glyph glyph-name="ampersand" unicode="&#x26;" horiz-adv-x="611" 
d="M563 391q-1 -63 -21 -129.5t-56 -123.5l106 -138h-103l-53 78q-30 -45 -74 -65.5t-98 -20.5q-96 0 -151.5 53t-55.5 147q0 132 135 203q-37 42 -55.5 82.5t-18.5 78.5q0 32 12.5 59.5t35 47.5t53.5 31.5t67 11.5q34 0 63 -10.5t49.5 -29.5t32 -45.5t11.5 -58.5
q0 -33 -11.5 -60t-30.5 -49.5t-42.5 -41t-48.5 -35.5l129 -175q23 42 32.5 92t10.5 98h82zM263 427l34.5 25.5t31.5 29.5t23 35t9 42q0 35 -21.5 57.5t-55.5 22.5q-35 0 -60 -25t-25 -59q0 -18 6 -35t15.5 -33t21 -31.5zM238 340q-40 -25 -66.5 -60.5t-26.5 -86.5
q0 -27 9.5 -50.5t26 -41t39 -28t47.5 -10.5q35 0 70 19.5t55 50.5l-154 207v0z" />
    <glyph glyph-name="quotesingle" unicode="'" horiz-adv-x="240" 
d="M96 415l-12 283h71l-11 -283h-48z" />
    <glyph glyph-name="parenleft" unicode="(" horiz-adv-x="278" 
d="M252 750q-54 -103 -88 -212t-34 -227q0 -109 29.5 -217t92.5 -229l-68 -5l-54 109.5t-43 105t-28.5 108.5t-10.5 122q0 61 10.5 119.5t29 114t43 109t53.5 106.5z" />
    <glyph glyph-name="parenright" unicode=")" horiz-adv-x="278" 
d="M225 305q0 -66 -10.5 -122t-28.5 -108.5t-43 -105l-54 -109.5l-68 5q63 121 92.5 229t29.5 217q0 118 -34 227t-88 212l68 4q28 -53 53 -106.5t43.5 -109t29 -114t10.5 -119.5z" />
    <glyph glyph-name="asterisk" unicode="*" horiz-adv-x="500" 
d="M288 750l-12 -129l113 54l25 -66l-122 -39l81 -110l-63 -39l-60 116l-59 -116l-62 39l78 110l-121 34l25 71l113 -54l-12 129h76z" />
    <glyph glyph-name="plus" unicode="+" horiz-adv-x="600" 
d="M264 215h-216v65h216v215h72v-215h216v-65h-216v-215h-72v215z" />
    <glyph glyph-name="comma" unicode="," horiz-adv-x="240" 
d="M76 112h92l-66 -232h-76z" />
    <glyph glyph-name="hyphen" unicode="-" horiz-adv-x="296" 
d="M40 317h216v-72h-216v72z" />
    <glyph glyph-name="period" unicode="." horiz-adv-x="240" 
d="M72 112h96v-112h-96v112z" />
    <glyph glyph-name="slash" unicode="/" horiz-adv-x="259" 
d="M185 705h74l-185 -713h-74z" />
    <glyph glyph-name="zero" unicode="0" 
d="M444 348q0 -33 -2.5 -72.5t-10 -79t-21.5 -76.5t-36.5 -65.5t-55 -45.5t-77.5 -17q-100 0 -152 92t-52 269q0 171 52 261t151 90q45 0 77.5 -17t55.5 -45.5t36.5 -65.5t21.5 -76.5t10.5 -79t2.5 -72.5zM357 340q0 18 -1 46.5t-4.5 61t-10.5 65.5t-20 59.5t-33 43.5
t-48 17t-48 -16.5t-33 -42t-20 -58t-10.5 -64t-4 -59.5t-0.5 -46q0 -19 1 -47.5t4.5 -60.5t11 -63.5t20.5 -56.5t32.5 -41t48.5 -16q28 0 47 15.5t32 40t20 55.5t10.5 61.5t4.5 58.5t1 47z" />
    <glyph glyph-name="one" unicode="1" 
d="M292 0h-87v595l-89 -98l-46 65l143 136h79v-698z" />
    <glyph glyph-name="two" unicode="2" 
d="M406 0h-365v78l96 115q23 28 52.5 67.5t55 83.5t43 89t17.5 84q0 51 -26 80.5t-71 29.5q-40 0 -74.5 -15.5t-65.5 -38.5l-11 92q43 20 83.5 30t76.5 10q41 0 74 -13t56.5 -36.5t36.5 -57t13 -75.5q0 -24 -4 -46t-12.5 -46.5t-23 -52.5t-35.5 -63q-15 -26 -38.5 -58.5
l-49.5 -66t-52.5 -64t-47.5 -51.5h272v-75z" />
    <glyph glyph-name="three" unicode="3" 
d="M124 396h11q30 0 63 4t60 16.5t45 36.5t18 64q0 50 -35.5 82t-91.5 32q-34 0 -64.5 -11.5t-59.5 -27.5l-6 85q36 13 73 20.5t75 7.5q45 0 81.5 -12.5t62.5 -35.5t40 -55.5t14 -72.5q0 -61 -33.5 -104.5t-90.5 -55.5q63 -20 97 -61.5t34 -113.5q0 -45 -16 -82.5t-46 -64
t-72 -41t-94 -14.5q-35 0 -69.5 6t-79.5 20l8 86q32 -15 66 -26t69 -11q31 0 57 10.5t45 28.5t30 42.5t11 53.5q0 42 -24 74t-65 41q-19 5 -40.5 5.5t-59.5 0.5h-13v73z" />
    <glyph glyph-name="four" unicode="4" 
d="M459 158h-80v-158h-79v158h-276v84l251 456h104v-468h80v-72zM300 541q0 20 1 38.5t1 38.5l-208 -388h206v311z" />
    <glyph glyph-name="five" unicode="5" 
d="M390 622h-240v-191q23 6 42 8.5t37 2.5q90 0 142 -57t52 -156q0 -110 -59.5 -173.5t-163.5 -63.5q-61 0 -139 28l5 84q38 -19 64.5 -27t55.5 -8q69 0 108 42t39 114q0 69 -38.5 106.5t-110.5 37.5q-27 0 -57.5 -6.5t-56.5 -16.5v352h320v-76z" />
    <glyph glyph-name="six" unicode="6" 
d="M407 602q-26 14 -53 22t-52 8q-84 0 -132 -71.5t-51 -202.5q26 40 60 63.5t85 23.5q39 0 72 -16.5t56.5 -46.5t37 -70.5t13.5 -88.5q0 -52 -14 -94.5t-40 -73t-62.5 -47t-80.5 -16.5q-67 0 -107.5 31.5t-62.5 80t-29 106t-7 110.5q0 46 3.5 92.5t14 89t28.5 80t47 65
t70 43t97 15.5t113 -20zM354 218q0 69 -30.5 110t-81.5 41q-50 0 -79.5 -41.5t-29.5 -110.5q0 -71 29.5 -111.5t80.5 -40.5t81 41.5t30 111.5z" />
    <glyph glyph-name="seven" unicode="7" 
d="M424 698v-82l-215 -616h-97l228 623h-284v75h368z" />
    <glyph glyph-name="eight" unicode="8" 
d="M166 365q-52 25 -82.5 72t-30.5 103q0 37 13.5 67.5t38.5 52.5t59.5 33.5t75.5 11.5t75.5 -11.5t59 -32.5t38.5 -50.5t14 -65.5q0 -29 -9.5 -55t-25.5 -48.5t-37 -41t-44 -32.5q30 -16 54.5 -32.5t42 -37.5t27.5 -48.5t10 -65.5q0 -44 -15 -79t-42 -60.5t-64.5 -39
t-83.5 -13.5q-45 0 -83 14t-65 39.5t-42 61.5t-15 79q0 69 35.5 112t95.5 67zM247 397q18 12 34.5 27.5t29.5 34t21 39.5t8 44q0 42 -28.5 68t-71.5 26q-45 0 -74 -28.5t-29 -73.5q0 -86 110 -137zM232 332q-22 -13 -42 -26.5t-35.5 -30t-24.5 -37.5t-9 -50q0 -27 9 -50.5
t25.5 -40t38.5 -26t48 -9.5q50 0 82 34.5t32 86.5q0 30 -10.5 52.5t-28 40t-39.5 31t-46 25.5z" />
    <glyph glyph-name="nine" unicode="9" 
d="M72 96q26 -11 51.5 -20.5t54.5 -9.5q84 0 130.5 71t51.5 205q-26 -41 -58 -64t-85 -23q-40 0 -73 16.5t-57 46.5t-37 71.5t-13 91.5q0 51 14.5 92.5t40.5 70.5t62.5 45t81.5 16q65 0 105 -30.5t62 -78t29.5 -103.5t7.5 -107q0 -42 -3 -87.5t-12.5 -89.5t-27 -83t-45 -69
t-67.5 -47.5t-95 -17.5q-32 0 -64.5 5.5t-59.5 15.5zM236 635q-49 0 -79.5 -41.5t-30.5 -110.5t29.5 -110t79.5 -41q52 0 82 41.5t30 113.5q0 66 -31 107t-80 41z" />
    <glyph glyph-name="colon" unicode=":" horiz-adv-x="240" 
d="M72 508h96v-112h-96v112zM72 112h96v-112h-96v112z" />
    <glyph glyph-name="semicolon" unicode=";" horiz-adv-x="240" 
d="M76 112h92l-66 -232h-76zM72 508h96v-112h-96v112z" />
    <glyph glyph-name="less" unicode="&#x3c;" horiz-adv-x="600" 
d="M48 282l504 200v-73l-417 -162l417 -162v-73l-504 199v71z" />
    <glyph glyph-name="equal" unicode="=" horiz-adv-x="600" 
d="M48 377h504v-65h-504v65zM48 183h504v-66h-504v66z" />
    <glyph glyph-name="greater" unicode="&#x3e;" horiz-adv-x="600" 
d="M48 12v73l417 162l-417 162v73l504 -200v-71z" />
    <glyph glyph-name="question" unicode="?" horiz-adv-x="444" 
d="M72 677q32 12 64 20t66 8q85 0 133.5 -45.5t48.5 -123.5q0 -38 -13 -78.5t-38 -76.5l-58 -85q-12 -17 -18 -29t-9 -24t-3.5 -26.5t-0.5 -35.5h-76q0 36 2.5 60.5t9.5 45t20.5 40.5t35.5 49q26 32 43 64t17 74q0 51 -29 83t-75 32q-44 0 -116 -34zM158 112h96v-112h-96
v112z" />
    <glyph glyph-name="at" unicode="@" horiz-adv-x="800" 
d="M714 92q-72 -52 -143 -78.5t-161 -26.5q-78 0 -148 24.5t-123 70.5t-84 112.5t-31 149.5t32 153t86.5 120.5t128 78.5t156.5 28q67 0 127.5 -20t106.5 -57.5t72.5 -92.5t26.5 -125q0 -42 -13.5 -88t-40 -84.5t-64 -63t-85.5 -24.5q-32 0 -55 18.5t-23 51.5q0 10 5 32
q-22 -45 -56.5 -73.5t-86.5 -28.5q-33 0 -58 12.5t-41.5 33t-25 48t-8.5 57.5q0 40 14 82.5t40 76.5t62.5 56t81.5 22t76 -21t42 -64l20 71h62l-60 -200q-10 -32 -14 -53.5t-4 -33.5q0 -21 13 -32t33 -11q35 0 62 23.5t45.5 57t28 71.5t9.5 67q0 61 -24 108t-64 78.5t-93 48
t-111 16.5q-75 0 -140.5 -25t-114.5 -70t-77.5 -107.5t-28.5 -137.5q0 -73 27.5 -131.5t74.5 -99.5t110.5 -63t134.5 -22q82 0 147.5 25t130.5 71zM497 429q0 35 -20 60t-58 25q-32 0 -58 -20.5t-44 -50.5t-27.5 -64.5t-9.5 -62.5q0 -18 4 -36.5t13.5 -33.5t24.5 -24t37 -9
q33 0 58.5 23t43 56.5t27 71t9.5 65.5z" />
    <glyph glyph-name="A" unicode="A" horiz-adv-x="574" 
d="M474 0l-57 183h-263l-59 -183h-87l234 698h96l228 -698h-92zM395 256l-107 354h-2l-110 -354h219z" />
    <glyph glyph-name="B" unicode="B" horiz-adv-x="519" 
d="M254 698q43 0 78.5 -11t61 -33t39.5 -54.5t14 -75.5q0 -63 -29.5 -100.5t-83.5 -57.5q59 -19 93.5 -59.5t34.5 -114.5q0 -44 -15 -79.5t-43 -60.5t-68 -38.5t-89 -13.5h-170v698h177zM164 397h55q29 0 54.5 6t44 20t29.5 36.5t11 56.5q0 31 -10.5 52t-28.5 34t-42 18.5
t-52 5.5h-61v-229zM224 74q72 0 110.5 31.5t38.5 91.5q0 61 -36.5 94t-102.5 33h-70v-250h60z" />
    <glyph glyph-name="C" unicode="C" horiz-adv-x="537" 
d="M482 592q-62 35 -124 35q-50 0 -90 -19.5t-68 -56t-43.5 -88.5t-15.5 -116q0 -61 15.5 -111.5t44 -86.5t68.5 -56t88 -20q61 0 125 32l3 -89q-60 -23 -128 -23q-71 0 -128.5 25.5t-98 72.5t-62 113.5t-21.5 149.5q0 80 21.5 145t61.5 110.5t96 70.5t125 25q33 0 68 -6.5
t67 -17.5z" />
    <glyph glyph-name="D" unicode="D" horiz-adv-x="574" 
d="M213 698q84 0 144.5 -25t100 -71t58.5 -110t19 -143q0 -77 -21.5 -141t-63.5 -110.5t-104 -72t-143 -25.5h-135v698h145zM157 75h44q114 0 177 69.5t63 209.5q0 136 -59 203t-192 67h-33v-549z" />
    <glyph glyph-name="E" unicode="E" horiz-adv-x="463" 
d="M402 698v-75h-238v-224h226v-75h-226v-249h249v-75h-336v698h325z" />
    <glyph glyph-name="F" unicode="F" horiz-adv-x="426" 
d="M389 698v-75h-224v-224h214v-77h-214v-322h-88v698h312z" />
    <glyph glyph-name="G" unicode="G" horiz-adv-x="612" 
d="M539 30q-30 -17 -76 -27.5t-97 -10.5q-79 0 -139 28.5t-100 78t-60 115t-20 139.5q0 80 22.5 145t64 111t100 71t130.5 25q40 0 77.5 -7.5t79.5 -23.5l-4 -89q-36 20 -75.5 30.5t-78.5 10.5q-50 0 -90.5 -19.5t-70 -55.5t-45.5 -86t-16 -111q0 -54 12.5 -105t39.5 -90
t70 -63t104 -24q22 0 44 3.5t42 13.5v219h-117v75h203v-353z" />
    <glyph glyph-name="H" unicode="H" horiz-adv-x="574" 
d="M164 0h-89v698h89v-298h246v298h89v-698h-89v323h-246v-323z" />
    <glyph glyph-name="I" unicode="I" horiz-adv-x="242" 
d="M165 698v-698h-89v698h89z" />
    <glyph glyph-name="J" unicode="J" horiz-adv-x="315" 
d="M246 698v-495q0 -39 -6.5 -77t-23.5 -68t-47 -48t-78 -18q-17 0 -34 3.5t-34 6.5l1 85q18 -8 28 -10t22 -2q28 0 44.5 12t25.5 31t11.5 42.5t2.5 45.5v492h88z" />
    <glyph glyph-name="K" unicode="K" horiz-adv-x="519" 
d="M157 396l232 302h106l-262 -330l283 -368h-113l-246 337v-337h-89v698h89v-302z" />
    <glyph glyph-name="L" unicode="L" horiz-adv-x="407" 
d="M164 75h227v-75h-316v698h89v-623z" />
    <glyph glyph-name="M" unicode="M" horiz-adv-x="778" 
d="M209 698l141 -432q11 -34 20.5 -69.5t16.5 -70.5l18.5 70t20.5 70l144 432h131v-698h-85v433q0 47 1 93.5t4 93.5l-14.5 -48.5l-15.5 -48.5l-174 -523h-67l-163 503q-9 29 -17 58.5l-16 58.5q2 -42 3.5 -84t1.5 -84v-452h-84v698h134z" />
    <glyph glyph-name="N" unicode="N" horiz-adv-x="612" 
d="M535 0h-109l-218 457q-15 32 -28.5 65.5t-23.5 66.5q0 -17 0.5 -33t0.5 -31v-197v-85t0.5 -87t0.5 -83v-73h-83v698h109l216 -451q17 -37 32 -74t26 -76q-3 40 -4 79.5t-1 79.5v442h82v-698z" />
    <glyph glyph-name="O" unicode="O" horiz-adv-x="612" 
d="M304 705q76 0 126 -32t80 -83.5t42 -115.5t12 -127t-12 -126.5t-41.5 -114t-79 -82.5t-125.5 -32q-75 0 -124.5 32.5t-79 84.5t-42 115.5t-12.5 126.5q0 82 17.5 147.5t50.5 111.5t80.5 70.5t107.5 24.5zM306 631q-78 0 -122 -75t-44 -209q0 -39 6 -88t24 -92t50.5 -72
t85.5 -29q52 0 84.5 29t50.5 72t24.5 92t6.5 88q0 40 -6 89t-24 92.5t-50.5 73t-85.5 29.5z" />
    <glyph glyph-name="P" unicode="P" horiz-adv-x="481" 
d="M240 698q97 0 153 -49.5t56 -152.5q0 -56 -16 -95t-46 -63.5t-72.5 -35.5t-95.5 -11h-54v-291h-89v698h164zM163 366h54q19 0 43.5 3.5t46.5 16.5t37 38t15 69q0 36 -10.5 61t-28.5 40t-43 22t-54 7h-60v-257z" />
    <glyph glyph-name="Q" unicode="Q" horiz-adv-x="612" 
d="M443 -129l-105 124q-13 -2 -19.5 -2.5t-14.5 -0.5q-71 0 -120 31.5t-79.5 82t-44 112.5t-13.5 123q0 63 12 128t41.5 117.5t80.5 86t129 33.5t128 -33t78.5 -85.5t39 -116.5t10.5 -127q0 -127 -36.5 -206.5t-112.5 -119.5l133 -147h-107zM308 632q-81 0 -124.5 -75
t-43.5 -217q0 -63 11.5 -113.5t33.5 -86t53 -54.5t70 -19q54 0 87 29.5t50 72.5t22.5 92.5t5.5 90.5q0 40 -5.5 89t-23 91.5t-50 71t-86.5 28.5z" />
    <glyph glyph-name="R" unicode="R" horiz-adv-x="519" 
d="M264 698q36 0 70 -10.5t61 -32.5t43 -56t16 -80q0 -69 -38 -114.5t-101 -56.5q38 -7 54.5 -29.5t29.5 -59.5l91 -259h-94l-77 226q-8 24 -16 41t-20.5 28t-31 16t-46.5 5h-41v-316h-88v698h188zM163 387h51q27 0 53.5 5t47.5 18.5t34 38t13 62.5q0 35 -12.5 57.5t-32 35
t-43.5 17t-48 4.5h-63v-238z" />
    <glyph glyph-name="S" unicode="S" horiz-adv-x="444" 
d="M363 597q-58 31 -113 31q-51 0 -81.5 -26.5t-30.5 -71.5q0 -33 17 -56.5t58 -50.5l68 -45q27 -18 49 -36.5t38 -41t24.5 -50t8.5 -62.5q0 -44 -14.5 -80t-41 -62t-64 -40t-82.5 -14q-72 0 -146 31l4 91q70 -45 135 -45q25 0 46.5 8.5t37.5 24t24.5 36.5t8.5 46
q0 24 -7.5 42.5t-20 33.5t-29 27l-34.5 24l-67 44q-25 16 -44.5 33.5t-33 38t-20.5 45.5t-7 57q0 40 14 72.5t39.5 55.5t61 35.5t78.5 12.5q31 0 61 -5.5t67 -17.5z" />
    <glyph glyph-name="T" unicode="T" horiz-adv-x="444" 
d="M427 623h-159v-623h-89v623h-161v75h409v-75z" />
    <glyph glyph-name="U" unicode="U" horiz-adv-x="592" 
d="M166 698v-473q0 -31 8 -59.5t24.5 -50.5t40.5 -35t57 -13q42 0 68 19t40.5 48.5t19 65.5t4.5 69v429h87v-447q0 -46 -10.5 -92t-36 -83.5t-67 -61t-104.5 -23.5q-67 0 -109.5 23t-67 60t-33.5 83t-9 92v449h88z" />
    <glyph glyph-name="V" unicode="V" horiz-adv-x="537" 
d="M105 698l129 -458q10 -34 18 -67t14 -68l15.5 66.5t17.5 65.5l137 461h89l-216 -698h-89l-210 698h95z" />
    <glyph glyph-name="W" unicode="W" horiz-adv-x="796" 
d="M100 698l92 -460q13 -69 24 -138q6 35 11 69t13 69l104 460h112l97 -444q8 -38 14.5 -76t11.5 -76q8 36 13.5 73t13.5 73l97 450h84l-155 -698h-105l-109 501q-12 56 -21 116l-10 -58t-11 -58l-111 -501h-104l-151 698h90z" />
    <glyph glyph-name="X" unicode="X" horiz-adv-x="537" 
d="M138 698l143 -260l143 260h97l-192 -328l204 -370h-103l-158 299l-164 -299h-100l214 370l-188 328h104z" />
    <glyph glyph-name="Y" unicode="Y" horiz-adv-x="518" 
d="M107 698l155 -313l153 313h98l-210 -405v-293h-89v293l-210 405h103z" />
    <glyph glyph-name="Z" unicode="Z" horiz-adv-x="463" 
d="M423 698v-80l-293 -543h300v-75h-396v83l286 540h-276v75h379z" />
    <glyph glyph-name="bracketleft" unicode="[" horiz-adv-x="278" 
d="M90 760h152v-60h-80v-776h80v-60h-152v896z" />
    <glyph glyph-name="backslash" unicode="\" horiz-adv-x="259" 
d="M185 -8l-185 713h74l185 -713h-74z" />
    <glyph glyph-name="bracketright" unicode="]" horiz-adv-x="278" 
d="M36 -76h80v776h-80v60h152v-896h-152v60z" />
    <glyph glyph-name="asciicircum" unicode="^" horiz-adv-x="600" 
d="M267 698h67l170 -418h-75l-131 331l-127 -331h-75z" />
    <glyph glyph-name="underscore" unicode="_" horiz-adv-x="500" 
d="M0 -75h500v-50h-500v50z" />
    <glyph glyph-name="grave" unicode="`" horiz-adv-x="204" 
d="M-14 725h99l67 -145h-64z" />
    <glyph glyph-name="a" unicode="a" horiz-adv-x="463" 
d="M332 0v70h-3q-54 -78 -142 -78q-33 0 -60.5 11t-47.5 31t-31 47.5t-11 60.5q0 52 23.5 85t60 51.5t81 25t86.5 6.5q9 0 18.5 -0.5t18.5 -0.5q0 33 -4 58.5t-15.5 43t-32.5 26.5t-54 9q-64 0 -129 -48l-9 76q42 22 76 31t73 9q60 0 94.5 -19t52.5 -48.5t22.5 -66
t4.5 -71.5v-209q0 -25 2 -50l4 -50h-78zM325 254q-12 1 -19 1h-16q-27 0 -56.5 -3.5t-55 -15t-42 -32.5t-16.5 -56q0 -40 24.5 -65.5t62.5 -25.5q57 0 87.5 40.5t30.5 107.5v49v0z" />
    <glyph glyph-name="b" unicode="b" horiz-adv-x="481" 
d="M138 437h2q23 35 54 56t77 21q52 0 85.5 -25.5t52.5 -64t26.5 -84.5t7.5 -88q0 -41 -7.5 -87t-27 -84t-53.5 -63t-86 -25q-47 0 -79.5 22.5t-55.5 61.5h-3v-77h-79q3 79 3 153v597h83v-313zM355 251q0 96 -26.5 146t-77.5 50q-38 0 -60.5 -19.5t-35 -48.5t-16.5 -63
t-4 -62q0 -29 4 -62.5t16.5 -62t35 -48t60.5 -19.5q51 0 77.5 47.5t26.5 141.5z" />
    <glyph glyph-name="c" unicode="c" horiz-adv-x="389" 
d="M358 418q-24 11 -45.5 17t-44.5 6q-69 0 -106 -47t-37 -134q0 -91 39 -142.5t108 -51.5q52 0 91 24l4 -78q-23 -8 -50 -14t-57 -6q-105 0 -164.5 70t-59.5 193q0 60 15.5 108t44.5 81.5t70 52t92 18.5q26 0 50 -4.5t55 -15.5z" />
    <glyph glyph-name="d" unicode="d" horiz-adv-x="481" 
d="M424 108q0 -27 1.5 -54t1.5 -54h-78v77h-2q-14 -19 -27 -34.5t-28.5 -26.5t-34.5 -17t-45 -6q-54 0 -88 25t-54 63.5t-27.5 85t-7.5 89.5q0 42 8 87.5t27.5 83.5t53.5 62.5t86 24.5q43 0 76 -19.5t53 -56.5h2v312h83v-642zM344 255q0 28 -4 61.5t-16 62.5t-34.5 48.5
t-60.5 19.5q-52 0 -78.5 -49t-26.5 -143q0 -26 3 -59.5t13.5 -63t32 -50t57.5 -20.5q37 0 59.5 19.5t34.5 49t16 63t4 61.5z" />
    <glyph glyph-name="e" unicode="e" horiz-adv-x="444" 
d="M123 230q1 -32 8 -62.5t22.5 -54t41.5 -38t64 -14.5q31 0 59 8.5t64 30.5l3 -77q-61 -32 -137 -32q-58 0 -98.5 22t-65.5 58.5t-36.5 84.5t-11.5 100q0 59 14 107t39.5 82t62 52.5t81.5 18.5q55 0 90 -24.5t55 -63t27.5 -85.5t7.5 -92v-21h-290zM329 292q-2 24 -5.5 51.5
t-13 51t-28.5 39.5t-50 16t-51 -15.5t-32.5 -39t-18 -51.5t-6.5 -52h205v0z" />
    <glyph glyph-name="f" unicode="f" horiz-adv-x="278" 
d="M273 440h-91v-440h-84v440h-82v68h82v69q0 38 4.5 70t19 55.5t41.5 36.5t72 13q15 0 26.5 -1t30.5 -6l-3 -70q-15 5 -24 6.5t-20 1.5q-25 0 -38 -10t-18.5 -25t-6 -34t-0.5 -37v-69h91v-68z" />
    <glyph glyph-name="g" unicode="g" horiz-adv-x="481" 
d="M428 508q-2 -26 -3 -55.5t-1 -57.5v-390q0 -106 -55.5 -164.5t-160.5 -58.5q-39 0 -76 9.5l-75 18.5l5 84q42 -22 75 -31t68 -9q44 0 70.5 13.5t41 36.5t20 54.5t6.5 66.5l2 54h-2q-21 -36 -57 -58t-75 -22q-52 0 -86 24.5t-53.5 62t-27.5 83t-8 87.5t7.5 87.5t27 83.5
t53.5 62.5t87 24.5q43 0 77 -21t57 -61h2v76h81v0zM344 265q0 28 -5 59.5t-17.5 58.5t-35.5 44.5t-59 17.5q-51 0 -77 -47.5t-26 -139.5q0 -26 3.5 -59t14.5 -62t31.5 -49.5t55.5 -20.5q39 0 61.5 20t34.5 50t15.5 64.5t3.5 63.5z" />
    <glyph glyph-name="h" unicode="h" horiz-adv-x="482" 
d="M146 507q0 -32 -3 -69q29 42 60 59.5t73 17.5q44 0 72 -17t43.5 -44t21.5 -61.5t6 -69.5v-323h-83v311q0 22 -2 45.5t-10 42.5t-25.5 31.5t-47.5 12.5q-31 0 -51 -13.5t-32 -35t-17 -48t-5 -51.5v-295h-84v750h84v-243z" />
    <glyph glyph-name="i" unicode="i" horiz-adv-x="222" 
d="M158 620h-95v100h95v-100zM153 0h-84v508h84v-508z" />
    <glyph glyph-name="j" unicode="j" horiz-adv-x="222" 
d="M153 -60q0 -31 -4 -60t-16 -51t-35.5 -35.5t-62.5 -13.5q-16 0 -25.5 1.5t-24.5 6.5l1 67q11 -3 17 -4t14 -1q28 0 40 19t12 62v577h84v-568zM158 620h-95v100h95v-100z" />
    <glyph glyph-name="k" unicode="k" horiz-adv-x="444" 
d="M144 359q0 -6 -0.5 -16t-0.5 -19q-1 -11 -1 -23h2l177 207h99l-203 -227l221 -281h-104l-190 259h-2q0 -10 1 -20q0 -8 0.5 -16.5t0.5 -13.5v-209h-84v750h84v-391z" />
    <glyph glyph-name="l" unicode="l" horiz-adv-x="222" 
d="M153 0h-84v750h84v-750z" />
    <glyph glyph-name="m" unicode="m" horiz-adv-x="722" 
d="M137 431h2q43 85 135 85q41 0 72 -21.5t45 -60.5q45 82 130 82q37 0 63.5 -14t43.5 -37t25 -51.5t8 -56.5v-357h-84v341q0 20 -2.5 38.5t-10.5 32.5t-23.5 22.5t-41.5 8.5t-44 -11t-29 -28.5t-15.5 -39.5t-4.5 -44v-320h-84v347q0 18 -4 35t-13 30.5t-23.5 21.5t-35.5 8
q-20 0 -38 -9t-31.5 -24.5t-21 -36.5t-7.5 -44v-328h-85v366q0 14 -0.5 32.5l-1 38t-1.5 38.5t-2 33h79v-77z" />
    <glyph glyph-name="n" unicode="n" horiz-adv-x="482" 
d="M137 429h3q20 42 54.5 64t79.5 22q37 0 64.5 -13t46 -35t27.5 -52.5t9 -64.5v-350h-84v334q0 20 -4 39.5t-13.5 35t-25.5 25t-41 9.5q-32 0 -52.5 -13t-32.5 -33.5t-16.5 -46.5t-4.5 -52v-298h-84v363q0 36 -1.5 72.5t-2.5 72.5h78v-79z" />
    <glyph glyph-name="o" unicode="o" horiz-adv-x="482" 
d="M445 258q0 -129 -52.5 -197.5t-152.5 -68.5q-57 0 -96 22.5t-63 59.5t-34.5 84t-10.5 97t10.5 97t34 83.5t62.5 58.5t96 22t96.5 -21.5t64 -57.5t35 -82.5t10.5 -96.5zM356 249q0 29 -4 64t-16 65t-35 50t-62 20q-57 0 -86 -49t-29 -146q0 -95 30 -144.5t87 -49.5
t86 48.5t29 141.5z" />
    <glyph glyph-name="p" unicode="p" horiz-adv-x="481" 
d="M128 432h2q23 38 56 60.5t80 22.5q54 0 88 -25t53.5 -63.5t26.5 -85t7 -89.5q0 -42 -7.5 -87.5t-27 -83.5t-53 -62.5t-85.5 -24.5q-45 0 -75.5 19.5t-53.5 56.5h-2v-286h-84v616q0 27 -1.5 54t-1.5 54h78v-76zM352 252q0 26 -2.5 59.5t-13 63.5t-31 50.5t-57.5 20.5
t-59.5 -19.5t-35 -48.5t-16.5 -62t-4 -61q0 -27 4 -60.5t16 -63.5t34 -50t59 -20t58 20t31.5 49t13.5 62t3 60z" />
    <glyph glyph-name="q" unicode="q" horiz-adv-x="481" 
d="M426 508q0 -34 -1.5 -67.5t-1.5 -67.5v-589h-83v287h-2q-24 -37 -53 -57.5t-76 -20.5q-84 0 -128.5 68.5t-44.5 196.5q0 41 8 86t27.5 83t53 62.5t84.5 24.5q46 0 80.5 -22.5t55.5 -61.5h2v78h79v0zM343 255q0 29 -4 62t-16 61.5t-35 47t-61 18.5q-104 0 -104 -194
q0 -26 3.5 -58.5t14.5 -62t31.5 -49.5t55.5 -20q38 0 61 20t35 49t15.5 63t3.5 63z" />
    <glyph glyph-name="r" unicode="r" horiz-adv-x="296" 
d="M137 417h2q20 42 52 69.5t83 27.5h11v-83q-8 2 -12.5 2h-9.5q-26 0 -47 -10t-37 -27.5t-24.5 -41.5t-8.5 -53v-301h-84v347q0 41 -2.5 80.5t-5.5 80.5h79z" />
    <glyph glyph-name="s" unicode="s" horiz-adv-x="370" 
d="M301 426q-23 10 -44.5 16t-47.5 6q-38 0 -61.5 -18.5t-23.5 -49.5q0 -18 8 -31.5t21 -23.5t28.5 -17.5t29.5 -13.5q25 -11 48 -24.5t39.5 -31.5t26.5 -41.5t10 -54.5q0 -69 -45.5 -109.5t-122.5 -40.5q-32 0 -62 5.5t-71 19.5l8 80q64 -34 119 -34q38 0 64 22t26 54
q0 19 -8.5 33t-22 24t-29.5 17.5t-31 13.5q-24 10 -46 23.5t-38.5 31t-26 40.5t-9.5 52q0 32 12 58.5t34 45t52.5 29t67.5 10.5q25 0 49 -4t53 -13z" />
    <glyph glyph-name="t" unicode="t" horiz-adv-x="296" 
d="M284 440h-103v-291q0 -17 1.5 -32t7 -27t17.5 -19t33 -7q11 0 21 2t23 7v-70q-19 -5 -33.5 -6.5t-33.5 -1.5q-36 0 -59 11t-36.5 30.5t-18.5 46t-5 58.5v299h-81v68h81v103l83 25v-128h103v-68z" />
    <glyph glyph-name="u" unicode="u" horiz-adv-x="482" 
d="M416 140q0 -35 1.5 -70.5t3.5 -69.5h-81v76h-3q-20 -39 -55 -61.5t-78 -22.5q-37 0 -63.5 12.5t-44 35t-26 53.5t-8.5 67v348h85v-324q0 -21 2.5 -42.5t10.5 -38.5t24.5 -28t43.5 -11q22 0 41.5 10t33 28t21.5 42.5t8 53.5v310h84v-368z" />
    <glyph glyph-name="v" unicode="v" horiz-adv-x="426" 
d="M261 0h-100l-152 508h90l114 -426h2l115 426h85z" />
    <glyph glyph-name="w" unicode="w" horiz-adv-x="685" 
d="M542 0h-94l-106 422h-2l-101 -422h-93l-137 508h87l98 -425h2l100 425h97l102 -426h2l98 426h82z" />
    <glyph glyph-name="x" unicode="x" horiz-adv-x="426" 
d="M262 269l153 -269h-98l-108 206l-107 -206h-91l149 272l-137 236h98l94 -180l96 180h92z" />
    <glyph glyph-name="y" unicode="y" horiz-adv-x="407" 
d="M226 -81q-8 -27 -17.5 -51.5t-24.5 -44t-36.5 -31t-54.5 -11.5q-28 0 -55 9l4 71q11 -4 18.5 -6.5t18.5 -2.5q20 0 33 10.5t21 25.5t12.5 33l8.5 33l9 37l-156 517h91l80 -300l7.5 -29.5t8 -34.5l6.5 -32.5t5 -23.5h2q1 11 5.5 31.5l9.5 43l10 43.5t8 32l76 270h84z" />
    <glyph glyph-name="z" unicode="z" horiz-adv-x="389" 
d="M353 431l-223 -360h228v-71h-326v78l226 361h-219v69h314v-77z" />
    <glyph glyph-name="braceleft" unicode="{" horiz-adv-x="278" 
d="M-28 333q37 5 63 14t42 25.5t23 40.5t7 59v76q0 50 8.5 88.5t30 65.5t60 42.5t98.5 18.5v-45q-72 -6 -99.5 -41t-27.5 -98v-73q0 -36 -3.5 -68.5t-17 -59t-39 -44t-69.5 -23.5q45 -7 71 -24.5t38.5 -43t16 -58t3.5 -69.5v-60q0 -32 5 -59t19 -47t39 -32t64 -14v-45
q-58 2 -96 17t-60.5 41.5t-31.5 63.5t-9 84v85q0 34 -7 58t-23 40.5t-42 26t-63 14.5v44v0z" />
    <glyph glyph-name="bar" unicode="|" horiz-adv-x="222" 
d="M76 750h71v-1000h-71v1000z" />
    <glyph glyph-name="braceright" unicode="}" horiz-adv-x="278" 
d="M304 289q-38 -5 -63.5 -14.5t-41.5 -26t-23 -40.5t-7 -58v-85q0 -47 -9 -84t-31.5 -63.5t-60.5 -41.5t-96 -17v45q39 2 64 14t39 32t19 47t5 59v60q0 37 3.5 69.5t16 58t38.5 43t71 24.5q-44 6 -69.5 23.5t-39 44t-17 59t-3.5 68.5v73q0 63 -27.5 98t-99.5 41v45
q60 -3 98.5 -18.5t60 -42.5t30 -65.5t8.5 -88.5v-76q0 -35 7 -59t23 -40.5t41.5 -25.5t63.5 -14v-44v0z" />
    <glyph glyph-name="asciitilde" unicode="~" horiz-adv-x="600" 
d="M563 321q-3 -28 -12 -53.5t-24.5 -45t-38 -31.5t-52.5 -12q-33 0 -68.5 10.5t-66.5 21.5l-32 12t-37 13t-37.5 10.5t-33.5 4.5q-33 0 -52.5 -24t-23.5 -54h-49q4 27 12.5 52.5t23.5 45.5t37 32.5t53 12.5q35 0 75.5 -13t74.5 -25q13 -5 29.5 -10.5t33.5 -10.5t33.5 -8.5
t30.5 -3.5q35 0 52.5 22.5t24.5 53.5h47v0z" />
    <glyph glyph-name="uni00A0" unicode="&#xa0;" horiz-adv-x="240" 
 />
    <glyph glyph-name="sterling" unicode="&#xa3;" 
d="M52 72h70v264h-70v64h70v85q0 104 53.5 162t148.5 58q29 0 57.5 -5.5t61.5 -17.5l-9 -76q-56 31 -104 31q-59 0 -91.5 -38t-32.5 -107v-92h160v-64h-160v-264h231v-72h-385v72z" />
    <glyph glyph-name="currency" unicode="&#xa4;" 
d="M132 230q-21 29 -31.5 59.5t-10.5 66.5q0 37 10.5 67.5t31.5 59.5l-65 64l43 43l65 -64q30 21 59.5 31.5t67.5 10.5t66.5 -10.5t60.5 -31.5l64 64l43 -43l-65 -64q20 -28 31.5 -60t11.5 -67t-11.5 -66t-31.5 -60l65 -65l-43 -43l-65 65q-56 -42 -126 -42t-126 42l-65 -64
l-43 43zM302 503q-30 0 -57 -11.5t-47 -31.5t-31.5 -47t-11.5 -57t11.5 -57t32 -47t47 -31.5t56.5 -11.5t56.5 11.5t46.5 31.5t31.5 47t11.5 57t-11.5 56.5t-31 47t-46 32t-57.5 11.5z" />
    <glyph glyph-name="section" unicode="&#xa7;" 
d="M73 -16q32 -22 62.5 -33t70.5 -11q49 0 78 23t29 64q0 45 -48 74l-117 70q-83 50 -83 126q0 24 7.5 44t19.5 37t28.5 32t34.5 29q-33 20 -50 46t-17 68q0 33 12.5 61t34.5 48.5t52.5 31.5t66.5 11q34 0 69.5 -8t61.5 -21l-10 -77q-34 18 -59 26t-51 8q-42 0 -67.5 -21
t-25.5 -56q0 -21 12 -38t38 -34l90 -57q19 -12 38 -25.5t34 -29.5t24 -36t9 -46q0 -35 -20.5 -69.5t-65.5 -71.5q33 -23 49.5 -49.5t16.5 -68.5q0 -36 -13.5 -66t-37.5 -51.5t-57.5 -33.5t-73.5 -12t-78.5 10.5t-73.5 27.5zM202 407q-23 -20 -38 -42t-15 -54q0 -26 14 -46
t34.5 -35.5t44 -28l42.5 -22.5q20 20 32.5 44t12.5 53q0 25 -13 45t-32 35.5t-41.5 28z" />
    <glyph glyph-name="copyright" unicode="&#xa9;" horiz-adv-x="800" 
d="M757 349q0 -73 -28 -138t-76.5 -113.5t-113.5 -77t-139 -28.5t-139 28.5t-113.5 77t-76.5 113.5t-28 138t28 137.5t76.5 113t113.5 77t139 28.5t139 -28.5t113.5 -77t76.5 -113t28 -137.5zM717 349q0 64 -25 121.5t-67.5 101t-100.5 68.5t-124 25t-124 -25t-100.5 -68.5
t-67.5 -101t-25 -121.5q0 -66 25 -124t68.5 -101t101 -67.5t122.5 -24.5q66 0 124 25t100.5 68.5t67.5 101t25 122.5zM579 276q-4 -32 -19.5 -58t-38 -44t-51 -28t-59.5 -10q-46 0 -83 17.5t-63 47t-40 68t-14 81.5t13.5 82t38 68.5t60 47t80.5 17.5q33 0 63 -10.5t54 -29.5
t39 -46.5t17 -60.5h-55q-8 45 -39.5 71t-76.5 26q-34 0 -59 -14t-41 -37t-23.5 -52t-7.5 -59q0 -32 8.5 -62t25.5 -53.5t42.5 -38t60.5 -14.5q44 0 73.5 24.5t38.5 66.5h56v0z" />
    <glyph glyph-name="guillemotleft" unicode="&#xab;" horiz-adv-x="500" 
d="M236 260l112 206h72l-100 -206l100 -206h-72zM80 260l112 206h72l-100 -206l100 -206h-72z" />
    <glyph glyph-name="logicalnot" unicode="&#xac;" horiz-adv-x="600" 
d="M48 377h504v-260h-67v195h-437v65z" />
    <glyph glyph-name="registered" unicode="&#xae;" horiz-adv-x="400" 
d="M199 705q39 0 72.5 -14.5t58 -40t39 -59t14.5 -70.5q0 -38 -14.5 -71.5t-39.5 -58t-58.5 -39t-70.5 -14.5q-38 0 -71.5 14.5t-58.5 39.5t-39 58t-14 71t14.5 71.5t39 58.5t57.5 39.5t71 14.5zM199 676q-32 0 -60 -12.5t-48.5 -33.5t-32.5 -49.5t-12 -59.5q0 -32 12 -60
t33 -49t49 -33t59 -12q32 0 60.5 12t49.5 33t33 49t12 60t-12.5 60.5t-33.5 49.5t-49 33t-60 12zM207 617q14 0 27.5 -2t24.5 -7.5t17.5 -16.5t6.5 -29q0 -33 -34 -46q20 -9 26 -24.5t6 -36.5q0 -8 0.5 -14t4.5 -14h-37q-5 12 -5 23q0 34 -12 42.5t-43 8.5h-25v-74h-37v190
h80zM195 530q8 0 17 1t17 4t13 9t5 16t-5.5 16t-13 8.5t-17 3t-16.5 0.5h-31v-58h31z" />
    <glyph glyph-name="degree" unicode="&#xb0;" horiz-adv-x="400" 
d="M200 705q32 0 60 -12t48.5 -33t32.5 -49t12 -59q0 -32 -12 -60t-33 -48.5t-49 -32.5t-59 -12q-32 0 -60 12t-48.5 33t-32.5 48.5t-12 59.5t12 60t33 48.5t48.5 32.5t59.5 12zM200 644q-20 0 -36.5 -7t-29 -19.5t-19.5 -29.5t-7 -36q0 -20 7 -36.5t19.5 -29t29.5 -19.5
t36 -7q39 0 65.5 26.5t26.5 65.5q0 19 -7.5 36t-20 29.5t-29 19.5t-35.5 7z" />
    <glyph glyph-name="plusminus" unicode="&#xb1;" horiz-adv-x="600" 
d="M264 270h-216v66h216v172h72v-172h216v-66h-216v-170h-72v170zM48 58h504v-66h-504v66z" />
    <glyph glyph-name="mu" unicode="&#xb5;" horiz-adv-x="482" 
d="M61 508h84v-327q0 -116 85 -116q51 0 79 36t28 102v305h84v-398q0 -30 0.5 -44t1 -22l1 -16.5t1.5 -27.5h-81l-3 76h-2q-20 -38 -47.5 -60.5t-74.5 -22.5q-48 0 -70 31h-2v-240h-84v724z" />
    <glyph glyph-name="paragraph" unicode="&#xb6;" horiz-adv-x="555" 
d="M477 641v-818h-68v818h-106v-818h-69v420q-49 3 -87 22.5t-64.5 51t-40 73t-13.5 88.5q0 60 20 101.5t55 68t81.5 38.5t100.5 12h245v-57h-54z" />
    <glyph glyph-name="periodcentered" unicode="&#xb7;" horiz-adv-x="240" 
d="M71 355h96v-112h-96v112z" />
    <glyph glyph-name="guillemotright" unicode="&#xbb;" horiz-adv-x="500" 
d="M180 260l-100 206h72l112 -206l-112 -206h-72zM336 260l-100 206h72l112 -206l-112 -206h-72z" />
    <glyph glyph-name="divide" unicode="&#xf7;" horiz-adv-x="600" 
d="M48 280h504v-66h-504v66zM251 473h96v-92h-96v92zM251 113h96v-92h-96v92z" />
    <glyph glyph-name="florin" unicode="&#x192;" 
d="M32 -137q36 -13 56 -13q15 0 26 9.5t20.5 34t18 66.5t17.5 107l41 281h-88v64h98l13 74q10 60 23.5 101.5t31.5 68t42 38t55 11.5q41 0 72 -17l-11 -67q-26 16 -51 16q-16 0 -27.5 -7.5t-20.5 -27t-16.5 -52t-14.5 -83.5l-8 -55h89v-64h-99l-41 -272
q-12 -82 -27.5 -138.5t-36 -92t-47 -51.5t-61.5 -16q-15 0 -28 3t-36 12z" />
    <glyph glyph-name="endash" unicode="&#x2013;" horiz-adv-x="500" 
d="M0 315h500v-68h-500v68z" />
    <glyph glyph-name="emdash" unicode="&#x2014;" horiz-adv-x="1000" 
d="M0 315h1000v-68h-1000v68z" />
    <glyph glyph-name="quoteleft" unicode="&#x2018;" horiz-adv-x="240" 
d="M48 520l69 230h74l-50 -230h-93z" />
    <glyph glyph-name="quoteright" unicode="&#x2019;" horiz-adv-x="240" 
d="M191 750l-69 -230h-74l50 230h93z" />
    <glyph glyph-name="quotesinglbase" unicode="&#x201a;" horiz-adv-x="240" 
d="M191 105l-69 -230h-74l50 230h93z" />
    <glyph glyph-name="quotedblleft" unicode="&#x201c;" horiz-adv-x="500" 
d="M103 520l69 230h74l-50 -230h-93zM253 520l69 230h74l-50 -230h-93z" />
    <glyph glyph-name="quotedblright" unicode="&#x201d;" horiz-adv-x="500" 
d="M246 750l-69 -230h-74l50 230h93zM396 750l-69 -230h-74l50 230h93z" />
    <glyph glyph-name="quotedblbase" unicode="&#x201e;" horiz-adv-x="500" 
d="M247 105l-69 -230h-74l50 230h93zM397 105l-69 -230h-74l50 230h93z" />
    <glyph glyph-name="dagger" unicode="&#x2020;" 
d="M202 448h-138v68h138v182h76v-182h138v-68h-138v-448h-76v448z" />
    <glyph glyph-name="daggerdbl" unicode="&#x2021;" 
d="M202 168h-138v68h138v226h-138v68h138v168h76v-168h138v-68h-138v-226h138v-68h-138v-168h-76v168z" />
    <glyph glyph-name="bullet" unicode="&#x2022;" horiz-adv-x="500" 
d="M250 534q37 0 69.5 -14t56.5 -38.5t38 -57t14 -68.5q0 -37 -14 -69.5t-38.5 -56.5t-57 -38t-68.5 -14q-37 0 -69.5 14t-56.5 38.5t-38 57t-14 68.5q0 37 14 69.5t38.5 56.5t57 38t68.5 14z" />
    <glyph glyph-name="ellipsis" unicode="&#x2026;" horiz-adv-x="1000" 
d="M785 0v112h96v-112h-96zM452 0v112h96v-112h-96zM119 0v112h96v-112h-96z" />
    <glyph glyph-name="perthousand" unicode="&#x2030;" horiz-adv-x="890" 
d="M407 705h51l-249 -712h-50zM620 179q0 98 27.5 143t87.5 45t87.5 -45t27.5 -142t-27.5 -142t-87.5 -45t-87.5 44.5t-27.5 141.5zM40 517q0 98 27.5 143t87.5 45t87.5 -45t27.5 -142t-27.5 -142t-87.5 -45t-87.5 44.5t-27.5 141.5zM346 179q0 98 27.5 143t87.5 45
t87.5 -45t27.5 -142t-27.5 -142t-87.5 -45t-87.5 44.5t-27.5 141.5zM680 179q0 -70 13 -100t42 -30t42 30t13 101q0 70 -13 100.5t-42 30.5t-42 -30.5t-13 -101.5zM100 517q0 -70 13 -100t42 -30t42 30t13 101q0 70 -13 100.5t-42 30.5t-42 -30.5t-13 -101.5zM406 179
q0 -70 13 -100t42 -30t42 30t13 101q0 70 -13 100.5t-42 30.5t-42 -30.5t-13 -101.5z" />
    <glyph glyph-name="guilsinglleft" unicode="&#x2039;" horiz-adv-x="278" 
d="M47 260l112 206h72l-100 -206l100 -206h-72z" />
    <glyph glyph-name="guilsinglright" unicode="&#x203a;" horiz-adv-x="278" 
d="M147 260l-100 206h72l112 -206l-112 -206h-72z" />
    <glyph glyph-name="trademark" unicode="&#x2122;" horiz-adv-x="1000" 
d="M240 654h-121v44h294v-44h-121v-312h-52v312zM476 698h78l104 -278l105 278h75v-356h-46v306l-114 -306h-42l-114 306v-306h-46v356z" />
    <glyph glyph-name="Delta" unicode="&#x2206;" horiz-adv-x="672" 
d="M659 0h-646l280 698h79zM555 67l-223 555l-220 -555h443z" />
    <glyph glyph-name="radical" unicode="&#x221a;" horiz-adv-x="500" 
d="M297 -249h-70l-163 337l-47 -22l-26 55l107 51l154 -326l186 905h70z" />
    <glyph glyph-name="infinity" unicode="&#x221e;" horiz-adv-x="750" 
d="M376 290l39.5 39.5t43.5 37t48.5 27t55.5 10.5q33 0 60 -11.5t46 -32t29 -48t10 -59.5t-10 -60t-28.5 -48.5t-45 -32t-59.5 -11.5q-29 0 -55 9.5t-49 25t-44.5 34.5t-40.5 38l-43 -38t-43.5 -34t-48 -24.5t-56.5 -9.5q-33 0 -59 11.5t-45 31.5t-29 47t-10 59q0 31 10 59
t28 48.5t44 32.5t59 12q30 0 56.5 -10.5t50 -27t45 -36.5zM416 250l32.5 -29.5t36.5 -28t39.5 -20.5t42.5 -8q39 0 60 25.5t21 60.5q0 39 -21.5 65t-62.5 26q-21 0 -41 -9t-39 -23t-36.5 -30zM335 250q-15 12 -33 28t-38 30t-41 23.5t-41 9.5q-19 0 -33.5 -7.5t-25 -20
t-16 -29t-5.5 -33.5q0 -39 23 -63t61 -24q20 0 40.5 8.5t40 21t37 27.5t31.5 29z" />
    <glyph glyph-name="approxequal" unicode="&#x2248;" horiz-adv-x="600" 
d="M563 408q-3 -27 -12 -52.5t-24.5 -45t-38 -31.5t-52.5 -12q-33 0 -68.5 10.5t-66.5 21.5l-32 12t-37 13t-37.5 10.5t-33.5 4.5q-33 0 -52.5 -24.5t-23.5 -54.5h-49q4 27 12.5 52.5t23.5 45.5t37 32.5t53 12.5q35 0 75.5 -13l74.5 -24q13 -5 29.5 -10.5l33.5 -11t33.5 -9
t30.5 -3.5q35 0 52.5 23t24.5 53h47v0zM563 233q-3 -27 -12 -52.5t-24.5 -45t-38 -31.5t-52.5 -12q-33 0 -68.5 10.5t-66.5 21.5l-32 12t-37 13t-37.5 10.5t-33.5 4.5q-33 0 -52.5 -24.5t-23.5 -54.5h-49q4 27 12.5 52.5t23.5 45.5t37 32.5t53 12.5q35 0 75.5 -13l74.5 -24
q13 -5 29.5 -10.5l33.5 -11t33.5 -9t30.5 -3.5q35 0 52.5 23t24.5 53h47v0z" />
    <glyph glyph-name="notequal" unicode="&#x2260;" horiz-adv-x="600" 
d="M295 312h-247v65h282l77 147l57 -29l-62 -118h150v-65h-184l-68 -129h252v-66h-286l-76 -145l-58 30l61 115h-145v66h179z" />
    <glyph glyph-name="lessequal" unicode="&#x2264;" horiz-adv-x="600" 
d="M48 334l504 188v-71l-413 -152l413 -149v-72l-504 187v69zM552 37v-65h-504v65h504z" />
    <glyph glyph-name="greaterequal" unicode="&#x2265;" horiz-adv-x="600" 
d="M48 78v72l414 149l-414 152v71l504 -188v-69zM552 -28h-504v65h504v-65z" />
    <glyph glyph-name="uniF8FF" unicode="&#xf8ff;" horiz-adv-x="512" 
d="M222 117v67h56v-67h-56zM225 234l-2 17q0 56 13 81q7 13 18 27.5t28 31.5q16 15 26 26.5t15 21t7 18t2 17.5q0 36 -22.5 60.5t-53.5 24.5t-53.5 -22t-28.5 -73l-50 8q7 72 44 104.5t91 32.5t89 -35.5t35 -95.5q0 -32 -12.5 -58.5t-50.5 -61.5q-37 -33 -43 -52
q-6 -20 -6 -72h-46zM462 50v617h-412v-617h412zM512 718v-718h-512v718h512z" />
    <glyph glyph-name="brokenbar" unicode="&#xa6;" horiz-adv-x="222" 
d="M76 175h71v-350h-71v350zM76 675h71v-350h-71v350z" />
    <glyph glyph-name="uni00AD" unicode="&#xad;" horiz-adv-x="296" 
d="M40 317h216v-72h-216v72z" />
    <glyph glyph-name="uni0394" unicode="&#x394;" horiz-adv-x="672" 
d="M659 0h-646l280 698h79zM555 67l-223 555l-220 -555h443z" />
    <glyph glyph-name="afii10023" unicode="&#x401;" horiz-adv-x="463" 
d="M402 698v-75h-238v-224h226v-75h-226v-249h249v-75h-336v698h325zM282 752v102h81v-102h-81zM129 752v102h82v-102h-82z" />
    <glyph glyph-name="afii10051" unicode="&#x402;" horiz-adv-x="616" 
d="M572 194q0 -56 -11.5 -106.5t-35.5 -88.5t-62 -61t-90 -23q-17 0 -31.5 3.5l-22.5 5.5l2 79q10 -5 20.5 -6t20.5 -1q118 0 118 196q0 100 -28 145.5t-89 45.5q-26 0 -47.5 -12t-36.5 -33t-23.5 -48.5t-8.5 -58.5v-231h-89v623h-142v75h413v-75h-182v-168v-14v-23
t-0.5 -22.5t-0.5 -13.5h3q20 35 55.5 56.5t77.5 21.5q92 0 141 -67.5t49 -198.5z" />
    <glyph glyph-name="afii10052" unicode="&#x403;" horiz-adv-x="410" 
d="M165 623v-623h-89v698h319v-75h-230zM231 734h-61l70 142h88z" />
    <glyph glyph-name="afii10053" unicode="&#x404;" horiz-adv-x="537" 
d="M482 592q-25 18 -60.5 27t-63.5 9q-51 0 -89 -19t-64.5 -51t-41 -73t-19.5 -86h258v-75h-260q3 -57 20 -103.5t45.5 -79.5t67 -51t84.5 -18q67 0 123 33l3 -89q-26 -11 -59.5 -17.5t-69.5 -6.5q-70 0 -127 25.5t-97 72t-62 113t-22 147.5q0 78 20.5 143.5t59.5 112.5
t96 73t129 26q33 0 66.5 -6t66.5 -20z" />
    <glyph glyph-name="afii10054" unicode="&#x405;" horiz-adv-x="444" 
d="M363 597q-58 31 -113 31q-51 0 -81.5 -26.5t-30.5 -71.5q0 -33 17 -56.5t58 -50.5l68 -45q27 -18 49 -36.5t38 -41t24.5 -50t8.5 -62.5q0 -44 -14.5 -80t-41 -62t-64 -40t-82.5 -14q-72 0 -146 31l4 91q70 -45 135 -45q25 0 46.5 8.5t37.5 24t24.5 36.5t8.5 46
q0 24 -7.5 42.5t-20 33.5t-29 27l-34.5 24l-67 44q-25 16 -44.5 33.5t-33 38t-20.5 45.5t-7 57q0 40 14 72.5t39.5 55.5t61 35.5t78.5 12.5q31 0 61 -5.5t67 -17.5z" />
    <glyph glyph-name="afii10055" unicode="&#x406;" horiz-adv-x="242" 
d="M165 698v-698h-89v698h89z" />
    <glyph glyph-name="afii10056" unicode="&#x407;" horiz-adv-x="242" 
d="M165 698v-698h-89v698h89zM157 752v102h81v-102h-81zM4 752v102h82v-102h-82z" />
    <glyph glyph-name="afii10057" unicode="&#x408;" horiz-adv-x="315" 
d="M246 698v-495q0 -39 -6.5 -77t-23.5 -68t-47 -48t-78 -18q-17 0 -34 3.5t-34 6.5l1 85q18 -8 28 -10t22 -2q28 0 44.5 12t25.5 31t11.5 42.5t2.5 45.5v492h88z" />
    <glyph glyph-name="afii10058" unicode="&#x409;" horiz-adv-x="811" 
d="M777 203q0 -101 -57.5 -152t-159.5 -51h-165v622h-168v-257q0 -78 -6 -145.5t-23.5 -117.5t-48 -78.5t-78.5 -28.5q-17 0 -35 3t-34 9l3 78q11 -6 24 -8.5t26 -2.5q28 0 44.5 21.5t25.5 62t11.5 98.5t2.5 131v311h345v-291h71q46 0 86.5 -10.5t70.5 -34.5t47.5 -63
t17.5 -96zM484 332v-257h50q32 0 59.5 7t48 23t32.5 41.5t12 61.5q0 35 -10.5 58.5t-29 38t-44.5 21t-56 6.5h-62z" />
    <glyph glyph-name="afii10059" unicode="&#x40a;" horiz-adv-x="811" 
d="M777 203q0 -101 -57.5 -152t-159.5 -51h-167v332h-229v-332h-89v698h89v-291h229v291h89v-291h74q46 0 86.5 -10.5t70.5 -34.5t47 -63t17 -96zM481 332v-257h53q32 0 59.5 7t48 23t32.5 41.5t12 61.5q0 35 -10.5 58.5t-29 38t-44.5 21t-56 6.5h-65z" />
    <glyph glyph-name="afii10060" unicode="&#x40b;" horiz-adv-x="616" 
d="M462 0v269q0 54 -24 83.5t-75 29.5q-29 0 -50.5 -13t-36 -34t-22 -48t-7.5 -55v-232l-89 -1v624h-142v75h413v-75h-182v-168v-13.5v-22.5t-0.5 -22.5t-1.5 -13.5l2 1q23 38 55.5 57t78.5 19q85 0 127.5 -47t42.5 -138v-275h-89z" />
    <glyph glyph-name="afii10061" unicode="&#x40c;" horiz-adv-x="519" 
d="M157 396l232 302h106l-262 -330l283 -368h-113l-246 337v-337h-89v698h89v-302zM281 734h-61l69 142h89z" />
    <glyph glyph-name="afii10062" unicode="&#x40e;" horiz-adv-x="519" 
d="M400 824q-8 -14 -20.5 -29t-30 -27.5t-40 -21t-49.5 -8.5q-28 0 -50 8.5t-39.5 21t-30 27.5t-20.5 29l43 41q6 -9 15 -20t21.5 -20.5t27.5 -15.5t33 -6t33 6t27.5 15.5t21.5 20.5t15 20l43 -41v0zM291 134q-9 -24 -21 -49t-30 -45.5t-43 -33.5t-61 -13q-34 0 -59 10l4 77
q11 -6 22 -9t26 -3t27.5 7.5t23 19t19 26.5t14.5 30l10 25l-217 522h95l118 -299l12.5 -30.5l14.5 -36.5t12.5 -33.5t6.5 -21.5h3q1 5 6 20.5l11.5 34l13 37.5t11.5 31l112 298h91z" />
    <glyph glyph-name="afii10145" unicode="&#x40f;" horiz-adv-x="574" 
d="M330 0v-180h-87v180h-168v698h89v-623h245v623h89v-698h-168z" />
    <glyph glyph-name="afii10017" unicode="&#x410;" horiz-adv-x="574" 
d="M474 0l-57 183h-263l-59 -183h-87l234 698h96l228 -698h-92zM395 256l-107 354h-2l-110 -354h219z" />
    <glyph glyph-name="afii10018" unicode="&#x411;" horiz-adv-x="519" 
d="M468 208q0 -103 -59 -155.5t-163 -52.5h-168v698h344v-75h-255v-205h78q47 0 88 -10.5t71 -35.5t47 -65t17 -99zM166 344v-269h62q33 0 60 6.5t47 22t31 41t11 63.5q0 73 -38.5 104.5t-101.5 31.5h-71z" />
    <glyph glyph-name="afii10019" unicode="&#x412;" horiz-adv-x="519" 
d="M254 698q43 0 78.5 -11t61 -33t39.5 -54.5t14 -75.5q0 -63 -29.5 -100.5t-83.5 -57.5q59 -19 93.5 -59.5t34.5 -114.5q0 -44 -15 -79.5t-43 -60.5t-68 -38.5t-89 -13.5h-170v698h177zM164 397h55q29 0 54.5 6t44 20t29.5 36.5t11 56.5q0 31 -10.5 52t-28.5 34t-42 18.5
t-52 5.5h-61v-229zM224 74q72 0 110.5 31.5t38.5 91.5q0 61 -36.5 94t-102.5 33h-70v-250h60z" />
    <glyph glyph-name="afii10020" unicode="&#x413;" horiz-adv-x="410" 
d="M165 623v-623h-89v698h319v-75h-230z" />
    <glyph glyph-name="afii10021" unicode="&#x414;" horiz-adv-x="579" 
d="M472 -180v180h-375v-180h-87v255h56q21 33 36.5 77.5t25.5 97t15 111t5 118.5v219h343v-623h68v-255h-87zM402 623h-166v-171q0 -122 -20 -217.5t-51 -159.5h237v548z" />
    <glyph glyph-name="afii10022" unicode="&#x415;" horiz-adv-x="463" 
d="M402 698v-75h-238v-224h226v-75h-226v-249h249v-75h-336v698h325z" />
    <glyph glyph-name="afii10024" unicode="&#x416;" horiz-adv-x="778" 
d="M665 0l-229 349h-3v-349h-88v349h-3l-229 -349h-110l258 368l-236 330h104l213 -314h3v314h88v-314h3l213 314h104l-236 -330l258 -368h-110z" />
    <glyph glyph-name="afii10025" unicode="&#x417;" horiz-adv-x="464" 
d="M407 196q0 -94 -60 -149t-169 -55q-35 0 -73 8.5t-68 22.5l5 88q26 -17 59 -29t70 -12q66 0 105.5 36.5t39.5 96.5q0 64 -41.5 93t-105.5 29h-44v72h34q28 0 55 6.5t48 21.5t33.5 38.5t12.5 57.5q0 52 -30.5 80.5t-83.5 28.5q-30 0 -66 -10t-62 -24l-4 84q28 10 66.5 18
t78.5 8q88 0 139.5 -47t51.5 -129q0 -63 -31 -105t-87 -57v-3q61 -16 94 -58.5t33 -110.5z" />
    <glyph glyph-name="afii10026" unicode="&#x418;" horiz-adv-x="588" 
d="M425 0v388q0 19 0.5 47l1 56.5t1.5 53t1 37.5h-3q-3 -9 -11 -30l-17.5 -45l-19 -48t-16.5 -39l-181 -420h-106v698h88v-361q0 -20 -0.5 -53l-1 -66.5t-1 -61.5t-1.5 -38h3q2 6 9 25l16 41.5l18.5 45l15.5 37.5l186 431h106v-698h-88z" />
    <glyph glyph-name="afii10027" unicode="&#x419;" horiz-adv-x="588" 
d="M434 824q-8 -14 -20.5 -29t-30 -27.5t-40 -21t-49.5 -8.5q-28 0 -50 8.5t-39.5 21t-30 27.5t-20.5 29l43 41q6 -9 15 -20t21.5 -20.5t27.5 -15.5t33 -6t33 6t27.5 15.5t21.5 20.5t15 20l43 -41v0zM425 0v388q0 19 0.5 47l1 56.5t1.5 53t1 37.5h-3q-3 -9 -11 -30
l-17.5 -45l-19 -48t-16.5 -39l-181 -420h-106v698h88v-361q0 -20 -0.5 -53l-1 -66.5t-1 -61.5t-1.5 -38h3q2 6 9 25l16 41.5l18.5 45l15.5 37.5l186 431h106v-698h-88z" />
    <glyph glyph-name="afii10028" unicode="&#x41a;" horiz-adv-x="519" 
d="M157 396l232 302h106l-262 -330l283 -368h-113l-246 337v-337h-89v698h89v-302z" />
    <glyph glyph-name="afii10029" unicode="&#x41b;" horiz-adv-x="574" 
d="M410 0v623h-180v-258q0 -78 -6.5 -145.5t-23.5 -117.5t-48 -78.5t-79 -28.5q-16 0 -34 3t-34 9l3 78q11 -6 24 -8.5t26 -2.5q27 0 43.5 21.5t25.5 62t12 98.5t3 131v311h357v-698h-89z" />
    <glyph glyph-name="afii10030" unicode="&#x41c;" horiz-adv-x="778" 
d="M209 698l141 -432q11 -34 20.5 -69.5t16.5 -70.5l18.5 70t20.5 70l144 432h131v-698h-85v433q0 47 1 93.5t4 93.5l-14.5 -48.5l-15.5 -48.5l-174 -523h-67l-163 503q-9 29 -17 58.5l-16 58.5q2 -42 3.5 -84t1.5 -84v-452h-84v698h134z" />
    <glyph glyph-name="afii10031" unicode="&#x41d;" horiz-adv-x="574" 
d="M164 0h-89v698h89v-298h246v298h89v-698h-89v323h-246v-323z" />
    <glyph glyph-name="afii10032" unicode="&#x41e;" horiz-adv-x="612" 
d="M304 705q76 0 126 -32t80 -83.5t42 -115.5t12 -127t-12 -126.5t-41.5 -114t-79 -82.5t-125.5 -32q-75 0 -124.5 32.5t-79 84.5t-42 115.5t-12.5 126.5q0 82 17.5 147.5t50.5 111.5t80.5 70.5t107.5 24.5zM306 631q-78 0 -122 -75t-44 -209q0 -39 6 -88t24 -92t50.5 -72
t85.5 -29q52 0 84.5 29t50.5 72t24.5 92t6.5 88q0 40 -6 89t-24 92.5t-50.5 73t-85.5 29.5z" />
    <glyph glyph-name="afii10033" unicode="&#x41f;" horiz-adv-x="574" 
d="M164 0h-89v698h424v-698h-89v623h-246v-623z" />
    <glyph glyph-name="afii10034" unicode="&#x420;" horiz-adv-x="481" 
d="M240 698q97 0 153 -49.5t56 -152.5q0 -56 -16 -95t-46 -63.5t-72.5 -35.5t-95.5 -11h-54v-291h-89v698h164zM163 366h54q19 0 43.5 3.5t46.5 16.5t37 38t15 69q0 36 -10.5 61t-28.5 40t-43 22t-54 7h-60v-257z" />
    <glyph glyph-name="afii10035" unicode="&#x421;" horiz-adv-x="537" 
d="M482 592q-62 35 -124 35q-50 0 -90 -19.5t-68 -56t-43.5 -88.5t-15.5 -116q0 -61 15.5 -111.5t44 -86.5t68.5 -56t88 -20q61 0 125 32l3 -89q-60 -23 -128 -23q-71 0 -128.5 25.5t-98 72.5t-62 113.5t-21.5 149.5q0 80 21.5 145t61.5 110.5t96 70.5t125 25q33 0 68 -6.5
t67 -17.5z" />
    <glyph glyph-name="afii10036" unicode="&#x422;" horiz-adv-x="444" 
d="M427 623h-159v-623h-89v623h-161v75h409v-75z" />
    <glyph glyph-name="afii10037" unicode="&#x423;" horiz-adv-x="519" 
d="M291 134q-9 -24 -21 -49t-30 -45.5t-43 -33.5t-61 -13q-34 0 -59 10l4 77q11 -6 22 -9t26 -3t27.5 7.5t23 19t19 26.5t14.5 30l10 25l-217 522h95l118 -299l12.5 -30.5l14.5 -36.5t12.5 -33.5t6.5 -21.5h3q1 5 6 20.5l11.5 34l13 37.5t11.5 31l112 298h91z" />
    <glyph glyph-name="afii10038" unicode="&#x424;" horiz-adv-x="715" 
d="M677 362q0 -60 -19.5 -112t-55.5 -90t-86.5 -59.5t-113.5 -21.5v-84h-89v84q-63 0 -113.5 21.5t-86.5 59.5t-55.5 90t-19.5 112q0 61 19.5 112.5t55 88.5t86.5 57.5t114 20.5v62h89v-62q63 0 114 -20.5t86.5 -57.5t55 -88.5t19.5 -112.5zM585 363q0 42 -11.5 79.5
t-34 65.5t-57 44t-80.5 16v-417q45 0 79.5 18t57.5 47.5t34.5 67.5t11.5 79zM314 568q-46 0 -80.5 -16t-57.5 -44t-34.5 -65.5t-11.5 -79.5q0 -41 11.5 -79t35 -67.5t58 -47.5t79.5 -18v417z" />
    <glyph glyph-name="afii10039" unicode="&#x425;" horiz-adv-x="537" 
d="M138 698l143 -260l143 260h97l-192 -328l204 -370h-103l-158 299l-164 -299h-100l214 370l-188 328h104z" />
    <glyph glyph-name="afii10040" unicode="&#x426;" horiz-adv-x="588" 
d="M478 -180v180h-403v698h89v-623h244v623h89v-623h69v-255h-88z" />
    <glyph glyph-name="afii10041" unicode="&#x427;" horiz-adv-x="537" 
d="M373 0v291q-11 -2 -26 -5t-31 -5t-31 -3.5t-27 -1.5q-43 0 -80.5 7.5t-65 30t-43.5 62.5t-16 106v216h88v-210q0 -35 4.5 -60.5t17.5 -42.5t37 -25.5t62 -8.5q10 0 24 1t30 3t31 4.5t26 4.5v334h89v-698h-89z" />
    <glyph glyph-name="afii10042" unicode="&#x428;" horiz-adv-x="852" 
d="M75 0v698h89v-623h217v623h89v-623h218v623h89v-698h-702z" />
    <glyph glyph-name="afii10043" unicode="&#x429;" horiz-adv-x="867" 
d="M758 -180v180h-683v698h89v-623h217v623h89v-623h218v623h89v-623h68v-255h-87z" />
    <glyph glyph-name="afii10044" unicode="&#x42a;" horiz-adv-x="600" 
d="M566 210q0 -105 -59.5 -157.5t-164.5 -52.5h-168v623h-160v75h250v-277h74q47 0 88.5 -11t72.5 -35.5t49 -65t18 -99.5zM262 346v-271h59q33 0 61 6.5t48.5 22.5t32.5 42t12 64q0 73 -39.5 104.5t-102.5 31.5h-71z" />
    <glyph glyph-name="afii10045" unicode="&#x42b;" horiz-adv-x="713" 
d="M549 0v698h89v-698h-89zM461 210q0 -105 -59.5 -157.5t-164.5 -52.5h-162v698h89v-277h69q47 0 88.5 -11t72.5 -35.5t49 -65t18 -99.5zM163 346v-271h54q33 0 61 6.5t48.5 22.5t32 42t11.5 64q0 73 -39.5 104.5t-102.5 31.5h-65z" />
    <glyph glyph-name="afii10046" unicode="&#x42c;" horiz-adv-x="500" 
d="M466 210q0 -105 -59.5 -157.5t-163.5 -52.5h-168v698h89v-277h74q47 0 88.5 -11t72.5 -35.5t49 -65t18 -99.5zM163 346v-271h59q33 0 61 6.5t48.5 22.5t32 42t11.5 64q0 73 -39 104.5t-102 31.5h-71z" />
    <glyph glyph-name="afii10047" unicode="&#x42d;" horiz-adv-x="537" 
d="M184 705q72 0 129 -26t96 -73t59.5 -112.5t20.5 -143.5q0 -81 -22 -147.5t-62 -113t-97 -72t-127 -25.5q-36 0 -69.5 6.5t-59.5 17.5l3 89q28 -17 59.5 -25t63.5 -8q46 0 84.5 18t67 51t45.5 79.5t20 103.5h-260v75h258q-5 45 -19.5 86t-41 73t-64.5 51t-89 19
q-28 0 -63.5 -9t-60.5 -27l-4 87q33 14 66.5 20t66.5 6z" />
    <glyph glyph-name="afii10048" unicode="&#x42e;" horiz-adv-x="816" 
d="M510 705q76 0 125.5 -32.5t79 -84t41.5 -115.5t12 -128q0 -77 -15.5 -141.5t-47.5 -111.5t-80 -73.5t-113 -26.5q-70 0 -118 29t-78 76.5t-44 107t-17 119.5h-91v-324h-89v698h89v-297h93q4 57 19.5 111.5t45 97.5t76 69t112.5 26zM347 347q0 -41 6 -89.5t23.5 -91.5
t49.5 -71.5t85 -28.5q54 0 86 29.5t49.5 72.5t23 92.5t5.5 89.5t-5.5 89.5t-23 92t-49.5 71.5t-85 29q-55 0 -87.5 -29t-50 -72.5t-22.5 -93t-5 -90.5z" />
    <glyph glyph-name="afii10049" unicode="&#x42f;" horiz-adv-x="519" 
d="M355 0v299h-55q-24 0 -39.5 -7.5t-25.5 -20.5t-17 -29l-14 -32l-91 -210h-96l107 247q12 27 30 51.5t47 32.5v3q-60 12 -98 58.5t-38 115.5q0 48 16 83.5t44 59.5t65 35.5t78 11.5h176v-698h-89zM357 624h-55q-30 0 -56.5 -6t-46.5 -20t-31.5 -37t-11.5 -58
q0 -38 12.5 -63t33.5 -40t48 -21t55 -6h52v251z" />
    <glyph glyph-name="afii10065" unicode="&#x430;" horiz-adv-x="463" 
d="M332 0v70h-3q-54 -78 -142 -78q-33 0 -60.5 11t-47.5 31t-31 47.5t-11 60.5q0 52 23.5 85t60 51.5t81 25t86.5 6.5q9 0 18.5 -0.5t18.5 -0.5q0 33 -4 58.5t-15.5 43t-32.5 26.5t-54 9q-64 0 -129 -48l-9 76q42 22 76 31t73 9q60 0 94.5 -19t52.5 -48.5t22.5 -66
t4.5 -71.5v-209q0 -25 2 -50l4 -50h-78zM325 254q-12 1 -19 1h-16q-27 0 -56.5 -3.5t-55 -15t-42 -32.5t-16.5 -56q0 -40 24.5 -65.5t62.5 -25.5q57 0 87.5 40.5t30.5 107.5v49v0z" />
    <glyph glyph-name="afii10066" unicode="&#x431;" horiz-adv-x="482" 
d="M446 255q0 -53 -11 -101t-35.5 -84t-62.5 -57t-92 -21q-62 0 -101.5 25t-62 66.5t-31 94t-8.5 108.5q0 61 2.5 114.5t10 100t22 85.5t39.5 70q31 39 75.5 57.5t101.5 23.5l24.5 3t35.5 5l37.5 6t29.5 6l-4 -86q-28 -9 -61 -13t-66.5 -9t-64.5 -15.5t-56 -34.5
q-31 -29 -47 -80.5t-23 -135.5h2q6 28 20.5 51.5t35 39.5t45.5 25t53 9q94 0 143 -68t49 -185zM357 248q0 100 -28.5 146.5t-84.5 46.5q-31 0 -52 -14t-34.5 -39.5t-19.5 -60.5t-6 -77q0 -96 29 -143t84 -47q112 0 112 188z" />
    <glyph glyph-name="afii10067" unicode="&#x432;" horiz-adv-x="463" 
d="M417 143q0 -39 -13 -66t-36.5 -44.5t-54.5 -25t-67 -7.5h-185v508h204q63 0 101.5 -31t38.5 -96q0 -45 -21.5 -72t-61.5 -42v-3q45 -11 70 -43t25 -78zM319 372q0 37 -23 53t-62 16h-90v-145h93q38 0 60 19.5t22 56.5zM329 147q0 42 -22 62t-60 20h-103v-162h96
q42 0 65.5 20.5t23.5 59.5z" />
    <glyph glyph-name="afii10068" unicode="&#x433;" horiz-adv-x="360" 
d="M151 438v-438h-85v508h286v-70h-201z" />
    <glyph glyph-name="afii10069" unicode="&#x434;" horiz-adv-x="495" 
d="M396 -170v170h-307v-170h-82v240h52q15 27 25.5 56t17.5 64t10.5 78.5t3.5 97.5v142h303v-438h59v-240h-82zM334 438h-134v-87q0 -184 -50 -281h184v368z" />
    <glyph glyph-name="afii10070" unicode="&#x435;" horiz-adv-x="444" 
d="M123 230q1 -32 8 -62.5t22.5 -54t41.5 -38t64 -14.5q31 0 59 8.5t64 30.5l3 -77q-61 -32 -137 -32q-58 0 -98.5 22t-65.5 58.5t-36.5 84.5t-11.5 100q0 59 14 107t39.5 82t62 52.5t81.5 18.5q55 0 90 -24.5t55 -63t27.5 -85.5t7.5 -92v-21h-290zM329 292q-2 24 -5.5 51.5
t-13 51t-28.5 39.5t-50 16t-51 -15.5t-32.5 -39t-18 -51.5t-6.5 -52h205v0z" />
    <glyph glyph-name="afii10072" unicode="&#x436;" horiz-adv-x="630" 
d="M527 0l-172 258q0 -3 0.5 -10.5t1 -17t0.5 -19v-15.5v-196h-84v196v15.5t0.5 19t1 17t0.5 10.5l-172 -258h-100l191 270l-171 238h92l160 -235q-1 13 -1.5 34.5t-0.5 38.5v162h84v-162q0 -18 -0.5 -39t-1.5 -34l160 235h92l-171 -238l191 -270h-100z" />
    <glyph glyph-name="afii10073" unicode="&#x437;" horiz-adv-x="389" 
d="M341 144q0 -70 -48 -111t-133 -41q-34 0 -64 5.5t-65 17.5l7 81q26 -15 56 -25t60 -10q45 0 72 25t27 64q0 45 -27.5 62t-72.5 17h-39v67h32q21 0 39.5 4.5t32.5 14.5t22.5 25.5t8.5 37.5q0 35 -21 53t-60 18q-33 0 -67 -14t-56 -28l-7 74l22.5 10t32 12t41.5 10t49 4
q74 0 113 -35t39 -96q0 -44 -25 -74.5t-63 -41.5v-3q45 -11 69.5 -43t24.5 -80z" />
    <glyph glyph-name="afii10074" unicode="&#x438;" horiz-adv-x="495" 
d="M350 0v270q0 6 0.5 23t1 37.5l1 42t1.5 36.5h-3q-4 -11 -10.5 -26l-13 -31.5t-13.5 -31.5l-12 -26l-141 -294h-100v508h84v-250v-31t-0.5 -39l-1 -43.5t-1.5 -43.5h3l9 21l12.5 30l13 30.5l10.5 23.5l144 302h100v-508h-84z" />
    <glyph glyph-name="afii10075" unicode="&#x439;" horiz-adv-x="495" 
d="M386 679q-8 -14 -20.5 -29t-29.5 -27.5t-39 -21t-49 -8.5t-49 8.5t-39 21t-29.5 27.5t-20.5 29l41 40q6 -9 15.5 -20t21.5 -20t27 -15t33 -6t33 6t27 15t21.5 20t15.5 20l41 -40v0zM350 0v270q0 6 0.5 23t1 37.5l1 42t1.5 36.5h-3q-4 -11 -10.5 -26l-13 -31.5
t-13.5 -31.5l-12 -26l-141 -294h-100v508h84v-250v-31t-0.5 -39l-1 -43.5t-1.5 -43.5h3l9 21l12.5 30l13 30.5l10.5 23.5l144 302h100v-508h-84z" />
    <glyph glyph-name="afii10076" unicode="&#x43a;" horiz-adv-x="444" 
d="M339 0l-194 247q2 -8 2.5 -19t0.5 -22v-206h-84v508h84v-175q0 -9 -1 -25.5t-2 -27.5l181 228h99l-202 -240l221 -268h-105z" />
    <glyph glyph-name="afii10077" unicode="&#x43b;" horiz-adv-x="482" 
d="M337 0v439h-140v-140q0 -51 -2.5 -105t-16 -98.5t-42.5 -73t-81 -28.5q-14 0 -28 2t-24 4l4 69q6 -2 14 -3t16 -1q25 0 40 14.5t23 45.5t10.5 80t2.5 117v186h308v-508h-84z" />
    <glyph glyph-name="afii10078" unicode="&#x43c;" horiz-adv-x="611" 
d="M469 0v281q0 13 0.5 35l1 45t1 42t0.5 26h-3q-1 -5 -4 -18.5t-7 -29.5t-8.5 -32l-7.5 -26l-101 -323h-71l-101 323q-3 8 -7 24l-8.5 32.5l-8 30.5t-4.5 19h-3q1 -7 1.5 -27t1 -44t1 -45.5t0.5 -31.5v-281h-81v508h119l90 -291l10 -33t11 -39.5l9 -36t5 -22.5h2
q1 6 4.5 22t8.5 35.5l10.5 39.5t10.5 34l90 291h119v-508h-81z" />
    <glyph glyph-name="afii10079" unicode="&#x43d;" horiz-adv-x="482" 
d="M337 0v230h-192v-230h-84v508h84v-207h192v207h84v-508h-84z" />
    <glyph glyph-name="afii10080" unicode="&#x43e;" horiz-adv-x="482" 
d="M445 258q0 -129 -52.5 -197.5t-152.5 -68.5q-57 0 -96 22.5t-63 59.5t-34.5 84t-10.5 97t10.5 97t34 83.5t62.5 58.5t96 22t96.5 -21.5t64 -57.5t35 -82.5t10.5 -96.5zM356 249q0 29 -4 64t-16 65t-35 50t-62 20q-57 0 -86 -49t-29 -146q0 -95 30 -144.5t87 -49.5
t86 48.5t29 141.5z" />
    <glyph glyph-name="afii10081" unicode="&#x43f;" horiz-adv-x="482" 
d="M337 0v439h-192v-439h-84v508h360v-508h-84z" />
    <glyph glyph-name="afii10082" unicode="&#x440;" horiz-adv-x="481" 
d="M128 432h2q23 38 56 60.5t80 22.5q54 0 88 -25t53.5 -63.5t26.5 -85t7 -89.5q0 -42 -7.5 -87.5t-27 -83.5t-53 -62.5t-85.5 -24.5q-45 0 -75.5 19.5t-53.5 56.5h-2v-286h-84v616q0 27 -1.5 54t-1.5 54h78v-76zM352 252q0 26 -2.5 59.5t-13 63.5t-31 50.5t-57.5 20.5
t-59.5 -19.5t-35 -48.5t-16.5 -62t-4 -61q0 -27 4 -60.5t16 -63.5t34 -50t59 -20t58 20t31.5 49t13.5 62t3 60z" />
    <glyph glyph-name="afii10083" unicode="&#x441;" horiz-adv-x="389" 
d="M358 418q-24 11 -45.5 17t-44.5 6q-69 0 -106 -47t-37 -134q0 -91 39 -142.5t108 -51.5q52 0 91 24l4 -78q-23 -8 -50 -14t-57 -6q-105 0 -164.5 70t-59.5 193q0 60 15.5 108t44.5 81.5t70 52t92 18.5q26 0 50 -4.5t55 -15.5z" />
    <glyph glyph-name="afii10084" unicode="&#x442;" horiz-adv-x="389" 
d="M236 439v-439h-84v439h-141v69h367v-69h-142z" />
    <glyph glyph-name="afii10085" unicode="&#x443;" horiz-adv-x="407" 
d="M226 -81q-8 -27 -17.5 -51.5t-24.5 -44t-36.5 -31t-54.5 -11.5q-28 0 -55 9l4 71q11 -4 18.5 -6.5t18.5 -2.5q20 0 33 10.5t21 25.5t12.5 33l8.5 33l9 37l-156 517h91l80 -300l7.5 -29.5t8 -34.5l6.5 -32.5t5 -23.5h2q1 11 5.5 31.5l9.5 43l10 43.5t8 32l76 270h84z" />
    <glyph glyph-name="afii10086" unicode="&#x444;" horiz-adv-x="684" 
d="M647 259q0 -56 -10 -104.5t-30 -84.5t-52 -56.5t-75 -20.5q-28 0 -54.5 12.5t-40.5 38.5h-3q0 -3 0.5 -13.5t1 -22.5t0.5 -23v-14v-187h-84v187v14t0.5 23t1 22.5t0.5 13.5h-3q-14 -26 -40.5 -38.5t-54.5 -12.5q-44 0 -75.5 20.5t-51.5 56.5t-30 84.5t-10 104.5
t8.5 103.5t28 82t49.5 53.5t74 19q32 0 60 -17t42 -42h3q0 5 -0.5 15t-0.5 21.5t-0.5 21t-0.5 12.5v222h84v-222q0 -3 -0.5 -12.5t-0.5 -21t-0.5 -21.5t-0.5 -15h3q14 25 42 42t60 17q43 0 73.5 -19t50 -53.5t28 -82t8.5 -103.5zM558 256q0 38 -4.5 72.5t-15 61t-28.5 42
t-46 15.5q-30 0 -50 -21t-31 -53v-239q10 -30 29.5 -51t50.5 -21q28 0 46 16t29 43t15.5 62t4.5 73zM301 373q-11 32 -31 53t-50 21q-28 0 -46 -15.5t-28.5 -42t-15 -61t-4.5 -72.5t4.5 -73t15.5 -62t29 -43t46 -16q31 0 50.5 21t29.5 51v239z" />
    <glyph glyph-name="afii10087" unicode="&#x445;" horiz-adv-x="426" 
d="M262 269l153 -269h-98l-108 206l-107 -206h-91l149 272l-137 236h98l94 -180l96 180h92z" />
    <glyph glyph-name="afii10088" unicode="&#x446;" horiz-adv-x="495" 
d="M395 -170v170h-334v508h84v-438h189v438h84v-438h59v-240h-82z" />
    <glyph glyph-name="afii10089" unicode="&#x447;" horiz-adv-x="463" 
d="M318 0v206q-6 -2 -19.5 -4t-29.5 -4t-31 -3.5t-25 -1.5q-32 0 -61 6t-52 23t-36.5 47t-13.5 79v160h84v-148q0 -49 20 -73t74 -24q9 0 22 1.5l26 3t24.5 3.5t17.5 4v233h84v-508h-84z" />
    <glyph glyph-name="afii10090" unicode="&#x448;" horiz-adv-x="695" 
d="M63 0v508h84v-438h158v438h85v-438h158v438h85v-508h-570z" />
    <glyph glyph-name="afii10091" unicode="&#x449;" horiz-adv-x="712" 
d="M611 -170v170h-547v508h85v-438h158v438h84v-438h158v438h85v-438h59v-240h-82z" />
    <glyph glyph-name="afii10092" unicode="&#x44a;" horiz-adv-x="523" 
d="M491 159q0 -78 -44.5 -118.5t-122.5 -40.5h-182v439h-130v69h215v-191h94q35 0 66 -8t54 -26.5t36.5 -49t13.5 -74.5zM226 248v-179h77q46 0 73 20.5t27 69.5q0 48 -24.5 68.5t-67.5 20.5h-85z" />
    <glyph glyph-name="afii10093" unicode="&#x44b;" horiz-adv-x="611" 
d="M465 0v508h85v-508h-85zM399 159q0 -78 -45 -118.5t-122 -40.5h-171v508h84v-191h83q35 0 66 -8t54.5 -26.5t37 -49t13.5 -74.5zM144 248v-179h66q46 0 73.5 20t27.5 70q0 48 -25 68.5t-68 20.5h-74z" />
    <glyph glyph-name="afii10094" unicode="&#x44c;" horiz-adv-x="444" 
d="M412 159q0 -78 -45 -118.5t-123 -40.5h-180v508h84v-191h93q35 0 66 -8t54.5 -26.5t37 -49t13.5 -74.5zM147 248v-179h76q46 0 73 20t27 70q0 48 -24.5 68.5t-67.5 20.5h-84z" />
    <glyph glyph-name="afii10095" unicode="&#x44d;" horiz-adv-x="393" 
d="M352 257q0 -61 -16 -110.5t-45.5 -84t-71 -53t-93.5 -18.5q-29 0 -57 6.5t-48 14.5l4 77q22 -14 43.5 -19t44.5 -5q66 0 105.5 43.5t45.5 122.5h-182v69h181q-8 67 -43 105t-101 38q-23 0 -46 -6.5t-43 -17.5l-5 77q52 20 103 20q55 0 97 -19t70 -53.5t42.5 -82
t14.5 -104.5z" />
    <glyph glyph-name="afii10096" unicode="&#x44e;" horiz-adv-x="658" 
d="M621 258q0 -54 -11.5 -102t-36 -84.5t-63 -58t-93.5 -21.5q-51 0 -88.5 19t-62.5 52t-37.5 76.5t-15.5 91.5h-68v-231h-84v508h84v-208h69q9 105 61.5 160.5t141.5 55.5q51 0 89 -18t63.5 -52t38.5 -81.5t13 -106.5zM532 251q0 198 -116 198q-32 0 -54 -15t-35.5 -41.5
t-19.5 -62.5t-6 -77q0 -96 29.5 -145t86.5 -49t86 48.5t29 143.5z" />
    <glyph glyph-name="afii10097" unicode="&#x44f;" horiz-adv-x="463" 
d="M318 0v200h-71q-17 0 -27.5 -6t-18.5 -15t-13.5 -20.5l-11.5 -23.5l-67 -135h-94l80 162q10 20 26 38.5t34 23.5v3q-21 4 -40 16.5t-32.5 30t-21.5 40t-8 47.5q0 35 12 62.5t32 46t47.5 28.5t57.5 10h200v-508h-84zM319 441h-86q-42 0 -67.5 -21t-25.5 -63
q0 -47 28.5 -68.5t67.5 -21.5h83v174z" />
    <glyph glyph-name="afii10071" unicode="&#x451;" horiz-adv-x="444" 
d="M123 230q1 -32 8 -62.5t22.5 -54t41.5 -38t64 -14.5q31 0 59 8.5t64 30.5l3 -77q-61 -32 -137 -32q-58 0 -98.5 22t-65.5 58.5t-36.5 84.5t-11.5 100q0 59 14 107t39.5 82t62 52.5t81.5 18.5q55 0 90 -24.5t55 -63t27.5 -85.5t7.5 -92v-21h-290zM329 292q-2 24 -5.5 51.5
t-13 51t-28.5 39.5t-50 16t-51 -15.5t-32.5 -39t-18 -51.5t-6.5 -52h205v0zM269 619v101h81v-101h-81zM109 619v101h81v-101h-81z" />
    <glyph glyph-name="afii10099" unicode="&#x452;" horiz-adv-x="482" 
d="M448 146q0 -118 -45.5 -184t-135.5 -66q-10 0 -22 2.5t-20 4.5l3 69q13 -5 33 -5q46 0 72 42.5t26 136.5q0 78 -24.5 120.5t-73.5 42.5t-77.5 -43t-28.5 -118v-148h-84v447h-58v69h58v234h84v-234h215v-69h-215v-121q0 -7 0.5 -13.5t-0.5 -12.5q15 30 47.5 54.5
t77.5 24.5q83 0 125.5 -62.5t42.5 -170.5z" />
    <glyph glyph-name="afii10100" unicode="&#x453;" horiz-adv-x="360" 
d="M151 438v-438h-85v508h286v-70h-201zM197 583h-60l69 142h89z" />
    <glyph glyph-name="afii10101" unicode="&#x454;" horiz-adv-x="393" 
d="M367 13q-20 -8 -48 -14.5t-57 -6.5q-52 0 -93.5 18.5t-71 53t-45.5 83.5t-16 110q0 57 14.5 104.5t42.5 82t70 53.5t97 19q51 0 103 -20l-5 -77q-20 11 -43 17.5t-46 6.5q-66 0 -101 -38t-43 -105h181v-69h-182q6 -79 45.5 -122t105.5 -43q23 0 44.5 5t43.5 19l4 -77v0z
" />
    <glyph glyph-name="afii10102" unicode="&#x455;" horiz-adv-x="370" 
d="M301 426q-23 10 -44.5 16t-47.5 6q-38 0 -61.5 -18.5t-23.5 -49.5q0 -18 8 -31.5t21 -23.5t28.5 -17.5t29.5 -13.5q25 -11 48 -24.5t39.5 -31.5t26.5 -41.5t10 -54.5q0 -69 -45.5 -109.5t-122.5 -40.5q-32 0 -62 5.5t-71 19.5l8 80q64 -34 119 -34q38 0 64 22t26 54
q0 19 -8.5 33t-22 24t-29.5 17.5t-31 13.5q-24 10 -46 23.5t-38.5 31t-26 40.5t-9.5 52q0 32 12 58.5t34 45t52.5 29t67.5 10.5q25 0 49 -4t53 -13z" />
    <glyph glyph-name="afii10103" unicode="&#x456;" horiz-adv-x="222" 
d="M158 620h-95v100h95v-100zM153 0h-84v508h84v-508z" />
    <glyph glyph-name="afii10104" unicode="&#x457;" horiz-adv-x="222" 
d="M153 0h-84v508h84v-508zM145 619v101h81v-101h-81zM-3 619v101h81v-101h-81z" />
    <glyph glyph-name="afii10105" unicode="&#x458;" horiz-adv-x="222" 
d="M153 -60q0 -31 -4 -60t-16 -51t-35.5 -35.5t-62.5 -13.5q-16 0 -25.5 1.5t-24.5 6.5l1 67q11 -3 17 -4t14 -1q28 0 40 19t12 62v577h84v-568zM158 620h-95v100h95v-100z" />
    <glyph glyph-name="afii10106" unicode="&#x459;" horiz-adv-x="704" 
d="M672 155q0 -77 -44.5 -116t-121.5 -39h-177v440h-129v-144q0 -51 -3 -104.5t-16.5 -97.5t-43 -72t-81.5 -28q-29 0 -54 6l3 70q6 -2 15.5 -3.5t17.5 -1.5q25 0 40.5 14t23.5 44.5t11 79t3 116.5v189h297v-198h90q35 0 65.5 -8t53.5 -26t36.5 -48t13.5 -73zM413 240v-171
h72q46 0 72 18.5t26 66.5t-24 67t-66 19h-80z" />
    <glyph glyph-name="afii10107" unicode="&#x45a;" horiz-adv-x="704" 
d="M672 155q0 -77 -44.5 -116t-120.5 -39h-178v238h-183v-238h-85v508h85v-198h183v198h85v-198h89q35 0 65.5 -8t53.5 -26t36.5 -48t13.5 -73zM414 240v-171h71q46 0 72.5 18.5t26.5 66.5t-24.5 67t-66.5 19h-79z" />
    <glyph glyph-name="afii10108" unicode="&#x45b;" horiz-adv-x="482" 
d="M344 0v200q0 20 -4.5 38.5t-15 33t-26.5 23.5t-39 9q-28 0 -48 -13t-32.5 -34t-18 -48t-5.5 -56v-153h-84v447h-58v69h58v234h84v-234h215v-69h-215v-79v-13v-21t-0.5 -21t-0.5 -13h3q23 39 53 58t72 19q40 0 68 -14t45 -36.5t25 -51.5t8 -60v-215h-84z" />
    <glyph glyph-name="afii10109" unicode="&#x45c;" horiz-adv-x="451" 
d="M245 583h-60l69 142h89zM339 0l-194 247q2 -8 2.5 -19t0.5 -22v-206h-84v508h84v-175q0 -9 -1 -25.5t-2 -27.5l181 228h99l-202 -240l221 -268h-105z" />
    <glyph glyph-name="afii10110" unicode="&#x45e;" horiz-adv-x="407" 
d="M341 679q-8 -14 -20.5 -29t-29.5 -27.5t-39 -21t-49 -8.5t-49 8.5t-39 21t-29.5 27.5t-20.5 29l41 40q6 -9 15.5 -20t21.5 -20t27 -15t33 -6t33 6t27 15t21.5 20t15.5 20l41 -40v0zM226 -81q-8 -27 -17.5 -51.5t-24.5 -44t-36.5 -31t-54.5 -11.5q-28 0 -55 9l4 71
q11 -4 18.5 -6.5t18.5 -2.5q20 0 33 10.5t21 25.5t12.5 33l8.5 33l9 37l-156 517h91l80 -300l7.5 -29.5t8 -34.5l6.5 -32.5t5 -23.5h2q1 11 5.5 31.5l9.5 43l10 43.5t8 32l76 270h84z" />
    <glyph glyph-name="afii10193" unicode="&#x45f;" horiz-adv-x="482" 
d="M282 0v-170h-82v170h-139v508h85v-438h191v438h84v-508h-139z" />
    <glyph glyph-name="afii10050" unicode="&#x490;" horiz-adv-x="410" 
d="M165 622v-622h-89v698h233v123h86v-199h-230z" />
    <glyph glyph-name="afii10098" unicode="&#x491;" horiz-adv-x="360" 
d="M151 439v-439h-85v508h201v108h83v-177h-199z" />
    <glyph glyph-name="Euro" unicode="&#x20ac;" 
d="M470 599q-7 7 -20 12.5t-28 9.5t-30 6t-24 2q-42 0 -74 -15t-55 -41t-38 -60t-23 -71h265l-10 -49h-263q-5 -44 0 -88h249l-9 -49h-232q8 -36 23.5 -69.5t38.5 -59t55 -41t73 -15.5q55 0 102 25l6 -85q-29 -9 -56 -13.5t-57 -4.5q-61 0 -108.5 20.5t-82 56t-56 83.5
t-31.5 103h-78l10 49h63q-2 22 -2 44t2 44h-73l10 49h69q10 54 32 102t56.5 84t81.5 56.5t107 20.5q33 0 63 -6t60 -20z" />
    <glyph glyph-name="afii61352" unicode="&#x2116;" horiz-adv-x="893" 
d="M698 482q69 0 100.5 -50.5t31.5 -133.5q0 -91 -34 -137.5t-98 -46.5q-63 0 -97.5 46.5t-34.5 137.5q0 83 31.5 133.5t100.5 50.5zM566 0v59h265v-59h-265zM391 0l-186 444q-2 6 -10.5 26l-18.5 43t-18 43.5t-10 26.5h-2q3 -48 4 -103t1 -108v-372h-83v698h108l183 -437
l12.5 -29l19.5 -47l18.5 -47.5t10.5 -29.5h3q-1 21 -2 50t-1.5 56.5t-1 50t-0.5 31.5v402h83v-698h-110zM698 423q-31 0 -46 -29t-15 -96t15.5 -95.5t45.5 -28.5q31 0 46 28.5t15 95.5t-15.5 96t-45.5 29z" />
    <glyph glyph-name="uni2219" unicode="&#x2219;" horiz-adv-x="240" 
d="M71 355h96v-112h-96v112z" />
  </font>
</defs>
</svg>
