<?xml version="1.0" encoding="UTF-8"?>
<svg width="9px" height="14px" viewBox="0 0 9 14" version="1.1" xmlns="http://www.w3.org/2000/svg" xmlns:xlink="http://www.w3.org/1999/xlink">
    <!-- Generator: sketchtool 49 (51002) - http://www.bohemiancoding.com/sketch -->
    <title>F77A56E6-F0C8-4A4C-A8BD-53673F6EF3BF</title>
    <desc>Created with sketchtool.</desc>
    <defs></defs>
    <g id="Page-1" stroke="none" stroke-width="1" fill="none" fill-rule="evenodd">
        <g id="Главная" transform="translate(-178.000000, -795.000000)" fill="#706F6F" fill-rule="nonzero">
            <g id="1-screen">
                <g id="paginator" transform="translate(166.000000, 783.000000)">
                    <g id="left" transform="translate(18.000000, 19.000000) scale(-1, 1) translate(-18.000000, -19.000000) translate(0.000000, 1.000000)">
                        <path d="M22.8506709,18.7116025 L16.8161986,24.7458884 C16.4323333,25.1299401 15.8099615,25.1299401 15.4262825,24.7458884 C15.0425725,24.3621784 15.0425725,23.7398376 15.4262825,23.3561587 L20.7658588,18.0167376 L15.4264378,12.677503 C15.0427278,12.2936377 15.0427278,11.671359 15.4264378,11.287649 C15.8101478,10.9037837 16.4324886,10.9037837 16.8163539,11.287649 L22.8508262,17.3220281 C23.0426812,17.5139763 23.1385,17.7652793 23.1385,18.0167066 C23.1385,18.2682581 23.0424948,18.5197475 22.8506709,18.7116025 Z" id="Shape"></path>
                    </g>
                </g>
            </g>
        </g>
    </g>
</svg>