<?xml version="1.0" encoding="UTF-8"?>
<svg width="25px" height="15px" viewBox="0 0 25 15" version="1.1" xmlns="http://www.w3.org/2000/svg" xmlns:xlink="http://www.w3.org/1999/xlink">
    <!-- Generator: sketchtool 49 (51002) - http://www.bohemiancoding.com/sketch -->
    <title>30CE932F-3CD1-4B62-BAF1-823F67A2AEB7</title>
    <desc>Created with sketchtool.</desc>
    <defs></defs>
    <g id="Page-1" stroke="none" stroke-width="1" fill="none" fill-rule="evenodd">
        <g id="Главная" transform="translate(-768.000000, -801.000000)" fill="#9B9B9B" fill-rule="nonzero">
            <g id="1-screen">
                <g id="pic">
                    <path d="M792.255197,802.47286 L791.027828,801.245577 C790.864282,801.081687 790.675886,801 790.462898,801 C790.250426,801 790.062115,801.081687 789.898569,801.245577 L780.250129,810.893502 L770.602118,801.245835 C770.438486,801.081945 770.250176,801.000258 770.037446,801.000258 C769.82463,801.000258 769.63632,801.081945 769.472774,801.245835 L768.245577,802.473204 C768.081687,802.63675 768,802.82506 768,803.037876 C768,803.25052 768.081945,803.43883 768.245577,803.602376 L779.685457,815.042514 C779.849003,815.206146 780.037399,815.287919 780.250129,815.287919 C780.462859,815.287919 780.650911,815.206146 780.814371,815.042514 L792.255197,803.602376 C792.418743,803.438744 792.5,803.250434 792.5,803.037876 C792.5,802.82506 792.418743,802.63675 792.255197,802.47286 Z" id="Shape-Copy-2"></path>
                </g>
            </g>
        </g>
    </g>
</svg>