<?xml version="1.0" encoding="UTF-8"?>
<svg width="58px" height="71px" viewBox="0 0 58 71" version="1.1" xmlns="http://www.w3.org/2000/svg" xmlns:xlink="http://www.w3.org/1999/xlink">
    <!-- Generator: sketchtool 49 (51002) - http://www.bohemiancoding.com/sketch -->
    <title>263D3E40-6D56-48A9-AFAC-F3668DC1C920</title>
    <desc>Created with sketchtool.</desc>
    <defs></defs>
    <g id="Page-1" stroke="none" stroke-width="1" fill="none" fill-rule="evenodd">
        <g id="Главная" transform="translate(-1077.000000, -2763.000000)" fill="#000000" fill-rule="nonzero">
            <g id="about" transform="translate(-2.000000, 2514.000000)">
                <g id="2" transform="translate(1034.000000, 249.000000)">
                    <g id="checklist" transform="translate(45.000000, 0.000000)">
                        <path d="M48.7696759,4.94808414 L35.8304398,4.94808414 C34.8817439,2.00056015 32.1218248,0 29.0041956,0 C25.8865664,0 23.1266473,2.00056015 22.1779514,4.94808414 L9.23032407,4.94808414 C4.13255685,4.94808414 0,9.04967222 0,14.1092375 L0,61.8388466 C5.96230884e-15,66.8984119 4.13255685,71 9.23032407,71 L48.7696759,71 C53.8674431,71 58,66.8984119 58,61.8388466 L58,14.1092375 C58,9.04967222 53.8674431,4.94808414 48.7696759,4.94808414 Z M22.8240741,6.61374839 C23.2265941,6.62263775 23.578744,6.34652413 23.6631944,5.95581102 C24.2127066,3.45335493 26.4446363,1.66894034 29.0251736,1.66894034 C31.605711,1.66894034 33.8376406,3.45335493 34.3871528,5.95581102 C34.4716033,6.34652413 34.8237531,6.62263775 35.2262731,6.61374839 L39.7407407,6.61374839 L39.7407407,12.0687988 C39.7407407,13.4486803 38.6136798,14.5672952 37.2233796,14.5672952 L20.8185764,14.5672952 C19.4282762,14.5672952 18.3012153,13.4486803 18.3012153,12.0687988 L18.3012153,6.61374839 L22.8240741,6.61374839 Z M56.3217593,61.8388466 C56.3217593,65.978491 52.9405764,69.3343357 48.7696759,69.3343357 L9.23032407,69.3343357 C5.05942362,69.3343357 1.67824074,65.978491 1.67824074,61.8388466 L1.67824074,14.1092375 C1.67824074,9.96959318 5.05942362,6.61374839 9.23032407,6.61374839 L16.6229745,6.61374839 L16.6229745,12.0687988 C16.6229745,14.3686012 18.5014095,16.2329594 20.8185764,16.2329594 L37.1814236,16.2329594 C39.4985905,16.2329594 41.3770255,14.3686012 41.3770255,12.0687988 L41.3770255,6.61374839 L48.7696759,6.61374839 C52.9405764,6.61374839 56.3217593,9.96959318 56.3217593,14.1092375 L56.3217593,61.8388466 Z" id="Shape"></path>
                        <path d="M38.6067213,33.1977492 L26.0791515,45.9313902 L19.3932787,39.1355387 C19.0583432,38.8439891 18.559069,38.8635911 18.2472566,39.1805327 C17.9354441,39.4974743 17.9161593,40.0049612 18.2029907,40.3454062 L25.4882284,47.7504818 C25.8174886,48.0831727 26.3492562,48.0831727 26.6785164,47.7504818 L39.7970093,34.4161973 C40.0838407,34.0757524 40.0645559,33.5682654 39.7527434,33.2513238 C39.440931,32.9343822 38.9416568,32.9147802 38.6067213,33.2063298 L38.6067213,33.1977492 Z" id="Shape"></path>
                    </g>
                </g>
            </g>
        </g>
    </g>
</svg>