<?xml version="1.0" encoding="UTF-8"?>
<svg width="62px" height="62px" viewBox="0 0 62 62" version="1.1" xmlns="http://www.w3.org/2000/svg" xmlns:xlink="http://www.w3.org/1999/xlink">
    <!-- Generator: sketchtool 49 (51002) - http://www.bohemiancoding.com/sketch -->
    <title>F50A7E97-6295-4A56-A3E0-3926DBC725A4</title>
    <desc>Created with sketchtool.</desc>
    <defs></defs>
    <g id="Page-1" stroke="none" stroke-width="1" fill="none" fill-rule="evenodd">
        <g id="Главная" transform="translate(-837.000000, -2771.000000)" fill="#000000" fill-rule="nonzero">
            <g id="about" transform="translate(-2.000000, 2514.000000)">
                <g id="1" transform="translate(796.000000, 257.000000)">
                    <g id="cycle" transform="translate(43.000000, 0.000000)">
                        <path d="M58.8,22.7 C58.9,23 59,23.3 59.1,23.6 C59.2,24 59.6,24.3 60.1,24.3 C60.2,24.3 60.3,24.3 60.4,24.3 C60.9,24.2 61.3,23.6 61.1,23.1 C61,22.8 60.9,22.4 60.8,22.1 C60.6,21.6 60.1,21.3 59.6,21.4 C59,21.6 58.7,22.2 58.8,22.7 Z" id="Shape"></path>
                        <path d="M12.8,7.1 C12.5,6.7 11.8,6.6 11.4,7 C11.1,7.2 10.9,7.4 10.6,7.7 C10.2,8.1 10.1,8.7 10.5,9.1 C10.7,9.3 11,9.4 11.3,9.4 C11.5,9.4 11.8,9.3 12,9.2 C12.2,9 12.5,8.8 12.7,8.6 C13.1,8.1 13.2,7.5 12.8,7.1 Z" id="Shape"></path>
                        <path d="M1.4,36.3 C1.9,36.2 2.3,35.7 2.2,35.2 C2.2,34.9 2.1,34.6 2.1,34.2 C2,33.7 1.5,33.3 1,33.3 C0.5,33.4 0.1,33.9 0.1,34.4 C0.1,34.7 0.2,35.1 0.2,35.4 C0.3,35.9 0.7,36.3 1.2,36.3 C1.3,36.3 1.4,36.3 1.4,36.3 Z" id="Shape"></path>
                        <path d="M3.4,39.9 C3.3,39.6 3.2,39.3 3.1,39 C2.9,38.5 2.4,38.2 1.9,38.3 C1.4,38.5 1.1,39 1.2,39.5 C1.3,39.8 1.4,40.2 1.5,40.5 C1.6,40.9 2,41.2 2.5,41.2 C2.6,41.2 2.7,41.2 2.8,41.2 C3.2,41 3.5,40.4 3.4,39.9 Z" id="Shape"></path>
                        <path d="M21.6,2.5 C21.4,2 20.8,1.7 20.3,1.9 C20,2 19.7,2.1 19.3,2.3 C18.8,2.5 18.5,3.1 18.7,3.6 C18.9,4 19.2,4.2 19.6,4.2 C19.7,4.2 19.9,4.2 20,4.1 C20.3,4 20.6,3.9 20.9,3.8 C21.6,3.5 21.8,3 21.6,2.5 Z" id="Shape"></path>
                        <path d="M14,54.5 C13.6,54.2 12.9,54.3 12.6,54.7 C12.3,55.1 12.4,55.8 12.8,56.1 C13.1,56.3 13.4,56.5 13.6,56.7 C13.8,56.8 14,56.9 14.2,56.9 C14.5,56.9 14.8,56.7 15,56.5 C15.3,56 15.2,55.4 14.7,55.1 C14.5,54.9 14.2,54.7 14,54.5 Z" id="Shape"></path>
                        <path d="M19,57.4 C18.7,57.3 18.4,57.1 18.1,57 C17.6,56.8 17,57 16.8,57.5 C16.6,58 16.8,58.6 17.3,58.8 C17.6,59 17.9,59.1 18.2,59.2 C18.3,59.3 18.5,59.3 18.6,59.3 C19,59.3 19.3,59.1 19.5,58.7 C19.7,58.2 19.5,57.7 19,57.4 Z" id="Shape"></path>
                        <path d="M17,4.4 C16.7,3.9 16.1,3.8 15.6,4 C15.3,4.2 15,4.3 14.7,4.5 C14.2,4.8 14.1,5.4 14.4,5.9 C14.6,6.2 14.9,6.4 15.3,6.4 C15.5,6.4 15.7,6.4 15.8,6.3 C16.1,6.1 16.3,6 16.6,5.8 C17.1,5.5 17.3,4.9 17,4.4 Z" id="Shape"></path>
                        <path d="M5.2,44.3 C5.1,44 4.9,43.7 4.8,43.4 C4.6,43 4,42.8 3.5,43 C3,43.2 2.8,43.8 3,44.3 C3.1,44.6 3.3,44.9 3.5,45.2 C3.7,45.5 4,45.7 4.4,45.7 C4.6,45.7 4.7,45.7 4.9,45.6 C5.3,45.4 5.5,44.8 5.2,44.3 Z" id="Shape"></path>
                        <path d="M4.5,16.9 C4.6,17 4.8,17 5,17 C5.3,17 5.7,16.8 5.9,16.5 C6.1,16.2 6.2,15.9 6.4,15.7 C6.7,15.2 6.5,14.6 6.1,14.3 C5.6,14 5,14.2 4.7,14.6 C4.5,14.9 4.3,15.2 4.2,15.5 C3.8,16 4,16.6 4.5,16.9 Z" id="Shape"></path>
                        <path d="M7.8,12.9 C8.1,12.9 8.4,12.8 8.6,12.5 C8.8,12.3 9,12 9.2,11.8 C9.6,11.4 9.5,10.8 9.1,10.4 C8.7,10 8.1,10.1 7.7,10.5 C7.5,10.8 7.2,11 7,11.3 C6.6,11.7 6.7,12.4 7.1,12.7 C7.4,12.9 7.6,12.9 7.8,12.9 Z" id="Shape"></path>
                        <path d="M48.5,7.9 C48.7,8 48.9,8.1 49.1,8.1 C49.4,8.1 49.7,8 49.9,7.7 C50.2,7.3 50.1,6.6 49.7,6.3 C49.4,6.1 49.1,5.9 48.9,5.7 C48.4,5.4 47.8,5.5 47.5,5.9 C47.2,6.4 47.3,7 47.7,7.3 C48,7.5 48.3,7.7 48.5,7.9 Z" id="Shape"></path>
                        <path d="M57.5,19.1 C57.7,19.5 58,19.7 58.4,19.7 C58.5,19.7 58.7,19.7 58.8,19.6 C59.3,19.4 59.5,18.8 59.3,18.3 C59.2,18 59,17.7 58.9,17.4 C58.7,16.9 58.1,16.7 57.6,16.9 C57.1,17.1 56.9,17.7 57.1,18.2 C57.2,18.5 57.3,18.8 57.5,19.1 Z" id="Shape"></path>
                        <path d="M2.5,21.5 C2.6,21.5 2.7,21.6 2.8,21.6 C3.2,21.6 3.6,21.4 3.7,20.9 C3.8,20.6 3.9,20.3 4.1,20 C4.3,19.5 4.1,18.9 3.6,18.7 C3.1,18.5 2.5,18.7 2.3,19.2 C2.2,19.5 2,19.8 1.9,20.2 C1.7,20.7 2,21.3 2.5,21.5 Z" id="Shape"></path>
                        <path d="M1.3,26.4 C1.4,26.4 1.4,26.4 1.5,26.4 C2,26.4 2.4,26.1 2.5,25.6 C2.6,25.3 2.6,25 2.7,24.7 C2.8,24.2 2.5,23.6 1.9,23.5 C1.4,23.4 0.8,23.7 0.7,24.3 C0.6,24.6 0.6,25 0.5,25.3 C0.4,25.7 0.8,26.3 1.3,26.4 Z" id="Shape"></path>
                        <path d="M59.8,27.4 C59.8,27.7 59.9,28 59.9,28.4 C59.9,28.9 60.4,29.3 60.9,29.3 C60.9,29.3 61,29.3 61,29.3 C61.5,29.2 62,28.8 61.9,28.2 C61.9,27.9 61.8,27.5 61.8,27.2 C61.7,26.7 61.2,26.3 60.7,26.3 C60.1,26.4 59.7,26.9 59.8,27.4 Z" id="Shape"></path>
                        <path d="M1,31.4 C1,31.4 1,31.4 1,31.4 C1.6,31.4 2,31 2,30.4 C2,30.1 2,29.8 2,29.4 C2,28.8 1.6,28.4 1.1,28.3 C0.6,28.3 0.1,28.7 0,29.2 C0,29.5 0,29.9 0,30.2 C0,30.9 0.4,31.3 1,31.4 Z" id="Shape"></path>
                        <path d="M50.5,52.5 C50.3,52.7 50,52.9 49.8,53.1 C49.4,53.5 49.3,54.1 49.7,54.5 C49.9,54.7 50.2,54.9 50.5,54.9 C50.7,54.9 51,54.8 51.1,54.7 C51.4,54.5 51.6,54.2 51.9,54 C52.3,53.6 52.3,53 52,52.6 C51.6,52.1 50.9,52.1 50.5,52.5 Z" id="Shape"></path>
                        <path d="M46.7,55.4 C46.4,55.6 46.2,55.7 45.9,55.9 C45.4,56.2 45.3,56.8 45.6,57.3 C45.8,57.6 46.1,57.8 46.5,57.8 C46.7,57.8 46.9,57.8 47,57.7 C47.3,57.5 47.6,57.3 47.9,57.2 C48.4,56.9 48.5,56.3 48.2,55.8 C47.8,55.2 47.2,55.1 46.7,55.4 Z" id="Shape"></path>
                        <path d="M42.4,57.7 C42.1,57.8 41.8,57.9 41.5,58.1 C41,58.3 40.7,58.9 40.9,59.4 C41.1,59.8 41.4,60 41.8,60 C41.9,60 42,60 42.2,59.9 C42.5,59.8 42.8,59.6 43.2,59.5 C43.7,59.3 43.9,58.7 43.7,58.2 C43.5,57.7 43,57.5 42.4,57.7 Z" id="Shape"></path>
                        <path d="M57.8,44.5 C57.3,44.2 56.7,44.4 56.4,44.9 C56.2,45.2 56.1,45.5 55.9,45.7 C55.6,46.2 55.8,46.8 56.2,47.1 C56.4,47.2 56.5,47.2 56.7,47.2 C57,47.2 57.4,47 57.6,46.7 C57.8,46.4 57.9,46.1 58.1,45.8 C58.5,45.4 58.3,44.8 57.8,44.5 Z" id="Shape"></path>
                        <path d="M45.8,4.9 C46.1,4.4 45.9,3.8 45.4,3.5 C45.1,3.3 44.8,3.2 44.5,3 C44,2.8 43.4,3 43.2,3.5 C43,4 43.2,4.6 43.7,4.8 C44,4.9 44.3,5.1 44.6,5.2 C44.7,5.3 44.9,5.3 45.1,5.3 C45.3,5.4 45.6,5.2 45.8,4.9 Z" id="Shape"></path>
                        <path d="M53.8,48.9 C53.6,49.2 53.4,49.4 53.2,49.6 C52.8,50 52.9,50.7 53.3,51 C53.5,51.2 53.7,51.2 53.9,51.2 C54.2,51.2 54.5,51.1 54.7,50.8 C54.9,50.5 55.1,50.3 55.4,50 C55.7,49.6 55.7,48.9 55.2,48.6 C54.8,48.4 54.2,48.5 53.8,48.9 Z" id="Shape"></path>
                        <path d="M59.7,39.9 C59.2,39.7 58.6,40 58.4,40.5 C58.3,40.8 58.2,41.1 58.1,41.4 C57.9,41.9 58.2,42.5 58.7,42.7 C58.8,42.7 58.9,42.8 59.1,42.8 C59.5,42.8 59.9,42.6 60,42.2 C60.1,41.9 60.2,41.6 60.4,41.2 C60.5,40.6 60.2,40.1 59.7,39.9 Z" id="Shape"></path>
                        <path d="M23.5,59.1 C23.2,59 22.9,58.9 22.6,58.8 C22.1,58.6 21.5,58.9 21.4,59.5 C21.2,60 21.5,60.6 22.1,60.7 C22.4,60.8 22.8,60.9 23.1,61 C23.2,61 23.3,61 23.4,61 C23.8,61 24.2,60.7 24.4,60.3 C24.4,59.7 24.1,59.2 23.5,59.1 Z" id="Shape"></path>
                        <path d="M60.8,35 C60.2,34.9 59.7,35.3 59.6,35.8 C59.5,36.1 59.5,36.4 59.4,36.8 C59.3,37.3 59.6,37.9 60.2,38 C60.3,38 60.3,38 60.4,38 C60.9,38 61.3,37.7 61.4,37.2 C61.5,36.9 61.5,36.5 61.6,36.2 C61.7,35.6 61.3,35.1 60.8,35 Z" id="Shape"></path>
                        <path d="M61,30 C60.4,30 60,30.4 60,31 C60,31.3 60,31.6 60,32 C60,32.6 60.4,33 61,33 C61,33 61,33 61,33 C61.5,33 62,32.6 62,32 C62,31.7 62,31.3 62,31 C62,30.4 61.6,30 61,30 Z" id="Shape"></path>
                        <path d="M31.5,1 C31.5,0.4 31,0 30.5,0 C30.2,0 29.8,0 29.5,0 C28.9,0 28.5,0.5 28.6,1 C28.6,1.5 29.1,2 29.6,2 C29.6,2 29.6,2 29.7,2 C30,2 30.3,2 30.7,2 C31,2 31.5,1.5 31.5,1 Z" id="Shape"></path>
                        <path d="M28.3,59.9 C28,59.9 27.7,59.8 27.3,59.8 C26.7,59.7 26.3,60.1 26.2,60.7 C26.1,61.2 26.5,61.7 27.1,61.8 C27.4,61.8 27.8,61.9 28.1,61.9 C28.1,61.9 28.2,61.9 28.2,61.9 C28.7,61.9 29.1,61.5 29.2,61 C29.2,60.4 28.8,59.9 28.3,59.9 Z" id="Shape"></path>
                        <path d="M26.5,1.3 C26.4,0.8 25.9,0.4 25.3,0.5 C25,0.6 24.6,0.6 24.3,0.7 C23.8,0.8 23.4,1.4 23.5,1.9 C23.6,2.4 24,2.7 24.5,2.7 C24.6,2.7 24.6,2.7 24.7,2.7 C25,2.6 25.3,2.6 25.6,2.5 C26.2,2.4 26.6,1.8 26.5,1.3 Z" id="Shape"></path>
                        <path d="M41.3,2.8 C41.5,2.3 41.2,1.7 40.7,1.5 C40.4,1.4 40,1.3 39.7,1.2 C39.2,1 38.6,1.4 38.5,1.9 C38.3,2.4 38.7,3 39.2,3.1 C39.5,3.2 39.8,3.3 40.1,3.4 C40.2,3.4 40.3,3.4 40.4,3.4 C40.7,3.5 41.1,3.2 41.3,2.8 Z" id="Shape"></path>
                        <path d="M35.6,0.3 C35.3,0.2 34.9,0.2 34.6,0.2 C34,0.1 33.6,0.5 33.5,1.1 C33.4,1.6 33.8,2.1 34.4,2.2 C34.7,2.2 35,2.3 35.4,2.3 C35.4,2.3 35.5,2.3 35.5,2.3 C36,2.3 36.4,1.9 36.5,1.4 C36.5,0.9 36.1,0.4 35.6,0.3 Z" id="Shape"></path>
                        <path d="M37.9,59.2 C37.6,59.3 37.3,59.3 37,59.4 C36.5,59.5 36.1,60 36.2,60.6 C36.3,61.1 36.7,61.4 37.2,61.4 C37.3,61.4 37.3,61.4 37.4,61.4 C37.7,61.3 38.1,61.3 38.4,61.2 C38.9,61.1 39.3,60.5 39.1,60 C38.9,59.5 38.4,59.1 37.9,59.2 Z" id="Shape"></path>
                        <path d="M33.1,59.9 C32.8,59.9 32.5,59.9 32.1,60 C31.5,60 31.1,60.5 31.1,61 C31.1,61.5 31.6,62 32.1,62 C32.1,62 32.1,62 32.1,62 C32.4,62 32.8,62 33.1,61.9 C33.7,61.9 34.1,61.4 34,60.8 C34.1,60.3 33.7,59.9 33.1,59.9 Z" id="Shape"></path>
                        <path d="M6.9,47.1 C5,47.8 3.9,49.9 4.6,51.8 C5.3,53.7 7.4,54.8 9.3,54.1 C11.2,53.4 12.3,51.3 11.6,49.4 C11,47.5 8.9,46.4 6.9,47.1 Z M8.8,52.6 C7.7,53 6.5,52.4 6.1,51.3 C5.7,50.2 6.3,49 7.4,48.6 C8.5,48.2 9.7,48.8 10.1,49.9 C10.5,51 9.9,52.2 8.8,52.6 Z" id="Shape"></path>
                        <path d="M56.7,14.3 L56.1,10.6 L55.6,7 C55.5,6.5 54.9,6.2 54.5,6.6 L51.6,8.9 L48.7,11.2 C48.3,11.5 48.4,12.2 48.9,12.4 L52.4,13.8 L55.9,15.2 C56.2,15.3 56.7,14.9 56.7,14.3 Z" id="Shape"></path>
                    </g>
                </g>
            </g>
        </g>
    </g>
</svg>