<?xml version="1.0" encoding="UTF-8"?>
<svg width="66px" height="62px" viewBox="0 0 66 62" version="1.1" xmlns="http://www.w3.org/2000/svg" xmlns:xlink="http://www.w3.org/1999/xlink">
    <!-- Generator: sketchtool 49 (51002) - http://www.bohemiancoding.com/sketch -->
    <title>4D5A27CC-1EBE-4594-A757-EBB6C26FADAD</title>
    <desc>Created with sketchtool.</desc>
    <defs></defs>
    <g id="Page-1" stroke="none" stroke-width="1" fill="none" fill-rule="evenodd">
        <g id="Raum+_Главная" transform="translate(-1286.000000, -2772.000000)" fill="#000000" fill-rule="nonzero">
            <g id="about" transform="translate(-2.000000, 2514.000000)">
                <g id="3" transform="translate(1248.000000, 258.000000)">
                    <g id="experience" transform="translate(40.000000, 0.000000)">
                        <path d="M4.26607692,31.8164074 C4.24902692,31.73249 4.22410769,31.6498837 4.19131923,31.571211 C4.15853077,31.4925384 4.11787308,31.4164882 4.07065769,31.3456828 C4.02344231,31.2735662 3.96835769,31.2066945 3.90802692,31.1463788 C3.84769615,31.0847519 3.77949615,31.0309923 3.70867308,30.9824775 C3.63653846,30.9352739 3.56046923,30.8946263 3.48177692,30.8618461 C3.40308462,30.8290658 3.32045769,30.8041528 3.23651923,30.7871071 C3.06733077,30.7530156 2.89289615,30.7530156 2.72370769,30.7871071 C2.63976923,30.8041528 2.55714231,30.8290658 2.47845,30.8618461 C2.39975769,30.8946263 2.32368846,30.9352739 2.25155385,30.9824775 C2.18073077,31.0309923 2.11384231,31.0847519 2.0522,31.1463788 C1.99186923,31.2066945 1.93809615,31.2735662 1.88956923,31.3456828 C1.84235385,31.4164882 1.80169615,31.4925384 1.76890769,31.571211 C1.73611923,31.6511949 1.7112,31.73249 1.69415,31.8164074 C1.6771,31.9016361 1.66923077,31.988176 1.66923077,32.0734047 C1.66923077,32.1586334 1.67696885,32.2451733 1.69415,32.3290908 C1.7112,32.4130083 1.73611923,32.4956146 1.76890769,32.5742872 C1.80169615,32.6529598 1.84235385,32.7303213 1.88956923,32.8011266 C1.93809615,32.8732432 1.99186923,32.940115 2.0522,33.0004307 C2.11384231,33.0607464 2.18073077,33.1158172 2.25155385,33.1630208 C2.32355731,33.2102244 2.39962654,33.2508719 2.47831885,33.2836522 C2.55701115,33.3164324 2.63963808,33.3413454 2.72357654,33.3583912 C2.80882654,33.3754369 2.89407654,33.3846154 2.98076923,33.3846154 C3.06601923,33.3846154 3.15126923,33.3754369 3.23651923,33.3583912 C3.32045769,33.3413454 3.40308462,33.3164324 3.48177692,33.2836522 C3.56046923,33.2508719 3.63653846,33.2102244 3.70867308,33.1630208 C3.77949615,33.1158172 3.84769615,33.0607464 3.90802692,33.0004307 C3.96835769,32.940115 4.02344231,32.8732432 4.07065769,32.8011266 C4.11787308,32.7303213 4.15853077,32.6529598 4.19131923,32.5742872 C4.22410769,32.4956146 4.24902692,32.4130083 4.26607692,32.3290908 C4.28312692,32.2451733 4.29230769,32.1586334 4.29230769,32.0734047 C4.29230769,31.988176 4.28312692,31.9016361 4.26607692,31.8164074 Z" id="Shape"></path>
                        <path d="M45.5212346,13.454032 C45.5041846,13.3713885 45.4792654,13.2887451 45.4464769,13.2087252 C45.4136885,13.1300172 45.3730308,13.0539327 45.3258154,12.9830955 C45.2772885,12.9109464 45.2235154,12.8440446 45.1618731,12.7837017 C45.1015423,12.7233589 45.0346538,12.6682633 44.9625192,12.6210384 C44.8916962,12.5738136 44.8156269,12.5331478 44.7369346,12.5003528 C44.6582423,12.4675577 44.5756154,12.4413217 44.4916769,12.4255801 C44.3224885,12.3914733 44.1480538,12.3914733 43.9788654,12.4255801 C43.8949269,12.4413217 43.8123,12.4675577 43.7336077,12.5003528 C43.6536038,12.5331478 43.5775346,12.5738136 43.5067115,12.6210384 C43.4345769,12.6682633 43.3676885,12.7233589 43.3073577,12.7837017 C43.2470269,12.8440446 43.1919423,12.9109464 43.1447269,12.9830955 C43.0975115,13.0539327 43.0568538,13.1300172 43.0240654,13.2087252 C42.9912769,13.2887451 42.9663577,13.3713885 42.9493077,13.454032 C42.9322577,13.539299 42.9230769,13.6258779 42.9230769,13.7112761 C42.9230769,13.7965432 42.9322577,13.883122 42.9493077,13.9670773 C42.9663577,14.0510325 42.9912769,14.133676 43.0240654,14.212384 C43.0568538,14.2924039 43.0975115,14.3684883 43.1447269,14.4393256 C43.1919423,14.5114746 43.2470269,14.5783764 43.3073577,14.6387193 C43.3676885,14.6990621 43.4345769,14.7541578 43.5067115,14.8013826 C43.5775346,14.8486074 43.6536038,14.8892732 43.7336077,14.9220683 C43.8123,14.9548633 43.8949269,14.9797875 43.9788654,14.9968409 C44.0628038,15.0138943 44.1493654,15.0230769 44.2346154,15.0230769 C44.3211769,15.0230769 44.4064269,15.0138943 44.4916769,14.9968409 C44.5756154,14.9797875 44.6582423,14.9548633 44.7369346,14.9220683 C44.8156269,14.8892732 44.8916962,14.8486074 44.9625192,14.8013826 C45.0346538,14.7541578 45.1015423,14.6990621 45.1618731,14.6387193 C45.2235154,14.5783764 45.2772885,14.5114746 45.3258154,14.4393256 C45.3730308,14.3684883 45.4136885,14.2924039 45.4464769,14.212384 C45.4792654,14.133676 45.5041846,14.0510325 45.5212346,13.9670773 C45.5382846,13.883122 45.5461538,13.7965432 45.5461538,13.7112761 C45.5461538,13.626009 45.5382846,13.5394302 45.5212346,13.454032 Z" id="Shape"></path>
                        <path d="M32.6692308,17.8846154 C25.4373676,17.8846154 19.5538462,23.7682653 19.5538462,31 C19.5538462,38.2318632 25.4374961,44.1153846 32.6692308,44.1153846 C39.9009654,44.1153846 45.7846154,38.2318632 45.7846154,31 C45.7846154,23.7681368 39.901094,17.8846154 32.6692308,17.8846154 Z M32.6692308,41.5442926 C26.8549968,41.5442926 22.1249382,36.8142339 22.1249382,31 C22.1249382,25.1857661 26.8549968,20.4557074 32.6692308,20.4557074 C38.4834647,20.4557074 43.2135233,25.1857661 43.2135233,31 C43.2135233,36.8142339 38.4834647,41.5442926 32.6692308,41.5442926 Z" id="Shape"></path>
                        <path d="M32.6692308,23.1307692 C28.3301008,23.1307692 24.8,26.6608986 24.8,30.9999363 C24.8,35.3391014 28.3301008,38.8692308 32.6692308,38.8692308 C37.0083608,38.8692308 40.5384615,35.3391014 40.5384615,30.9999363 C40.5383341,26.6608986 37.0083608,23.1307692 32.6692308,23.1307692 Z M32.6692308,36.3193529 C29.7361492,36.3193529 27.3498572,33.9330416 27.3498572,30.9998088 C27.3498572,28.0667035 29.7361492,25.6805196 32.6692308,25.6805196 C35.6023123,25.6805196 37.9886044,28.0668309 37.9886044,30.9998088 C37.9886044,33.9330416 35.6023123,36.3193529 32.6692308,36.3193529 Z" id="Shape"></path>
                        <path d="M48.977617,15.9465864 C48.4964843,15.427613 47.6847171,15.3961213 47.1645805,15.8763061 C46.6444439,16.3564909 46.6128816,17.1664428 47.0941426,17.6852881 C50.4384644,21.2918588 52.2802407,25.9781092 52.2802407,30.8808332 C52.2802407,39.5903436 46.3729567,47.2708683 38.0633446,49.6054805 C37.3628153,47.3635512 35.2631519,45.7314861 32.7885898,45.7314861 C30.3140278,45.7314861 28.2143644,47.3635512 27.513835,49.6054805 C19.2033249,47.2709963 13.2968107,39.5923919 13.2968107,30.8808332 C13.2968107,22.1834843 19.208457,14.4911823 27.5137067,12.156314 C28.214236,14.3982433 30.3138995,16.0301803 32.7884615,16.0301803 C35.8342244,16.0301803 38.3121224,13.5578238 38.3121224,10.5188723 C38.3121224,7.47992079 35.8342244,5.00769231 32.7884615,5.00769231 C30.0741029,5.00769231 27.8109826,6.97131661 27.3505065,9.54941362 C22.8075867,10.7052624 18.6952487,13.3211238 15.7029877,16.9746761 C12.4965907,20.8897632 10.7307692,25.8283315 10.7307692,30.8807052 C10.7307692,35.9521532 12.5085227,40.9054432 15.7367312,44.8278272 C18.7274525,48.4616651 22.8245226,51.0602446 27.3503782,52.2119968 C27.810726,54.7903499 30.0741029,56.7538462 32.7883332,56.7538462 C35.5026919,56.7538462 37.7659404,54.7902218 38.2264166,52.2119968 C42.7547099,51.0597325 46.8540894,48.4585928 49.8450674,44.8220666 C53.0700683,40.9007066 54.8461538,35.9495929 54.8461538,30.8808332 C54.8461538,25.3316327 52.762015,20.0278373 48.977617,15.9465864 Z M32.7884615,7.56812322 C34.4191809,7.56812322 35.7459526,8.89179982 35.7459526,10.5190003 C35.7459526,12.1462008 34.4191809,13.4698774 32.7884615,13.4698774 C31.1577422,13.4698774 29.8309705,12.1462008 29.8309705,10.5190003 C29.8309705,8.89192783 31.1577422,7.56812322 32.7884615,7.56812322 Z M32.7884615,54.1936713 C31.1577422,54.1936713 29.8309705,52.8699947 29.8309705,51.2427942 C29.8309705,49.6157217 31.1576139,48.2919171 32.7884615,48.2919171 C34.4191809,48.2919171 35.7459526,49.6155937 35.7459526,51.2427942 C35.7459526,52.8698667 34.4193092,54.1936713 32.7884615,54.1936713 Z" id="Shape"></path>
                        <path d="M62.9537512,38.0424623 C63.4891256,35.7432412 63.7601428,33.379024 63.7601428,31.0000641 C63.7601428,13.906602 49.8662819,0 32.7884805,0 C22.366868,0 12.7173218,5.20391871 6.94744637,13.9276263 C4.34447678,13.2243352 1.54439208,14.526693 0.448667781,17.0765401 C-0.752722507,19.8721417 0.542166172,23.1248953 3.33520647,24.3272591 C4.04323264,24.6321126 4.78033297,24.7763348 5.50641843,24.7763348 C7.64394535,24.7763348 9.68246644,23.5249995 10.5794106,21.4380734 C11.5356558,19.2128222 10.9102412,16.6981012 9.20677736,15.1580654 C14.5147963,7.26533355 23.3036451,2.56394881 32.7886086,2.56394881 C48.4538158,2.56394881 61.198543,15.3202351 61.198543,30.9999359 C61.198543,33.1075018 60.9668463,35.201607 60.5092166,37.2412283 C58.2164567,37.0568804 55.955973,38.3325731 54.9978066,40.5619266 C54.0414333,42.787306 54.666976,45.3022834 56.3708241,46.8423192 C51.0643421,54.7495374 42.3306958,59.4357948 32.7884805,59.4357948 C19.2400513,59.4357948 7.5149688,49.7832967 4.90866912,36.4844788 C4.7725201,35.7897769 4.09997208,35.3368553 3.40526622,35.4732574 C2.71120077,35.6095313 2.25882225,36.2832088 2.39497128,36.978039 C5.23642581,51.4767849 18.0185525,62 32.7883524,62 C38.159771,62 43.4553661,60.595597 48.1030047,57.9385769 C52.3234964,55.5256447 55.9454704,52.1273869 58.6292585,48.0725019 C59.1018736,48.2001865 59.5807647,48.2617213 60.055173,48.2617213 C62.192828,48.2617213 64.231221,47.0102579 65.1280371,44.9234599 C66.2224806,42.3777151 65.2462549,39.4530187 62.9537512,38.0424623 Z M8.22619697,20.4250572 C7.58272311,21.9218905 5.8426284,22.6155669 4.34742262,21.9718875 C2.85208876,21.32808 2.1586637,19.5863896 2.80200948,18.0895563 C3.28218136,16.9721874 4.37355093,16.3022275 5.51820179,16.3022275 C5.90679647,16.3022275 6.30166707,16.3795306 6.68065576,16.5427259 C8.1761177,17.1866617 8.86941467,18.9282239 8.22619697,20.4250572 Z M62.7752077,43.9104437 C62.1318619,45.4071489 60.3920234,46.1012098 58.8965614,45.4572741 L58.8966895,45.4572741 C57.4012276,44.8134665 56.7078025,43.0717761 57.3511483,41.5749428 C57.9944941,40.0782377 59.7345888,39.3840485 61.2297946,40.0281125 C62.7250003,40.6720482 63.4184254,42.4136104 62.7752077,43.9104437 Z" id="Shape"></path>
                    </g>
                </g>
            </g>
        </g>
    </g>
</svg>