<?xml version="1.0" encoding="UTF-8"?>
<svg width="151px" height="37px" viewBox="0 0 151 37" version="1.1" xmlns="http://www.w3.org/2000/svg" xmlns:xlink="http://www.w3.org/1999/xlink">
    <!-- Generator: sketchtool 49 (51002) - http://www.bohemiancoding.com/sketch -->
    <title>8ED9C1FA-977F-4920-937E-C7E2E1454C7C</title>
    <desc>Created with sketchtool.</desc>
    <defs></defs>
    <g id="Page-1" stroke="none" stroke-width="1" fill="none" fill-rule="evenodd">
        <g id="Главная" transform="translate(-165.000000, -30.000000)" fill="#322D27">
            <g id="1-screen">
                <path d="M174.605642,38.8201421 C173.152925,38.8201421 172.450949,39.5238543 172.214819,40.0397686 C171.888,40.6027383 171.745124,41.0720211 171.561181,41.0720211 C171.467071,41.0720211 171.419161,40.9779102 171.371678,40.7434808 C170.949894,39.7587076 169.732024,39.0083639 168.233963,39.0083639 C166.452717,39.0083639 165,40.0872479 165,41.3984418 L165,56.5918423 C165,57.9047319 166.452717,58.9836159 168.233963,58.9836159 C170.014354,58.9836159 171.467071,57.9047319 171.467071,56.5918423 L171.467071,50.4017186 C171.467071,47.5889895 171.467071,45.8063932 174.090603,45.8063932 C176.620024,45.8063932 177.696729,44.4468721 177.696729,42.2903758 C177.696729,39.9456577 175.964248,38.8201421 174.605642,38.8201421 M214.610967,39.2347388 C212.78181,39.2347388 211.378715,40.3136228 211.378715,41.6252406 L211.378715,51.1448556 C211.378715,52.2686755 210.393126,53.1606095 209.222739,53.1606095 C208.051925,53.1606095 207.113819,52.2686755 207.113819,51.1448556 L207.113819,41.6252406 C207.113819,40.3136228 205.661102,39.2347388 203.881566,39.2347388 C202.098181,39.2347388 200.649742,40.3136228 200.649742,41.6252406 L200.649742,52.5972159 C200.742141,55.2713222 202.756951,57.5677131 205.61533,58.6003896 C206.691607,59.0200733 207.957815,59.2566224 209.222739,59.2566224 C210.533436,59.2566224 211.752161,59.0200733 212.877631,58.6003896 C215.734299,57.5677131 217.700771,55.2713222 217.842792,52.5514322 L217.842792,41.6252406 C217.842792,40.3136228 216.390931,39.2347388 214.610967,39.2347388 M197.888895,41.6328712 L197.888895,56.5918423 C197.888895,57.9047319 196.437462,58.9836159 194.655787,58.9836159 C193.111099,58.9836159 191.846175,58.2328483 191.518928,57.155236 C190.15861,58.2803277 188.471474,58.9365605 186.693222,58.9365605 C182.054024,58.9365605 178.305877,54.4815536 178.305877,48.9959899 C178.305877,43.5095784 182.054024,39.0545715 186.693222,39.0545715 C188.518957,39.0545715 190.205238,39.7120761 191.565555,40.8837993 C191.986484,39.9456577 193.205209,39.2427933 194.655787,39.2427933 C196.437462,39.2427933 197.888895,40.3208295 197.888895,41.6328712 M191.605338,48.9870875 C191.605338,46.7839597 190.059367,44.9547319 188.184866,44.9547319 C186.358703,44.9547319 184.811448,46.7839597 184.811448,48.9870875 C184.811448,51.1927589 186.358703,53.0198671 188.184866,53.0198671 C190.059367,53.0198671 191.605338,51.1927589 191.605338,48.9870875 M309.816542,44.3035862 C310.095878,44.3035862 310.564717,44.5380156 311.079756,44.8190765 C311.784298,45.1955202 312.672782,45.7110105 313.609177,45.7110105 C314.313719,45.7110105 314.922012,45.4299496 315.344224,45.0072984 C315.763869,44.585495 316,44.0225252 316,43.3662924 C316,42.5218378 315.671043,41.771918 315.062322,41.1631645 C313.93899,40.0368011 311.784298,39.3805683 309.30022,39.3805683 C305.129862,39.3805683 302.647495,42.5218378 302.647495,45.5694203 C302.647495,48.4292049 304.05444,49.5564161 306.724171,50.7281393 C309.580839,51.9935495 310.001768,52.2746104 310.001768,53.1665445 C310.001768,53.493813 309.673666,53.9630958 308.831381,53.9630958 C307.847075,53.9630958 307.378236,53.6820348 306.91068,53.3997021 C306.395642,53.0724335 305.880175,52.7434693 304.754705,52.7434693 C303.443153,52.7434693 302.459275,53.9164643 302.459275,55.5112626 C302.459275,56.1195921 302.694123,56.6829858 303.209161,57.1522686 C304.285866,58.2298808 306.53424,58.933593 308.971263,58.933593 C311.079756,58.933593 312.953401,58.2298808 314.218326,56.9640467 C315.296314,55.8864345 315.907601,54.385747 315.907601,52.6972617 C315.907601,48.945967 313.047511,47.7271884 310.985646,46.7898946 C309.862314,46.3206118 308.925063,45.94544 308.925063,45.3358387 C308.925063,44.8173808 309.265143,44.3035862 309.816542,44.3035862 M276.502013,30 C274.631362,30 273.130306,31.1255156 273.130306,32.5320921 L273.130306,56.7274977 C273.130306,58.4901696 274.926097,59.3070692 276.502013,59.3070692 C278.070656,59.3070692 279.831797,58.4685495 279.831797,56.7274977 L279.831797,32.5320921 C279.831797,30.7957035 278.054829,30 276.502013,30 M267.786139,41.4925527 C269.659357,43.3679881 270.737345,46.0874542 270.737345,48.9942942 C270.737345,51.902406 269.659357,54.6222961 267.786139,56.4977314 C266.285939,57.997571 264.413577,58.7945463 262.444966,58.7945463 C260.712058,58.7945463 259.118604,58.1845211 257.712086,57.0594294 L257.712086,64.4204285 C257.712086,64.9842461 257.477239,65.5459441 257.010539,65.9685953 C256.400962,66.6265238 255.416657,67 254.338669,67 C253.308164,67 252.325997,66.6265238 251.670221,65.9685953 C251.248009,65.5459441 251.012306,64.9842461 251.012306,64.4204285 L251.012306,41.9609876 C251.012306,40.5552589 252.512506,39.382264 254.338669,39.382264 C255.793097,39.382264 257.05631,40.0859762 257.525577,41.1173808 C258.931667,39.8515467 260.663719,39.1953139 262.444966,39.1953139 C264.413577,39.1953139 266.285939,39.9918653 267.786139,41.4925527 M260.862634,45.0577452 C258.776813,45.0577452 257.580332,47.0620532 257.580332,48.9959899 C257.580332,50.9273831 258.776813,52.9346586 260.862634,52.9346586 C262.93776,52.9346586 264.093603,50.911698 264.093603,48.9959899 C264.093603,47.0798579 262.93776,45.0577452 260.862634,45.0577452 M296.741234,39.2347388 C294.959132,39.2347388 293.508126,40.3136228 293.508126,41.6252406 L293.508126,51.1448556 C293.508126,52.2686755 292.570876,53.1606095 291.398778,53.1606095 C290.228819,53.1606095 289.291568,52.2686755 289.291568,51.1448556 L289.291568,41.6252406 C289.291568,40.3136228 287.83714,39.2347388 286.057605,39.2347388 C284.277214,39.2347388 282.82578,40.3136228 282.82578,41.6252406 L282.82578,52.5972159 C282.91989,55.2713222 284.934273,57.5677131 287.744314,58.6003896 C288.869784,59.0200733 290.087226,59.2566224 291.398778,59.2566224 C292.712041,59.2566224 293.929483,59.0200733 295.00747,58.6003896 C297.86371,57.5677131 299.878093,55.2713222 299.972203,52.5514322 L299.972203,41.6252406 C299.972203,40.3136228 298.52077,39.2347388 296.741234,39.2347388 M247.972979,44.1658112 L247.972979,56.5918423 C247.972979,57.9047319 246.518551,58.9836159 244.740727,58.9836159 C242.959481,58.9836159 241.508047,57.9047319 241.508047,56.5918423 L241.508047,46.4643217 C241.508047,45.4312214 240.945098,44.5884624 239.58478,44.5884624 C238.225745,44.5884624 237.522914,45.3388061 237.522914,46.5584326 L237.522914,56.5918423 C237.522914,57.9047319 236.071481,58.9836159 234.291517,58.9836159 C232.509843,58.9836159 231.058409,57.9047319 231.058409,56.5918423 L231.058409,46.4643217 C231.058409,45.4312214 230.495888,44.5884624 229.090654,44.5884624 C227.731619,44.5884624 227.075843,45.3388061 227.075843,46.5101054 L227.075843,56.5918423 C227.075843,57.9047319 225.623126,58.9836159 223.84188,58.9836159 C222.062344,58.9836159 220.610911,57.9047319 220.610911,56.5918423 L220.610911,41.6328712 C220.610911,40.3208295 222.062344,39.2427933 223.84188,39.2427933 C225.389135,39.2427933 226.653631,40.0397686 226.981733,41.1173808 C228.012666,40.0397686 229.51201,38.914253 231.524254,38.914253 C234.197407,38.914253 236.023142,40.1800871 236.913766,41.7744615 C237.852299,40.5086274 239.58478,38.914253 241.973892,38.914253 C245.911114,38.914253 247.972979,41.6328712 247.972979,44.1658112" id="Logo"></path>
            </g>
        </g>
    </g>
</svg>