<?xml version="1.0" encoding="UTF-8"?>
<svg width="28px" height="18px" viewBox="0 0 28 18" version="1.1" xmlns="http://www.w3.org/2000/svg" xmlns:xlink="http://www.w3.org/1999/xlink">
    <!-- Generator: sketchtool 49 (51002) - http://www.bohemiancoding.com/sketch -->
    <title>7387292B-8C91-4550-AE31-77FADEBD9555</title>
    <desc>Created with sketchtool.</desc>
    <defs></defs>
    <g id="Page-1" stroke="none" stroke-width="1" fill="none" fill-rule="evenodd">
        <g id="Главная" transform="translate(-1368.000000, -40.000000)" fill="#706F6F">
            <g id="1-screen">
                <path d="M1369,40 L1395,40 C1395.55228,40 1396,40.4477153 1396,41 C1396,41.5522847 1395.55228,42 1395,42 L1369,42 C1368.44772,42 1368,41.5522847 1368,41 C1368,40.4477153 1368.44772,40 1369,40 Z M1369,48 L1395,48 C1395.55228,48 1396,48.4477153 1396,49 C1396,49.5522847 1395.55228,50 1395,50 L1369,50 C1368.44772,50 1368,49.5522847 1368,49 C1368,48.4477153 1368.44772,48 1369,48 Z M1369,56 L1395,56 C1395.55228,56 1396,56.4477153 1396,57 C1396,57.5522847 1395.55228,58 1395,58 L1369,58 C1368.44772,58 1368,57.5522847 1368,57 C1368,56.4477153 1368.44772,56 1369,56 Z" id="menu-icon"></path>
            </g>
        </g>
    </g>
</svg>