<?xml version="1.0" encoding="UTF-8"?>
<svg width="24px" height="24px" viewBox="0 0 24 24" version="1.1" xmlns="http://www.w3.org/2000/svg" xmlns:xlink="http://www.w3.org/1999/xlink">
    <!-- Generator: sketchtool 49 (51002) - http://www.bohemiancoding.com/sketch -->
    <title>F92A05EB-28A5-4BDA-8C59-3904319081F3</title>
    <desc>Created with sketchtool.</desc>
    <defs></defs>
    <g id="Page-1" stroke="none" stroke-width="1" fill="none" fill-rule="evenodd">
        <g id="Главная" transform="translate(-1363.000000, -227.000000)" fill="#B0AEB0">
            <g id="menu-2" transform="translate(1355.000000, 179.000000)">
                <g id="moon" transform="translate(8.000000, 48.000000)">
                    <path d="M20.0825247,20.6025292 C18.0812376,22.1953139 15.5278713,23.164835 12.7329703,23.164835 C9.45499999,23.164835 6.48757425,21.8144306 4.34826732,19.6676338 C2.20896039,17.5208371 0.863267325,14.5430222 0.863267325,11.2535756 C0.863267325,8.51814096 1.76039604,6.02508665 3.31311881,4.01679291 C4.38277227,2.63176273 5.72846534,1.48911284 7.28118811,0.692720494 C7.10866336,1.07360379 6.9361386,1.45448709 6.7981188,1.86999614 C6.34955445,3.11652329 6.14252474,4.43230196 6.14252474,5.81733213 C6.14252474,9.10677878 7.48821781,12.1192194 9.62752474,14.2660162 C11.7668317,16.4128129 14.7687624,17.7632174 18.0467327,17.7632174 C19.4959406,17.7632174 20.8761386,17.5208371 22.1528218,17.0360765 C22.6013861,16.8629477 23.0499505,16.689819 23.4640099,16.4820644 C22.6358911,18.0748491 21.4972277,19.4945051 20.0825247,20.6025292 Z" id="Path"></path>
                </g>
            </g>
        </g>
    </g>
</svg>