<?xml version="1.0" encoding="UTF-8"?>
<svg width="20px" height="20px" viewBox="0 0 20 20" version="1.1" xmlns="http://www.w3.org/2000/svg" xmlns:xlink="http://www.w3.org/1999/xlink">
    <!-- Generator: sketchtool 49 (51002) - http://www.bohemiancoding.com/sketch -->
    <title>06174BBC-C489-4E3F-BA82-2F3B802E35C3</title>
    <desc>Created with sketchtool.</desc>
    <defs></defs>
    <g id="Page-1" stroke="none" stroke-width="1" fill="none" fill-rule="evenodd">
        <g id="Главная" transform="translate(-1308.000000, -39.000000)" fill-rule="nonzero">
            <g id="1-screen">
                <g id="search" transform="translate(1308.000000, 39.000000)">
                    <path d="M19.6580339,18.0251353 L15.167164,13.5343213 C14.7162576,13.0834148 13.9852163,13.0834148 13.5343099,13.5343213 C13.0834592,13.9852277 13.0834592,14.716269 13.5343099,15.1671754 L18.0251239,19.6579895 C18.2505492,19.8834706 18.546092,19.9961833 18.8415789,19.9961833 C19.1370658,19.9961833 19.4326086,19.8834706 19.6580339,19.6579895 C20.1088845,19.207083 20.1088845,18.4760418 19.6580339,18.0251353 Z" id="Shape" fill="#322D27"></path>
                    <path d="M14.3154201,3.2845799 C12.8408281,1.80998788 10.8853649,1 8.8,1 C6.71462159,1 4.75912668,1.8099971 3.28457126,3.28458853 C1.81000043,4.75912335 1,6.71461688 1,8.79995941 C1,10.8853378 1.8099971,12.8408327 3.2845799,14.3153795 C4.75913589,15.7899355 6.71468219,16.5999594 8.8,16.5999594 C10.8853043,16.5999594 12.8408189,15.7899447 14.3154201,14.3153795 C15.7899871,12.8408125 16.6,10.8853022 16.6,8.79997668 C16.599964,6.71462303 15.7899592,4.75911901 14.3154201,3.2845799 Z" id="Shape" stroke="#322D27" stroke-width="2"></path>
                </g>
            </g>
        </g>
    </g>
</svg>