<?xml version="1.0" encoding="UTF-8"?>
<svg width="30px" height="30px" viewBox="0 0 30 30" version="1.1" xmlns="http://www.w3.org/2000/svg" xmlns:xlink="http://www.w3.org/1999/xlink">
    <!-- Generator: sketchtool 49 (51002) - http://www.bohemiancoding.com/sketch -->
    <title>A6AC1BC5-4900-4A10-8130-FBD85118D0BD</title>
    <desc>Created with sketchtool.</desc>
    <defs></defs>
    <g id="Page-1" stroke="none" stroke-width="1" fill="none" fill-rule="evenodd">
        <g id="Главная" transform="translate(-1360.000000, -184.000000)" fill="#C6C6C6" fill-rule="nonzero">
            <g id="menu-2" transform="translate(1355.000000, 179.000000)">
                <g id="sun" transform="translate(5.000000, 5.000000)">
                    <path d="M20.2772277,9.66336634 C18.9306931,8.31683168 17.029703,7.44554455 14.970297,7.44554455 C12.9108911,7.44554455 11.009901,8.27722772 9.66336634,9.66336634 C8.31683168,11.009901 7.44554455,12.9108911 7.44554455,14.970297 C7.44554455,17.029703 8.31683168,18.9306931 9.66336634,20.2772277 C11.009901,21.6237624 12.9108911,22.4950495 14.970297,22.4950495 C17.029703,22.4950495 18.9306931,21.6633663 20.2772277,20.2772277 C21.6237624,18.9306931 22.4950495,17.029703 22.4950495,14.970297 C22.4950495,12.9108911 21.6633663,11.009901 20.2772277,9.66336634 Z M18.8514851,18.8514851 C17.8613861,19.8415842 16.4752475,20.4356436 14.970297,20.4356436 C13.4653465,20.4356436 12.0792079,19.8415842 11.0891089,18.8514851 C10.0990099,17.8613861 9.5049505,16.4752475 9.5049505,14.970297 C9.5049505,13.4653465 10.0990099,12.0792079 11.0891089,11.0891089 C12.0792079,10.0990099 13.4653465,9.5049505 14.970297,9.5049505 C16.4752475,9.5049505 17.8613861,10.0990099 18.8514851,11.0891089 C19.8415842,12.0792079 20.4356436,13.4653465 20.4356436,14.970297 C20.4356436,16.4752475 19.8415842,17.8613861 18.8514851,18.8514851 Z" id="Shape"></path>
                    <path d="M28.9108911,13.9405941 L25.8613861,13.9405941 C25.3069307,13.9405941 24.8316832,14.4158416 24.8316832,14.970297 C24.8316832,15.5247525 25.3069307,16 25.8613861,16 L28.9108911,16 C29.4653465,16 29.9405941,15.5247525 29.9405941,14.970297 C29.9405941,14.4158416 29.4653465,13.9405941 28.9108911,13.9405941 Z" id="Shape"></path>
                    <path d="M14.970297,24.8316832 C14.4158416,24.8316832 13.9405941,25.3069307 13.9405941,25.8613861 L13.9405941,28.9108911 C13.9405941,29.4653465 14.4158416,29.9405941 14.970297,29.9405941 C15.5247525,29.9405941 16,29.4653465 16,28.9108911 L16,25.8613861 C16,25.3069307 15.5247525,24.8316832 14.970297,24.8316832 Z" id="Shape"></path>
                    <path d="M25.5445545,24.1188119 L23.3663366,21.9405941 C23.009901,21.5445545 22.3366337,21.5445545 21.9405941,21.9405941 C21.5445545,22.3366337 21.5445545,22.970297 21.9405941,23.3663366 L24.1188119,25.5445545 C24.5148515,25.9405941 25.1485149,25.9405941 25.5445545,25.5445545 C25.9405941,25.1485149 25.9405941,24.5148515 25.5445545,24.1188119 Z" id="Shape"></path>
                    <path d="M14.970297,0 C14.4158416,0 13.9405941,0.475247525 13.9405941,1.02970297 L13.9405941,4.07920792 C13.9405941,4.63366337 14.4158416,5.10891089 14.970297,5.10891089 C15.5247525,5.10891089 16,4.63366337 16,4.07920792 L16,1.02970297 C16,0.475247525 15.5247525,0 14.970297,0 Z" id="Shape"></path>
                    <path d="M25.5841584,4.3960396 C25.1881188,4 24.5544554,4 24.1584158,4.3960396 L21.980198,6.57425743 C21.5841584,6.97029703 21.5841584,7.6039604 21.980198,8 C22.3366337,8.3960396 23.009901,8.3960396 23.4059406,8 L25.5841584,5.82178218 C25.980198,5.42574257 25.980198,4.79207921 25.5841584,4.3960396 Z" id="Shape"></path>
                    <path d="M4.07920792,13.9405941 L1.02970297,13.9405941 C0.475247525,13.9405941 0,14.4158416 0,14.970297 C0,15.5247525 0.435643564,16 1.02970297,16 L4.07920792,16 C4.63366337,16 5.10891089,15.5247525 5.10891089,14.970297 C5.10891089,14.4158416 4.63366337,13.9405941 4.07920792,13.9405941 Z" id="Shape"></path>
                    <path d="M7.96039604,21.9405941 C7.6039604,21.5445545 6.93069307,21.5445545 6.53465347,21.9405941 L4.35643564,24.1188119 C3.96039604,24.5148515 3.96039604,25.1485149 4.35643564,25.5445545 C4.75247525,25.9405941 5.38613861,25.9405941 5.78217822,25.5445545 L7.96039604,23.3663366 C8.35643564,22.970297 8.35643564,22.3366337 7.96039604,21.9405941 Z" id="Shape"></path>
                    <path d="M7.96039604,6.57425743 L5.78217822,4.3960396 C5.38613861,4 4.75247525,4 4.35643564,4.3960396 C3.96039604,4.79207921 3.96039604,5.42574257 4.35643564,5.82178218 L6.53465347,8 C6.93069307,8.3960396 7.56435644,8.3960396 7.96039604,8 C8.35643564,7.6039604 8.35643564,6.97029703 7.96039604,6.57425743 Z" id="Shape"></path>
                </g>
            </g>
        </g>
    </g>
</svg>