<?xml version="1.0" encoding="UTF-8"?>
<svg width="20px" height="20px" viewBox="0 0 20 20" version="1.1" xmlns="http://www.w3.org/2000/svg" xmlns:xlink="http://www.w3.org/1999/xlink">
    <!-- Generator: sketchtool 49 (51002) - http://www.bohemiancoding.com/sketch -->
    <title>F8EE8519-0BE4-41FE-8843-2D14788A1F95</title>
    <desc>Created with sketchtool.</desc>
    <defs></defs>
    <g id="Page-1" stroke="none" stroke-width="1" fill="none" fill-rule="evenodd">
        <g id="Главная" transform="translate(-1114.000000, -900.000000)" fill="#666666" fill-rule="nonzero">
            <g id="counter" transform="translate(0.000000, 840.000000)">
                <g id="upload" transform="translate(930.000000, 45.000000)">
                    <g id="upload-(1)" transform="translate(184.000000, 15.000000)">
                        <path d="M18.4375,12.2125781 L18.4375,17.6422656 C18.4375,18.0730469 18.0870313,18.4235156 17.65625,18.4235156 L2.34375,18.4235156 C1.91296875,18.4235156 1.5625,18.0730469 1.5625,17.6422656 L1.5625,12.2125781 L0,12.2125781 L0,17.6422656 C0,18.9346094 1.05140625,19.9860156 2.34375,19.9860156 L17.65625,19.9860156 C18.9485938,19.9860156 20,18.9346094 20,17.6422656 L20,12.2125781 L18.4375,12.2125781 Z" id="Shape"></path>
                        <polygon id="Shape" points="10 0.013984375 5.14515625 4.86882813 6.25 5.97367188 9.21875 3.00492188 9.21875 15.1813281 10.78125 15.1813281 10.78125 3.00492188 13.75 5.97367188 14.8548438 4.86882813"></polygon>
                    </g>
                </g>
            </g>
        </g>
    </g>
</svg>