<?xml version="1.0" standalone="no"?>
<!DOCTYPE svg PUBLIC "-//W3C//DTD SVG 1.1//EN" "http://www.w3.org/Graphics/SVG/1.1/DTD/svg11.dtd" >
<svg>
<metadata>
Created by FontForge 20090622 at Thu Mar 29 15:37:42 2018
 By deploy user
Part of the digitally encoded machine readable outline data for producing the Typefaces provided is copyrighted (c) 1981,2005 Linotype Library GmbH, www.linotype.com. All rights reserved. This software is the property of Linotype Library GmbH, and may not be reproduced, used, displayed, modified, disclosed or transferred without the express written approval of Linotype Library GmbH.Copyright (c) 1981, 1993 Adobe Systems Incorporated. All rights reserved. All Cyrillic characters are designed for Linotype Library by Double Alex.
</metadata>
<defs>
<font id="FrutigerLTCYR-BoldItalic" horiz-adv-x="556" >
  <font-face 
    font-family="Frutiger LT CYR 45 Light"
    font-weight="700"
    font-style="italic"
    font-stretch="normal"
    units-per-em="1000"
    panose-1="2 0 8 3 5 0 0 9 0 4"
    ascent="800"
    descent="-200"
    x-height="515"
    cap-height="698"
    bbox="-103 -220 1091 892"
    underline-thickness="50"
    underline-position="-50"
    slope="-12"
    unicode-range="U+0020-U+F8FF"
  />
<missing-glyph horiz-adv-x="512" 
d="M222 117v67h56v-67h-56zM225 234l-2 17q0 56 13 81q7 13 18 27.5t28 31.5q16 15 26 26.5t15 21t7 18t2 17.5q0 36 -22.5 60.5t-53.5 24.5t-53.5 -22t-28.5 -73l-50 8q7 72 44 104.5t91 32.5t89 -35.5t35 -95.5q0 -32 -12.5 -58.5t-50.5 -61.5q-37 -33 -43 -52
q-6 -20 -6 -72h-46zM462 50v617h-412v-617h412zM512 718v-718h-512v718h512z" />
    <glyph glyph-name=".notdef" horiz-adv-x="512" 
d="M222 117v67h56v-67h-56zM225 234l-2 17q0 56 13 81q7 13 18 27.5t28 31.5q16 15 26 26.5t15 21t7 18t2 17.5q0 36 -22.5 60.5t-53.5 24.5t-53.5 -22t-28.5 -73l-50 8q7 72 44 104.5t91 32.5t89 -35.5t35 -95.5q0 -32 -12.5 -58.5t-50.5 -61.5q-37 -33 -43 -52
q-6 -20 -6 -72h-46zM462 50v617h-412v-617h412zM512 718v-718h-512v718h512z" />
    <glyph glyph-name=".null" horiz-adv-x="0" 
 />
    <glyph glyph-name="nonmarkingreturn" horiz-adv-x="278" 
 />
    <glyph glyph-name="space" unicode=" " horiz-adv-x="278" 
 />
    <glyph glyph-name="exclam" unicode="!" horiz-adv-x="389" 
d="M370 698l-127 -497h-111l81 497h157zM246 133l-28 -133h-140l27 133h141z" />
    <glyph glyph-name="quotedbl" unicode="&#x22;" horiz-adv-x="500" 
d="M160 405l44 293h106l-81 -293h-69zM337 405l44 293h106l-81 -293h-69z" />
    <glyph glyph-name="numbersign" unicode="#" 
d="M78 0l42 191h-90l18 84h89l30 142h-89l18 84h89l41 197h96l-41 -197h106l41 197h96l-41 -197h89l-18 -84h-88l-30 -142h88l-18 -84h-89l-40 -191h-96l41 191h-107l-40 -191h-97zM369 417h-105l-31 -142h106z" />
    <glyph glyph-name="dollar" unicode="$" 
d="M532 562q-73 38 -153 38l-38 -181q34 -15 65 -32t55 -39.5t38.5 -53t14.5 -72.5q0 -59 -22.5 -101.5t-59.5 -70.5t-83.5 -41.5t-95.5 -14.5l-18 -84h-52l18 84q-108 5 -193 42l36 120q41 -25 85.5 -38t92.5 -15l45 207q-32 13 -62.5 29.5t-54 39t-38 52t-14.5 68.5
q0 55 21 94t55.5 64.5t80 38t94.5 13.5l19 81h53l-20 -82q25 -2 45.5 -4.5t39.5 -6t38.5 -9t42.5 -14.5zM330 600q-45 -5 -70 -26.5t-25 -55.5q0 -24 13.5 -42t45.5 -34zM276 103q19 3 37 9.5t32 18.5t22 29.5t8 41.5q0 55 -61 86z" />
    <glyph glyph-name="percent" unicode="%" horiz-adv-x="1000" 
d="M215 -43l514 773h81l-514 -773h-81zM322 715q30 0 57 -8.5t47.5 -25.5t32 -41.5t11.5 -57.5q0 -45 -12.5 -87t-37 -74.5t-61 -52t-84.5 -19.5q-71 0 -109 36t-38 102q0 45 12 86t36.5 72.5t61 50.5t84.5 19zM279 426q25 0 42 17.5t27.5 42.5t14.5 52t4 46q0 55 -50 55
q-26 0 -42.5 -17.5t-27 -42t-14.5 -51.5t-4 -46q0 -25 12 -40.5t38 -15.5zM766 348q30 0 57 -8.5t47.5 -25.5t32 -41.5t11.5 -57.5q0 -45 -12.5 -87t-37 -74.5t-61 -52t-84.5 -19.5q-71 0 -109 36t-38 102q0 45 12 86t36.5 72.5t61 50.5t84.5 19zM723 59q25 0 42 17.5
t27.5 42.5t14.5 52t4 46q0 55 -50 55q-26 0 -42.5 -17.5t-27 -42t-14.5 -51.5t-4 -46q0 -25 12 -40.5t38 -15.5z" />
    <glyph glyph-name="ampersand" unicode="&#x26;" horiz-adv-x="722" 
d="M510 209q26 37 42.5 80.5t20.5 88.5h118q-6 -71 -35.5 -141.5t-82.5 -119.5l82 -117h-151l-25 38q-43 -26 -89 -38.5t-103 -12.5q-56 0 -101 14t-76.5 40t-49 62.5t-17.5 82.5q0 47 16 81.5t43 60t63 43t75 31.5q-54 63 -54 131q0 40 15.5 73t43 56t66.5 36t86 13
q45 0 81.5 -11.5t62.5 -32.5t40 -51t14 -66q0 -42 -16.5 -73t-43 -54t-60 -39.5t-67.5 -28.5zM353 443q124 37 124 108q0 29 -20 47.5t-53 18.5q-39 0 -63.5 -24t-24.5 -62q0 -20 8 -39.5t29 -48.5zM295 315q-60 -20 -88.5 -50t-28.5 -73q0 -47 32 -75.5t83 -28.5
q34 0 66 10.5t61 27.5z" />
    <glyph glyph-name="quotesingle" unicode="'" horiz-adv-x="278" 
d="M141 405l42 293h106l-83 -293h-65z" />
    <glyph glyph-name="parenleft" unicode="(" horiz-adv-x="333" 
d="M430 757q-54 -59 -98.5 -120t-76 -127.5t-48.5 -140t-17 -155.5q0 -91 15 -180t43 -176h-114q-31 95 -53.5 191.5t-22.5 196.5q0 80 16.5 148t47 129.5t72.5 118.5t93 115h143z" />
    <glyph glyph-name="parenright" unicode=")" horiz-adv-x="333" 
d="M-60 -142q54 60 98 121t75.5 126.5t49 138t17.5 157.5q0 92 -15.5 180t-42.5 176h113q31 -94 54 -191t23 -197q0 -79 -17 -147.5t-47.5 -130t-73 -119t-92.5 -114.5h-142z" />
    <glyph glyph-name="asterisk" unicode="*" 
d="M314 756l105 -23l-46 -136l142 28l8 -106h-141l69 -119l-98 -44l-42 130l-106 -106l-72 80l124 85l-132 58l56 96l119 -87z" />
    <glyph glyph-name="plus" unicode="+" horiz-adv-x="600" 
d="M266 209h-206v101h206v209h108v-209h206v-101h-206v-209h-108v209z" />
    <glyph glyph-name="comma" unicode="," horiz-adv-x="278" 
d="M215 137l-132 -249h-120l102 249h150z" />
    <glyph glyph-name="hyphen" unicode="-" horiz-adv-x="389" 
d="M339 323l-21 -108h-258l21 108h258z" />
    <glyph glyph-name="period" unicode="." horiz-adv-x="278" 
d="M189 137l-28 -137h-140l28 137h140z" />
    <glyph glyph-name="slash" unicode="/" horiz-adv-x="278" 
d="M89 -14h-104l256 728h103z" />
    <glyph glyph-name="zero" unicode="0" 
d="M362 712q94 0 144.5 -63.5t50.5 -181.5q0 -51 -7.5 -101.5t-21 -98.5t-33.5 -92t-45 -80q-38 -54 -86 -79.5t-114 -25.5q-96 -1 -150 62t-54 178q0 51 7.5 102.5t22 100t35 93t46.5 80.5q36 52 89 79t116 27zM355 609q-26 0 -45.5 -13.5t-34 -34t-25 -44.5t-17.5 -44
q-12 -34 -21.5 -71t-16 -73.5t-10.5 -70.5t-4 -62q0 -48 19.5 -74.5t55.5 -26.5q34 0 56.5 20t43.5 69q15 36 27.5 77t22 82.5t14.5 81.5t5 73q0 111 -70 111z" />
    <glyph glyph-name="one" unicode="1" 
d="M360 697h124l-147 -697h-142l120 538l-129 -88l-61 93z" />
    <glyph glyph-name="two" unicode="2" 
d="M121 664l50.5 18t47 14t48.5 9t54 3q43 0 82.5 -11.5t69.5 -35t47.5 -58.5t17.5 -82q0 -98 -85 -195l-52 -56t-50 -47t-62.5 -49.5l-88.5 -64.5h274l-21 -109h-463l24 117l242 201q29 24 52 45.5t41 41.5q20 23 31 48.5t11 48.5q0 42 -27.5 66.5t-72.5 24.5
q-41 0 -86.5 -16.5t-80.5 -37.5z" />
    <glyph glyph-name="three" unicode="3" 
d="M154 676q18 7 40.5 12.5t46.5 9.5t48 6t45 2q99 0 156 -45t57 -124q0 -39 -14 -68.5t-37 -50.5t-53 -34.5t-61 -19.5q27 -9 48.5 -21t37 -29t24 -40.5t8.5 -56.5q0 -51 -21 -93t-59.5 -71.5t-92 -45.5t-119.5 -16q-53 0 -107 10.5t-94 29.5l25 107q43 -19 84 -29t76 -10
q73 0 118 32t45 84q0 98 -160 98q-9 0 -19.5 -0.5t-19.5 -1.5l19 107h28q100 0 151.5 27t51.5 79q0 36 -26 57t-72 21q-42 0 -86 -13t-82 -29z" />
    <glyph glyph-name="four" unicode="4" 
d="M554 698l-95 -454h91l-18 -101h-95l-31 -143h-135l30 142h-289l17 122l350 434h175zM396 577l-243 -333h170z" />
    <glyph glyph-name="five" unicode="5" 
d="M593 697l-22 -104h-270l-35 -144q12 1 18.5 1h13.5q52 0 93.5 -14.5t70.5 -42t44.5 -66.5t15.5 -87q0 -63 -23 -109.5t-62.5 -77t-92 -45.5t-110.5 -15q-51 0 -99.5 10t-97.5 25l23 111q87 -35 150 -35q75 0 120 36t45 95q0 54 -37 82.5t-105 28.5q-66 0 -126 -23l84 374
h402z" />
    <glyph glyph-name="six" unicode="6" 
d="M551 578q-29 11 -62.5 18.5t-59.5 7.5q-42 0 -75.5 -16.5t-59.5 -42.5t-44 -60t-27 -68q29 20 56.5 28.5t59.5 8.5q87 0 136.5 -51.5t49.5 -140.5q0 -57 -16.5 -107t-48 -87t-77.5 -58.5t-106 -21.5q-106 0 -163.5 61t-57.5 172q0 93 26.5 187t71.5 166q41 66 110 101
t156 35q43 0 84 -7.5t81 -21.5zM386 259q0 44 -22 69.5t-59 25.5q-26 0 -47 -11.5t-37 -32.5t-24.5 -49.5t-8.5 -61.5q0 -48 22.5 -75t62.5 -27q25 0 45.5 12t35.5 33.5t23.5 51t8.5 65.5z" />
    <glyph glyph-name="seven" unicode="7" 
d="M592 698l-26 -118l-358 -580h-169l381 590h-314l21 108h465z" />
    <glyph glyph-name="eight" unicode="8" 
d="M436 367q47 -27 70.5 -62t23.5 -92q0 -56 -22 -97.5t-58.5 -70t-83.5 -42.5t-98 -14q-44 0 -86 11.5t-75 34.5t-53 59t-20 85q0 41 13 73.5t36 57t54 41.5t66 26q-38 26 -59.5 57t-21.5 80q0 51 21 87.5t55.5 60.5t78 35t88.5 11q103 0 161 -43.5t58 -120.5
q0 -66 -38 -111.5t-110 -65.5zM334 412q122 43 122 116q0 36 -26 57t-71 21q-46 0 -76 -25t-30 -64q0 -18 7.5 -33.5t19 -28.5t26 -23.5t28.5 -19.5zM310 317q-23 -8 -47.5 -19.5t-44 -28t-32 -38t-12.5 -50.5q0 -42 28 -67.5t73 -25.5q25 0 46.5 9t37.5 25t25 38t9 47
q0 27 -19.5 54t-63.5 56z" />
    <glyph glyph-name="nine" unicode="9" 
d="M57 120q29 -11 59.5 -18t61.5 -7q43 0 76.5 15.5t58.5 41.5t42.5 59.5t28.5 69.5q-28 -19 -55.5 -27.5t-59.5 -8.5q-87 0 -136 51.5t-49 140.5q0 57 16 107t47.5 86.5t77.5 58t106 21.5q106 0 163.5 -60.5t57.5 -172.5q0 -46 -7 -93.5t-19.5 -93t-31 -88t-40.5 -78.5
q-42 -65 -110.5 -100.5t-156.5 -35.5q-42 0 -83.5 8.5t-81.5 20.5zM221 439q0 -44 22.5 -69t61.5 -25q25 0 46 11.5t36 32.5t23.5 50t8.5 63q0 46 -23 73t-61 27q-25 0 -46 -12t-36 -33.5t-23.5 -51.5t-8.5 -66z" />
    <glyph glyph-name="colon" unicode=":" horiz-adv-x="278" 
d="M267 515l-27 -137h-140l27 137h140zM189 137l-28 -137h-140l28 137h140z" />
    <glyph glyph-name="semicolon" unicode=";" horiz-adv-x="278" 
d="M267 515l-27 -137h-140l27 137h140zM206 137l-132 -249h-120l102 249h150z" />
    <glyph glyph-name="less" unicode="&#x3c;" horiz-adv-x="600" 
d="M34 312l520 200v-112l-382 -140l382 -140v-113l-520 200v105z" />
    <glyph glyph-name="equal" unicode="=" horiz-adv-x="600" 
d="M50 420h520v-102h-520v102zM50 201h520v-102h-520v102z" />
    <glyph glyph-name="greater" unicode="&#x3e;" horiz-adv-x="600" 
d="M50 7v113l383 140l-383 140v112l520 -200v-105z" />
    <glyph glyph-name="question" unicode="?" horiz-adv-x="500" 
d="M156 195q6 44 16 73.5t25.5 52.5t38 43.5t55.5 47.5q13 10 25.5 21.5t22.5 24.5t16.5 28t6.5 33q0 36 -34 58t-91 22q-28 0 -60 -7t-58 -18v115q35 8 72 12.5t73 4.5q43 0 86.5 -10t78.5 -31.5t56.5 -56.5t21.5 -86q0 -34 -10 -60.5t-27.5 -48.5t-40 -41l-46.5 -38
l-35.5 -28.5t-32 -31t-24 -36t-12.5 -43.5h-123zM281 134l-29 -134h-140l28 134h141z" />
    <glyph glyph-name="at" unicode="@" horiz-adv-x="800" 
d="M749 92q-75 -57 -145.5 -81.5t-152.5 -24.5q-78 0 -146.5 25t-120 71.5t-81.5 112t-30 146.5q0 79 30 147t83 118t124.5 79t154.5 29q73 0 133.5 -21.5t104 -60.5t68 -92.5t24.5 -117.5q0 -51 -16.5 -97.5t-44 -82t-64 -56.5t-76.5 -21q-38 0 -60.5 19.5t-22.5 52.5
q0 5 0.5 8.5t1.5 9.5q-20 -41 -53.5 -65.5t-81.5 -24.5q-59 0 -95.5 41t-36.5 109q0 48 16 90.5t43 75t62.5 51.5t74.5 19q40 0 66.5 -15.5t43.5 -50.5l14 50h84l-65 -217q-10 -34 -10 -52q0 -41 40 -41q24 0 46.5 17t40.5 45.5t28.5 64.5t10.5 74q0 53 -20 96.5t-56 75
t-86.5 49t-111.5 17.5q-73 0 -135 -24.5t-107 -68t-70.5 -103.5t-25.5 -130q0 -66 24 -121.5t67 -95.5t102.5 -62.5t131.5 -22.5t135.5 22t131.5 72zM522 426q0 28 -15.5 46.5t-44.5 18.5t-51 -20t-37 -48.5t-22.5 -60t-7.5 -53.5q0 -39 16 -61.5t45 -22.5q28 0 49.5 23.5
t36.5 55.5t23 66.5t8 55.5z" />
    <glyph glyph-name="A" unicode="A" horiz-adv-x="722" 
d="M668 0h-141l-26 162h-295l-91 -162h-157l426 698h156zM483 272l-44 309l-171 -309h215z" />
    <glyph glyph-name="B" unicode="B" horiz-adv-x="611" 
d="M382 698q31 0 67 -6.5t67 -24.5t51.5 -50.5t20.5 -83.5q0 -32 -11 -60t-30.5 -50t-47 -37t-60.5 -21v-2q51 -5 81.5 -44t30.5 -97q0 -42 -15.5 -79.5t-44.5 -66.5q-41 -38 -104 -57t-156 -19h-210l147 698h214zM242 410q9 0 17.5 -0.5t17.5 -0.5q28 0 59 4.5t57.5 17
t43.5 35t17 58.5q0 72 -130 72h-42zM177 104q10 0 19 -0.5t19 -0.5q34 0 63 3t49 10q37 12 62 44.5t25 70.5q0 27 -10.5 43.5t-27 25.5t-38.5 12t-44 3h-73z" />
    <glyph glyph-name="C" unicode="C" horiz-adv-x="611" 
d="M643 555q-25 17 -63.5 26.5t-79.5 9.5q-60 0 -111.5 -21t-89 -58.5t-58.5 -88.5t-21 -111q0 -45 15.5 -82t42.5 -64t64.5 -42t81.5 -15q36 0 73.5 10t66.5 27l-22 -132q-40 -11 -80.5 -15t-82.5 -4q-70 0 -127 21.5t-97.5 61t-63 96t-22.5 127.5q0 89 30.5 163t84 127.5
t126.5 83t157 29.5q59 0 110.5 -8t100.5 -25z" />
    <glyph glyph-name="D" unicode="D" horiz-adv-x="722" 
d="M179 698h214q67 0 124 -16t98 -51.5t64.5 -91.5t23.5 -136q0 -94 -30 -168.5t-83.5 -126.5t-127 -80t-161.5 -28h-270zM197 107h34q98 0 163 22q36 12 65.5 38.5t51.5 62.5t34 80t12 91q0 55 -17 92t-47 59.5t-72 32t-92 9.5h-30z" />
    <glyph glyph-name="E" unicode="E" 
d="M592 698l-21 -108h-276l-36 -177h247l-22 -108h-249l-38 -192h277l-24 -113h-419l148 698h413z" />
    <glyph glyph-name="F" unicode="F" horiz-adv-x="500" 
d="M562 698l-24 -112h-247l-36 -172h235l-22 -111h-237l-63 -303h-141l148 698h387z" />
    <glyph glyph-name="G" unicode="G" horiz-adv-x="722" 
d="M695 547q-15 10 -37.5 19t-49 15.5t-55 10.5t-54.5 4q-62 0 -113 -22t-87.5 -61t-56.5 -92t-20 -114q0 -45 15 -83t42.5 -65t65 -42t82.5 -15q19 0 36 2t28 6l38 184h-149l23 107h284l-81 -377q-19 -9 -44 -15t-51 -9.5t-52 -5.5t-46 -2q-75 0 -137.5 18.5t-107.5 57
t-69.5 96.5t-24.5 138q0 94 31.5 169t88 127.5t133.5 80t169 27.5q60 0 118.5 -9t115.5 -29z" />
    <glyph glyph-name="H" unicode="H" horiz-adv-x="722" 
d="M322 698l-59 -278h277l59 278h144l-151 -698h-141l63 304h-278l-64 -304h-141l147 698h144z" />
    <glyph glyph-name="I" unicode="I" horiz-adv-x="278" 
d="M311 698l-148 -698h-146l148 698h146z" />
    <glyph glyph-name="J" unicode="J" horiz-adv-x="389" 
d="M412 698l-113 -533q-18 -85 -75 -128.5t-149 -43.5q-29 0 -59 4t-53 11l32 119q32 -13 63 -13q30 0 50 10t32.5 27.5t20 40t12.5 47.5l98 459h141z" />
    <glyph glyph-name="K" unicode="K" horiz-adv-x="667" 
d="M543 698h197l-358 -319l230 -379h-168l-197 354l-75 -354h-141l151 698h141l-61 -276z" />
    <glyph glyph-name="L" unicode="L" horiz-adv-x="500" 
d="M315 698l-126 -581h275l-25 -117h-416l149 698h143z" />
    <glyph glyph-name="M" unicode="M" horiz-adv-x="944" 
d="M411 698l46 -511l280 511h235l-150 -698h-149l142 593l-329 -593h-131l-65 593l-126 -593h-134l149 698h232z" />
    <glyph glyph-name="N" unicode="N" horiz-adv-x="722" 
d="M354 698l151 -535l116 535h132l-152 -698h-181l-147 545l-113 -545h-135l151 698h178z" />
    <glyph glyph-name="O" unicode="O" horiz-adv-x="778" 
d="M465 713q71 0 126 -20t92.5 -57.5t57 -91.5t19.5 -122q0 -89 -28 -168.5t-80.5 -138.5t-127 -93.5t-167.5 -34.5q-69 0 -123 21.5t-91 60.5t-56.5 94t-19.5 123q0 87 30 165t83.5 136t126 92t158.5 34zM361 95q60 0 107.5 32.5t80 81.5t49.5 107.5t17 110.5q0 84 -41 131
t-112 47q-51 0 -96 -26t-79 -70t-54 -103t-20 -125q0 -87 40 -136.5t108 -49.5z" />
    <glyph glyph-name="P" unicode="P" 
d="M165 0h-144l149 698h199q37 0 77 -8t73.5 -29t55.5 -57.5t22 -92.5q0 -67 -35 -122t-93 -86q-35 -19 -73.5 -26.5t-95.5 -7.5h-79zM239 375h67q26 0 51.5 8t46 24.5t33.5 41.5t13 58q0 38 -21.5 57.5t-56.5 24.5q-9 1 -16 2t-15 1.5t-20 0.5h-31h-5z" />
    <glyph glyph-name="Q" unicode="Q" horiz-adv-x="778" 
d="M653 -134h-167l-103 123l-12 -1.5t-13 -0.5q-67 0 -120.5 21t-91 59.5t-58 94t-20.5 124.5q0 85 31 162.5t84 136.5t125 93.5t155 34.5q150 0 224 -78t74 -215q0 -67 -16.5 -129t-48.5 -115t-79.5 -95t-108.5 -68zM362 95q60 0 107 32.5t80 81.5t50 107.5t17 110.5
q0 84 -41 131t-112 47q-51 0 -96 -26t-79 -70t-54 -103t-20 -125q0 -87 40 -136.5t108 -49.5z" />
    <glyph glyph-name="R" unicode="R" horiz-adv-x="611" 
d="M380 698q31 0 71.5 -3.5t76.5 -19t61 -48.5t25 -91q0 -85 -54 -135t-152 -55v-1q17 -2 29 -6.5t20.5 -12t14 -19.5t9.5 -30l66 -277h-148l-45 215q-6 28 -13.5 44t-19.5 24t-30.5 10t-46.5 2h-17l-64 -295h-142l150 698h209zM246 399q17 -1 23.5 -1h14.5q31 0 63.5 4
t58 17t42 37t16.5 63q0 26 -12 41t-30 22t-39.5 8.5t-41.5 1.5h-53z" />
    <glyph glyph-name="S" unicode="S" 
d="M523 560q-37 19 -75 29t-74 10q-54 0 -87 -23.5t-33 -61.5q0 -22 15 -39.5t52 -38.5l66.5 -39.5t57.5 -44t40 -57.5t15 -78q0 -60 -23 -102.5t-61.5 -69.5t-88 -40t-101.5 -13q-63 0 -113.5 10.5t-102.5 28.5l36 118q45 -23 90 -35.5t82 -12.5q61 0 98 30t37 79
q0 29 -17.5 50.5t-64.5 47.5l-59.5 34t-50.5 38t-35 49t-13 68q0 48 18.5 86.5t52.5 66t83 42t109 14.5q21 0 44.5 -2t47 -6t46.5 -10t42 -14z" />
    <glyph glyph-name="T" unicode="T" 
d="M650 698l-24 -112h-198l-125 -586h-148l128 586h-200l26 112h541z" />
    <glyph glyph-name="U" unicode="U" horiz-adv-x="722" 
d="M319 698l-73 -333q-8 -35 -15 -72t-7 -73q0 -57 32.5 -90t88.5 -33q53 0 86.5 23.5t54 60.5t32 81.5t20.5 85.5l77 350h138l-92 -416q-15 -68 -38.5 -122.5t-61 -92.5t-92 -58.5t-131.5 -20.5q-123 0 -190 56.5t-67 162.5q0 29 5 58t11 58l79 375h143z" />
    <glyph glyph-name="V" unicode="V" horiz-adv-x="667" 
d="M248 698l67 -542l293 542h152l-392 -698h-168l-93 698h141z" />
    <glyph glyph-name="W" unicode="W" horiz-adv-x="1000" 
d="M245 698l20 -544l237 544h192v-549l250 549h147l-336 -698h-176l-4 576l-252 -576h-174l-42 698h138z" />
    <glyph glyph-name="X" unicode="X" horiz-adv-x="667" 
d="M279 698l100 -244l196 244h166l-290 -334l163 -364h-154l-107 283l-222 -283h-176l326 378l-154 320h152z" />
    <glyph glyph-name="Y" unicode="Y" horiz-adv-x="667" 
d="M259 698l103 -291l228 291h164l-338 -409l-62 -289h-144l62 291l-163 407h150z" />
    <glyph glyph-name="Z" unicode="Z" 
d="M631 698l-25 -108l-423 -480h320l-23 -110h-494l23 110l422 474h-306l24 114h482z" />
    <glyph glyph-name="bracketleft" unicode="[" horiz-adv-x="389" 
d="M449 758l-19 -90h-105l-157 -717h105l-19 -90h-228l198 897h225z" />
    <glyph glyph-name="backslash" unicode="\" horiz-adv-x="278" 
d="M238 -14l-255 728h103l256 -728h-104z" />
    <glyph glyph-name="bracketright" unicode="]" horiz-adv-x="389" 
d="M-28 -139l20 90h104l157 717h-105l20 90h228l-198 -897h-226z" />
    <glyph glyph-name="asciicircum" unicode="^" horiz-adv-x="600" 
d="M281 698h95l176 -427h-109l-118 291l-111 -291h-109z" />
    <glyph glyph-name="underscore" unicode="_" horiz-adv-x="500" 
d="M0 -75h500v-50h-500v50z" />
    <glyph glyph-name="grave" unicode="`" horiz-adv-x="278" 
d="M296 587h-85l-129 144h133z" />
    <glyph glyph-name="a" unicode="a" 
d="M334 0l14 80q-33 -40 -74 -64.5t-95 -24.5q-35 0 -64 10.5t-50 30t-32.5 47t-11.5 60.5q0 54 35.5 98t93.5 62q35 11 79 16.5t97 5.5q14 0 28 -1t28 -1q2 18 3 25.5t1 14.5q0 36 -28 55.5t-80 19.5q-37 0 -80 -11.5t-82 -32.5l19 108q42 13 84 20.5t86 7.5
q100 0 151 -39.5t51 -114.5q0 -25 -4.5 -57t-15.5 -90l-22.5 -116.5l-12.5 -67.5q-1 -7 -2 -17t-3 -24h-113zM319 238q-23 0 -52 -3t-55 -13t-43.5 -28.5t-17.5 -49.5q0 -26 18.5 -44t46.5 -18q36 0 62.5 14.5t45 37.5t29.5 50.5t16 53.5h-50z" />
    <glyph glyph-name="b" unicode="b" horiz-adv-x="611" 
d="M316 750l-71 -304q32 36 67.5 55t85.5 19q85 0 134 -56t49 -155q0 -69 -20.5 -127t-57 -100t-86.5 -65.5t-110 -23.5q-52 0 -85 21.5t-57 71.5l-18 -86h-126l159 750h136zM300 94q37 0 64.5 21.5t44.5 54t25.5 69.5t8.5 67q0 51 -25 81t-67 30q-30 0 -56.5 -16.5
t-46.5 -44.5t-31.5 -65.5t-11.5 -79.5q0 -54 25 -85.5t70 -31.5z" />
    <glyph glyph-name="c" unicode="c" horiz-adv-x="444" 
d="M447 395q-51 21 -100 21q-39 0 -70 -16.5t-52.5 -43.5t-33 -61.5t-11.5 -70.5q0 -56 29 -89.5t78 -33.5q13 0 29 2t32.5 6t31 9t24.5 10l-15 -106q-30 -14 -62.5 -19.5t-65.5 -5.5q-49 0 -89.5 15.5t-69.5 44t-45 68t-16 87.5q0 67 22.5 124t61.5 97.5t93 63.5t117 23
q44 0 77.5 -5t66.5 -15z" />
    <glyph glyph-name="d" unicode="d" horiz-adv-x="611" 
d="M522 750h136l-136 -625q-5 -23 -11 -59t-10 -66h-126l14 85q-30 -45 -72.5 -68t-93.5 -23q-45 0 -79 16.5t-57 45t-34.5 66.5t-11.5 80q0 58 16.5 115t49 102t81 73t113.5 28q96 0 158 -74zM267 97q30 0 57.5 16.5t48.5 44.5t33.5 65t12.5 78q0 54 -25 84.5t-70 30.5
q-30 0 -56 -16t-45.5 -44t-31 -65t-11.5 -79q0 -54 23 -84.5t64 -30.5z" />
    <glyph glyph-name="e" unicode="e" 
d="M159 218q-1 -5 -1 -9v-7q0 -32 11 -54t30 -35.5t44.5 -20t53.5 -6.5q45 0 83 10.5t79 28.5l-16 -105q-47 -15 -92 -23t-83 -8q-53 0 -95.5 15.5t-73 43t-47 67t-16.5 87.5q0 64 20.5 123t58 104t89.5 72t115 27q104 0 157 -51t53 -146q0 -10 -1 -24.5t-3 -30t-4.5 -31
t-5.5 -27.5h-356zM409 307q2 6 2 13v14q0 48 -24 75t-69 27q-51 0 -85 -31.5t-57 -97.5h233z" />
    <glyph glyph-name="f" unicode="f" horiz-adv-x="389" 
d="M457 647q-20 9 -39 9q-26 0 -44 -12.5t-29.5 -31.5t-18 -42t-10.5 -44l-2 -11h119l-22 -98h-118l-88 -417h-136l88 417h-103l20 98h104q4 25 8 41.5t8 30t9.5 26.5t13.5 30q53 115 186 115q4 0 16.5 -1t26 -2.5t26 -3.5t16.5 -3z" />
    <glyph glyph-name="g" unicode="g" horiz-adv-x="611" 
d="M39 -73q36 -17 78 -29t82 -12q52 0 86.5 18.5t56 49t34 70t20.5 82.5q-27 -49 -71.5 -75.5t-100.5 -26.5q-41 0 -74.5 14.5t-57.5 41.5t-37 64.5t-13 83.5q0 58 16.5 114.5t48.5 101t80.5 72t112.5 27.5q100 0 162 -77l13 69h129l-99 -461q-14 -65 -36.5 -116t-58.5 -86
t-87.5 -53.5t-124.5 -18.5q-51 0 -98.5 10.5t-94.5 27.5zM267 108q32 0 60 15t48.5 41.5t32 62.5t11.5 77q0 52 -25 82t-67 30q-32 0 -59 -14.5t-47 -40.5t-31 -61.5t-11 -77.5q0 -54 23 -84t65 -30z" />
    <glyph glyph-name="h" unicode="h" horiz-adv-x="611" 
d="M315 750l-64 -290q68 61 151 61q75 0 118.5 -43t43.5 -118q0 -28 -4.5 -56t-10.5 -56l-51 -248h-136l51 247q7 33 10 55.5t3 39.5q0 35 -18.5 53.5t-53.5 18.5q-42 0 -70 -24t-46 -59.5t-28 -75.5t-17 -72l-38 -183h-134l161 750h133z" />
    <glyph glyph-name="i" unicode="i" horiz-adv-x="278" 
d="M314 736l-28 -126h-134l27 126h135zM266 515l-110 -515h-135l110 515h135z" />
    <glyph glyph-name="j" unicode="j" horiz-adv-x="278" 
d="M318 734l-28 -124h-135l28 124h135zM272 515l-117 -538q-6 -29 -11.5 -50t-11 -37t-12 -28.5t-13.5 -24.5q-17 -25 -50.5 -39.5t-75.5 -14.5q-23 0 -44.5 3.5t-39.5 9.5l32 96q11 -2 19 -4t13 -2q20 0 32.5 15.5t20.5 51.5l122 562h136z" />
    <glyph glyph-name="k" unicode="k" 
d="M157 0h-136l160 750h133l-88 -424l189 189h173l-247 -237l155 -278h-151l-134 271z" />
    <glyph glyph-name="l" unicode="l" horiz-adv-x="278" 
d="M182 750h134l-160 -750h-135z" />
    <glyph glyph-name="m" unicode="m" horiz-adv-x="889" 
d="M238 441q30 39 69 59.5t90 20.5q54 0 90.5 -25.5t36.5 -83.5v-1q29 54 72 82t108 28q67 0 107.5 -39.5t40.5 -105.5q0 -23 -4 -47.5t-9 -47.5l-60 -281h-135l63 295q3 14 5.5 30.5t2.5 30.5q0 26 -16.5 42t-43.5 16q-100 0 -138 -177l-51 -237h-135l65 318q3 18 3 33
q0 30 -15 46.5t-42 16.5q-33 0 -56.5 -16t-39 -40t-25 -53t-15.5 -55l-52 -250h-133l89 425q5 22 8.5 45.5l6.5 44.5h125z" />
    <glyph glyph-name="n" unicode="n" horiz-adv-x="611" 
d="M259 515l-11 -65q64 70 151 70q75 0 120 -43.5t45 -116.5q0 -29 -5 -57l-10 -55l-51 -248h-136l51 247q7 33 10 55.5t3 39.5q0 35 -18.5 53.5t-53.5 18.5q-43 0 -71 -24t-46 -59t-27.5 -75t-16.5 -73l-38 -183h-134l85 393q5 23 8 38.5t5 28.5l4 25.5t5 29.5h131z" />
    <glyph glyph-name="o" unicode="o" horiz-adv-x="611" 
d="M348 529q54 0 97 -16t73.5 -46t47 -72.5t16.5 -94.5q0 -67 -22.5 -124t-63 -99t-97 -66t-123.5 -24q-54 0 -97.5 16.5t-74.5 46.5t-47.5 73t-16.5 96q0 67 23 124t64.5 98t98 64.5t122.5 23.5zM344 430q-42 0 -73 -20t-51.5 -51t-31 -69.5t-10.5 -74.5q0 -62 27.5 -96
t77.5 -34q40 0 70.5 22t50.5 55t30 72t10 73q0 57 -26.5 90t-73.5 33z" />
    <glyph glyph-name="p" unicode="p" horiz-adv-x="611" 
d="M106 -210h-131l134 642q5 21 8 41.5l6 41.5h127l-17 -88q30 47 66.5 70.5t94.5 23.5q42 0 76.5 -15t59 -42.5t38 -67t13.5 -87.5q0 -59 -17 -115.5t-51 -100.5t-83.5 -71t-113.5 -27q-57 0 -94.5 24t-51.5 69zM349 418q-31 0 -57.5 -16t-46.5 -44t-31.5 -65t-11.5 -80
q0 -56 24.5 -86t69.5 -30q39 0 67 21t46 52.5t26.5 68.5t8.5 69q0 48 -26.5 79t-68.5 31z" />
    <glyph glyph-name="q" unicode="q" horiz-adv-x="611" 
d="M474 515h131l-10 -41.5l-10 -41.5l-138 -642h-133l60 277q-56 -75 -147 -75q-42 0 -76.5 15.5t-58.5 44.5t-37.5 69.5t-13.5 90.5q0 59 17 114.5t50.5 99t82.5 69.5t113 26q111 0 151 -93zM265 94q32 0 59.5 16t48 44.5t32.5 66.5t12 82q0 53 -24 81.5t-68 28.5
q-38 0 -66 -20t-46.5 -50t-27.5 -66t-9 -68q0 -52 24.5 -83.5t64.5 -31.5z" />
    <glyph glyph-name="r" unicode="r" horiz-adv-x="389" 
d="M235 413q26 50 69 78.5t91 28.5q22 0 45 -5l-28 -125q-32 8 -54 8q-39 0 -66 -18t-45.5 -46t-29.5 -62t-18 -66l-43 -206h-135l89 425q5 23 8 45t7 45h128z" />
    <glyph glyph-name="s" unicode="s" horiz-adv-x="444" 
d="M413 402q-58 23 -108 23q-43 0 -69 -14.5t-26 -37.5q0 -14 11 -26t41 -32l44.5 -29.5t40.5 -32t29 -40t11 -52.5q0 -49 -20.5 -81.5t-52.5 -52t-71 -28t-76 -8.5q-50 0 -90 7t-80 24l30 108q28 -17 66 -29t70 -12q40 0 64.5 17t24.5 44q0 21 -20.5 36.5t-52.5 37.5
l-40 27t-33.5 28t-23.5 34.5t-9 48.5q0 36 15.5 66t44.5 51t69.5 32.5t90.5 11.5q37 0 75 -5.5t74 -16.5z" />
    <glyph glyph-name="t" unicode="t" horiz-adv-x="389" 
d="M194 619l142 46l-35 -150h123l-20 -98h-124l-45 -227l-4 -21.5t-2 -21.5q0 -23 13.5 -36t38.5 -13q5 0 13.5 1.5t17.5 3.5t17 4t14 3l-21 -105q-20 -7 -40.5 -9.5t-40.5 -2.5q-69 0 -106.5 35.5t-37.5 100.5q0 26 4 49.5t9 48.5l40 190h-97l19 98h100z" />
    <glyph glyph-name="u" unicode="u" horiz-adv-x="611" 
d="M261 515l-51 -240l-7 -34.5t-4.5 -25t-2 -18.5t-0.5 -17q0 -40 18.5 -61t52.5 -21t58 18t41 44.5t27.5 58t16.5 58.5l54 238h134l-95 -439q-4 -19 -7.5 -37.5t-5.5 -38.5h-126l16 78q-25 -41 -66 -63t-92 -22q-75 0 -119 45t-44 122q0 25 5.5 57.5t10.5 57.5l51 240h135z
" />
    <glyph glyph-name="v" unicode="v" 
d="M205 515l53 -378l204 378h142l-301 -515h-148l-87 515h137z" />
    <glyph glyph-name="w" unicode="w" horiz-adv-x="889" 
d="M198 515l38 -387l190 387h149l29 -387l199 387h137l-286 -515h-151l-30 396l-189 -396h-152l-66 515h132z" />
    <glyph glyph-name="x" unicode="x" 
d="M434 515h160l-219 -246l123 -269h-146l-79 197l-154 -197h-161l234 269l-109 246h139l67 -177z" />
    <glyph glyph-name="y" unicode="y" 
d="M203 515l49 -380l206 380h147l-348 -588q-20 -35 -38 -61.5t-40.5 -44.5t-52.5 -27t-74 -9q-52 0 -102 14l30 100q13 -5 29.5 -8.5t31.5 -3.5q35 0 61 20.5t55 71.5l-91 536h137z" />
    <glyph glyph-name="z" unicode="z" horiz-adv-x="500" 
d="M435 100l-20 -100h-431l23 100l316 313h-237l23 102h405l-22 -102l-315 -313h258z" />
    <glyph glyph-name="braceleft" unicode="{" horiz-adv-x="333" 
d="M29 340q44 8 71.5 21t45 33.5t27.5 50t19 70.5q8 38 13 59.5t10 35.5q15 45 39.5 73t57 44.5t70.5 23t80 7.5l-14 -65q-49 -6 -82.5 -29.5t-49.5 -71.5q-5 -14 -10 -34.5t-11 -47.5q-10 -45 -20.5 -81t-29.5 -62t-50.5 -41t-83.5 -17q49 -12 78.5 -39t29.5 -85
q0 -17 -2 -34.5t-7 -40.5l-9 -41q-5 -20 -7.5 -41.5t-2.5 -32.5q0 -22 8 -35.5t21 -21t30 -10.5t35 -4l-14 -63h-9q-80 0 -125.5 38.5t-45.5 106.5q0 19 3 40t11 63l8 46q2 11 3.5 22.5t1.5 17.5q0 35 -24.5 54.5t-78.5 27.5z" />
    <glyph glyph-name="bar" unicode="|" horiz-adv-x="222" 
d="M84 786h106v-1000h-106v1000z" />
    <glyph glyph-name="braceright" unicode="}" horiz-adv-x="333" 
d="M358 279q-44 -8 -71.5 -21t-45 -33.5t-27.5 -50t-19 -70.5q-8 -38 -13 -59.5t-10 -35.5q-15 -45 -39.5 -73t-57 -44.5t-70.5 -23t-80 -7.5l14 65q49 6 82.5 29.5t49.5 71.5q5 14 10 34.5t11 47.5q10 45 20.5 81t29.5 62t50.5 41t83.5 17q-49 12 -78.5 39t-29.5 85
q0 17 2 34.5t7 40.5l9 41q5 20 7.5 41.5t2.5 32.5q0 22 -8 35.5t-21 21t-30 10.5t-35 4l14 63h9q80 0 125.5 -38.5t45.5 -106.5q0 -19 -3 -40t-11 -63l-8 -46q-2 -11 -3.5 -22.5t-1.5 -17.5q0 -35 24.5 -54.5t78.5 -27.5z" />
    <glyph glyph-name="asciitilde" unicode="~" horiz-adv-x="600" 
d="M579 343q-9 -82 -46 -124.5t-100 -42.5q-30 0 -65.5 11t-64.5 21q-13 4 -30 10.5t-34.5 12.5t-34 10t-28.5 4q-24 0 -42 -19t-23 -50h-68q3 32 12.5 62t27 53.5t43.5 38t62 14.5q13 0 31 -4t36.5 -9.5l35.5 -11l29 -9.5q30 -9 62.5 -21t64.5 -12q52 0 64 66h68v0z" />
    <glyph glyph-name="uni00A0" unicode="&#xa0;" horiz-adv-x="278" 
 />
    <glyph glyph-name="sterling" unicode="&#xa3;" 
d="M582 570q-31 13 -55 18.5t-50 5.5q-36 0 -61 -10.5t-42.5 -29.5t-28 -46.5t-18.5 -60.5l-10 -42h152l-13 -74h-154l-50 -228h231l-20 -103h-463l22 103h88l50 228h-77l16 73h77q6 35 11 58t10 40.5t11 33t16 36.5q32 67 94 101t151 34q38 0 73 -6t71 -19z" />
    <glyph glyph-name="currency" unicode="&#xa4;" 
d="M123 229q-18 29 -27 56.5t-9 62.5q0 64 36 119l-67 67l61 61l67 -67q24 18 57 27t62 9q33 0 62.5 -9.5t57.5 -26.5l65 67l61 -61l-66 -67q17 -23 26.5 -54.5t9.5 -64.5t-9 -61.5t-27 -56.5l66 -67l-61 -61l-67 66q-26 -17 -56 -26.5t-62 -9.5q-66 0 -119 36l-67 -66
l-61 61zM303 472q-26 0 -48.5 -9.5t-39.5 -26.5t-26.5 -39.5t-9.5 -48.5t9.5 -48.5t26.5 -39t39.5 -26.5t48.5 -10q25 0 48 10t39.5 26.5t26.5 39t10 48.5t-10 48.5t-26.5 39.5t-39.5 26.5t-48 9.5z" />
    <glyph glyph-name="section" unicode="&#xa7;" 
d="M38 7q39 -16 81 -29t87 -13q52 0 81 18t29 50q0 21 -15 38.5t-48 34.5l-51 27l-46.5 26t-39.5 29.5t-27 38.5t-10 54q0 29 9.5 52t26 41t38.5 31.5t47 23.5q-30 23 -43.5 48t-13.5 58q0 38 16.5 70t45.5 54.5t70 35t91 12.5q51 0 99 -12t94 -31l-39 -97
q-37 22 -77.5 33.5t-78.5 11.5q-47 0 -76 -19t-29 -51q0 -40 45 -62l104 -52q93 -46 93 -131q0 -48 -30 -87.5t-83 -59.5q26 -20 39.5 -46t13.5 -55q0 -41 -16.5 -74.5t-46.5 -58.5t-71.5 -38.5t-90.5 -13.5q-24 0 -51.5 3t-55.5 9t-55 13.5t-50 16.5zM321 191q78 37 78 88
q0 31 -40 59l-17.5 11.5t-19 11.5l-24 13.5t-32.5 16.5q-13 -8 -27.5 -16t-27 -18.5t-21 -23.5t-8.5 -31q0 -21 13 -37t31.5 -28t39 -21l35.5 -16l20 -9v0z" />
    <glyph glyph-name="copyright" unicode="&#xa9;" horiz-adv-x="800" 
d="M423 710q75 0 141 -28.5t115 -77.5t77.5 -115t28.5 -141t-28.5 -141t-77.5 -115t-115 -77.5t-141 -28.5t-141 28.5t-115 77.5t-77.5 115t-28.5 141t28.5 140.5t77.5 115t115 78t141 28.5zM603 283q-3 -32 -17.5 -59t-37 -46.5t-52.5 -30.5t-64 -11q-43 0 -79.5 16
t-63 44.5t-41.5 67t-15 84.5q0 47 14 86t39.5 67.5t60.5 44.5t77 16q36 0 67.5 -11.5t55 -31.5t38 -47.5t16.5 -60.5h-77q-8 40 -34 62.5t-65 22.5q-50 0 -79.5 -39.5t-29.5 -105.5q0 -69 30.5 -109t83.5 -40q38 0 62.5 20.5t32.5 60.5h78v0zM715 348q0 60 -23 113.5
t-62.5 93t-93 62.5t-113.5 23t-113.5 -23t-93 -62.5t-62.5 -93t-23 -113.5q0 -61 23 -114t62.5 -92.5t92.5 -62.5t114 -23q60 0 113.5 23t93 62.5t62.5 92.5t23 114z" />
    <glyph glyph-name="guillemotleft" unicode="&#xab;" horiz-adv-x="611" 
d="M555 460l-157 -202l69 -205h-114l-87 205l149 202h140zM335 460l-157 -202l69 -205h-114l-87 205l149 202h140z" />
    <glyph glyph-name="logicalnot" unicode="&#xac;" horiz-adv-x="600" 
d="M50 420h520v-321h-103v219h-417v102z" />
    <glyph glyph-name="registered" unicode="&#xae;" horiz-adv-x="400" 
d="M257 714q37 0 70 -14t58 -39t39 -58t14 -70q0 -38 -14 -70.5t-39 -57.5t-58 -39t-70 -14q-38 0 -70.5 14t-57.5 39t-39 57.5t-14 70.5q0 37 14 70t39 57.5t57.5 39t70.5 14.5zM253 634q26 0 42 -4t27 -12q20 -14 20 -43q0 -35 -37 -48q20 -8 26.5 -21t7.5 -46
q0 -11 1 -15.5t4 -11.5h-47q-2 7 -3 11.5t-1 16.5q-1 30 -9 38.5t-36 8.5h-20v-75h-47v201h72zM251 544q44 0 44 26q0 27 -44 27h-23v-53h23zM113 533q0 -30 11.5 -56.5t31 -46t45.5 -31t56 -11.5t56 11.5t45.5 31t31 46t11.5 56.5t-11.5 56t-31 45.5t-45.5 31t-56 11.5
t-56 -11.5t-45.5 -31t-31 -45.5t-11.5 -56z" />
    <glyph glyph-name="degree" unicode="&#xb0;" horiz-adv-x="400" 
d="M254 707q34 0 63.5 -13t51.5 -35t35 -51.5t13 -63.5q0 -33 -13 -62.5t-35 -51.5t-51.5 -35t-63.5 -13t-63.5 13t-51.5 35t-35 51.5t-13 62.5q0 34 13 63.5t35 51.5t51.5 35t63.5 13zM254 621q-32 0 -54 -22.5t-22 -54.5t22 -54t54 -22t54 22t22 54t-22 54.5t-54 22.5z
" />
    <glyph glyph-name="plusminus" unicode="&#xb1;" horiz-adv-x="600" 
d="M246 275h-206v101h206v160h108v-160h206v-101h-206v-157h-108v157zM40 84h520v-101h-520v101z" />
    <glyph glyph-name="mu" unicode="&#xb5;" horiz-adv-x="611" 
d="M259 515l-50 -243l-10 -52.5t-5 -55.5q0 -32 20.5 -52t52.5 -20q35 0 59.5 15t41.5 38.5t27 52.5t16 58l55 259h134l-108 -515h-131l10 54q-22 -25 -62 -45.5t-87 -20.5q-23 0 -37.5 8t-26.5 26l-48 -232h-134l151 725h132z" />
    <glyph glyph-name="paragraph" unicode="&#xb6;" horiz-adv-x="620" 
d="M631 617l-173 -813h-98l173 813h-109l-173 -813h-99l92 429q-36 6 -65 17.5t-50 31.5t-32 49.5t-11 70.5q0 73 26 128.5t70.5 92.5t104.5 56t128 19h287l-17 -81h-54z" />
    <glyph glyph-name="periodcentered" unicode="&#xb7;" horiz-adv-x="278" 
d="M97 364h142l-30 -139h-142z" />
    <glyph glyph-name="guillemotright" unicode="&#xbb;" horiz-adv-x="611" 
d="M56 53l157 202l-69 205h115l86 -205l-149 -202h-140zM276 53l157 202l-69 205h114l87 -205l-149 -202h-140z" />
    <glyph glyph-name="divide" unicode="&#xf7;" horiz-adv-x="600" 
d="M50 310h520v-101h-520v101zM249 142h123v-134h-123v134zM249 511h123v-135h-123v135z" />
    <glyph glyph-name="florin" unicode="&#x192;" 
d="M567 602q-22 11 -54 11q-22 0 -42 -8t-31 -28q-12 -21 -22.5 -63t-25.5 -114l-4 -19h116l-17 -76h-116l-59 -270q-11 -48 -24 -90t-36 -73.5t-60.5 -49.5t-96.5 -18q-24 0 -56 5.5t-55 13.5l30 95q14 -4 30 -6.5t30 -2.5q29 0 47 16t29 40t17 51l11 49l52 241h-114l16 74
h116l5 26q6 33 11.5 57.5t10.5 44l9.5 36t10.5 33.5q24 75 68.5 108.5t118.5 33.5q27 0 58 -3.5t57 -12.5z" />
    <glyph glyph-name="endash" unicode="&#x2013;" horiz-adv-x="500" 
d="M517 316l-19 -90h-500l19 90h500z" />
    <glyph glyph-name="emdash" unicode="&#x2014;" horiz-adv-x="1000" 
d="M1017 316l-19 -90h-1000l19 90h1000z" />
    <glyph glyph-name="quoteleft" unicode="&#x2018;" horiz-adv-x="278" 
d="M234 449h-151l132 249h121z" />
    <glyph glyph-name="quoteright" unicode="&#x2019;" horiz-adv-x="278" 
d="M346 698l-132 -249h-120l102 249h150z" />
    <glyph glyph-name="quotesinglbase" unicode="&#x201a;" horiz-adv-x="278" 
d="M215 139l-132 -249h-120l102 249h150z" />
    <glyph glyph-name="quotedblleft" unicode="&#x201c;" horiz-adv-x="500" 
d="M87 449l131 249h121l-102 -249h-150zM310 449l132 249h120l-102 -249h-150z" />
    <glyph glyph-name="quotedblright" unicode="&#x201d;" horiz-adv-x="500" 
d="M562 698l-131 -249h-121l102 249h150zM339 698l-132 -249h-120l102 249h150z" />
    <glyph glyph-name="quotedblbase" unicode="&#x201e;" horiz-adv-x="500" 
d="M223 139l-132 -249h-121l102 249h151zM446 139l-132 -249h-120l102 249h150z" />
    <glyph glyph-name="dagger" unicode="&#x2020;" 
d="M169 0l90 431h-149l21 103h151l33 164h124l-33 -164h152l-22 -103h-153l-90 -431h-124z" />
    <glyph glyph-name="daggerdbl" unicode="&#x2021;" 
d="M168 0l33 148h-155l19 97h156l44 210h-156l21 97h156l28 146h126l-30 -146h155l-22 -97h-154l-44 -210h155l-20 -97h-155l-33 -148h-124z" />
    <glyph glyph-name="bullet" unicode="&#x2022;" horiz-adv-x="500" 
d="M274 521q36 0 67.5 -13.5t55.5 -37.5t37.5 -55.5t13.5 -67.5t-13.5 -67.5t-37.5 -55t-55.5 -37t-67.5 -13.5t-67.5 13.5t-55.5 37t-37.5 55t-13.5 67.5t13.5 67.5t37.5 55.5t55.5 37.5t67.5 13.5z" />
    <glyph glyph-name="ellipsis" unicode="&#x2026;" horiz-adv-x="1000" 
d="M91 134h123l-28 -134h-123zM424 134h123l-28 -134h-123zM757 134h123l-28 -134h-123z" />
    <glyph glyph-name="perthousand" unicode="&#x2030;" horiz-adv-x="1000" 
d="M572 731h83l-542 -773h-83zM359 589q0 -43 -9.5 -83t-30 -71t-53.5 -50t-81 -19q-119 0 -119 121q0 38 9.5 77.5t29.5 71.5t51.5 52.5t75.5 20.5q57 0 92 -30.5t35 -89.5zM234 641q-30 0 -46 -27q-15 -26 -25 -63t-10 -72q0 -49 40 -49q31 0 45 30q7 13 12.5 30.5
t10 36.5t7 37t2.5 33q0 44 -36 44zM654 201q0 -43 -9.5 -83t-30 -71t-53.5 -50t-81 -19q-119 0 -119 121q0 38 9.5 77.5t29.5 71.5t51.5 52.5t75.5 20.5q57 0 92 -30.5t35 -89.5zM529 253q-30 0 -46 -27q-15 -26 -25 -63t-10 -72q0 -49 40 -49q31 0 45 30q7 13 12.5 30.5
t10 36.5t7 37t2.5 33q0 44 -36 44zM988 201q0 -43 -9.5 -83t-30 -71t-53.5 -50t-81 -19q-119 0 -119 121q0 38 9.5 77.5t29.5 71.5t51.5 52.5t75.5 20.5q57 0 92 -30.5t35 -89.5zM863 253q-30 0 -46 -27q-15 -26 -25 -63t-10 -72q0 -49 40 -49q31 0 45 30q7 13 12.5 30.5
t10 36.5t7 37t2.5 33q0 44 -36 44z" />
    <glyph glyph-name="guilsinglleft" unicode="&#x2039;" horiz-adv-x="389" 
d="M336 460l-158 -202l70 -205h-115l-87 205l150 202h140z" />
    <glyph glyph-name="guilsinglright" unicode="&#x203a;" horiz-adv-x="389" 
d="M53 53l158 202l-70 205h115l87 -205l-150 -202h-140z" />
    <glyph glyph-name="trademark" unicode="&#x2122;" horiz-adv-x="1000" 
d="M285 641h-114v57h300v-57h-112v-299h-74v299zM528 698h110l87 -245l87 245h108v-356h-67v290l-101 -290h-56l-101 290v-290h-67v356z" />
    <glyph glyph-name="Delta" unicode="&#x2206;" horiz-adv-x="667" 
d="M608 0h-644l411 698h106zM492 94l-82 484l-279 -484h361z" />
    <glyph glyph-name="radical" unicode="&#x221a;" horiz-adv-x="537" 
d="M336 -214h-101l-154 319l-49 -23l-40 85l143 65l132 -281l171 835h110z" />
    <glyph glyph-name="infinity" unicode="&#x221e;" horiz-adv-x="800" 
d="M409 317q19 22 39.5 43.5t44.5 38t51 27t58 10.5q37 0 67 -13t52 -36t34 -55t12 -71q0 -40 -12 -72.5t-34 -56t-52 -36.5t-67 -13q-32 0 -58.5 9.5t-49.5 25t-44 36l-41 41.5q-19 -21 -40 -41t-44.5 -35.5t-50.5 -25t-57 -9.5q-37 0 -67.5 13t-52.5 36t-34.5 55t-12.5 71
t12 71.5t33.5 55.5t52 36t66.5 13q33 0 60.5 -9.5t50.5 -26t43.5 -37.5t40.5 -45zM464 257q13 -14 28.5 -29t33.5 -27t37 -19.5t40 -7.5q35 0 56.5 23t21.5 61q0 39 -22 63t-58 24q-19 0 -38 -8.5t-37 -22t-34 -29t-28 -28.5zM354 257l-30 28.5t-34 28.5t-37 21.5t-39 8.5
q-34 0 -56 -24.5t-22 -61.5q0 -38 22 -60.5t59 -22.5q18 0 37.5 7.5t37.5 19.5t34 26.5t28 28.5z" />
    <glyph glyph-name="approxequal" unicode="&#x2248;" horiz-adv-x="600" 
d="M580 444q-9 -82 -46 -124.5t-100 -42.5q-30 0 -65.5 11t-64.5 21q-13 4 -30 10.5t-34.5 12.5t-34 10t-28.5 4q-24 0 -42 -19t-23 -50h-68q3 32 12.5 62t27 53.5t43.5 38t62 14.5q13 0 31 -4t36.5 -9.5l35.5 -11l29 -9.5q30 -9 62.5 -21t64.5 -12q52 0 64 66h68v0z
M580 242q-9 -82 -46 -124.5t-100 -42.5q-30 0 -65.5 11t-64.5 21q-13 4 -30 10.5t-34.5 12.5t-34 10t-28.5 4q-24 0 -42 -19t-23 -50h-68q3 32 12.5 62t27 53.5t43.5 38t62 14.5q13 0 31 -4t36.5 -9.5l35.5 -11l29 -9.5q30 -9 62.5 -21t64.5 -12q52 0 64 66h68v0z" />
    <glyph glyph-name="notequal" unicode="&#x2260;" horiz-adv-x="600" 
d="M281 318h-234v102h286l77 152l89 -46l-55 -106h123v-102h-174l-60 -117h234v-102h-286l-77 -152l-89 46l55 106h-123v102h174z" />
    <glyph glyph-name="lessequal" unicode="&#x2264;" horiz-adv-x="600" 
d="M40 375l520 179v-107l-381 -123l381 -117v-107l-520 173v102zM560 66v-101h-520v101h520z" />
    <glyph glyph-name="greaterequal" unicode="&#x2265;" horiz-adv-x="600" 
d="M51 100v107l381 117l-381 123v107l520 -179v-102zM571 -35h-520v101h520v-101z" />
    <glyph glyph-name="uniF8FF" unicode="&#xf8ff;" horiz-adv-x="512" 
d="M222 117v67h56v-67h-56zM225 234l-2 17q0 56 13 81q7 13 18 27.5t28 31.5q16 15 26 26.5t15 21t7 18t2 17.5q0 36 -22.5 60.5t-53.5 24.5t-53.5 -22t-28.5 -73l-50 8q7 72 44 104.5t91 32.5t89 -35.5t35 -95.5q0 -32 -12.5 -58.5t-50.5 -61.5q-37 -33 -43 -52
q-6 -20 -6 -72h-46zM462 50v617h-412v-617h412zM512 718v-718h-512v718h512z" />
    <glyph glyph-name="brokenbar" unicode="&#xa6;" horiz-adv-x="222" 
d="M93 161h106v-250h-106v250zM93 661h106v-250h-106v250z" />
    <glyph glyph-name="uni00AD" unicode="&#xad;" horiz-adv-x="389" 
d="M339 323l-21 -108h-258l21 108h258z" />
    <glyph glyph-name="uni0394" unicode="&#x394;" horiz-adv-x="667" 
d="M608 0h-644l411 698h106zM492 94l-82 484l-279 -484h361z" />
    <glyph glyph-name="afii10023" unicode="&#x401;" 
d="M592 698l-21 -108h-276l-36 -177h247l-22 -108h-249l-38 -192h277l-24 -113h-419l148 698h413zM454 878h112l-26 -116h-112zM246 878h112l-26 -116h-112z" />
    <glyph glyph-name="afii10051" unicode="&#x402;" horiz-adv-x="760" 
d="M733 260q0 -70 -18 -134.5t-55.5 -114.5t-95.5 -80t-138 -30q-24 0 -52 4l-42 6l32 118q8 -3 29.5 -5.5t32.5 -2.5q45 0 76 22t50 56.5t27.5 76.5t8.5 81q0 22 -5 41.5t-16.5 34.5t-30.5 24t-47 9q-29 0 -55.5 -12.5t-48 -36t-38 -56t-24.5 -71.5l-40 -190h-147l127 586
h-180l26 112h541l-24 -112h-218l-42 -195q11 13 29 28t41.5 27t51.5 20t60 8q48 0 83 -18t57.5 -48t33.5 -68.5t11 -79.5z" />
    <glyph glyph-name="afii10052" unicode="&#x403;" horiz-adv-x="500" 
d="M178 698h385l-24 -112h-244l-124 -586h-140zM485 884l-128 -146h-86l81 146h133z" />
    <glyph glyph-name="afii10053" unicode="&#x404;" horiz-adv-x="611" 
d="M215 306q2 -42 17 -80t40.5 -66.5t61.5 -45t80 -16.5q45 0 81 12.5t66 30.5l-22 -134q-38 -11 -78 -15t-80 -4q-79 0 -137.5 25t-97.5 69.5t-58 105t-19 131.5q0 84 28 156t79.5 124t125.5 81.5t167 29.5q53 0 106 -7.5t99 -26.5l-35 -117q-24 17 -63.5 29t-96.5 12
q-46 0 -86 -13t-72 -37t-55.5 -58t-36.5 -76h314l-22 -110h-306v0z" />
    <glyph glyph-name="afii10054" unicode="&#x405;" 
d="M523 560q-37 19 -75 29t-74 10q-54 0 -87 -23.5t-33 -61.5q0 -22 15 -39.5t52 -38.5l66.5 -39.5t57.5 -44t40 -57.5t15 -78q0 -60 -23 -102.5t-61.5 -69.5t-88 -40t-101.5 -13q-63 0 -113.5 10.5t-102.5 28.5l36 118q45 -23 90 -35.5t82 -12.5q61 0 98 30t37 79
q0 29 -17.5 50.5t-64.5 47.5l-59.5 34t-50.5 38t-35 49t-13 68q0 48 18.5 86.5t52.5 66t83 42t109 14.5q21 0 44.5 -2t47 -6t46.5 -10t42 -14z" />
    <glyph glyph-name="afii10055" unicode="&#x406;" horiz-adv-x="278" 
d="M311 698l-148 -698h-146l148 698h146z" />
    <glyph glyph-name="afii10056" unicode="&#x407;" horiz-adv-x="278" 
d="M311 698l-148 -698h-146l148 698h146zM314 878h112l-26 -116h-112zM116 878h112l-26 -116h-112z" />
    <glyph glyph-name="afii10057" unicode="&#x408;" horiz-adv-x="389" 
d="M412 698l-113 -533q-18 -85 -75 -128.5t-149 -43.5q-29 0 -59 4t-53 11l32 119q32 -13 63 -13q30 0 50 10t32.5 27.5t20 40t12.5 47.5l98 459h141z" />
    <glyph glyph-name="afii10058" unicode="&#x409;" horiz-adv-x="1000" 
d="M968 248q0 -62 -22 -108.5t-60.5 -77.5t-89.5 -46.5t-109 -15.5h-263l123 586h-166l-55 -258q-15 -72 -37.5 -133.5t-54 -106t-74.5 -69.5t-99 -25q-26 0 -50.5 4t-48.5 10l32 118q11 -5 25.5 -8t31.5 -3q28 0 49.5 19t38 50.5t29 72t21.5 84.5l76 357h444l-57 -274h79
q40 0 82.5 -8.5t76.5 -28.5t56 -54t22 -85zM822 233q0 25 -9 41t-25 25.5t-36.5 13t-42.5 3.5h-76l-43 -207h90q62 0 102 32t40 92z" />
    <glyph glyph-name="afii10059" unicode="&#x40a;" horiz-adv-x="1000" 
d="M968 248q0 -62 -22 -108.5t-60.5 -77.5t-89.5 -46.5t-109 -15.5h-265l63 308h-248l-65 -308h-141l147 698h141l-58 -274h249l58 274h141l-57 -274h79q40 0 82.5 -8.5t76.5 -28.5t56 -54t22 -85zM822 233q0 25 -9 41t-25 25.5t-36.5 13t-42.5 3.5h-76l-43 -207h90
q62 0 102 32t40 92z" />
    <glyph glyph-name="afii10060" unicode="&#x40b;" horiz-adv-x="760" 
d="M700 314q0 -42 -9 -81l-50 -233h-143l44 210l8 40.5t4 40.5q0 30 -14 51.5t-55 21.5q-35 0 -62 -15t-46.5 -38t-32.5 -52.5t-19 -57.5l-42 -201h-148l128 586h-180l26 112h541l-24 -112h-218l-43 -195q79 82 186 82q44 0 72.5 -13.5t45.5 -35.5t24 -50.5t7 -59.5z" />
    <glyph glyph-name="afii10061" unicode="&#x40c;" horiz-adv-x="667" 
d="M394 360l218 -360h-168l-194 354l-75 -354h-144l151 698h141l-66 -310l286 310h197zM597 884l-128 -146h-86l81 146h133z" />
    <glyph glyph-name="afii10062" unicode="&#x40e;" horiz-adv-x="667" 
d="M251 698l94 -361l252 361h161l-392 -539l-46 -61.5t-50 -53t-61 -37.5t-79 -14q-25 0 -49 4t-44 12l30 114q11 -5 30 -8.5t29 -3.5q36 0 59 16.5t49 53.5l13 19l-142 498h146zM607 836q-32 -36 -78 -63t-101 -27q-59 0 -96 25.5t-61 68.5l58 50q39 -57 107 -57
q35 0 66 15t63 44l42 -56v0z" />
    <glyph glyph-name="afii10145" unicode="&#x40f;" horiz-adv-x="722" 
d="M389 0l-38 -180h-136l38 180h-219l148 698h140l-125 -586h280l125 586h140l-148 -698h-205z" />
    <glyph glyph-name="afii10017" unicode="&#x410;" horiz-adv-x="722" 
d="M668 0h-141l-26 162h-295l-91 -162h-157l426 698h156zM483 272l-44 309l-171 -309h215z" />
    <glyph glyph-name="afii10018" unicode="&#x411;" horiz-adv-x="611" 
d="M573 588h-289l-33 -156h71q41 0 83.5 -8.5t77.5 -29t57.5 -55.5t22.5 -87q0 -63 -22.5 -110.5t-61.5 -79t-91 -47t-110 -15.5h-257l146 698h429zM417 237q0 27 -10 43.5t-26 26.5t-37.5 13.5t-43.5 3.5h-72l-45 -215h88q63 0 104.5 33t41.5 95z" />
    <glyph glyph-name="afii10019" unicode="&#x412;" horiz-adv-x="611" 
d="M382 698q31 0 67 -6.5t67 -24.5t51.5 -50.5t20.5 -83.5q0 -32 -11 -60t-30.5 -50t-47 -37t-60.5 -21v-2q51 -5 81.5 -44t30.5 -97q0 -42 -15.5 -79.5t-44.5 -66.5q-41 -38 -104 -57t-156 -19h-210l147 698h214zM242 410q9 0 17.5 -0.5t17.5 -0.5q28 0 59 4.5t57.5 17
t43.5 35t17 58.5q0 72 -130 72h-42zM177 104q10 0 19 -0.5t19 -0.5q34 0 63 3t49 10q37 12 62 44.5t25 70.5q0 27 -10.5 43.5t-27 25.5t-38.5 12t-44 3h-73z" />
    <glyph glyph-name="afii10020" unicode="&#x413;" horiz-adv-x="500" 
d="M178 698h385l-24 -112h-244l-124 -586h-140z" />
    <glyph glyph-name="afii10021" unicode="&#x414;" horiz-adv-x="722" 
d="M58 -180h-137l62 292h70q24 23 46.5 62t43 87.5t37 103.5t28.5 109l48 224h462l-123 -586h75l-62 -292h-137l39 180h-414zM555 586h-183l-27 -126q-28 -130 -65.5 -215.5t-68.5 -132.5h244z" />
    <glyph glyph-name="afii10022" unicode="&#x415;" 
d="M592 698l-21 -108h-276l-36 -177h247l-22 -108h-249l-38 -192h277l-24 -113h-419l148 698h413z" />
    <glyph glyph-name="afii10024" unicode="&#x416;" horiz-adv-x="1014" 
d="M135 0h-181l367 388l-204 310h164l187 -317l68 317h137l-68 -315l291 315h187l-337 -334l212 -364h-165l-193 359l-77 -359h-137l77 359z" />
    <glyph glyph-name="afii10025" unicode="&#x417;" 
d="M540 543q0 -38 -12.5 -68t-34.5 -51.5t-52 -36t-65 -21.5v-3q55 -13 86.5 -49.5t31.5 -96.5t-23 -103t-62.5 -71t-91.5 -41.5t-109 -13.5q-51 0 -101 11.5t-98 28.5l36 118q41 -19 83.5 -33.5t87.5 -14.5q23 0 46.5 6t42 20t30.5 35.5t12 53.5q0 35 -17.5 54t-43 28
t-54.5 11t-51 2h-17l23 108h13q23 0 56.5 2t64.5 12.5t53 33.5t22 66q0 19 -9.5 32.5t-24.5 22t-34 12t-37 3.5q-45 0 -84.5 -13t-69.5 -31l21 130q38 9 85 16.5t87 7.5q39 0 76.5 -9t67.5 -29.5t48 -52t18 -76.5z" />
    <glyph glyph-name="afii10026" unicode="&#x418;" horiz-adv-x="734" 
d="M583 698h169l-146 -698h-138l105 496h-3l-370 -496h-169l146 698h140l-105 -496h2z" />
    <glyph glyph-name="afii10027" unicode="&#x419;" horiz-adv-x="734" 
d="M647 836q-32 -36 -78 -63t-101 -27q-59 0 -96 25.5t-61 68.5l58 50q39 -57 107 -57q35 0 66 15t63 44l42 -56v0zM583 698h169l-146 -698h-138l105 496h-3l-370 -496h-169l146 698h140l-105 -496h2z" />
    <glyph glyph-name="afii10028" unicode="&#x41a;" horiz-adv-x="667" 
d="M394 360l218 -360h-168l-194 354l-75 -354h-144l151 698h141l-66 -310l286 310h197z" />
    <glyph glyph-name="afii10029" unicode="&#x41b;" horiz-adv-x="722" 
d="M326 328q-15 -72 -37.5 -133.5t-54 -106t-74.5 -69.5t-99 -25q-26 0 -50.5 4t-48.5 10l32 118q11 -5 25.5 -8t31.5 -3q28 0 49.5 19t38 50.5t29 72t21.5 84.5l76 357h474l-146 -698h-140l123 586h-195z" />
    <glyph glyph-name="afii10030" unicode="&#x41c;" horiz-adv-x="944" 
d="M411 698l46 -511l280 511h235l-150 -698h-149l142 593l-329 -593h-131l-65 593l-126 -593h-134l149 698h232z" />
    <glyph glyph-name="afii10031" unicode="&#x41d;" horiz-adv-x="722" 
d="M322 698l-59 -278h277l59 278h144l-151 -698h-141l63 304h-278l-64 -304h-141l147 698h144z" />
    <glyph glyph-name="afii10032" unicode="&#x41e;" horiz-adv-x="778" 
d="M465 713q71 0 126 -20t92.5 -57.5t57 -91.5t19.5 -122q0 -89 -28 -168.5t-80.5 -138.5t-127 -93.5t-167.5 -34.5q-69 0 -123 21.5t-91 60.5t-56.5 94t-19.5 123q0 87 30 165t83.5 136t126 92t158.5 34zM361 95q60 0 107.5 32.5t80 81.5t49.5 107.5t17 110.5q0 84 -41 131
t-112 47q-51 0 -96 -26t-79 -70t-54 -103t-20 -125q0 -87 40 -136.5t108 -49.5z" />
    <glyph glyph-name="afii10033" unicode="&#x41f;" horiz-adv-x="722" 
d="M31 0l146 698h562l-146 -698h-140l123 586h-282l-123 -586h-140z" />
    <glyph glyph-name="afii10034" unicode="&#x420;" 
d="M165 0h-144l149 698h199q37 0 77 -8t73.5 -29t55.5 -57.5t22 -92.5q0 -67 -35 -122t-93 -86q-35 -19 -73.5 -26.5t-95.5 -7.5h-79zM239 375h67q26 0 51.5 8t46 24.5t33.5 41.5t13 58q0 38 -21.5 57.5t-56.5 24.5q-9 1 -16 2t-15 1.5t-20 0.5h-31h-5z" />
    <glyph glyph-name="afii10035" unicode="&#x421;" horiz-adv-x="611" 
d="M643 555q-25 17 -63.5 26.5t-79.5 9.5q-60 0 -111.5 -21t-89 -58.5t-58.5 -88.5t-21 -111q0 -45 15.5 -82t42.5 -64t64.5 -42t81.5 -15q36 0 73.5 10t66.5 27l-22 -132q-40 -11 -80.5 -15t-82.5 -4q-70 0 -127 21.5t-97.5 61t-63 96t-22.5 127.5q0 89 30.5 163t84 127.5
t126.5 83t157 29.5q59 0 110.5 -8t100.5 -25z" />
    <glyph glyph-name="afii10036" unicode="&#x422;" 
d="M650 698l-24 -112h-198l-125 -586h-148l128 586h-200l26 112h541z" />
    <glyph glyph-name="afii10037" unicode="&#x423;" horiz-adv-x="667" 
d="M251 698l94 -361l252 361h161l-392 -539l-46 -61.5t-50 -53t-61 -37.5t-79 -14q-25 0 -49 4t-44 12l30 114q11 -5 30 -8.5t29 -3.5q36 0 59 16.5t49 53.5l13 19l-142 498h146z" />
    <glyph glyph-name="afii10038" unicode="&#x424;" horiz-adv-x="800" 
d="M393 530q-92 -11 -140 -68.5t-48 -144.5q0 -51 30.5 -84t86.5 -41zM652 415q0 52 -32.5 80t-86.5 35l-71 -338q44 6 79.5 25.5t60 49.5t37.5 68t13 80zM418 -11h-140l20 92q-53 3 -97 21.5t-75.5 49.5t-48.5 73t-17 93q0 79 27 138t74.5 99t113 61.5t142.5 25.5l15 69
h140l-15 -69q53 -3 97.5 -20t76 -46.5t49 -71t17.5 -92.5q0 -78 -27.5 -137.5t-75.5 -101.5t-114 -65t-142 -27z" />
    <glyph glyph-name="afii10039" unicode="&#x425;" horiz-adv-x="667" 
d="M279 698l100 -244l196 244h166l-290 -334l163 -364h-154l-107 283l-222 -283h-176l326 378l-154 320h152z" />
    <glyph glyph-name="afii10040" unicode="&#x426;" horiz-adv-x="734" 
d="M31 0l146 698h140l-122 -586h282l122 586h140l-122 -586h74l-63 -292h-137l39 180h-499z" />
    <glyph glyph-name="afii10041" unicode="&#x427;" horiz-adv-x="667" 
d="M546 698h140l-148 -698h-140l63 293q-7 -2 -23.5 -4.5l-34.5 -5t-34 -4t-23 -1.5q-56 0 -99 9t-72.5 29t-45 51.5t-15.5 77.5q0 38 10 82l36 171h140l-28 -132l-9.5 -48t-4.5 -39q0 -49 23 -69t82 -20q8 0 25.5 1.5t36.5 4t36 5.5t23 5z" />
    <glyph glyph-name="afii10042" unicode="&#x428;" horiz-adv-x="1064" 
d="M177 698h140l-122 -586h244l122 586h140l-122 -586h244l122 586h140l-146 -698h-908z" />
    <glyph glyph-name="afii10043" unicode="&#x429;" horiz-adv-x="1083" 
d="M177 698h140l-122 -586h244l122 586h140l-122 -586h244l122 586h140l-122 -586h74l-63 -292h-137l39 180h-845z" />
    <glyph glyph-name="afii10044" unicode="&#x42a;" horiz-adv-x="722" 
d="M690 252q0 -63 -22.5 -110.5t-61.5 -79t-91 -47t-110 -15.5h-263l123 586h-182l26 112h319l-55 -266h76q41 0 83.5 -8.5t77.5 -29t57.5 -55.5t22.5 -87zM544 237q0 27 -10 43.5t-26 26.5t-37.5 13.5t-43.5 3.5h-77l-45 -215h93q63 0 104.5 33t41.5 95z" />
    <glyph glyph-name="afii10045" unicode="&#x42b;" horiz-adv-x="833" 
d="M708 0h-141l148 698h141zM543 252q0 -63 -22.5 -110.5t-61.5 -79t-91 -47t-110 -15.5h-229l146 698h140l-55 -266h42q41 0 83.5 -8.5t77.5 -29t57.5 -55.5t22.5 -87zM397 237q0 27 -10 43.5t-26 26.5t-37.5 13.5t-43.5 3.5h-43l-45 -215h59q63 0 104.5 33t41.5 95z" />
    <glyph glyph-name="afii10046" unicode="&#x42c;" horiz-adv-x="611" 
d="M579 252q0 -63 -22.5 -110.5t-61.5 -79t-91 -47t-110 -15.5h-263l146 698h140l-55 -266h76q41 0 83.5 -8.5t77.5 -29t57.5 -55.5t22.5 -87zM433 237q0 27 -10 43.5t-26 26.5t-37.5 13.5t-43.5 3.5h-77l-45 -215h93q63 0 104.5 33t41.5 95z" />
    <glyph glyph-name="afii10047" unicode="&#x42d;" horiz-adv-x="611" 
d="M442 416q-5 38 -21 71.5t-41 58.5t-59 39.5t-75 14.5q-45 0 -81 -12.5t-66 -30.5l22 134q38 11 78 15t80 4q79 0 137.5 -25t97.5 -69.5t58 -105t19 -131.5q0 -84 -28 -156t-79.5 -124t-125.5 -81.5t-167 -29.5q-53 0 -106 7.5t-99 26.5l35 117q24 -17 63.5 -29t96.5 -12
q49 0 91.5 15t75.5 42t56 65.5t33 85.5h-291l23 110h273v0z" />
    <glyph glyph-name="afii10048" unicode="&#x42e;" horiz-adv-x="1000" 
d="M705 713q135 0 206.5 -74.5t71.5 -208.5q0 -87 -27 -167t-77.5 -141.5t-123.5 -98t-166 -36.5q-67 0 -118 21.5t-85.5 59.5t-52 91.5t-17.5 118.5v14t1 15h-84l-64 -307h-141l147 698h141l-60 -281h80q19 61 53 115t81 94.5t106.5 63.5t128.5 23zM596 95q58 0 103.5 34
t76.5 85t47 110t16 109q0 33 -8 64t-24.5 55t-43.5 38.5t-64 14.5q-57 0 -101 -32t-74.5 -80.5t-46 -105.5t-15.5 -106q0 -32 6.5 -65t21.5 -60t41 -44t65 -17z" />
    <glyph glyph-name="afii10049" unicode="&#x42f;" horiz-adv-x="611" 
d="M492 0h-140l57 277h-50q-22 0 -38 -3.5t-28.5 -11.5t-22.5 -20.5t-21 -30.5l-128 -211h-162l161 254q21 34 48 53.5t53 24.5v2q-26 3 -47.5 17.5t-38 35t-25.5 45.5t-9 49q0 66 26.5 108t67.5 66.5t91.5 33.5t97.5 9h254zM476 588h-80q-28 0 -55 -6.5t-48.5 -20.5
t-34.5 -36t-13 -52q0 -27 11 -44t29 -26.5t41 -12.5t47 -3h60z" />
    <glyph glyph-name="afii10065" unicode="&#x430;" 
d="M334 0l14 80q-33 -40 -74 -64.5t-95 -24.5q-35 0 -64 10.5t-50 30t-32.5 47t-11.5 60.5q0 54 35.5 98t93.5 62q35 11 79 16.5t97 5.5q14 0 28 -1t28 -1q2 18 3 25.5t1 14.5q0 36 -28 55.5t-80 19.5q-37 0 -80 -11.5t-82 -32.5l19 108q42 13 84 20.5t86 7.5
q100 0 151 -39.5t51 -114.5q0 -25 -4.5 -57t-15.5 -90l-22.5 -116.5l-12.5 -67.5q-1 -7 -2 -17t-3 -24h-113zM319 238q-23 0 -52 -3t-55 -13t-43.5 -28.5t-17.5 -49.5q0 -26 18.5 -44t46.5 -18q36 0 62.5 14.5t45 37.5t29.5 50.5t16 53.5h-50z" />
    <glyph glyph-name="afii10066" unicode="&#x431;" horiz-adv-x="611" 
d="M589 631q-29 -5 -63.5 -9t-79.5 -6q-56 -3 -99 -14t-76 -34.5t-56.5 -61.5t-39.5 -95h3q9 17 26.5 35.5t42 34.5t56 26t69.5 10q44 0 82 -15.5t66 -45t44 -70.5t16 -92q0 -66 -22 -122t-62 -97t-95 -64.5t-121 -23.5q-106 0 -168 60.5t-62 185.5q0 51 10 109t29 115
t46.5 107.5t63.5 86.5q28 27 58 43.5t61.5 26t64 13.5t65.5 6q20 1 43 3l46.5 4t44.5 4.5t36 5.5zM442 301q0 56 -25 86.5t-69 30.5q-40 0 -70 -19t-50 -49.5t-30 -67.5t-10 -73q0 -60 26 -92t73 -32q38 0 67 21t48.5 53t29.5 70t10 72z" />
    <glyph glyph-name="afii10067" unicode="&#x432;" 
d="M535 399q0 -29 -11.5 -51.5t-28 -39t-35.5 -26t-34 -11.5v-2q11 -2 25.5 -6.5t27 -16t21.5 -31t9 -49.5q0 -38 -15.5 -68.5t-44 -52.5t-68 -33.5t-88.5 -11.5h-272l109 515h240q45 0 76 -9t51 -24.5t29 -36.5t9 -46zM408 373q0 17 -5.5 27t-14.5 15t-21 6.5t-25 1.5h-104
l-23 -113h109q14 0 29 3.5t27 11t20 19.5t8 29zM379 168q0 21 -8.5 32.5t-21.5 17t-29 6.5t-30 1h-93l-27 -130h119q16 0 32 4.5t29 13.5t21 23t8 32z" />
    <glyph glyph-name="afii10068" unicode="&#x433;" horiz-adv-x="400" 
d="M152 0h-134l109 515h330l-21 -98h-196z" />
    <glyph glyph-name="afii10069" unicode="&#x434;" horiz-adv-x="611" 
d="M506 99h63l-55 -259h-130l34 160h-327l-34 -160h-130l55 259h54q15 12 31.5 37.5t32.5 58.5t29.5 70.5t21.5 73.5l38 176h405zM300 417l-18 -78q-8 -36 -19.5 -72t-25 -68t-27.5 -58t-27 -42h189l68 318h-140z" />
    <glyph glyph-name="afii10070" unicode="&#x435;" 
d="M159 218q-1 -5 -1 -9v-7q0 -32 11 -54t30 -35.5t44.5 -20t53.5 -6.5q45 0 83 10.5t79 28.5l-16 -105q-47 -15 -92 -23t-83 -8q-53 0 -95.5 15.5t-73 43t-47 67t-16.5 87.5q0 64 20.5 123t58 104t89.5 72t115 27q104 0 157 -51t53 -146q0 -10 -1 -24.5t-3 -30t-4.5 -31
t-5.5 -27.5h-356zM409 307q2 6 2 13v14q0 48 -24 75t-69 27q-51 0 -85 -31.5t-57 -97.5h233z" />
    <glyph glyph-name="afii10072" unicode="&#x436;" horiz-adv-x="800" 
d="M125 0h-172l272 286l-112 229h140l101 -227l48 227h132l-48 -227l195 227h163l-233 -246l149 -269h-149l-130 263l-56 -263h-132l55 261z" />
    <glyph glyph-name="afii10073" unicode="&#x437;" horiz-adv-x="463" 
d="M447 408q0 -24 -9 -46.5t-25.5 -41t-39 -31t-48.5 -15.5v-2q38 -5 61 -35t23 -74q0 -42 -17 -74.5t-48.5 -55t-75 -34t-96.5 -11.5q-18 0 -41 2t-46 5.5t-45.5 9.5t-39.5 14l29 106q9 -6 25.5 -13t36 -13t40.5 -9.5t38 -3.5q49 0 79 21.5t30 53.5q0 29 -21.5 46.5
t-69.5 17.5h-43l20 89h41q59 0 87.5 19t28.5 48q0 25 -16 39t-48 14q-21 0 -43 -4t-43 -10t-39 -13t-30 -14l18 105q29 10 71.5 19t83.5 9q81 0 126.5 -29t45.5 -89z" />
    <glyph glyph-name="afii10074" unicode="&#x438;" horiz-adv-x="622" 
d="M507 0h-131l70 333h-1h-2l-278 -333h-144l109 515h131l-71 -334h1h2l280 334h143z" />
    <glyph glyph-name="afii10075" unicode="&#x439;" horiz-adv-x="622" 
d="M566 678q-32 -36 -78 -63t-101 -27q-59 0 -96 25.5t-61 68.5l58 50q39 -57 107 -57q35 0 66 15t63 44l42 -56v0zM507 0h-131l70 333h-1h-2l-278 -333h-144l109 515h131l-71 -334h1h2l280 334h143z" />
    <glyph glyph-name="afii10076" unicode="&#x43a;" 
d="M583 515l-240 -246l153 -269h-151l-134 262l-56 -262h-134l109 515h134l-47 -222l197 222h169z" />
    <glyph glyph-name="afii10077" unicode="&#x43b;" horiz-adv-x="600" 
d="M489 0h-134l89 417h-137l-30 -142q-11 -54 -28.5 -105t-43.5 -90t-63 -63t-87 -24q-21 0 -46.5 4t-39.5 9l32 96q5 -3 14.5 -4.5t17.5 -1.5q25 0 43 17.5t31 44t21.5 58t14.5 59.5l51 240h405z" />
    <glyph glyph-name="afii10078" unicode="&#x43c;" horiz-adv-x="755" 
d="M640 0h-126l82 387h-2l-189 -387h-146l-29 387h-2l-82 -387h-126l109 515h199l29 -394h2l188 394h202z" />
    <glyph glyph-name="afii10079" unicode="&#x43d;" horiz-adv-x="611" 
d="M155 0h-134l109 515h134l-42 -197h207l42 197h134l-109 -515h-134l47 220h-207z" />
    <glyph glyph-name="afii10080" unicode="&#x43e;" horiz-adv-x="611" 
d="M348 529q54 0 97 -16t73.5 -46t47 -72.5t16.5 -94.5q0 -67 -22.5 -124t-63 -99t-97 -66t-123.5 -24q-54 0 -97.5 16.5t-74.5 46.5t-47.5 73t-16.5 96q0 67 23 124t64.5 98t98 64.5t122.5 23.5zM344 430q-42 0 -73 -20t-51.5 -51t-31 -69.5t-10.5 -74.5q0 -62 27.5 -96
t77.5 -34q40 0 70.5 22t50.5 55t30 72t10 73q0 57 -26.5 90t-73.5 33z" />
    <glyph glyph-name="afii10081" unicode="&#x43f;" horiz-adv-x="611" 
d="M155 0h-134l109 515h475l-109 -515h-134l88 417h-207z" />
    <glyph glyph-name="afii10082" unicode="&#x440;" horiz-adv-x="611" 
d="M106 -210h-131l134 642q5 21 8 41.5l6 41.5h127l-17 -88q30 47 66.5 70.5t94.5 23.5q42 0 76.5 -15t59 -42.5t38 -67t13.5 -87.5q0 -59 -17 -115.5t-51 -100.5t-83.5 -71t-113.5 -27q-57 0 -94.5 24t-51.5 69zM349 418q-31 0 -57.5 -16t-46.5 -44t-31.5 -65t-11.5 -80
q0 -56 24.5 -86t69.5 -30q39 0 67 21t46 52.5t26.5 68.5t8.5 69q0 48 -26.5 79t-68.5 31z" />
    <glyph glyph-name="afii10083" unicode="&#x441;" horiz-adv-x="444" 
d="M447 395q-51 21 -100 21q-39 0 -70 -16.5t-52.5 -43.5t-33 -61.5t-11.5 -70.5q0 -56 29 -89.5t78 -33.5q13 0 29 2t32.5 6t31 9t24.5 10l-15 -106q-30 -14 -62.5 -19.5t-65.5 -5.5q-49 0 -89.5 15.5t-69.5 44t-45 68t-16 87.5q0 67 22.5 124t61.5 97.5t93 63.5t117 23
q44 0 77.5 -5t66.5 -15z" />
    <glyph glyph-name="afii10084" unicode="&#x442;" horiz-adv-x="444" 
d="M474 417h-150l-89 -417h-134l89 417h-150l20 98h434z" />
    <glyph glyph-name="afii10085" unicode="&#x443;" 
d="M203 515l49 -380l206 380h147l-348 -588q-20 -35 -38 -61.5t-40.5 -44.5t-52.5 -27t-74 -9q-52 0 -102 14l30 100q13 -5 29.5 -8.5t31.5 -3.5q35 0 61 20.5t55 71.5l-91 536h137z" />
    <glyph glyph-name="afii10086" unicode="&#x444;" horiz-adv-x="833" 
d="M536 -12q-20 0 -35 5.5t-26.5 13.5t-20 17t-13.5 17h-2l-52 -251h-130l51 247h-2q-17 -15 -43.5 -32t-66.5 -17q-45 0 -74.5 17.5t-47.5 47t-25 67.5t-7 80q0 57 16 115t48.5 105t82.5 77t118 30q20 0 36 -6t27.5 -14.5t19 -18.5t11.5 -18h2l58 280h130l-57 -274h2
q16 19 47 35t69 16q40 0 68 -16t46 -43.5t26.5 -64.5t8.5 -80q0 -59 -15.5 -119t-47.5 -108t-82.5 -78t-119.5 -30zM663 320q0 19 -3.5 38t-11 33t-19.5 23t-29 9q-34 0 -54.5 -15t-35.5 -41l-47 -220q2 -23 17.5 -39t48.5 -16q36 0 61.5 22t41.5 55.5t23.5 74t7.5 76.5z
M380 367q-5 28 -18.5 42t-47.5 14t-59.5 -21t-42 -54t-24.5 -72.5t-8 -76.5q0 -20 3 -39t10.5 -34t20 -24.5t31.5 -9.5q33 0 55 17t33 38z" />
    <glyph glyph-name="afii10087" unicode="&#x445;" 
d="M434 515h160l-219 -246l123 -269h-146l-79 197l-154 -197h-161l234 269l-109 246h139l67 -177z" />
    <glyph glyph-name="afii10088" unicode="&#x446;" horiz-adv-x="622" 
d="M133 515h134l-88 -416h202l88 416h134l-88 -416h64l-55 -259h-128l34 160h-406z" />
    <glyph glyph-name="afii10089" unicode="&#x447;" 
d="M305 0l44 208q-6 -2 -21.5 -5.5t-35 -6.5t-41 -5.5t-40.5 -2.5q-75 0 -110 29.5t-35 87.5q0 14 1.5 28.5t5.5 30.5l33 151h134l-24 -111q-4 -17 -6.5 -31t-2.5 -27q0 -25 14.5 -39.5t57.5 -14.5q22 0 50 4.5t41 9.5l45 209h134l-110 -515h-134z" />
    <glyph glyph-name="afii10090" unicode="&#x448;" horiz-adv-x="870" 
d="M642 99l88 416h134l-109 -515h-734l109 515h134l-88 -416h166l88 416h134l-88 -416h166z" />
    <glyph glyph-name="afii10091" unicode="&#x449;" horiz-adv-x="878" 
d="M772 99h66l-55 -259h-128l34 160h-668l109 515h134l-88 -416h164l88 416h134l-88 -416h164l88 416h134z" />
    <glyph glyph-name="afii10092" unicode="&#x44a;" horiz-adv-x="611" 
d="M576 188q0 -43 -17 -77.5t-47 -59t-69.5 -38t-84.5 -13.5h-263l88 417h-143l20 98h278l-37 -174h84q91 0 141 -37.5t50 -115.5zM446 186q0 36 -24.5 48t-58.5 12h-81l-32 -151h92q45 0 74.5 23.5t29.5 67.5z" />
    <glyph glyph-name="afii10093" unicode="&#x44b;" horiz-adv-x="755" 
d="M640 0h-134l109 515h134zM479 188q0 -43 -17 -77.5t-47 -59t-69.5 -38t-84.5 -13.5h-240l109 515h134l-37 -174h61q91 0 141 -37.5t50 -115.5zM349 186q0 36 -24.5 48t-58.5 12h-58l-32 -151h69q45 0 74.5 23.5t29.5 67.5z" />
    <glyph glyph-name="afii10094" unicode="&#x44c;" horiz-adv-x="537" 
d="M502 188q0 -43 -17 -77.5t-47 -59t-69.5 -38t-84.5 -13.5h-263l109 515h134l-37 -174h84q91 0 141 -37.5t50 -115.5zM372 186q0 36 -24.5 48t-58.5 12h-81l-32 -151h92q45 0 74.5 23.5t29.5 67.5z" />
    <glyph glyph-name="afii10095" unicode="&#x44d;" horiz-adv-x="444" 
d="M283 308q-2 22 -8 43t-19 37t-34 25.5t-52 9.5q-25 0 -54 -6.5t-55 -19.5l15 106q31 15 63.5 19.5t65.5 4.5q50 0 90.5 -16t69 -45t44 -70t15.5 -91q0 -68 -21.5 -125.5t-61 -100.5t-96 -67t-125.5 -24q-38 0 -72.5 6t-61.5 14l33 110q40 -26 98 -26q60 0 99.5 36.5
t56.5 87.5h-186l19 92h177v0z" />
    <glyph glyph-name="afii10096" unicode="&#x44e;" horiz-adv-x="811" 
d="M782 311q0 -65 -21.5 -124t-61 -103.5t-95.5 -70.5t-124 -26q-50 0 -90 15.5t-68 44.5t-43 69.5t-15 90.5v15h-62l-47 -222h-134l109 515h134l-42 -200h58q15 46 42 85.5t64 68t83 44.5t99 16q49 0 89 -15.5t67.5 -44t42.5 -69t15 -89.5zM645 316q0 21 -4.5 41
t-14.5 36.5t-26.5 26.5t-40.5 10q-41 0 -70.5 -22.5t-49 -56t-29 -73t-9.5 -73.5q0 -22 4.5 -43.5t15 -38.5t28 -27.5t43.5 -10.5q39 0 67.5 24t47.5 59t28.5 75.5t9.5 72.5z" />
    <glyph glyph-name="afii10097" unicode="&#x44f;" 
d="M441 0h-133l39 184h-42q-26 0 -51.5 -7t-44.5 -37l-87 -140h-158l99 155q20 32 47 49t67 21v1q-18 5 -36 16.5t-31.5 27.5t-22 36.5t-8.5 43.5q0 32 13 62t38 53t62 36.5t84 13.5h274zM303 419q-15 0 -30.5 -5t-28.5 -14.5t-21 -23.5t-8 -31t7.5 -29t19 -20t24.5 -12
t25 -4h77l29 139h-94z" />
    <glyph glyph-name="afii10071" unicode="&#x451;" 
d="M529 331q0 -10 -1 -24.5t-3 -30t-4.5 -31t-5.5 -27.5h-356q-1 -5 -1 -9v-7q0 -32 11 -54t30 -35.5t44.5 -20t53.5 -6.5q45 0 83 10.5t79 28.5l-16 -105q-47 -15 -92 -23t-83 -8q-53 0 -95.5 15.5t-73 43t-47 67t-16.5 87.5q0 64 20.5 123t58 104t89.5 72t115 27
q104 0 157 -51t53 -146zM411 334q0 48 -24 75t-69 27q-51 0 -85 -31.5t-57 -97.5h233q2 6 2 13v14zM403 714h112l-26 -116h-112zM195 714h112l-26 -116h-112z" />
    <glyph glyph-name="afii10099" unicode="&#x452;" horiz-adv-x="600" 
d="M564 191q0 -59 -18.5 -114.5t-52.5 -98.5t-82 -69t-107 -26q-16 0 -37.5 2.5t-39.5 8.5l32 98q12 -4 23.5 -5t21.5 -1q31 0 54 21.5t38 53t22 67t7 62.5q0 42 -22.5 64t-55.5 22q-48 0 -79 -24.5t-50 -60.5t-29 -77t-16 -74l-7 -40h-134l93 434h-77l20 96h78l47 220h133
l-48 -220h243l-22 -96h-242l-29 -138h2q11 16 28.5 30.5t39.5 26t47.5 18.5t52.5 7q79 0 122.5 -44.5t43.5 -142.5z" />
    <glyph glyph-name="afii10100" unicode="&#x453;" horiz-adv-x="400" 
d="M152 0h-134l109 515h330l-21 -98h-196zM406 732l-128 -146h-86l81 146h133z" />
    <glyph glyph-name="afii10101" unicode="&#x454;" horiz-adv-x="444" 
d="M181 223q0 -25 5 -48.5t18 -42t35 -29.5t56 -11q25 0 54 6.5t55 19.5l-15 -106q-31 -15 -63.5 -19.5t-65.5 -4.5q-50 0 -90.5 16t-69 45t-44 70t-15.5 91q0 67 21.5 125t61 101t96 67t125.5 24q38 0 72.5 -6t61.5 -14l-33 -110q-40 26 -98 26q-57 0 -95 -32t-56 -80h201
l-19 -88h-198v0z" />
    <glyph glyph-name="afii10102" unicode="&#x455;" horiz-adv-x="444" 
d="M413 402q-58 23 -108 23q-43 0 -69 -14.5t-26 -37.5q0 -14 11 -26t41 -32l44.5 -29.5t40.5 -32t29 -40t11 -52.5q0 -49 -20.5 -81.5t-52.5 -52t-71 -28t-76 -8.5q-50 0 -90 7t-80 24l30 108q28 -17 66 -29t70 -12q40 0 64.5 17t24.5 44q0 21 -20.5 36.5t-52.5 37.5
l-40 27t-33.5 28t-23.5 34.5t-9 48.5q0 36 15.5 66t44.5 51t69.5 32.5t90.5 11.5q37 0 75 -5.5t74 -16.5z" />
    <glyph glyph-name="afii10103" unicode="&#x456;" horiz-adv-x="278" 
d="M314 736l-28 -126h-134l27 126h135zM266 515l-110 -515h-135l110 515h135z" />
    <glyph glyph-name="afii10104" unicode="&#x457;" horiz-adv-x="278" 
d="M266 515l-110 -515h-135l110 515h135zM285 714h112l-26 -116h-112zM87 714h112l-26 -116h-112z" />
    <glyph glyph-name="afii10105" unicode="&#x458;" horiz-adv-x="278" 
d="M318 734l-28 -124h-135l28 124h135zM272 515l-117 -538q-6 -29 -11.5 -50t-11 -37t-12 -28.5t-13.5 -24.5q-17 -25 -50.5 -39.5t-75.5 -14.5q-23 0 -44.5 3.5t-39.5 9.5l32 96q11 -2 19 -4t13 -2q20 0 32.5 15.5t20.5 51.5l122 562h136z" />
    <glyph glyph-name="afii10106" unicode="&#x459;" horiz-adv-x="833" 
d="M798 183q0 -41 -16.5 -75t-45.5 -58t-68 -37t-83 -13h-255l89 417h-114l-30 -142q-11 -54 -28 -105t-43 -90t-62.5 -63t-86.5 -24q-21 0 -46.5 4t-39.5 9l32 96q5 -3 14.5 -4.5t17.5 -1.5q25 0 43 17.5t31 44t21.5 58t14.5 59.5l51 240h376l-39 -184h81q90 0 138 -36.5
t48 -111.5zM657 181q0 33 -22.5 44t-55.5 11h-67l-30 -141h76q44 0 71.5 22.5t27.5 63.5z" />
    <glyph glyph-name="afii10107" unicode="&#x45a;" horiz-adv-x="833" 
d="M798 183q0 -41 -16.5 -75t-45.5 -58t-68 -37t-83 -13h-258l50 233h-172l-50 -233h-134l109 515h134l-39 -184h172l39 184h134l-39 -184h81q90 0 138 -36.5t48 -111.5zM657 181q0 33 -22.5 44t-55.5 11h-67l-30 -141h76q44 0 71.5 22.5t27.5 63.5z" />
    <glyph glyph-name="afii10108" unicode="&#x45b;" horiz-adv-x="600" 
d="M542 217q0 -28 -5 -56l-10 -56l-20 -105h-136l20 104q6 33 9.5 55.5t3.5 39.5q0 35 -18.5 53.5t-53.5 18.5q-42 0 -70.5 -24t-46.5 -59t-28 -75t-16 -73l-7 -40h-134l93 434h-77l20 96h78l47 220h133l-48 -220h243l-22 -96h-242l-26 -117q68 61 151 61q75 0 118.5 -43
t43.5 -118z" />
    <glyph glyph-name="afii10109" unicode="&#x45c;" 
d="M338 586h-86l81 146h133zM583 515l-240 -246l153 -269h-151l-134 262l-56 -262h-134l109 515h134l-47 -222l197 222h169z" />
    <glyph glyph-name="afii10110" unicode="&#x45e;" 
d="M203 515l49 -380l206 380h147l-348 -588q-20 -35 -38 -61.5t-40.5 -44.5t-52.5 -27t-74 -9q-52 0 -102 14l30 100q13 -5 29.5 -8.5t31.5 -3.5q35 0 61 20.5t55 71.5l-91 536h137zM522 678q-32 -36 -78 -63t-101 -27q-59 0 -96 25.5t-61 68.5l58 50q39 -57 107 -57
q35 0 66 15t63 44l42 -56v0z" />
    <glyph glyph-name="afii10193" unicode="&#x45f;" horiz-adv-x="611" 
d="M340 0l-34 -160h-130l34 160h-175l109 515h134l-88 -416h205l88 416h134l-109 -515h-168z" />
    <glyph glyph-name="afii10050" unicode="&#x490;" horiz-adv-x="500" 
d="M296 586l-125 -586h-140l148 698h250l26 122h134l-49 -234h-244z" />
    <glyph glyph-name="afii10098" unicode="&#x491;" horiz-adv-x="400" 
d="M240 417l-89 -417h-134l109 515h199l23 108h128l-43 -206h-193z" />
    <glyph glyph-name="Euro" unicode="&#x20ac;" 
d="M640 579q-23 13 -55 18.5t-58 5.5q-39 0 -74.5 -11.5t-66.5 -32t-56 -48.5t-43 -62h296l-28 -61h-297q-6 -19 -10 -38.5t-6 -39.5h279l-27 -61h-249q8 -72 55 -111.5t119 -39.5q30 0 62.5 5.5t60.5 16.5l-17 -112q-35 -11 -73.5 -15.5t-75.5 -4.5q-62 0 -113.5 16.5
t-88.5 49.5t-58 81.5t-21 113.5h-99l28 61h75q3 20 7 39.5t9 38.5h-90l28 61h85q26 58 66 106t91 82.5t110 53.5t123 19q41 0 81.5 -6t78.5 -21z" />
    <glyph glyph-name="afii61352" unicode="&#x2116;" horiz-adv-x="1090" 
d="M175 698h171l137 -530h2l114 530h132l-151 -698h-171l-137 535h-2l-111 -535h-134zM664 78h332l-15 -78h-332zM903 497q30 0 57 -8.5t47.5 -25.5t32 -41.5t11.5 -57.5q0 -45 -12.5 -87t-37 -74.5t-61 -52t-84.5 -19.5q-71 0 -109 36t-38 102q0 45 12 86t36.5 72.5
t61 50.5t84.5 19zM856 208q25 0 42 17.5t27.5 42.5t14.5 52t4 46q0 55 -50 55q-26 0 -42.5 -17.5t-27 -42t-14.5 -51.5t-4 -46q0 -25 12 -40.5t38 -15.5z" />
    <glyph glyph-name="uni2219" unicode="&#x2219;" horiz-adv-x="278" 
d="M97 364h142l-30 -139h-142z" />
  </font>
</defs>
</svg>
