<?xml version="1.0" standalone="no"?>
<!DOCTYPE svg PUBLIC "-//W3C//DTD SVG 1.1//EN" "http://www.w3.org/Graphics/SVG/1.1/DTD/svg11.dtd" >
<svg>
<metadata>
Created by FontForge 20090622 at Thu Mar 29 15:37:20 2018
 By deploy user
Part of the digitally encoded machine readable outline data for producing the Typefaces provided is copyrighted (c) 1981,2005 Linotype Library GmbH, www.linotype.com. All rights reserved. This software is the property of Linotype Library GmbH, and may not be reproduced, used, displayed, modified, disclosed or transferred without the express written approval of Linotype Library GmbH.Copyright (c) 1981, 1993 Adobe Systems Incorporated. All rights reserved. All Cyrillic characters are designed for Linotype Library by Double Alex.
</metadata>
<defs>
<font id="FrutigerLTCYR-Bold" horiz-adv-x="556" >
  <font-face 
    font-family="Frutiger LT CYR 45 Light"
    font-weight="700"
    font-stretch="normal"
    units-per-em="1000"
    panose-1="2 0 8 3 5 0 0 2 0 4"
    ascent="800"
    descent="-200"
    x-height="515"
    cap-height="698"
    bbox="-16 -219 1060 892"
    underline-thickness="50"
    underline-position="-50"
    unicode-range="U+0020-U+F8FF"
  />
<missing-glyph horiz-adv-x="512" 
d="M222 117v67h56v-67h-56zM225 234l-2 17q0 56 13 81q7 13 18 27.5t28 31.5q16 15 26 26.5t15 21t7 18t2 17.5q0 36 -22.5 60.5t-53.5 24.5t-53.5 -22t-28.5 -73l-50 8q7 72 44 104.5t91 32.5t89 -35.5t35 -95.5q0 -32 -12.5 -58.5t-50.5 -61.5q-37 -33 -43 -52
q-6 -20 -6 -72h-46zM462 50v617h-412v-617h412zM512 718v-718h-512v718h512z" />
    <glyph glyph-name=".notdef" horiz-adv-x="512" 
d="M222 117v67h56v-67h-56zM225 234l-2 17q0 56 13 81q7 13 18 27.5t28 31.5q16 15 26 26.5t15 21t7 18t2 17.5q0 36 -22.5 60.5t-53.5 24.5t-53.5 -22t-28.5 -73l-50 8q7 72 44 104.5t91 32.5t89 -35.5t35 -95.5q0 -32 -12.5 -58.5t-50.5 -61.5q-37 -33 -43 -52
q-6 -20 -6 -72h-46zM462 50v617h-412v-617h412zM512 718v-718h-512v718h512z" />
    <glyph glyph-name=".null" horiz-adv-x="0" 
 />
    <glyph glyph-name="nonmarkingreturn" horiz-adv-x="278" 
 />
    <glyph glyph-name="space" unicode=" " horiz-adv-x="278" 
 />
    <glyph glyph-name="exclam" unicode="!" horiz-adv-x="389" 
d="M116 698h157l-24 -497h-112zM124 133h138v-133h-138v133z" />
    <glyph glyph-name="quotedbl" unicode="&#x22;" horiz-adv-x="481" 
d="M118 405l-19 293h107l-19 -293h-69zM295 405l-19 293h106l-18 -293h-69z" />
    <glyph glyph-name="numbersign" unicode="#" 
d="M62 0l36 191h-87v85h102l27 142h-87v85h102l36 195h99l-35 -195h106l35 195h100l-36 -195h86v-85h-101l-27 -142h86v-85h-102l-35 -191h-99l35 191h-106l-36 -191h-99zM345 418h-107l-26 -142h107z" />
    <glyph glyph-name="dollar" unicode="$" 
d="M253 789h55v-87q25 0 46.5 -1.5t41 -4.5t38.5 -7t39 -10l-12 -118q-31 15 -71 24t-75 9h-7v-177q42 -12 80.5 -27.5t68 -40.5t46.5 -60.5t17 -87.5q0 -88 -56 -141t-161 -66v-88h-56v86q-9 -1 -14 -1h-10q-83 0 -174 31l13 127q17 -9 39.5 -17t46 -14.5t47 -10t41.5 -3.5
h11v194q-41 15 -79 31t-67 39t-46.5 57t-17.5 84q0 80 56.5 130t159.5 62v88zM253 593q-37 -6 -58.5 -27.5t-21.5 -50.5q0 -27 18 -45.5t62 -37.5v161zM303 106q80 22 80 88q0 19 -6.5 32.5t-18 24t-26 18.5t-29.5 14v-177z" />
    <glyph glyph-name="percent" unicode="%" horiz-adv-x="1000" 
d="M733 730l-390 -751h-82l390 751h82zM561 164q0 91 43 140.5t121 49.5t122.5 -46.5t44.5 -131.5q0 -40 -9.5 -74.5t-29.5 -60t-51 -40.5t-74 -15q-79 0 -123 46.5t-44 131.5zM783 171q0 53 -14 77.5t-43 24.5t-43 -26t-14 -83q0 -98 58 -98q29 0 42.5 25.5t13.5 79.5z
M106 530q0 91 43 140.5t121 49.5t122.5 -46.5t44.5 -131.5q0 -40 -9.5 -74.5t-29.5 -60t-51 -40.5t-74 -15q-79 0 -123 46.5t-44 131.5zM328 537q0 53 -14 77.5t-43 24.5t-43 -26t-14 -83q0 -98 58 -98q29 0 42.5 25.5t13.5 79.5z" />
    <glyph glyph-name="ampersand" unicode="&#x26;" horiz-adv-x="722" 
d="M502 60q-38 -38 -88.5 -55.5t-104.5 -17.5q-55 0 -100.5 15.5t-78.5 44t-51.5 67t-18.5 85.5q0 68 39.5 116.5t110.5 69.5l-35 34.5t-30.5 37.5t-22 42.5t-8.5 48.5q0 37 15.5 67t43.5 51.5t67 33.5t87 12q94 0 147 -43t53 -118q0 -33 -11.5 -60.5t-30.5 -49.5
t-43.5 -39.5t-51.5 -32.5l129 -142q20 22 31.5 59.5t11.5 79.5v12h124q-2 -36 -7.5 -67t-16.5 -59.5t-27 -55.5t-39 -56l126 -140h-173zM312 443q13 6 29.5 17t31 25t24 30t9.5 33q0 29 -22 48t-55 19q-35 0 -59.5 -19.5t-24.5 -48.5q0 -24 16 -49t51 -55zM281 309
q-33 -17 -57.5 -43.5t-24.5 -67.5q0 -48 34 -78.5t88 -30.5q66 0 116 45z" />
    <glyph glyph-name="quotesingle" unicode="'" horiz-adv-x="278" 
d="M106 405l-20 293h106l-20 -293h-66z" />
    <glyph glyph-name="parenleft" unicode="(" horiz-adv-x="333" 
d="M325 755q-38 -63 -65.5 -121t-45.5 -112.5t-26.5 -107.5t-8.5 -106q0 -125 41 -236t106 -215h-127q-72 101 -115.5 212.5t-43.5 237.5q0 68 11.5 125.5t32.5 111t50 105t64 106.5h127z" />
    <glyph glyph-name="parenright" unicode=")" horiz-adv-x="333" 
d="M293 307q0 -126 -43.5 -237.5t-115.5 -212.5h-127q65 104 106 215t41 236q0 53 -8.5 106t-26.5 107.5t-45.5 112.5t-65.5 121h127q34 -55 63 -106.5t50 -105t33 -111t12 -125.5z" />
    <glyph glyph-name="asterisk" unicode="*" 
d="M440 420l-92 -66l-71 124l-76 -124l-91 66l98 107l-137 31l33 107l133 -60l-14 145h110l-15 -144l133 56l32 -105l-139 -30z" />
    <glyph glyph-name="plus" unicode="+" horiz-adv-x="600" 
d="M246 209h-206v101h206v209h108v-209h206v-101h-206v-209h-108v209z" />
    <glyph glyph-name="comma" unicode="," horiz-adv-x="278" 
d="M247 139l-91 -250h-118l64 250h145z" />
    <glyph glyph-name="hyphen" unicode="-" horiz-adv-x="333" 
d="M35 324h263v-111h-263v111z" />
    <glyph glyph-name="period" unicode="." horiz-adv-x="278" 
d="M68 139h142v-139h-142v139z" />
    <glyph glyph-name="slash" unicode="/" horiz-adv-x="389" 
d="M119 -14h-104l256 728h103z" />
    <glyph glyph-name="zero" unicode="0" 
d="M34 357q0 61 10 124t37.5 114t75 83.5t122.5 32.5q78 0 126 -34t74 -87t35 -118t9 -127q0 -63 -9.5 -126t-36.5 -114t-75 -83t-124 -32q-78 0 -126 33.5t-74.5 87t-35 118.5t-8.5 128zM177 344q0 -16 0.5 -40.5t3.5 -52t9 -55t17.5 -50t28 -36.5t41.5 -14q103 0 103 252
v42.5t-2.5 54t-8.5 57t-17 51.5t-28.5 37.5t-43.5 14.5t-43.5 -14.5t-29 -38t-18 -52.5t-9 -58t-3 -55t-0.5 -43z" />
    <glyph glyph-name="one" unicode="1" 
d="M135 446l-71 91l207 161h122v-698h-142v542z" />
    <glyph glyph-name="two" unicode="2" 
d="M40 118l91 81q12 11 31.5 31l40.5 43.5l42 48l38 45.5q29 38 43 69.5t14 63.5q0 43 -30 68.5t-80 25.5q-38 0 -83 -16t-79 -41l-11 123q46 24 101 37t111 13q48 0 88 -12t69.5 -36.5t46 -61t16.5 -85.5q0 -26 -5.5 -51.5t-16.5 -51.5t-29.5 -55t-43.5 -62l-39 -48.5
l-36.5 -42t-41.5 -42l-54 -49.5h285v-113h-468v118z" />
    <glyph glyph-name="three" unicode="3" 
d="M53 135q41 -16 81.5 -24.5t76.5 -8.5q66 0 104 27.5t38 75.5q0 52 -43 76t-136 24q-11 0 -21 -0.5t-19 -1.5v114q8 -1 17.5 -1.5t19.5 -0.5q25 0 56 3t59 13.5t47 30.5t19 53q0 38 -33 60t-93 22q-19 0 -40 -2.5t-41 -7.5t-38.5 -11.5t-31.5 -14.5l-8 114q45 17 93 25.5
t94 8.5q45 0 88 -8.5t77 -29.5t55 -55.5t21 -85.5q0 -65 -34 -109t-97 -56q33 -3 58 -18.5t42.5 -39t26.5 -53t9 -60.5q0 -57 -24.5 -95.5t-63.5 -62.5t-88.5 -34t-99.5 -10q-47 0 -90.5 6t-88.5 17z" />
    <glyph glyph-name="four" unicode="4" 
d="M453 698v-449h88v-107h-88v-142h-139v142h-299v117l263 439h175zM318 249v308l-176 -308h176z" />
    <glyph glyph-name="five" unicode="5" 
d="M75 140q44 -19 77 -27t66 -8q68 0 107 32t39 86q0 56 -42.5 87.5t-116.5 31.5q-32 0 -61.5 -4.5t-61.5 -14.5l8 374h403v-108h-271l-3 -143q11 3 22.5 4t28.5 1q52 0 96.5 -14t77 -42t51 -70t18.5 -99q0 -55 -18.5 -98.5t-54 -73.5t-85.5 -46t-113 -16q-42 0 -86 5
t-84 16z" />
    <glyph glyph-name="six" unicode="6" 
d="M470 571q-30 14 -61.5 21.5t-58.5 7.5q-48 0 -80.5 -18.5t-52 -48.5t-27.5 -68.5t-8 -78.5q9 17 24 30.5t33 22.5t38 13.5t39 4.5q52 0 91 -19.5t64.5 -52t38 -76t12.5 -91.5q0 -109 -62.5 -170t-173.5 -61q-72 0 -118.5 29t-74.5 75.5t-39 106t-11 120.5
q0 72 14.5 142.5t49 126.5t90.5 90.5t140 34.5q39 0 76 -6.5t74 -19.5zM190 227q0 -58 27.5 -95.5t70.5 -37.5q42 0 67.5 34t25.5 90q0 59 -27 94.5t-71 35.5q-42 0 -67.5 -33.5t-25.5 -87.5z" />
    <glyph glyph-name="seven" unicode="7" 
d="M49 587v110h454v-111l-250 -586h-152l260 587h-312z" />
    <glyph glyph-name="eight" unicode="8" 
d="M163 365q-53 14 -84.5 58.5t-31.5 104.5q0 42 16.5 75.5t46.5 57t72.5 36.5t95.5 13q52 0 94 -12t72 -34t46 -53t16 -70q0 -27 -8.5 -53.5t-24 -48t-37.5 -38t-48 -24.5q135 -39 135 -181q0 -99 -64 -154t-179 -55q-56 0 -101.5 14.5t-77.5 40.5t-49.5 63.5t-17.5 83.5
q0 72 32.5 114t96.5 62zM292 419q32 14 54.5 42t22.5 64q0 38 -24 61t-65 23q-42 0 -69.5 -24t-27.5 -59q0 -24 10 -40.5t26 -29t35.5 -21.5t37.5 -16zM265 308q-35 -17 -61.5 -43t-26.5 -69q0 -46 29 -75t77 -29q43 0 70 26t27 68q0 27 -10 47t-26 34t-36.5 24t-42.5 17z
" />
    <glyph glyph-name="nine" unicode="9" 
d="M91 126q30 -14 61 -21.5t57 -7.5q49 0 82 19t52 49.5t27 68.5t8 77q-20 -35 -57.5 -53t-76.5 -18q-52 0 -91 19.5t-64.5 52t-38 76t-12.5 91.5q0 109 62.5 170t174.5 61q72 0 118.5 -28.5t74 -75t38.5 -105.5t11 -120q0 -79 -15 -150.5t-50.5 -126t-94 -86.5t-145.5 -32
q-38 0 -71 6t-68 20zM370 471q0 28 -7.5 52.5t-20.5 42.5t-31 28t-39 10q-42 0 -67.5 -34.5t-25.5 -88.5q0 -60 27 -96t72 -36q40 0 66 34t26 88z" />
    <glyph glyph-name="colon" unicode=":" horiz-adv-x="278" 
d="M68 377v139h142v-139h-142zM68 139h142v-139h-142v139z" />
    <glyph glyph-name="semicolon" unicode=";" horiz-adv-x="278" 
d="M71 516h141v-139h-141v139zM228 139l-90 -250h-118l63 250h145z" />
    <glyph glyph-name="less" unicode="&#x3c;" horiz-adv-x="600" 
d="M40 312l520 200v-112l-382 -140l382 -140v-113l-520 200v105z" />
    <glyph glyph-name="equal" unicode="=" horiz-adv-x="600" 
d="M40 420h520v-102h-520v102zM40 201h520v-102h-520v102z" />
    <glyph glyph-name="greater" unicode="&#x3e;" horiz-adv-x="600" 
d="M40 7v113l383 140l-383 140v112l520 -200v-105z" />
    <glyph glyph-name="question" unicode="?" horiz-adv-x="500" 
d="M50 678q47 16 99.5 24.5t107.5 8.5q40 0 79.5 -9.5t71 -30.5t51.5 -55t20 -82q0 -43 -20.5 -79.5t-47.5 -67.5l-71 -81q-26 -29 -29 -55t-3 -51h-123q0 38 7.5 78t33.5 72l71 85q16 19 25 39.5t9 40.5q0 38 -30.5 62.5t-80.5 24.5q-36 0 -80.5 -12t-78.5 -30zM176 134
h140v-134h-140v134z" />
    <glyph glyph-name="at" unicode="@" horiz-adv-x="800" 
d="M715 92q-75 -57 -145.5 -81.5t-152.5 -24.5q-78 0 -146.5 25t-120 71.5t-81.5 112t-30 146.5q0 79 30 147t83 118t124.5 79t154.5 29q73 0 133.5 -21.5t104 -60.5t68 -92.5t24.5 -117.5q0 -51 -16.5 -97.5t-44 -82t-64 -56.5t-76.5 -21q-38 0 -60.5 19.5t-22.5 52.5
q0 5 0.5 8.5t1.5 9.5q-20 -41 -53.5 -65.5t-81.5 -24.5q-59 0 -95.5 41t-36.5 109q0 48 16 90.5t43 75t62.5 51.5t74.5 19q40 0 66.5 -15.5t43.5 -50.5l14 50h84l-65 -217q-10 -34 -10 -52q0 -41 40 -41q24 0 46.5 17t40.5 45.5t28.5 64.5t10.5 74q0 53 -20 96.5t-56 75
t-86.5 49t-111.5 17.5q-73 0 -135 -24.5t-107 -68t-70.5 -103.5t-25.5 -130q0 -66 24 -121.5t67 -95.5t102.5 -62.5t131.5 -22.5t135.5 22t131.5 72zM488 426q0 28 -15.5 46.5t-44.5 18.5t-51 -20t-37 -48.5t-22.5 -60t-7.5 -53.5q0 -39 16 -61.5t45 -22.5q28 0 49.5 23.5
t36.5 55.5t23 66.5t8 55.5z" />
    <glyph glyph-name="A" unicode="A" horiz-adv-x="722" 
d="M282 698h159l275 -698h-156l-58 160h-289l-59 -160h-147zM459 273l-101 286l-102 -286h203z" />
    <glyph glyph-name="B" unicode="B" horiz-adv-x="611" 
d="M74 698h241q42 0 82.5 -9t72 -29.5t51 -54.5t19.5 -85q0 -61 -35.5 -101.5t-101.5 -54.5q36 -3 65.5 -16.5t50.5 -36t32.5 -52t11.5 -64.5q0 -79 -50 -130q-24 -25 -52 -38t-58 -19t-61.5 -7t-64.5 -1h-203v698zM280 415q119 0 119 87q0 26 -10.5 43t-27.5 27t-39 14
t-45 4h-65v-175h68zM281 109q140 0 140 101q0 33 -12 53t-31.5 31t-45 14.5t-52.5 3.5h-68v-203h69z" />
    <glyph glyph-name="C" unicode="C" horiz-adv-x="611" 
d="M577 555q-34 16 -77 25t-80 9q-50 0 -90.5 -17t-69 -48t-44.5 -74.5t-16 -97.5t17 -98.5t48 -76t74 -48.5t96 -17q38 0 76 7t73 22l5 -125q-39 -12 -82 -17.5t-84 -5.5q-87 0 -156.5 24.5t-118 70.5t-75 111.5t-26.5 146.5t26.5 147.5t74 113t114.5 72t148 25.5
q48 0 92 -7t86 -22z" />
    <glyph glyph-name="D" unicode="D" horiz-adv-x="722" 
d="M82 698h160q48 0 93.5 -1.5t89 -10t83.5 -27.5t77 -53q49 -46 71.5 -106t22.5 -147q0 -154 -84 -247q-33 -37 -70 -58.5t-77.5 -32t-84 -13t-90.5 -2.5h-191v698zM223 110h38q58 0 97.5 8.5t72.5 28.5q47 28 73.5 82.5t26.5 121.5q0 106 -64 173q-18 18 -39 31t-47 21
t-60 11.5t-77 3.5h-21v-481z" />
    <glyph glyph-name="E" unicode="E" 
d="M81 698h414v-117h-272v-165h249v-114h-249v-185h274v-117h-416v698z" />
    <glyph glyph-name="F" unicode="F" horiz-adv-x="500" 
d="M79 698h390v-117h-248v-167h236v-114h-236v-300h-142v698z" />
    <glyph glyph-name="G" unicode="G" horiz-adv-x="722" 
d="M629 552q-17 8 -39.5 15.5t-47.5 13t-50.5 9t-46.5 3.5q-56 0 -101 -17t-76.5 -49t-49 -77t-17.5 -100q0 -54 17 -98t48 -75.5t75 -48.5t97 -17q19 0 44 3.5t41 8.5v169h-148v112h282v-373q-57 -18 -116.5 -27.5t-119.5 -9.5q-83 0 -151.5 23.5t-117.5 69.5t-75.5 112
t-26.5 152q0 82 28 147.5t79.5 112t125 71.5t164.5 25q48 0 97 -7t94 -22z" />
    <glyph glyph-name="H" unicode="H" horiz-adv-x="722" 
d="M80 698h142v-279h278v279h142v-698h-142v303h-278v-303h-142v698z" />
    <glyph glyph-name="I" unicode="I" horiz-adv-x="278" 
d="M68 698h142v-698h-142v698z" />
    <glyph glyph-name="J" unicode="J" horiz-adv-x="389" 
d="M320 698v-487q0 -106 -50 -161.5t-147 -55.5q-24 0 -51.5 4t-51.5 11l3 122q17 -5 34.5 -8t31.5 -3q28 0 45 9t27 24.5t13.5 36.5t3.5 45v463h142z" />
    <glyph glyph-name="K" unicode="K" horiz-adv-x="667" 
d="M82 698h142v-298l254 298h173l-289 -323l301 -375h-184l-255 326v-326h-142v698z" />
    <glyph glyph-name="L" unicode="L" horiz-adv-x="500" 
d="M79 698h142v-578h271v-120h-413v698z" />
    <glyph glyph-name="M" unicode="M" horiz-adv-x="944" 
d="M79 698h226l168 -530l172 530h221v-698h-134v582l-198 -582h-132l-193 582v-582h-130v698z" />
    <glyph glyph-name="N" unicode="N" horiz-adv-x="722" 
d="M74 698h170l277 -535v535h127v-698h-171l-277 535v-535h-126v698z" />
    <glyph glyph-name="O" unicode="O" horiz-adv-x="778" 
d="M49 351q0 84 24 151t68 114.5t107.5 72.5t143.5 25q82 0 145.5 -27t106 -75t64.5 -114.5t22 -146.5t-22.5 -147t-66.5 -115.5t-108 -75.5t-146 -27q-78 0 -140.5 25.5t-106.5 73t-67.5 115t-23.5 151.5zM391 96q42 0 76 18.5t59 52t38.5 80t13.5 102.5q0 58 -13.5 105
t-38.5 80.5t-59.5 52t-77.5 18.5q-42 0 -77 -18.5t-60 -52.5t-38.5 -81.5t-13.5 -105.5q0 -57 13.5 -103.5t38.5 -79t60.5 -50.5t78.5 -18z" />
    <glyph glyph-name="P" unicode="P" 
d="M69 698h193q48 0 83.5 -4t64.5 -15q59 -22 94 -74.5t35 -119.5q0 -59 -20 -100.5t-55 -67.5t-82 -38.5t-101 -12.5h-70v-266h-142v698zM211 374h40q72 0 106.5 26.5t34.5 82.5q0 35 -12.5 56t-33 32.5t-47.5 15.5t-57 4h-31v-217z" />
    <glyph glyph-name="Q" unicode="Q" horiz-adv-x="778" 
d="M714 -134h-173l-119 120q-14 -1 -24 -1h-18q-76 0 -137 25.5t-104 72.5t-66.5 113.5t-23.5 149.5q0 80 22 147t65 115t106.5 75t146.5 27q82 0 145.5 -26.5t106.5 -73.5t65.5 -113.5t22.5 -145.5q0 -51 -9.5 -101.5t-31.5 -94.5t-56.5 -80t-83.5 -58zM579 349
q0 56 -14 102.5t-38.5 79.5t-59 51.5t-76.5 18.5q-43 0 -78.5 -18t-60.5 -51t-39 -80t-14 -104q0 -58 13.5 -105t38.5 -80t60.5 -51t78.5 -18q52 0 88 23t58.5 60t32.5 82t10 90z" />
    <glyph glyph-name="R" unicode="R" horiz-adv-x="611" 
d="M331 698q27 0 51 -2.5t46 -8.5q27 -8 49 -24t38 -39t25 -50.5t9 -57.5q0 -70 -38 -113.5t-104 -54.5q21 -2 40.5 -20t31.5 -47l115 -281h-156l-86 223q-9 24 -19 37.5t-22.5 21t-29.5 9.5t-40 2h-29v-293h-142v698h261zM212 399h62q24 0 47.5 5t41.5 16.5t29 31t11 49.5
q0 42 -29 65t-80 23h-82v-190z" />
    <glyph glyph-name="S" unicode="S" 
d="M82 150q35 -20 76.5 -31.5t79.5 -11.5q59 0 92.5 25.5t33.5 69.5q0 20 -8.5 34t-24.5 25t-37.5 20.5l-48.5 21.5q-38 16 -71.5 32t-59.5 38.5t-41 54t-15 78.5q0 94 66.5 147t182.5 53q43 0 83.5 -7.5t81.5 -18.5l-13 -117q-30 14 -70 23.5t-74 9.5q-51 0 -82 -22
t-31 -58q0 -20 10.5 -35t28 -26.5t39.5 -21t45 -18.5q38 -16 72 -32t59.5 -38.5t40 -54.5t14.5 -79q0 -104 -70 -160.5t-198 -56.5q-44 0 -85 6.5t-89 21.5z" />
    <glyph glyph-name="T" unicode="T" 
d="M549 581h-200v-581h-142v581h-200v117h542v-117z" />
    <glyph glyph-name="U" unicode="U" horiz-adv-x="722" 
d="M219 698v-410q0 -38 4 -71.5t18 -59.5t42.5 -41t76.5 -15q46 0 75.5 14.5t45.5 40t22 59.5t6 73v410h136v-410q0 -35 -2 -68.5t-10.5 -65t-25.5 -59t-47 -50.5q-74 -57 -201 -57q-116 0 -192 47q-27 16 -44 36.5t-27.5 50.5t-14.5 73t-4 104v399h142z" />
    <glyph glyph-name="V" unicode="V" horiz-adv-x="667" 
d="M423 0h-173l-242 698h152l181 -547l179 547h140z" />
    <glyph glyph-name="W" unicode="W" horiz-adv-x="1000" 
d="M856 698h137l-183 -698h-181l-128 559l-126 -559h-182l-186 698h148l132 -540l120 540h191l125 -553z" />
    <glyph glyph-name="X" unicode="X" horiz-adv-x="667" 
d="M30 698h163l147 -246l150 246h151l-212 -333l231 -365h-166l-162 274l-164 -274h-160l231 365z" />
    <glyph glyph-name="Y" unicode="Y" horiz-adv-x="667" 
d="M265 0v280l-256 418h165l166 -291l169 291h149l-252 -418v-280h-141z" />
    <glyph glyph-name="Z" unicode="Z" 
d="M35 0v121l328 461h-315v116h467v-121l-329 -460h336v-117h-487z" />
    <glyph glyph-name="bracketleft" unicode="[" horiz-adv-x="333" 
d="M296 756v-93h-98v-710h98v-93h-221v896h221z" />
    <glyph glyph-name="backslash" unicode="\" horiz-adv-x="389" 
d="M270 -14l-255 728h103l256 -728h-104z" />
    <glyph glyph-name="bracketright" unicode="]" horiz-adv-x="333" 
d="M258 -140h-221v93h98v710h-98v93h221v-896z" />
    <glyph glyph-name="asciicircum" unicode="^" horiz-adv-x="600" 
d="M253 698h95l176 -427h-109l-118 291l-111 -291h-109z" />
    <glyph glyph-name="underscore" unicode="_" horiz-adv-x="500" 
d="M0 -75h500v-50h-500v50z" />
    <glyph glyph-name="grave" unicode="`" horiz-adv-x="278" 
d="M165 731l84 -144h-84l-136 144h136z" />
    <glyph glyph-name="a" unicode="a" 
d="M376 0l-3 76q-24 -45 -68 -64.5t-95 -19.5q-81 0 -127.5 43t-46.5 117q0 166 258 166q17 0 31.5 -0.5t42.5 -2.5v3q0 111 -114 111q-41 0 -83 -15t-77 -41l-3 114q37 19 86.5 27.5t90.5 8.5q29 0 60 -5t58.5 -16.5t50 -31t34.5 -49.5q5 -13 8.5 -26.5t5.5 -31.5t3 -42.5
t1 -59.5v-74q0 -30 0.5 -54l1 -46t1.5 -43l2 -44h-118zM370 234q-14 1 -21 1h-16q-166 0 -166 -87q0 -29 22.5 -47.5t57.5 -18.5t64.5 19.5t44.5 52.5q8 16 10.5 33t3.5 47z" />
    <glyph glyph-name="b" unicode="b" horiz-adv-x="611" 
d="M69 750h132v-309q32 43 69.5 63t92.5 20q97 0 152.5 -68.5t55.5 -190.5q0 -128 -56 -200t-156 -72q-52 0 -93.5 21t-68.5 61v-75h-128v750zM203 255q0 -27 6 -55t19.5 -51t35.5 -38t54 -15q33 0 54.5 15t35 38.5t19 52t5.5 55.5q0 74 -29 115.5t-82 41.5q-54 0 -86 -43
t-32 -116z" />
    <glyph glyph-name="c" unicode="c" horiz-adv-x="444" 
d="M422 16q-26 -9 -57 -13.5t-62 -4.5q-61 0 -110.5 18.5t-84 52t-53 81.5t-18.5 108q0 58 18.5 106.5t53 83t82.5 53.5t107 19q27 0 59.5 -4.5t55.5 -12.5l-12 -107q-16 8 -36.5 12.5t-43.5 4.5q-32 0 -59 -11.5t-46.5 -31.5t-30 -48t-10.5 -62q0 -35 10.5 -63.5
t29.5 -48.5t45.5 -31.5t58.5 -11.5q23 0 49.5 6t47.5 17l6 -112v0z" />
    <glyph glyph-name="d" unicode="d" horiz-adv-x="611" 
d="M410 750h132v-750h-127v75q-26 -39 -68.5 -60.5t-93.5 -21.5q-100 0 -156 72t-56 201q0 54 12 101t38 82t67 55t100 20q51 0 86 -19t66 -64v309zM290 414q-52 0 -81.5 -41.5t-29.5 -115.5q0 -26 5.5 -54.5t19 -52t35.5 -39t54 -15.5q33 0 55 14.5t35.5 38t19.5 51.5t6 55
q0 74 -32 116.5t-87 42.5z" />
    <glyph glyph-name="e" unicode="e" 
d="M168 215q1 -32 14 -55.5t33.5 -39t47 -23.5t55.5 -8q42 0 81.5 11.5t84.5 37.5v-110q-11 -8 -30.5 -15.5t-44 -13t-51.5 -9t-51 -3.5q-128 0 -198.5 71t-70.5 200q0 63 17.5 113t50.5 85.5t79.5 54.5t104.5 19q66 0 109.5 -24t70 -64t37.5 -92t11 -107v-14.5t-2 -13.5
h-348zM393 308q-4 63 -32.5 95.5t-80.5 32.5q-48 0 -78 -34t-35 -94h226z" />
    <glyph glyph-name="f" unicode="f" horiz-adv-x="389" 
d="M369 634q-23 12 -51 12q-24 0 -37.5 -8.5t-19.5 -22t-7.5 -31t-1.5 -35.5v-34h117v-101h-117v-414h-134v414h-99v101h99v62q0 37 8.5 69.5t29 56.5t55.5 38t89 14q20 0 41.5 -3t38.5 -8z" />
    <glyph glyph-name="g" unicode="g" horiz-adv-x="611" 
d="M413 515h129v-462q0 -61 -14.5 -111t-46.5 -86t-83 -55.5t-125 -19.5q-48 0 -91.5 8.5t-88.5 27.5l11 117q33 -20 76.5 -32.5t84.5 -12.5q50 0 80 18t46.5 45t21.5 59.5t5 61.5v30q-28 -51 -72.5 -77.5t-98.5 -26.5q-56 0 -95.5 23.5t-64.5 61t-36.5 85t-11.5 96.5
q0 58 15.5 106t43 82t67 52.5t87.5 18.5q55 0 98 -24t63 -66v81zM178 272q0 -75 30.5 -118t83.5 -43q26 0 48 11t37.5 31t24.5 47.5t9 60.5q0 34 -8.5 62.5t-24.5 49.5t-37.5 32.5t-47.5 11.5q-25 0 -46 -10.5t-36.5 -30t-24 -46t-8.5 -58.5z" />
    <glyph glyph-name="h" unicode="h" horiz-adv-x="611" 
d="M71 750h134v-309q31 41 70.5 61.5t92.5 20.5q58 0 93 -20t53.5 -52t24 -71t5.5 -77v-303h-134v260q0 25 -1.5 52t-10 49.5t-27 37.5t-51.5 15q-35 0 -57 -15t-35 -38t-18 -52.5t-5 -57.5v-251h-134v750z" />
    <glyph glyph-name="i" unicode="i" horiz-adv-x="278" 
d="M72 611v126h134v-126h-134zM72 515h134v-515h-134v515z" />
    <glyph glyph-name="j" unicode="j" horiz-adv-x="278" 
d="M74 735h134v-126h-134v126zM-9 -111q3 -1 7 -1h8q24 0 37.5 8t20 22t8.5 31.5t2 37.5v528h134v-546q0 -185 -167 -185q-15 0 -28 2t-27 7z" />
    <glyph glyph-name="k" unicode="k" 
d="M74 0v750h134v-441l162 206h158l-192 -230l216 -285h-170l-174 250v-250h-134z" />
    <glyph glyph-name="l" unicode="l" horiz-adv-x="278" 
d="M72 750h134v-750h-134v750z" />
    <glyph glyph-name="m" unicode="m" horiz-adv-x="889" 
d="M194 436q26 42 68 64.5t94 22.5q103 0 144 -91q10 23 28 40t40.5 28.5t47.5 17.5t49 6q53 0 84.5 -20.5t48 -51t21.5 -67t5 -68.5v-317h-134v284q0 21 -1.5 43.5t-9 41t-23.5 31t-44 12.5q-32 0 -51.5 -15.5t-30 -39t-14 -51.5t-3.5 -52v-254h-134v309q0 48 -20.5 75.5
t-55.5 27.5q-30 0 -49.5 -15t-31 -38t-16 -50t-4.5 -51v-258h-134v413q0 26 -1 51t-3 51h127z" />
    <glyph glyph-name="n" unicode="n" horiz-adv-x="611" 
d="M197 436q54 87 166 87q51 0 85.5 -15.5t56 -42.5t30.5 -64.5t9 -82.5v-318h-134v258q0 24 -1.5 51.5t-9.5 51.5t-26 39.5t-51 15.5q-35 0 -58 -14.5t-36 -37.5t-18 -52t-5 -58v-254h-134v446q0 11 -0.5 19l-1 15.5t-1.5 15.5t-2 19h127z" />
    <glyph glyph-name="o" unicode="o" horiz-adv-x="611" 
d="M573 254q0 -60 -19.5 -109t-54.5 -84.5t-84.5 -55t-109.5 -19.5q-59 0 -108.5 20t-85 55.5t-55 85.5t-19.5 110q0 61 19.5 111t55 86t85 56t109.5 20t109 -20t84 -56t54.5 -87t19.5 -113zM178 257q0 -30 6.5 -60t21.5 -54t39 -39.5t59 -15.5q60 0 95 46t35 126
q0 79 -34 124t-93 45q-37 0 -61.5 -15t-39.5 -39.5t-21.5 -55.5t-6.5 -62z" />
    <glyph glyph-name="p" unicode="p" horiz-adv-x="611" 
d="M206 -210h-134v575q0 38 -1 75.5t-3 74.5h129l3 -80q27 44 68.5 66.5t94.5 22.5q49 0 88.5 -18t67 -51.5t42 -81.5t14.5 -108q0 -128 -57.5 -200t-159.5 -72q-103 0 -152 78v-281zM206 254q0 -71 31.5 -114t84.5 -43t83.5 44.5t30.5 120.5q0 71 -28.5 111.5t-78.5 40.5
q-57 0 -90 -43t-33 -117z" />
    <glyph glyph-name="q" unicode="q" horiz-adv-x="611" 
d="M412 515h130q-2 -36 -3.5 -74.5t-1.5 -75.5v-575h-133v281q-23 -38 -62 -58t-90 -20q-103 0 -160 72t-57 200q0 60 14.5 108t42 81.5t66.5 51.5t88 18q107 0 164 -89zM280 414q-50 0 -78.5 -40.5t-28.5 -112.5q0 -75 32 -119.5t86 -44.5q53 0 83.5 42t30.5 115
q0 72 -34 116t-91 44z" />
    <glyph glyph-name="r" unicode="r" horiz-adv-x="389" 
d="M189 515l2 -131q6 28 18.5 52.5t31 43t43 29.5t54.5 11q21 0 37 -4v-126q-15 8 -41 8q-36 0 -60.5 -14t-39.5 -36.5t-22 -51.5t-7 -59v-237h-134v433q0 15 -0.5 25t-1 19t-1.5 17.5t-2 20.5h123z" />
    <glyph glyph-name="s" unicode="s" horiz-adv-x="444" 
d="M48 125q77 -32 130 -32q45 0 68.5 15.5t23.5 44.5q0 15 -5.5 24t-16 15t-25 10.5l-31.5 9.5q-31 9 -58.5 20.5t-48.5 29.5t-33 43.5t-12 62.5q0 35 14.5 64t41.5 50t65 32.5t84 11.5q35 0 69.5 -6t68.5 -14l-9 -102q-32 12 -58.5 17.5t-51.5 5.5q-42 0 -67 -15.5
t-25 -39.5q0 -14 8.5 -23t22.5 -16t32.5 -12t38.5 -12q29 -10 53 -21.5t41.5 -29t27 -42t9.5 -60.5q0 -45 -17.5 -76.5t-46.5 -51t-66.5 -28.5t-77.5 -9t-77.5 5.5t-79.5 17.5z" />
    <glyph glyph-name="t" unicode="t" horiz-adv-x="389" 
d="M15 415v100h98v103l134 43v-146h118v-100h-118v-209q0 -21 2.5 -40t10 -33.5t22.5 -22.5t41 -8q12 0 23.5 2t24.5 6l4 -106q-20 -6 -44.5 -9.5t-48.5 -3.5q-52 0 -85 15.5t-51.5 41t-25.5 58.5t-7 68v241h-98z" />
    <glyph glyph-name="u" unicode="u" horiz-adv-x="611" 
d="M202 515v-263q0 -22 1.5 -48t10 -48.5t27 -38t52.5 -15.5q37 0 58.5 17t33 41t14.5 51t3 47v257h134v-366q0 -38 2.5 -74.5t4.5 -74.5h-129l-4 79q-24 -42 -67 -64t-99 -22q-51 0 -84.5 14.5t-54 40.5t-29 62.5t-8.5 80.5v324h134z" />
    <glyph glyph-name="v" unicode="v" 
d="M354 0h-151l-191 515h144l129 -376l125 376h134z" />
    <glyph glyph-name="w" unicode="w" horiz-adv-x="889" 
d="M720 0h-158l-113 394l-111 -394h-153l-174 515h142l115 -381l105 381h156l113 -381l108 381h128z" />
    <glyph glyph-name="x" unicode="x" 
d="M27 515h159l100 -168l100 168h141l-154 -246l174 -269h-161l-114 192l-116 -192h-148l178 269z" />
    <glyph glyph-name="y" unicode="y" 
d="M545 515l-207 -551q-14 -36 -30.5 -69t-39.5 -57.5t-55 -39.5t-76 -15q-21 0 -47.5 4t-46.5 10l9 100q16 -5 32.5 -7.5t32.5 -2.5q34 0 59.5 24t34.5 62l-200 542h148l125 -378l125 378h136z" />
    <glyph glyph-name="z" unicode="z" horiz-adv-x="500" 
d="M455 515v-109l-256 -302h266v-104h-429v104l261 307h-250v104h408z" />
    <glyph glyph-name="braceleft" unicode="{" horiz-adv-x="333" 
d="M339 -140q-64 3 -106 17.5t-67 41t-35.5 65t-10.5 89.5v66q0 31 -6 55t-20.5 40.5t-38.5 27t-61 14.5v64q37 4 61 14.5t38.5 27t20.5 40.5t6 55v66q0 51 10.5 89.5t35.5 65t67 41t106 17.5v-64q-66 -6 -90.5 -41t-24.5 -97v-68q0 -33 -5.5 -63.5t-20.5 -54.5t-43 -40
t-73 -20q45 -4 73 -20t43 -40t20.5 -54.5t5.5 -63.5v-68q0 -62 24.5 -97t90.5 -41v-64v0z" />
    <glyph glyph-name="bar" unicode="|" horiz-adv-x="222" 
d="M58 786h106v-1000h-106v1000z" />
    <glyph glyph-name="braceright" unicode="}" horiz-adv-x="333" 
d="M339 276q-37 -4 -61 -14.5t-38.5 -27t-20.5 -40.5t-6 -55v-66q0 -51 -10.5 -89.5t-35.5 -65t-67 -41t-106 -17.5v64q66 6 90.5 41t24.5 97v68q0 33 5.5 63.5t20.5 54.5t43 40t73 20q-45 4 -73 20t-43 40t-20.5 54.5t-5.5 63.5v68q0 62 -24.5 97t-90.5 41v64
q64 -3 106 -17.5t67 -41t35.5 -65t10.5 -89.5v-66q0 -31 6 -55t20.5 -40.5t38.5 -27t61 -14.5v-64v0z" />
    <glyph glyph-name="asciitilde" unicode="~" horiz-adv-x="600" 
d="M568 343q-9 -82 -46 -124.5t-100 -42.5q-30 0 -65.5 11t-64.5 21q-13 4 -30 10.5t-34.5 12.5t-34 10t-28.5 4q-24 0 -42 -19t-23 -50h-68q3 32 12.5 62t27 53.5t43.5 38t62 14.5q13 0 31 -4t36.5 -9.5l35.5 -11l29 -9.5q30 -9 62.5 -21t64.5 -12q52 0 64 66h68v0z" />
    <glyph glyph-name="uni00A0" unicode="&#xa0;" horiz-adv-x="278" 
 />
    <glyph glyph-name="sterling" unicode="&#xa3;" 
d="M54 106h88v222h-76v76h76q-1 11 -1 18v14q0 126 61.5 196.5t196.5 70.5q31 0 60.5 -4t55.5 -12l-7 -113q-23 8 -48.5 12.5t-46.5 4.5q-63 0 -96.5 -41t-33.5 -120v-26h148v-76h-148v-222h225v-106h-454v106z" />
    <glyph glyph-name="currency" unicode="&#xa4;" 
d="M98 229q-18 29 -27 56.5t-9 62.5q0 64 36 119l-67 67l61 61l67 -67q24 18 57 27t62 9q33 0 62.5 -9.5t57.5 -26.5l65 67l61 -61l-66 -67q17 -23 26.5 -54.5t9.5 -64.5t-9 -61.5t-27 -56.5l66 -67l-61 -61l-67 66q-26 -17 -56 -26.5t-62 -9.5q-66 0 -119 36l-67 -66
l-61 61zM278 472q-26 0 -48.5 -9.5t-39.5 -26.5t-26.5 -39.5t-9.5 -48.5t9.5 -48.5t26.5 -39t39.5 -26.5t48.5 -10q25 0 48 10t39.5 26.5t26.5 39t10 48.5t-10 48.5t-26.5 39.5t-39.5 26.5t-48 9.5z" />
    <glyph glyph-name="section" unicode="&#xa7;" 
d="M85 5q16 -8 37 -15.5t43 -12.5t44 -8t40 -3q51 0 77.5 18t26.5 51q0 26 -16.5 39t-37.5 22l-97 41q-27 11 -51 24t-42 31t-29 42t-11 57q0 42 18.5 73t52.5 54q-66 43 -66 116q0 39 15.5 71t44 55t67.5 36t86 13q40 0 81 -6.5t80 -14.5l-11 -109q-32 14 -70 21.5t-73 7.5
q-46 0 -72.5 -17.5t-26.5 -47.5q0 -51 90 -82l65 -23q28 -10 53 -23t43.5 -31.5t29.5 -43t11 -58.5q0 -40 -20 -74t-53 -51q64 -43 64 -116q0 -46 -19 -79.5t-50.5 -56t-71 -33.5t-79.5 -11q-46 0 -92 7.5t-90 21.5zM348 193q36 28 36 67q0 22 -9.5 36.5t-24 24.5t-32 17
l-34.5 14l-81 32q-15 -13 -25.5 -32t-10.5 -36q0 -18 8 -31t20 -22.5t26.5 -16.5t28.5 -13l98 -40v0z" />
    <glyph glyph-name="copyright" unicode="&#xa9;" horiz-adv-x="800" 
d="M400 710q75 0 141 -28.5t115 -77.5t77.5 -115t28.5 -141t-28.5 -141t-77.5 -115t-115 -77.5t-141 -28.5t-141 28.5t-115 77.5t-77.5 115t-28.5 141t28.5 140.5t77.5 115t115 78t141 28.5zM580 283q-3 -32 -17.5 -59t-37 -46.5t-52.5 -30.5t-64 -11q-43 0 -79.5 16
t-63 44.5t-41.5 67t-15 84.5q0 47 14 86t39.5 67.5t60.5 44.5t77 16q36 0 67.5 -11.5t55 -31.5t38 -47.5t16.5 -60.5h-77q-8 40 -34 62.5t-65 22.5q-50 0 -79.5 -39.5t-29.5 -105.5q0 -69 30.5 -109t83.5 -40q38 0 62.5 20.5t32.5 60.5h78v0zM692 348q0 60 -23 113.5
t-62.5 93t-93 62.5t-113.5 23t-113.5 -23t-93 -62.5t-62.5 -93t-23 -113.5q0 -61 23 -114t62.5 -92.5t92.5 -62.5t114 -23q60 0 113.5 23t93 62.5t62.5 92.5t23 114z" />
    <glyph glyph-name="guillemotleft" unicode="&#xab;" 
d="M516 53h-124l-118 205l118 205h124l-107 -205zM165 463h125l-108 -205l108 -205h-125l-118 205z" />
    <glyph glyph-name="logicalnot" unicode="&#xac;" horiz-adv-x="600" 
d="M40 420h520v-321h-103v219h-417v102z" />
    <glyph glyph-name="registered" unicode="&#xae;" horiz-adv-x="400" 
d="M200 714q37 0 70 -14t58 -39t39 -58t14 -70q0 -38 -14 -70.5t-39 -57.5t-58 -39t-70 -14q-38 0 -70.5 14t-57.5 39t-39 57.5t-14 70.5q0 37 14 70t39 57.5t57.5 39t70.5 14.5zM196 634q26 0 42 -4t27 -12q20 -14 20 -43q0 -35 -37 -48q20 -8 26.5 -21t7.5 -46
q0 -11 1 -15.5t4 -11.5h-47q-2 7 -3 11.5t-1 16.5q-1 30 -9 38.5t-36 8.5h-20v-75h-47v201h72zM194 544q44 0 44 26q0 27 -44 27h-23v-53h23zM56 533q0 -30 11.5 -56.5t31 -46t45.5 -31t56 -11.5t56 11.5t45.5 31t31 46t11.5 56.5t-11.5 56t-31 45.5t-45.5 31t-56 11.5
t-56 -11.5t-45.5 -31t-31 -45.5t-11.5 -56z" />
    <glyph glyph-name="degree" unicode="&#xb0;" horiz-adv-x="400" 
d="M200 707q34 0 63.5 -13t51.5 -35t35 -51.5t13 -63.5q0 -33 -13 -62.5t-35 -51.5t-51.5 -35t-63.5 -13t-63.5 13t-51.5 35t-35 51.5t-13 62.5q0 34 13 63.5t35 51.5t51.5 35t63.5 13zM200 621q-32 0 -54 -22.5t-22 -54.5t22 -54t54 -22t54 22t22 54t-22 54.5t-54 22.5z
" />
    <glyph glyph-name="plusminus" unicode="&#xb1;" horiz-adv-x="600" 
d="M246 275h-206v101h206v160h108v-160h206v-101h-206v-157h-108v157zM40 84h520v-101h-520v101z" />
    <glyph glyph-name="mu" unicode="&#xb5;" horiz-adv-x="611" 
d="M415 0v70q-23 -38 -49 -59t-72 -21q-18 0 -33 5t-26 11.5t-19.5 14t-12.5 13.5v-244h-134v725h134v-244q0 -31 1 -63t10 -58t28.5 -42.5t55.5 -16.5q37 0 59.5 20t33.5 49t14.5 61.5t3.5 58.5v235h133v-515h-127z" />
    <glyph glyph-name="paragraph" unicode="&#xb6;" horiz-adv-x="620" 
d="M529 617v-813h-98v813h-109v-813h-99v429q-94 8 -146.5 66.5t-52.5 156.5q0 56 18 100.5t52 76t82 48.5t108 17h299v-81h-54z" />
    <glyph glyph-name="periodcentered" unicode="&#xb7;" horiz-adv-x="278" 
d="M68 364h142v-139h-142v139z" />
    <glyph glyph-name="guillemotright" unicode="&#xbb;" 
d="M38 463h124l118 -205l-118 -205h-124l108 205zM389 53h-125l109 205l-109 205h125l118 -205z" />
    <glyph glyph-name="divide" unicode="&#xf7;" horiz-adv-x="600" 
d="M40 310h520v-101h-520v101zM239 142h123v-134h-123v134zM239 511h123v-135h-123v135z" />
    <glyph glyph-name="florin" unicode="&#x192;" 
d="M28 -101q9 -3 20.5 -4t23.5 -1q27 0 42 10t24 25.5t13 36l8 41.5l63 320h-113l15 83h114l5 27q10 54 20.5 104t33 88.5t61.5 61.5t106 23q19 0 43.5 -3t39.5 -7l-18 -106q-11 3 -23.5 5t-23.5 2q-20 0 -34 -5.5t-24.5 -19t-18 -36.5t-14.5 -57l-15 -77h121l-13 -83h-124
l-61 -321q-9 -46 -21.5 -85.5t-35 -68.5t-58 -45.5t-90.5 -16.5q-20 0 -45.5 3t-40.5 7z" />
    <glyph glyph-name="endash" unicode="&#x2013;" horiz-adv-x="500" 
d="M500 316v-90h-500v90h500z" />
    <glyph glyph-name="emdash" unicode="&#x2014;" horiz-adv-x="1000" 
d="M1000 316v-90h-1000v90h1000z" />
    <glyph glyph-name="quoteleft" unicode="&#x2018;" horiz-adv-x="278" 
d="M244 698l-62 -250h-145l88 250h119z" />
    <glyph glyph-name="quoteright" unicode="&#x2019;" horiz-adv-x="278" 
d="M244 698l-91 -250h-118l64 250h145z" />
    <glyph glyph-name="quotesinglbase" unicode="&#x201a;" horiz-adv-x="278" 
d="M247 139l-91 -250h-118l64 250h145z" />
    <glyph glyph-name="quotedblleft" unicode="&#x201c;" horiz-adv-x="481" 
d="M244 698l-64 -250h-143l90 250h117zM447 698l-64 -250h-144l91 250h117z" />
    <glyph glyph-name="quotedblright" unicode="&#x201d;" horiz-adv-x="481" 
d="M36 448l64 250h144l-91 -250h-117zM239 448l64 250h143l-90 -250h-117z" />
    <glyph glyph-name="quotedblbase" unicode="&#x201e;" horiz-adv-x="481" 
d="M239 -111l64 250h143l-90 -250h-117zM36 -111l64 250h144l-91 -250h-117z" />
    <glyph glyph-name="dagger" unicode="&#x2020;" 
d="M61 534h155v164h123v-164h155v-107h-155v-427h-123v427h-155v107z" />
    <glyph glyph-name="daggerdbl" unicode="&#x2021;" 
d="M61 270h155v157h-155v107h155v164h123v-164h155v-107h-155v-157h155v-107h-155v-163h-123v163h-155v107z" />
    <glyph glyph-name="bullet" unicode="&#x2022;" horiz-adv-x="500" 
d="M250 521q36 0 67.5 -13.5t55.5 -37.5t37.5 -55.5t13.5 -67.5t-13.5 -67.5t-37.5 -55t-55.5 -37t-67.5 -13.5t-67.5 13.5t-55.5 37t-37.5 55t-13.5 67.5t13.5 67.5t37.5 55.5t55.5 37.5t67.5 13.5z" />
    <glyph glyph-name="ellipsis" unicode="&#x2026;" horiz-adv-x="1000" 
d="M105 134h123v-134h-123v134zM438 134h123v-134h-123v134zM771 134h123v-134h-123v134z" />
    <glyph glyph-name="perthousand" unicode="&#x2030;" horiz-adv-x="1000" 
d="M154 -20h-82l429 751h82zM851 336q40 0 67 -14t43 -38t22.5 -56t6.5 -67q0 -84 -36 -127.5t-104 -43.5q-140 0 -140 176q0 35 7.5 66t24 54t43.5 36.5t66 13.5zM850 65q17 0 26 11.5t13 27t4.5 32.5t0.5 29q0 11 -0.5 27t-4.5 31t-13 25.5t-25 10.5q-17 0 -26.5 -12.5
t-13.5 -30t-4.5 -35.5t-0.5 -30q0 -45 10.5 -65.5t33.5 -20.5zM514 336q40 0 67 -14t43 -38t22.5 -56t6.5 -67q0 -84 -36 -127.5t-104 -43.5q-140 0 -140 176q0 35 7.5 66t24 54t43.5 36.5t66 13.5zM513 65q17 0 26 11.5t13 27t4.5 32.5t0.5 29q0 11 -0.5 27t-4.5 31
t-13 25.5t-25 10.5q-17 0 -26.5 -12.5t-13.5 -30t-4.5 -35.5t-0.5 -30q0 -45 10.5 -65.5t33.5 -20.5zM148 721q40 0 67 -14t43 -38t22.5 -56t6.5 -67q0 -84 -36 -127.5t-104 -43.5q-140 0 -140 176q0 35 7.5 66t24 54t43.5 36.5t66 13.5zM147 450q17 0 26 11.5t13 27
t4.5 32.5t0.5 29q0 11 -0.5 27t-4.5 31t-13 25.5t-25 10.5q-17 0 -26.5 -12.5t-13.5 -30t-4.5 -35.5t-0.5 -30q0 -45 10.5 -65.5t33.5 -20.5z" />
    <glyph glyph-name="guilsinglleft" unicode="&#x2039;" horiz-adv-x="333" 
d="M167 463h126l-110 -205l110 -205h-126l-118 205z" />
    <glyph glyph-name="guilsinglright" unicode="&#x203a;" horiz-adv-x="333" 
d="M167 53h-127l110 205l-110 205h127l118 -205z" />
    <glyph glyph-name="trademark" unicode="&#x2122;" horiz-adv-x="1000" 
d="M221 641h-114v57h300v-57h-112v-299h-74v299zM464 698h110l87 -245l87 245h108v-356h-67v290l-101 -290h-56l-101 290v-290h-67v356z" />
    <glyph glyph-name="Delta" unicode="&#x2206;" horiz-adv-x="667" 
d="M656 0h-645l263 698h106zM510 95l-184 483l-175 -483h359z" />
    <glyph glyph-name="radical" unicode="&#x221a;" horiz-adv-x="537" 
d="M334 -214h-101l-154 319l-49 -23l-40 85l143 65l132 -281l171 835h110z" />
    <glyph glyph-name="infinity" unicode="&#x221e;" horiz-adv-x="800" 
d="M401 317q19 22 39.5 43.5t44.5 38t51 27t58 10.5q37 0 67 -13t52 -36t34 -55t12 -71q0 -40 -12 -72.5t-34 -56t-52 -36.5t-67 -13q-32 0 -58.5 9.5t-49.5 25t-44 36l-41 41.5q-19 -21 -40 -41t-44.5 -35.5t-50.5 -25t-57 -9.5q-37 0 -67.5 13t-52.5 36t-34.5 55t-12.5 71
t12 71.5t33.5 55.5t52 36t66.5 13q33 0 60.5 -9.5t50.5 -26t43.5 -37.5t40.5 -45zM456 257q13 -14 28.5 -29t33.5 -27t37 -19.5t40 -7.5q35 0 56.5 23t21.5 61q0 39 -22 63t-58 24q-19 0 -38 -8.5t-37 -22t-34 -29t-28 -28.5zM346 257l-30 28.5t-34 28.5t-37 21.5t-39 8.5
q-34 0 -56 -24.5t-22 -61.5q0 -38 22 -60.5t59 -22.5q18 0 37.5 7.5t37.5 19.5t34 26.5t28 28.5z" />
    <glyph glyph-name="approxequal" unicode="&#x2248;" horiz-adv-x="600" 
d="M568 444q-9 -82 -46 -124.5t-100 -42.5q-30 0 -65.5 11t-64.5 21q-13 4 -30 10.5t-34.5 12.5t-34 10t-28.5 4q-24 0 -42 -19t-23 -50h-68q3 32 12.5 62t27 53.5t43.5 38t62 14.5q13 0 31 -4t36.5 -9.5l35.5 -11l29 -9.5q30 -9 62.5 -21t64.5 -12q52 0 64 66h68v0z
M568 242q-9 -82 -46 -124.5t-100 -42.5q-30 0 -65.5 11t-64.5 21q-13 4 -30 10.5t-34.5 12.5t-34 10t-28.5 4q-24 0 -42 -19t-23 -50h-68q3 32 12.5 62t27 53.5t43.5 38t62 14.5q13 0 31 -4t36.5 -9.5l35.5 -11l29 -9.5q30 -9 62.5 -21t64.5 -12q52 0 64 66h68v0z" />
    <glyph glyph-name="notequal" unicode="&#x2260;" horiz-adv-x="600" 
d="M274 318h-234v102h286l77 152l89 -46l-55 -106h123v-102h-174l-60 -117h234v-102h-286l-77 -152l-89 46l55 106h-123v102h174z" />
    <glyph glyph-name="lessequal" unicode="&#x2264;" horiz-adv-x="600" 
d="M40 375l520 179v-107l-381 -123l381 -117v-107l-520 173v102zM560 66v-101h-520v101h520z" />
    <glyph glyph-name="greaterequal" unicode="&#x2265;" horiz-adv-x="600" 
d="M40 100v107l381 117l-381 123v107l520 -179v-102zM560 -35h-520v101h520v-101z" />
    <glyph glyph-name="uniF8FF" unicode="&#xf8ff;" horiz-adv-x="512" 
d="M222 117v67h56v-67h-56zM225 234l-2 17q0 56 13 81q7 13 18 27.5t28 31.5q16 15 26 26.5t15 21t7 18t2 17.5q0 36 -22.5 60.5t-53.5 24.5t-53.5 -22t-28.5 -73l-50 8q7 72 44 104.5t91 32.5t89 -35.5t35 -95.5q0 -32 -12.5 -58.5t-50.5 -61.5q-37 -33 -43 -52
q-6 -20 -6 -72h-46zM462 50v617h-412v-617h412zM512 718v-718h-512v718h512z" />
    <glyph glyph-name="brokenbar" unicode="&#xa6;" horiz-adv-x="222" 
d="M58 161h106v-250h-106v250zM58 661h106v-250h-106v250z" />
    <glyph glyph-name="uni00AD" unicode="&#xad;" horiz-adv-x="333" 
d="M35 324h263v-111h-263v111z" />
    <glyph glyph-name="uni0394" unicode="&#x394;" horiz-adv-x="667" 
d="M656 0h-645l263 698h106zM510 95l-184 483l-175 -483h359z" />
    <glyph glyph-name="afii10023" unicode="&#x401;" 
d="M81 698h414v-117h-272v-165h249v-114h-249v-185h274v-117h-416v698zM437 767h-113v116h113v-116zM121 883h113v-116h-113v116z" />
    <glyph glyph-name="afii10051" unicode="&#x402;" horiz-adv-x="760" 
d="M731 206q0 -75 -19.5 -132t-54 -95.5t-82.5 -58t-104 -19.5q-24 0 -44.5 4t-34.5 6l7 118q8 -3 25.5 -5.5t28.5 -2.5q67 0 99.5 46t32.5 133q0 30 -6 59t-20.5 52.5t-39 37.5t-61.5 14q-58 0 -93.5 -47t-35.5 -126v-190h-142v581h-180v117h542v-117h-220v-190
q8 13 22.5 28t35.5 27t47.5 20t58.5 8q59 0 103.5 -21.5t74.5 -58.5t45 -85.5t15 -102.5z" />
    <glyph glyph-name="afii10052" unicode="&#x403;" horiz-adv-x="500" 
d="M85 698h406v-117h-264v-581h-142v698zM249 745h-79l83 144h137z" />
    <glyph glyph-name="afii10053" unicode="&#x404;" horiz-adv-x="611" 
d="M589 13q-39 -12 -82 -17.5t-84 -5.5q-87 0 -156.5 25t-118 71.5t-75 112.5t-26.5 147t26.5 148t74 114.5t114.5 73.5t148 26q48 0 92 -7t86 -22l-11 -118q-34 16 -77 25t-80 9q-84 0 -140 -48.5t-73 -129.5h273v-110h-277q7 -45 26.5 -82t49.5 -63t69.5 -40.5t86.5 -14.5
q38 0 76 7t73 22l5 -123v0z" />
    <glyph glyph-name="afii10054" unicode="&#x405;" 
d="M82 150q35 -20 76.5 -31.5t79.5 -11.5q59 0 92.5 25.5t33.5 69.5q0 20 -8.5 34t-24.5 25t-37.5 20.5l-48.5 21.5q-38 16 -71.5 32t-59.5 38.5t-41 54t-15 78.5q0 94 66.5 147t182.5 53q43 0 83.5 -7.5t81.5 -18.5l-13 -117q-30 14 -70 23.5t-74 9.5q-51 0 -82 -22
t-31 -58q0 -20 10.5 -35t28 -26.5t39.5 -21t45 -18.5q38 -16 72 -32t59.5 -38.5t40 -54.5t14.5 -79q0 -104 -70 -160.5t-198 -56.5q-44 0 -85 6.5t-89 21.5z" />
    <glyph glyph-name="afii10055" unicode="&#x406;" horiz-adv-x="278" 
d="M68 698h142v-698h-142v698z" />
    <glyph glyph-name="afii10056" unicode="&#x407;" horiz-adv-x="278" 
d="M210 0h-141v698h141v-698zM294 767h-113v116h113v-116zM97 767h-113v116h113v-116z" />
    <glyph glyph-name="afii10057" unicode="&#x408;" horiz-adv-x="389" 
d="M320 698v-487q0 -106 -50 -161.5t-147 -55.5q-24 0 -51.5 4t-51.5 11l3 122q17 -5 34.5 -8t31.5 -3q28 0 45 9t27 24.5t13.5 36.5t3.5 45v463h142z" />
    <glyph glyph-name="afii10058" unicode="&#x409;" horiz-adv-x="1000" 
d="M306 581v-253q0 -65 -9 -125t-31.5 -106.5t-60 -74.5t-93.5 -28q-26 0 -51 4t-51 10l4 118q13 -4 29 -7t33 -3q28 0 45.5 18.5t27.5 50t13.5 72t3.5 84.5v357h446v-271h101q56 0 102 -13t78.5 -40t50.5 -68t18 -98t-20.5 -96.5t-55 -64t-80 -36t-95.5 -11.5h-241v581
h-164zM815 216q0 30 -11 49t-29.5 29.5t-42.5 14.5t-50 4h-70v-199h70q27 0 51 4.5t42.5 16t29 31.5t10.5 50z" />
    <glyph glyph-name="afii10059" unicode="&#x40a;" horiz-adv-x="1000" 
d="M222 313v-313h-142v698h142v-271h248v271h142v-271h101q56 0 102 -13t78.5 -40t50.5 -68t18 -98t-20.5 -96.5t-55 -64t-80 -36t-95.5 -11.5h-241v313h-248zM815 216q0 30 -11 49t-29.5 29.5t-42.5 14.5t-50 4h-70v-199h70q27 0 51 4.5t42.5 16t29 31.5t10.5 50z" />
    <glyph glyph-name="afii10060" unicode="&#x40b;" horiz-adv-x="760" 
d="M545 0v210q0 25 -1.5 52t-10 49.5t-27 37.5t-51.5 15q-35 0 -59 -15t-39 -38t-21.5 -52.5t-6.5 -57.5v-201h-142v581h-180v117h542v-117h-220v-190q62 82 169 82q58 0 95 -20t58 -52t29 -71t8 -77v-253h-143z" />
    <glyph glyph-name="afii10061" unicode="&#x40c;" horiz-adv-x="667" 
d="M82 698h142v-298l254 298h173l-289 -323l301 -375h-184l-255 326v-326h-142v698zM359 745h-79l83 144h137z" />
    <glyph glyph-name="afii10062" unicode="&#x40e;" horiz-adv-x="667" 
d="M500 840q-33 -40 -72 -67t-94 -27q-29 0 -52.5 6.5t-43.5 19t-37.5 30t-33.5 38.5l50 52q26 -29 51 -44t66 -15q40 0 65 15t51 44l50 -52v0zM160 698l177 -365l173 365h150l-271 -539q-13 -26 -29 -55t-39.5 -53t-55.5 -40t-77 -16q-26 0 -53.5 4t-44.5 10l11 107
q12 -5 27.5 -8.5t41.5 -3.5q28 0 49.5 16t37.5 54l8 19l-258 505h153z" />
    <glyph glyph-name="afii10145" unicode="&#x40f;" horiz-adv-x="722" 
d="M437 0v-180h-138v180h-218v698h142v-581h276v581h142v-698h-204z" />
    <glyph glyph-name="afii10017" unicode="&#x410;" horiz-adv-x="722" 
d="M282 698h159l275 -698h-156l-58 160h-289l-59 -160h-147zM459 273l-101 286l-102 -286h203z" />
    <glyph glyph-name="afii10018" unicode="&#x411;" horiz-adv-x="611" 
d="M506 698v-114h-281v-155h92q56 0 102 -13t78.5 -40t50.5 -68.5t18 -98.5t-20.5 -96.5t-55 -64.5t-80 -36.5t-95.5 -11.5h-232v698h423zM420 217q0 30 -11 49.5t-29.5 30t-42.5 14.5t-50 4h-62v-201h62q27 0 51 4.5t42.5 16.5t29 32t10.5 50z" />
    <glyph glyph-name="afii10019" unicode="&#x412;" horiz-adv-x="611" 
d="M74 698h241q42 0 82.5 -9t72 -29.5t51 -54.5t19.5 -85q0 -61 -35.5 -101.5t-101.5 -54.5q36 -3 65.5 -16.5t50.5 -36t32.5 -52t11.5 -64.5q0 -79 -50 -130q-24 -25 -52 -38t-58 -19t-61.5 -7t-64.5 -1h-203v698zM280 415q119 0 119 87q0 26 -10.5 43t-27.5 27t-39 14
t-45 4h-65v-175h68zM281 109q140 0 140 101q0 33 -12 53t-31.5 31t-45 14.5t-52.5 3.5h-68v-203h69z" />
    <glyph glyph-name="afii10020" unicode="&#x413;" horiz-adv-x="500" 
d="M85 698h406v-117h-264v-581h-142v698z" />
    <glyph glyph-name="afii10021" unicode="&#x414;" horiz-adv-x="722" 
d="M569 -180v180h-411v-180h-138v294h70q19 23 33.5 62.5t24.5 88t15 104t5 109.5v220h463v-584h76v-294h-138zM489 583h-181v-119q0 -130 -19.5 -216.5t-40.5 -133.5h241v469z" />
    <glyph glyph-name="afii10022" unicode="&#x415;" 
d="M81 698h414v-117h-272v-165h249v-114h-249v-185h274v-117h-416v698z" />
    <glyph glyph-name="afii10024" unicode="&#x416;" horiz-adv-x="1014" 
d="M182 0h-179l280 369l-268 329h168l253 -326v326h140v-326l255 326h168l-267 -329l279 -369h-179l-256 356v-356h-140v356z" />
    <glyph glyph-name="afii10025" unicode="&#x417;" 
d="M494 531q0 -38 -10.5 -66.5t-28.5 -48.5t-41.5 -31t-48.5 -15v-2q30 -3 56 -15.5t45 -34t29.5 -51t10.5 -64.5q0 -62 -24.5 -103.5t-63 -66.5t-86 -35t-94.5 -10q-57 0 -98.5 7.5t-84.5 20.5l13 126q36 -20 78 -32t84 -12q58 0 97 28t39 81q0 58 -41 78.5t-114 20.5h-45
v110h38q71 0 110.5 23t39.5 69q0 26 -9.5 44t-24.5 29t-34.5 15.5t-39.5 4.5q-21 0 -43.5 -2.5t-43.5 -6.5t-39.5 -10t-30.5 -12l-6 117q38 9 82 16.5t84 7.5q50 0 94.5 -7t78 -27t53 -55t19.5 -91z" />
    <glyph glyph-name="afii10026" unicode="&#x418;" horiz-adv-x="734" 
d="M80 698h137v-496h3l274 496h160v-698h-137v496h-3l-274 -496h-160v698z" />
    <glyph glyph-name="afii10027" unicode="&#x419;" horiz-adv-x="734" 
d="M533 840q-33 -40 -72 -67t-94 -27q-29 0 -52.5 6.5t-43.5 19t-37.5 30t-33.5 38.5l50 52q26 -29 51 -44t66 -15q40 0 65 15t51 44l50 -52v0zM80 698h137v-496h3l274 496h160v-698h-137v496h-3l-274 -496h-160v698z" />
    <glyph glyph-name="afii10028" unicode="&#x41a;" horiz-adv-x="667" 
d="M651 698l-279 -323l291 -375h-184l-255 338v-338h-142v698h142v-309l254 309h173z" />
    <glyph glyph-name="afii10029" unicode="&#x41b;" horiz-adv-x="722" 
d="M642 0h-142v581h-194v-253q0 -65 -9 -125t-31.5 -106.5t-60 -74.5t-93.5 -28q-26 0 -51 4t-51 10l4 118q13 -4 29 -7t33 -3q28 0 45.5 18.5t27.5 50t13.5 72t3.5 84.5v357h476v-698z" />
    <glyph glyph-name="afii10030" unicode="&#x41c;" horiz-adv-x="944" 
d="M79 698h226l168 -530l172 530h221v-698h-134v582l-198 -582h-132l-193 582v-582h-130v698z" />
    <glyph glyph-name="afii10031" unicode="&#x41d;" horiz-adv-x="722" 
d="M80 698h142v-279h278v279h142v-698h-142v303h-278v-303h-142v698z" />
    <glyph glyph-name="afii10032" unicode="&#x41e;" horiz-adv-x="778" 
d="M49 351q0 84 24 151t68 114.5t107.5 72.5t143.5 25q82 0 145.5 -27t106 -75t64.5 -114.5t22 -146.5t-22.5 -147t-66.5 -115.5t-108 -75.5t-146 -27q-78 0 -140.5 25.5t-106.5 73t-67.5 115t-23.5 151.5zM391 96q42 0 76 18.5t59 52t38.5 80t13.5 102.5q0 58 -13.5 105
t-38.5 80.5t-59.5 52t-77.5 18.5q-42 0 -77 -18.5t-60 -52.5t-38.5 -81.5t-13.5 -105.5q0 -57 13.5 -103.5t38.5 -79t60.5 -50.5t78.5 -18z" />
    <glyph glyph-name="afii10033" unicode="&#x41f;" horiz-adv-x="722" 
d="M80 698h562v-698h-142v582h-278v-582h-142v698z" />
    <glyph glyph-name="afii10034" unicode="&#x420;" 
d="M69 698h193q48 0 83.5 -4t64.5 -15q59 -22 94 -74.5t35 -119.5q0 -59 -20 -100.5t-55 -67.5t-82 -38.5t-101 -12.5h-70v-266h-142v698zM211 374h40q72 0 106.5 26.5t34.5 82.5q0 35 -12.5 56t-33 32.5t-47.5 15.5t-57 4h-31v-217z" />
    <glyph glyph-name="afii10035" unicode="&#x421;" horiz-adv-x="611" 
d="M577 555q-34 16 -77 25t-80 9q-50 0 -90.5 -17t-69 -48t-44.5 -74.5t-16 -97.5t17 -98.5t48 -76t74 -48.5t96 -17q38 0 76 7t73 22l5 -125q-39 -12 -82 -17.5t-84 -5.5q-87 0 -156.5 24.5t-118 70.5t-75 111.5t-26.5 146.5t26.5 147.5t74 113t114.5 72t148 25.5
q48 0 92 -7t86 -22z" />
    <glyph glyph-name="afii10036" unicode="&#x422;" 
d="M549 581h-200v-581h-142v581h-200v117h542v-117z" />
    <glyph glyph-name="afii10037" unicode="&#x423;" horiz-adv-x="667" 
d="M160 698l177 -365l173 365h150l-271 -539q-13 -26 -29 -55t-39.5 -53t-55.5 -40t-77 -16q-26 0 -53.5 4t-44.5 10l11 107q12 -5 27.5 -8.5t41.5 -3.5q28 0 49.5 16t37.5 54l8 19l-258 505h153z" />
    <glyph glyph-name="afii10038" unicode="&#x424;" horiz-adv-x="800" 
d="M760 364q0 -68 -21.5 -119.5t-60.5 -87t-92 -54.5t-116 -22v-92h-140v92q-63 3 -116 22t-92 54.5t-60.5 87t-21.5 119.5q0 70 22 121.5t60.5 85t91.5 51t116 20.5v69h140v-69q63 -3 116 -20.5t91.5 -51t60.5 -85t22 -121.5zM610 367q0 80 -36.5 117.5t-103.5 45.5v-338
q71 9 105.5 53.5t34.5 121.5zM330 530q-68 -8 -104 -45.5t-36 -117.5q0 -77 34.5 -121.5t105.5 -53.5v338z" />
    <glyph glyph-name="afii10039" unicode="&#x425;" horiz-adv-x="667" 
d="M30 698h163l147 -246l150 246h151l-212 -333l231 -365h-166l-162 274l-164 -274h-160l231 365z" />
    <glyph glyph-name="afii10040" unicode="&#x426;" horiz-adv-x="734" 
d="M78 0v698h142v-581h277v581h142v-581h76v-297h-138v180h-499z" />
    <glyph glyph-name="afii10041" unicode="&#x427;" horiz-adv-x="667" 
d="M445 698h142v-698h-142v292q-8 -2 -21.5 -4l-31 -4.5t-37 -4t-38.5 -1.5q-61 0 -108.5 12t-80 40t-49.5 75t-17 117v176h140v-163q0 -40 6 -67.5t19.5 -45t35.5 -25t54 -7.5q16 0 35.5 1.5t37.5 3.5t33 4.5t22 4.5v294z" />
    <glyph glyph-name="afii10042" unicode="&#x428;" horiz-adv-x="1064" 
d="M80 698h142v-581h239v581h142v-581h239v581h142v-698h-904v698z" />
    <glyph glyph-name="afii10043" unicode="&#x429;" horiz-adv-x="1083" 
d="M922 -180v180h-842v698h142v-581h239v581h142v-581h239v581h142v-581h76v-297h-138z" />
    <glyph glyph-name="afii10044" unicode="&#x42a;" horiz-adv-x="722" 
d="M537 219q0 30 -11 50t-29.5 32t-42.5 17t-50 5h-48v-213h48q27 0 51 5.5t42.5 18.5t29 34t10.5 51zM11 581v117h345v-265h59q56 0 105 -12t85.5 -38t57.5 -68.5t21 -103.5q0 -63 -24 -103.5t-64.5 -64.5t-93 -33.5t-109.5 -9.5h-179v581h-203z" />
    <glyph glyph-name="afii10045" unicode="&#x42b;" horiz-adv-x="833" 
d="M537 211q0 -57 -20.5 -97t-55 -65.5t-80 -37t-95.5 -11.5h-211v698h142v-265h71q56 0 102 -13.5t78.5 -41t50.5 -69t18 -98.5zM390 219q0 30 -11 49.5t-29.5 31t-42.5 15.5t-50 4h-40v-205h40q27 0 51 5t42.5 17t29 32.5t10.5 50.5zM758 698v-698h-140v698h140z" />
    <glyph glyph-name="afii10046" unicode="&#x42c;" horiz-adv-x="611" 
d="M572 211q0 -57 -20.5 -97t-55 -65.5t-80 -37t-95.5 -11.5h-241v698h142v-265h101q56 0 102 -13.5t78.5 -41t50.5 -69t18 -98.5zM425 219q0 30 -11 49.5t-29.5 31t-42.5 15.5t-50 4h-70v-205h70q27 0 51 5t42.5 17t29 32.5t10.5 50.5z" />
    <glyph glyph-name="afii10047" unicode="&#x42d;" horiz-adv-x="611" 
d="M410 416q-9 40 -28.5 74t-48.5 58.5t-66.5 38t-82.5 13.5q-38 0 -74.5 -7t-76.5 -30l-10 118q38 15 80.5 22t77.5 7q89 0 160 -24.5t120.5 -72t76 -117t26.5 -159.5q0 -89 -28 -154.5t-78.5 -108.5t-121 -64.5t-155.5 -21.5q-40 0 -80.5 6.5t-78.5 15.5l6 117
q25 -13 68 -21t85 -8q50 0 91 15.5t71 43t48 66t24 83.5h-284v110h279v0z" />
    <glyph glyph-name="afii10048" unicode="&#x42e;" horiz-adv-x="1000" 
d="M219 306v-306h-142v698h142v-281h91q8 69 34 124.5t67.5 93.5t97 58.5t123.5 20.5q78 0 138 -27t100.5 -75t61.5 -114.5t21 -146.5t-21.5 -147t-63 -115.5t-102.5 -75.5t-139 -27q-69 0 -125 22.5t-97.5 64t-66 100.5t-30.5 133h-89zM803 349q0 58 -12.5 105t-35 80.5
t-55 52t-71.5 18.5t-71 -18.5t-55 -52.5t-35.5 -81.5t-12.5 -105.5q0 -57 12.5 -103.5t35.5 -79t55.5 -50.5t72.5 -18q38 0 70 18.5t54.5 52t35 80t12.5 102.5z" />
    <glyph glyph-name="afii10049" unicode="&#x42f;" horiz-adv-x="611" 
d="M399 0v277h-62q-22 0 -36 -4.5t-23.5 -13.5t-16 -23t-14.5 -33l-86 -203h-157l114 258q5 12 12.5 24t17.5 22.5t22 17.5t26 8v2q-34 3 -61 18t-46.5 38t-30 52t-10.5 60q0 54 17.5 91.5t48 61.5t72.5 34.5t91 10.5h264v-698h-142zM313 586q-52 0 -84.5 -23t-32.5 -79
q0 -32 13 -51t31.5 -29.5t39 -13.5t36.5 -3h83v199h-86z" />
    <glyph glyph-name="afii10065" unicode="&#x430;" 
d="M376 0l-3 76q-24 -45 -68 -64.5t-95 -19.5q-81 0 -127.5 43t-46.5 117q0 166 258 166q17 0 31.5 -0.5t42.5 -2.5v3q0 111 -114 111q-41 0 -83 -15t-77 -41l-3 114q37 19 86.5 27.5t90.5 8.5q29 0 60 -5t58.5 -16.5t50 -31t34.5 -49.5q5 -13 8.5 -26.5t5.5 -31.5t3 -42.5
t1 -59.5v-74q0 -30 0.5 -54l1 -46t1.5 -43l2 -44h-118zM370 234q-14 1 -21 1h-16q-166 0 -166 -87q0 -29 22.5 -47.5t57.5 -18.5t64.5 19.5t44.5 52.5q8 16 10.5 33t3.5 47z" />
    <glyph glyph-name="afii10066" unicode="&#x431;" horiz-adv-x="611" 
d="M131 646q23 27 50 44.5t56.5 27.5t61 15t64.5 7q20 1 43 3l45.5 4t43 4.5t35.5 5.5l-7 -126q-28 -5 -61.5 -9t-78.5 -6q-56 -3 -97 -13t-69.5 -32.5t-45 -61t-23.5 -98.5h3q23 48 73 76.5t109 28.5q52 0 96 -19t75.5 -54.5t49.5 -85t18 -109.5q0 -58 -18.5 -106t-53 -82
t-82.5 -53t-106 -19q-128 0 -194 78.5t-66 223.5q0 66 2.5 118t11 94.5t24 77t41.5 66.5zM314 415q-34 0 -57 -14t-37.5 -36.5t-20.5 -52.5t-6 -61q0 -29 6.5 -58t21 -52t36.5 -37t54 -14q56 0 89 43t33 121t-32.5 119.5t-86.5 41.5z" />
    <glyph glyph-name="afii10067" unicode="&#x432;" 
d="M516 148q0 -76 -50 -112t-142 -36h-260v515h268q47 0 79.5 -10.5t52 -27.5t28 -40t8.5 -47q0 -29 -9.5 -50t-23.5 -35.5t-30.5 -22.5t-30.5 -11v-2q14 -1 33 -7.5t36 -21t29 -37t12 -55.5zM368 367q0 16 -6.5 26.5t-17.5 16.5t-24.5 8.5t-28.5 2.5h-97v-113h103
q30 0 50.5 12t20.5 47zM377 158q0 19 -7 30.5t-17.5 18t-24.5 8.5t-27 2h-107v-123h102q34 0 57.5 14.5t23.5 49.5z" />
    <glyph glyph-name="afii10068" unicode="&#x433;" horiz-adv-x="400" 
d="M196 413v-413h-134v515h335v-102h-201z" />
    <glyph glyph-name="afii10069" unicode="&#x434;" horiz-adv-x="611" 
d="M467 -160v160h-327v-160h-130v262h58q11 10 21.5 35.5t19 59t13.5 71.5t5 74v173h401v-413h69v-262h-130zM394 413h-133v-71q0 -37 -4.5 -75.5t-11 -71.5t-15 -58t-17.5 -35h181v311z" />
    <glyph glyph-name="afii10070" unicode="&#x435;" 
d="M168 215q1 -32 14 -55.5t33.5 -39t47 -23.5t55.5 -8q42 0 81.5 11.5t84.5 37.5v-110q-11 -8 -30.5 -15.5t-44 -13t-51.5 -9t-51 -3.5q-128 0 -198.5 71t-70.5 200q0 63 17.5 113t50.5 85.5t79.5 54.5t104.5 19q66 0 109.5 -24t70 -64t37.5 -92t11 -107v-14.5t-2 -13.5
h-348zM393 308q-4 63 -32.5 95.5t-80.5 32.5q-48 0 -78 -34t-35 -94h226z" />
    <glyph glyph-name="afii10072" unicode="&#x436;" horiz-adv-x="800" 
d="M166 0h-164l198 270l-174 245h152l157 -236v236h130v-236l157 236h152l-174 -245l198 -270h-164l-169 257v-257h-130v257z" />
    <glyph glyph-name="afii10073" unicode="&#x437;" horiz-adv-x="463" 
d="M419 152q0 -43 -18 -74t-48.5 -51t-71 -29.5t-86.5 -9.5q-38 0 -79.5 6t-77.5 17l8 110q32 -13 67.5 -23.5t70.5 -10.5q42 0 69 17.5t27 48.5q0 68 -91 68h-45v95h46q35 0 59 11t24 43t-22.5 45.5t-56.5 13.5q-37 0 -70.5 -9t-60.5 -20l-9 101q35 9 77 17.5t90 8.5
q39 0 73 -8t59 -24t39 -40t14 -56q0 -50 -23.5 -82t-74.5 -45v-2q51 -6 81 -35t30 -83z" />
    <glyph glyph-name="afii10074" unicode="&#x438;" horiz-adv-x="622" 
d="M422 0v342h-3l-203 -342h-147v515h131v-343h3l203 343h147v-515h-131z" />
    <glyph glyph-name="afii10075" unicode="&#x439;" horiz-adv-x="622" 
d="M477 682q-33 -40 -72 -67t-94 -27q-29 0 -52.5 6.5t-43.5 19t-37.5 30t-33.5 38.5l50 52q26 -29 51 -44t66 -15q40 0 65 15t51 44l50 -52v0zM422 0v342h-3l-203 -342h-147v515h131v-343h3l203 343h147v-515h-131z" />
    <glyph glyph-name="afii10076" unicode="&#x43a;" 
d="M528 515l-191 -245l215 -270h-171l-177 249v-249h-134v515h134v-236l169 236h155z" />
    <glyph glyph-name="afii10077" unicode="&#x43b;" horiz-adv-x="600" 
d="M391 0v413h-133v-146q0 -47 -6.5 -96t-24.5 -88.5t-50.5 -64.5t-84.5 -25q-15 0 -37.5 2.5t-37.5 5.5l5 98q4 -1 16 -2t16 -1q25 0 39 16.5t21.5 41.5t9.5 55t2 58v248h399v-515h-134z" />
    <glyph glyph-name="afii10078" unicode="&#x43c;" horiz-adv-x="755" 
d="M564 0v399h-3l-108 -399h-150l-108 399h-3v-399h-124v515h201l109 -408h2l115 408h193v-515h-124z" />
    <glyph glyph-name="afii10079" unicode="&#x43d;" horiz-adv-x="611" 
d="M408 0v217h-205v-217h-134v515h134v-194h205v194h134v-515h-134z" />
    <glyph glyph-name="afii10080" unicode="&#x43e;" horiz-adv-x="611" 
d="M573 254q0 -60 -19.5 -109t-54.5 -84.5t-84.5 -55t-109.5 -19.5q-59 0 -108.5 20t-85 55.5t-55 85.5t-19.5 110q0 61 19.5 111t55 86t85 56t109.5 20t109 -20t84 -56t54.5 -87t19.5 -113zM178 257q0 -30 6.5 -60t21.5 -54t39 -39.5t59 -15.5q60 0 95 46t35 126
q0 79 -34 124t-93 45q-37 0 -61.5 -15t-39.5 -39.5t-21.5 -55.5t-6.5 -62z" />
    <glyph glyph-name="afii10081" unicode="&#x43f;" horiz-adv-x="611" 
d="M408 0v413h-205v-413h-134v515h473v-515h-134z" />
    <glyph glyph-name="afii10082" unicode="&#x440;" horiz-adv-x="611" 
d="M206 -210h-134v575q0 38 -1 75.5t-3 74.5h129l3 -80q27 44 68.5 66.5t94.5 22.5q49 0 88.5 -18t67 -51.5t42 -81.5t14.5 -108q0 -128 -57.5 -200t-159.5 -72q-103 0 -152 78v-281zM206 254q0 -71 31.5 -114t84.5 -43t83.5 44.5t30.5 120.5q0 71 -28.5 111.5t-78.5 40.5
q-57 0 -90 -43t-33 -117z" />
    <glyph glyph-name="afii10083" unicode="&#x441;" horiz-adv-x="444" 
d="M401 396q-16 8 -36.5 12.5t-43.5 4.5q-32 0 -59 -11.5t-46.5 -31.5t-30 -48t-10.5 -62q0 -35 10.5 -63.5t29.5 -48.5t45.5 -31.5t58.5 -11.5q23 0 49.5 6t47.5 17l6 -112q-26 -9 -57 -13.5t-62 -4.5q-61 0 -110.5 18.5t-84 52t-53 81.5t-18.5 108q0 58 18.5 106.5t53 83
t82.5 53.5t107 19q27 0 59.5 -4.5t55.5 -12.5z" />
    <glyph glyph-name="afii10084" unicode="&#x442;" horiz-adv-x="444" 
d="M289 413v-413h-134v413h-150v102h434v-102h-150z" />
    <glyph glyph-name="afii10085" unicode="&#x443;" 
d="M545 515l-207 -551q-14 -36 -30.5 -69t-39.5 -57.5t-55 -39.5t-76 -15q-21 0 -47.5 4t-46.5 10l9 100q16 -5 32.5 -7.5t32.5 -2.5q34 0 59.5 24t34.5 62l-200 542h148l125 -378l125 378h136z" />
    <glyph glyph-name="afii10086" unicode="&#x444;" horiz-adv-x="833" 
d="M787 264q0 -55 -11.5 -105t-36 -88t-62.5 -60.5t-92 -22.5q-12 0 -26.5 3.5t-29 10t-27 17t-19.5 24.5h-1v-253h-132v253h-1q-8 -14 -20 -24.5t-26.5 -17t-29 -10t-26.5 -3.5q-54 0 -92 22.5t-62.5 60.5t-36 88t-11.5 105q0 54 10.5 102t34 83.5t60 56.5t87.5 21
q28 0 59.5 -14t52.5 -45h1v282h132v-282h1q21 31 52.5 45t59.5 14q51 0 87.5 -21t60 -56.5t34 -83.5t10.5 -102zM649 258q0 74 -20.5 119.5t-72.5 45.5q-26 0 -46 -15t-30 -41v-220q7 -21 26.5 -38t48.5 -17q25 0 42.5 12.5t29 35t17 53t5.5 65.5zM352 367q-10 26 -30 41
t-46 15q-52 0 -72.5 -45.5t-20.5 -119.5q0 -35 5.5 -65.5t17 -53t29 -35t42.5 -12.5q29 0 48.5 17t26.5 38v220z" />
    <glyph glyph-name="afii10087" unicode="&#x445;" 
d="M27 515h159l100 -168l100 168h141l-154 -246l174 -269h-161l-114 192l-116 -192h-148l178 269z" />
    <glyph glyph-name="afii10088" unicode="&#x446;" horiz-adv-x="622" 
d="M475 -160v160h-405v515h134v-413h199v413h134v-413h68v-262h-130z" />
    <glyph glyph-name="afii10089" unicode="&#x447;" 
d="M358 0v208q-6 -2 -20.5 -5.5t-33.5 -6.5t-40 -5.5t-40 -2.5q-92 0 -133.5 44t-41.5 132v151h134v-111q0 -24 1.5 -44.5t9.5 -35.5t26 -23.5t50 -8.5q11 0 24 1t25.5 3t22.5 4.5t16 5.5v209h134v-515h-134z" />
    <glyph glyph-name="afii10090" unicode="&#x448;" horiz-adv-x="870" 
d="M69 0v515h134v-413h165v413h134v-413h165v413h134v-515h-732z" />
    <glyph glyph-name="afii10091" unicode="&#x449;" horiz-adv-x="878" 
d="M69 515h134v-413h163v413h134v-413h163v413h134v-413h66v-262h-130v160h-664v515z" />
    <glyph glyph-name="afii10092" unicode="&#x44a;" horiz-adv-x="611" 
d="M11 413v102h265v-174h110q40 0 75.5 -9.5t62 -30.5t42 -53t15.5 -77q0 -85 -54 -128t-147 -43h-238v413h-131zM443 171q0 38 -22.5 55t-61.5 17h-83v-145h88q33 0 56 20t23 53z" />
    <glyph glyph-name="afii10093" unicode="&#x44b;" horiz-adv-x="755" 
d="M553 0v515h134v-515h-134zM488 171q0 -85 -54 -128t-147 -43h-219v515h134v-174h91q40 0 75.5 -9.5t62 -30.5t42 -53t15.5 -77zM350 171q0 38 -22.5 55t-61.5 17h-64v-145h69q33 0 56 20t23 53z" />
    <glyph glyph-name="afii10094" unicode="&#x44c;" horiz-adv-x="537" 
d="M508 171q0 -85 -54 -128t-147 -43h-238v515h134v-174h110q40 0 75.5 -9.5t62 -30.5t42 -53t15.5 -77zM370 171q0 38 -22.5 55t-61.5 17h-83v-145h88q33 0 56 20t23 53z" />
    <glyph glyph-name="afii10095" unicode="&#x44d;" horiz-adv-x="444" 
d="M411 260q0 -59 -16 -108t-47.5 -84.5t-79.5 -55.5t-111 -20q-42 0 -73.5 4t-60.5 13l6 111q17 -8 45.5 -16t57.5 -8q60 0 94.5 33.5t43.5 88.5h-180v92h179q-11 53 -46.5 81t-86.5 28q-31 0 -52.5 -5.5t-39.5 -13.5l-12 106q28 8 58.5 12.5t71.5 4.5q60 0 106.5 -20
t78 -55.5t48 -83.5t16.5 -104z" />
    <glyph glyph-name="afii10096" unicode="&#x44e;" horiz-adv-x="811" 
d="M773 254q0 -60 -18.5 -109t-52.5 -84.5t-81 -55t-105 -19.5q-52 0 -96.5 17t-77.5 47.5t-54 73.5t-27 95h-61v-219h-134v515h134v-196h64q9 48 31 87t54.5 66.5t75 42.5t92.5 15q57 0 104.5 -20t81 -56t52 -87t18.5 -113zM399 257q0 -30 6 -60t20 -54t36 -39.5t54 -15.5
q56 0 88 46t32 126q0 79 -31.5 124t-85.5 45q-34 0 -56.5 -15t-36.5 -39.5t-20 -55.5t-6 -62z" />
    <glyph glyph-name="afii10097" unicode="&#x44f;" 
d="M353 0v182h-49q-35 0 -52.5 -10t-29.5 -37l-60 -135h-150l73 150q15 32 33.5 48t56.5 24v1q-21 2 -43 12t-39.5 28t-29 43.5t-11.5 60.5q0 67 46.5 107.5t125.5 40.5h263v-515h-134zM353 417h-101q-27 0 -48 -17t-21 -50q0 -19 8.5 -32.5t21 -22t27 -12.5t27.5 -4h86v138
z" />
    <glyph glyph-name="afii10071" unicode="&#x451;" 
d="M436 598h-113v116h113v-116zM120 714h113v-116h-113v116zM168 215q1 -32 14 -55.5t33.5 -39t47 -23.5t55.5 -8q42 0 81.5 11.5t84.5 37.5v-110q-11 -8 -30.5 -15.5t-44 -13t-51.5 -9t-51 -3.5q-128 0 -198.5 71t-70.5 200q0 63 17.5 113t50.5 85.5t79.5 54.5t104.5 19
q66 0 109.5 -24t70 -64t37.5 -92t11 -107v-14.5t-2 -13.5h-348zM393 308q-4 63 -32.5 95.5t-80.5 32.5q-48 0 -78 -34t-35 -94h226z" />
    <glyph glyph-name="afii10099" unicode="&#x452;" horiz-adv-x="600" 
d="M568 141q0 -124 -56.5 -192t-157.5 -68q-16 0 -27.5 1.5t-31.5 7.5l14 105q13 -4 19.5 -5t16.5 -1q17 0 32.5 7t27 24t18.5 45.5t7 72.5q0 68 -26 103t-68 35q-123 0 -123 -180v-96h-134v434h-74v96h74v220h134v-220h244v-96h-244v-138h2q7 16 22 31.5t34.5 27.5
t43.5 19.5t51 7.5q48 0 85.5 -18.5t63.5 -50.5t39.5 -76.5t13.5 -95.5z" />
    <glyph glyph-name="afii10100" unicode="&#x453;" horiz-adv-x="400" 
d="M203 587h-79l83 144h137zM196 413v-413h-134v515h335v-102h-201z" />
    <glyph glyph-name="afii10101" unicode="&#x454;" horiz-adv-x="444" 
d="M424 8q-29 -9 -60.5 -13t-73.5 -4q-63 0 -111 20t-79.5 55.5t-47.5 85t-16 108.5q0 56 16.5 104t48 83.5t78 56t106.5 20.5q41 0 71.5 -4.5t58.5 -12.5l-12 -106q-18 8 -39 13.5t-52 5.5q-51 0 -87 -28t-47 -81h180v-92h-181q9 -55 43.5 -89.5t94.5 -34.5q29 0 57.5 8
t45.5 16l6 -111v0z" />
    <glyph glyph-name="afii10102" unicode="&#x455;" horiz-adv-x="444" 
d="M48 125q77 -32 130 -32q45 0 68.5 15.5t23.5 44.5q0 15 -5.5 24t-16 15t-25 10.5l-31.5 9.5q-31 9 -58.5 20.5t-48.5 29.5t-33 43.5t-12 62.5q0 35 14.5 64t41.5 50t65 32.5t84 11.5q35 0 69.5 -6t68.5 -14l-9 -102q-32 12 -58.5 17.5t-51.5 5.5q-42 0 -67 -15.5
t-25 -39.5q0 -14 8.5 -23t22.5 -16t32.5 -12t38.5 -12q29 -10 53 -21.5t41.5 -29t27 -42t9.5 -60.5q0 -45 -17.5 -76.5t-46.5 -51t-66.5 -28.5t-77.5 -9t-77.5 5.5t-79.5 17.5z" />
    <glyph glyph-name="afii10103" unicode="&#x456;" horiz-adv-x="278" 
d="M72 611v126h134v-126h-134zM72 515h134v-515h-134v515z" />
    <glyph glyph-name="afii10104" unicode="&#x457;" horiz-adv-x="278" 
d="M72 515h134v-515h-134v515zM294 598h-113v116h113v-116zM97 598h-113v116h113v-116z" />
    <glyph glyph-name="afii10105" unicode="&#x458;" horiz-adv-x="278" 
d="M74 735h134v-126h-134v126zM-9 -111q3 -1 7 -1h8q24 0 37.5 8t20 22t8.5 31.5t2 37.5v528h134v-546q0 -185 -167 -185q-15 0 -28 2t-27 7z" />
    <glyph glyph-name="afii10106" unicode="&#x459;" horiz-adv-x="833" 
d="M804 166q0 -81 -52.5 -123.5t-143.5 -42.5h-230v413h-122v-138q0 -47 -6 -97t-23.5 -91t-50 -67.5t-84.5 -26.5q-15 0 -38.5 2.5t-38.5 5.5l5 98q4 -1 16 -2t16 -1q25 0 39 17.5t21.5 44t9.5 58t2 59.5v240h388v-184h102q39 0 74 -9.5t60.5 -29.5t40.5 -51.5t15 -74.5z
M666 166q0 35 -20.5 48.5t-58.5 13.5h-75v-125h80q32 0 53 16t21 47z" />
    <glyph glyph-name="afii10107" unicode="&#x45a;" horiz-adv-x="833" 
d="M804 166q0 -81 -52.5 -123.5t-143.5 -42.5h-230v228h-175v-228h-134v515h134v-184h175v184h134v-184h102q39 0 74 -9.5t60.5 -29.5t40.5 -51.5t15 -74.5zM666 166q0 35 -20.5 48.5t-58.5 13.5h-75v-125h80q32 0 53 16t21 47z" />
    <glyph glyph-name="afii10108" unicode="&#x45b;" horiz-adv-x="600" 
d="M213 296h2q26 38 67.5 60t94.5 22q46 0 79 -15.5t54.5 -42.5t31.5 -64t10 -80v-176h-134v126q0 24 -1.5 50t-10 47.5t-26 36t-49.5 14.5q-36 0 -59 -17.5t-36 -43.5t-18 -55.5t-5 -54.5v-103h-134v434h-74v96h74v220h134v-220h244v-96h-244v-138z" />
    <glyph glyph-name="afii10109" unicode="&#x45c;" 
d="M288 587h-79l83 144h137zM528 515l-191 -245l215 -270h-171l-177 249v-249h-134v515h134v-236l169 236h155z" />
    <glyph glyph-name="afii10110" unicode="&#x45e;" 
d="M545 515l-207 -551q-14 -36 -30.5 -69t-39.5 -57.5t-55 -39.5t-76 -15q-21 0 -47.5 4t-46.5 10l9 100q16 -5 32.5 -7.5t32.5 -2.5q34 0 59.5 24t34.5 62l-200 542h148l125 -378l125 378h136zM444 682q-33 -40 -72 -67t-94 -27q-29 0 -52.5 6.5t-43.5 19t-37.5 30
t-33.5 38.5l50 52q26 -29 51 -44t66 -15q40 0 65 15t51 44l50 -52v0z" />
    <glyph glyph-name="afii10193" unicode="&#x45f;" horiz-adv-x="611" 
d="M376 0v-160h-134v160h-173v515h134v-413h205v413h134v-515h-166z" />
    <glyph glyph-name="afii10050" unicode="&#x490;" horiz-adv-x="500" 
d="M223 588v-588h-142v698h264v122h138v-232h-260z" />
    <glyph glyph-name="afii10098" unicode="&#x491;" horiz-adv-x="400" 
d="M195 413v-413h-134v515h208v108h125v-210h-199z" />
    <glyph glyph-name="Euro" unicode="&#x20ac;" 
d="M570 579q-24 12 -57.5 18t-60.5 6q-76 0 -128.5 -42t-75.5 -112h293l-15 -61h-294q-5 -39 0 -78h276l-14 -61h-246q23 -69 75.5 -110t127.5 -41q29 0 61 5.5t58 16.5l6 -112q-32 -11 -70.5 -15.5t-73.5 -4.5q-63 0 -118.5 17t-99.5 50.5t-74.5 82t-44.5 111.5h-99l15 61
h75q-3 39 0 78h-90l15 61h85q14 60 45 108.5t74.5 82t98 52t116.5 18.5q42 0 84.5 -6.5t81.5 -20.5z" />
    <glyph glyph-name="afii61352" unicode="&#x2116;" horiz-adv-x="1090" 
d="M74 698h172l248 -522h2v522h134v-698h-171l-249 522h-2v-522h-134v698zM693 78h331v-78h-331v78zM693 308q0 91 43 140.5t121 49.5t122.5 -46.5t44.5 -131.5q0 -40 -9.5 -74.5t-29.5 -60t-51 -40.5t-74 -15q-79 0 -123 46.5t-44 131.5zM915 315q0 53 -14 77.5t-43 24.5
t-43 -26t-14 -83q0 -98 58 -98q29 0 42.5 25.5t13.5 79.5z" />
    <glyph glyph-name="uni2219" unicode="&#x2219;" horiz-adv-x="278" 
d="M68 364h142v-139h-142v139z" />
  </font>
</defs>
</svg>
