<svg id="logo" xmlns="http://www.w3.org/2000/svg" viewBox="81.544 49.954 637.959 697.343">
  <g id="SACURA">
    <path id="Path_1" data-name="Path 1" d="M385.068,152.551H187.613v126.1H452.656V249.74H571.45v28.911h39.368V211.6H414.594v28.3H227.4V191.3H385.068Z"/>
    <path id="Path_2" data-name="Path 2" d="M414.875,152.551v38.268H610.818V152.551Z"/>
    <path id="Path_3" data-name="Path 3" d="M187.613,299.528H226.97V333.32h62.4l38.05-33.792H386.16l-60.973,53.4,38.419,34.3,206.7-.438V367.8l-156.276-.048V299.528h38.948V328.36H570.3V298.425h40.6l-.179,127.882-261.012-.019-60.337-53.373h-62.4v73.562H384.878v97.7H226.97v29.935h-39V504.491h157.1V485.926h-157.1Z"/>
    <path id="Path_4" data-name="Path 4" d="M414.233,446.016v38.519H609.7V446.016Z"/>
    <path id="Path_5" data-name="Path 5" d="M414.233,505.049l-.018,69.039h38.679l.005-30.539H570.5l-.006,30.5,38.5-.018,0-68.985Z"/>
  </g>
  <g id="ekspress">
    <path id="Path_6" data-name="Path 6" d="M95.755,712.35H142.11v33.071H88.975v-8.994h42.758v-4.981H111.391v-4.982h20.341v-5.258H95.755Z"/>
    <path id="Path_7" data-name="Path 7" d="M169.232,712.35v33.625h10.516V731.031h17.158l17.158,14.944h14.529L205.9,726.464l14.806-14.114H207.7l-10.793,9.686H179.748V712.35Z"/>
    <path id="Path_8" data-name="Path 8" d="M257.348,712.35v34.306H310.26V735.967H267.236v-13.58H310.26V712.35Z"/>
    <path id="Path_9" data-name="Path 9" d="M336.491,712.35V747.3h11.768V721.8h31.383v25.5h11.333V712.35Z"/>
    <path id="Path_10" data-name="Path 10" d="M417.14,712.35h53.3V738.7H427.835v8.513H417.14V729.19h42.739v-6.75H417.14Z"/>
    <path id="Path_11" data-name="Path 11" d="M497.53,712.35v34.176h53.7V736.4h-42.19v-4.449h36.206v-5.83H509.037v-5.063h42.19V712.35Z"/>
    <path id="Path_12" data-name="Path 12" d="M257.348,712.35v34.306H310.26V735.967H267.236v-13.58H310.26V712.35Z" transform="translate(320)"/>
    <path id="Path_13" data-name="Path 13" d="M257.348,712.35v34.306H310.26V735.967H267.236v-13.58H310.26V712.35Z" transform="translate(401)"/>
  </g>
  <path id="Border" d="M120.995,89.179,120.834,644.5l558.778-.266-.51-554.7h40.4v593.19H81.544l.369-632.773,637.589.268V89.538Z"/>
</svg>
