<?xml version="1.0" standalone="no"?>
<!DOCTYPE svg PUBLIC "-//W3C//DTD SVG 1.1//EN" "http://www.w3.org/Graphics/SVG/1.1/DTD/svg11.dtd" >
<svg>
<metadata>
Created by FontForge 20090622 at Thu Mar 29 15:41:35 2018
 By deploy user
Part of the digitally encoded machine readable outline data for producing the Typefaces provided is copyrighted (c) 1991,2005 Linotype Library GmbH, www.linotype.com. All rights reserved. This software is the property of Linotype Library GmbH, and may not be reproduced, used, displayed, modified, disclosed or transferred without the express written approval of Linotype Library GmbH.Copyright (c) 1991 Adobe Systems Incorporated. All rights reserved. All Cyrillic characters are designed for Linotype Library by Double Alex.
</metadata>
<defs>
<font id="FrutigerLTCYR-BoldCondensed" horiz-adv-x="500" >
  <font-face 
    font-family="Frutiger LT CYR 47 Light Cond"
    font-weight="700"
    font-stretch="normal"
    units-per-em="1000"
    panose-1="2 0 8 3 5 0 0 2 0 4"
    ascent="800"
    descent="-200"
    x-height="515"
    cap-height="698"
    bbox="-17 -251 1000 880"
    underline-thickness="50"
    underline-position="-50"
    unicode-range="U+0020-U+F8FF"
  />
<missing-glyph horiz-adv-x="512" 
d="M222 117v67h56v-67h-56zM225 234l-2 17q0 56 13 81q7 13 18 27.5t28 31.5q16 15 26 26.5t15 21t7 18t2 17.5q0 36 -22.5 60.5t-53.5 24.5t-53.5 -22t-28.5 -73l-50 8q7 72 44 104.5t91 32.5t89 -35.5t35 -95.5q0 -32 -12.5 -58.5t-50.5 -61.5q-37 -33 -43 -52
q-6 -20 -6 -72h-46zM462 50v617h-412v-617h412zM512 718v-718h-512v718h512z" />
    <glyph glyph-name=".notdef" horiz-adv-x="512" 
d="M222 117v67h56v-67h-56zM225 234l-2 17q0 56 13 81q7 13 18 27.5t28 31.5q16 15 26 26.5t15 21t7 18t2 17.5q0 36 -22.5 60.5t-53.5 24.5t-53.5 -22t-28.5 -73l-50 8q7 72 44 104.5t91 32.5t89 -35.5t35 -95.5q0 -32 -12.5 -58.5t-50.5 -61.5q-37 -33 -43 -52
q-6 -20 -6 -72h-46zM462 50v617h-412v-617h412zM512 718v-718h-512v718h512z" />
    <glyph glyph-name=".null" horiz-adv-x="0" 
 />
    <glyph glyph-name="nonmarkingreturn" horiz-adv-x="260" 
 />
    <glyph glyph-name="space" unicode=" " horiz-adv-x="260" 
 />
    <glyph glyph-name="exclam" unicode="!" horiz-adv-x="370" 
d="M249 698l-16 -493h-97l-15 493h128zM245 127v-127h-119v127h119z" />
    <glyph glyph-name="quotedbl" unicode="&#x22;" horiz-adv-x="519" 
d="M147 410l-15 288h89l-15 -288h-59zM314 410l-15 288h89l-15 -288h-59z" />
    <glyph glyph-name="numbersign" unicode="#" horiz-adv-x="520" 
d="M52 0l35 198h-96v73h110l29 155h-97v73h110l37 199h85l-36 -199h119l36 199h86l-37 -199h97v-73h-110l-29 -155h97v-73h-110l-36 -198h-86l36 198h-119l-35 -198h-86zM334 426h-118l-29 -155h119z" />
    <glyph glyph-name="dollar" unicode="$" horiz-adv-x="520" 
d="M237 -96v88q-18 0 -41 2.5t-46.5 7t-46 10t-39.5 12.5l8 112q51 -26 88.5 -37.5t76.5 -12.5v222q-37 11 -70 29.5t-58.5 45t-40.5 60t-15 75.5q0 37 13.5 69t37.5 56t58 39t75 18v87h44v-85h4q38 0 75 -10l72 -20l-7 -104q-45 23 -77.5 32t-66.5 10v-197q40 -15 74.5 -33
t59.5 -43.5t39 -61t14 -84.5q0 -41 -14 -76.5t-39 -62t-59.5 -42.5t-74.5 -18v-88h-44zM281 88q32 6 54 34.5t22 64.5q0 37 -19.5 63t-56.5 42v-204v0zM237 608q-32 -5 -52 -28.5t-20 -55.5q0 -35 20 -59t52 -36v179z" />
    <glyph glyph-name="percent" unicode="%" horiz-adv-x="833" 
d="M53 510q0 198 145 198q43 0 71 -16.5t44 -44.5t22.5 -63.5t6.5 -72.5q0 -98 -36.5 -148t-108.5 -50t-108 50t-36 147zM614 731l-316 -765h-78l316 765h78zM491 186q0 199 145 199q43 0 70.5 -17t44 -45t23 -63.5t6.5 -72.5q0 -197 -146 -197q-143 0 -143 196zM141 508
q0 -65 13.5 -94.5t42.5 -29.5t42.5 30.5t13.5 95.5q0 128 -56 128q-29 0 -42.5 -31.5t-13.5 -98.5zM579 184q0 -64 13.5 -94t42.5 -30q56 0 56 125q0 66 -13.5 97t-42.5 31q-22 0 -33.5 -14.5t-16.5 -35t-5.5 -42.5t-0.5 -37z" />
    <glyph glyph-name="ampersand" unicode="&#x26;" horiz-adv-x="648" 
d="M600 389q-3 -134 -82 -249l108 -140h-138l-47 64q-32 -39 -72 -57t-97 -18q-52 0 -93.5 15t-71 42t-45.5 65t-16 85q0 66 31 113.5t98 85.5q-35 37 -55 78.5t-20 79.5q0 39 16.5 68t43.5 48.5t61 29t69 9.5t67.5 -9.5t57 -28t39.5 -47t15 -66.5q0 -33 -11.5 -59
t-29.5 -48.5t-41 -41l-47 -36.5l110 -144q35 61 37 161h113zM274 436l30.5 24t27.5 26.5t20 32t8 38.5q0 32 -20 51.5t-52 19.5t-55 -21.5t-23 -52.5q0 -17 6 -33t15.5 -30.5t21 -28.5zM242 321q-33 -23 -53 -51.5t-20 -71.5q0 -24 8.5 -45t23.5 -36.5t35.5 -24.5t43.5 -9
q29 0 56 14.5t47 39.5l-141 184v0z" />
    <glyph glyph-name="quotesingle" unicode="'" horiz-adv-x="260" 
d="M101 410l-16 288h89l-16 -288h-57z" />
    <glyph glyph-name="parenleft" unicode="(" horiz-adv-x="296" 
d="M279 756q-62 -113 -91.5 -222t-29.5 -224q0 -56 7 -108.5t21.5 -106.5t37.5 -110t55 -119l-96 -3l-52 107t-44 107t-30 110.5t-11 118.5q0 57 8 111.5t24.5 109t42.5 111.5t62 120z" />
    <glyph glyph-name="parenright" unicode=")" horiz-adv-x="296" 
d="M248 306q0 -62 -11 -118.5t-30 -110.5t-44 -107l-52 -107l-96 3q32 63 55 119t37.5 110t21.5 106.5t7 108.5q0 115 -29.5 224t-91.5 222l96 2q36 -63 62 -120t42.5 -111.5t24.5 -109t8 -111.5z" />
    <glyph glyph-name="asterisk" unicode="*" horiz-adv-x="519" 
d="M308 750l-16 -130l114 57l30 -88l-125 -31l88 -101l-80 -54l-59 118l-60 -118l-78 54l86 101l-126 29l32 90l115 -59l-16 132h95z" />
    <glyph glyph-name="plus" unicode="+" horiz-adv-x="600" 
d="M254 212h-210v83h210v212h91v-212h211v-83h-211v-212h-91v212z" />
    <glyph glyph-name="comma" unicode="," horiz-adv-x="260" 
d="M192 126l-75 -247h-97l53 247h119z" />
    <glyph glyph-name="hyphen" unicode="-" horiz-adv-x="315" 
d="M273 332v-100h-232v100h232z" />
    <glyph glyph-name="period" unicode="." horiz-adv-x="260" 
d="M190 129v-129h-121v129h121z" />
    <glyph glyph-name="slash" unicode="/" horiz-adv-x="278" 
d="M268 708l-174 -720h-86l175 720h85z" />
    <glyph glyph-name="zero" unicode="0" horiz-adv-x="520" 
d="M43 353q0 174 54.5 264t162.5 90q107 0 162 -91t55 -269q0 -177 -54.5 -267t-162.5 -90t-162.5 91t-54.5 272zM164 343q0 -24 1.5 -67t10.5 -85.5t28.5 -74t55.5 -31.5q25 0 41.5 15t27 38.5t16 52.5t8 57.5t2.5 53v39.5v42t-2.5 56t-8 60.5t-16 55.5t-27.5 40.5
t-42 15.5t-42 -16t-27.5 -40.5t-15.5 -55.5t-7.5 -60.5t-2.5 -55v-40.5z" />
    <glyph glyph-name="one" unicode="1" horiz-adv-x="520" 
d="M253 698h104v-698h-125v506q0 20 1 28.5t4 22.5l-95 -97l-60 91z" />
    <glyph glyph-name="two" unicode="2" horiz-adv-x="520" 
d="M75 668q44 20 92 30.5t90 10.5q43 0 78.5 -13.5t60.5 -38.5t39 -60t14 -77q0 -46 -15 -89q-10 -27 -22.5 -52.5t-31 -54.5t-44.5 -64.5l-62 -81.5q-18 -23 -36.5 -44t-41.5 -39q16 0 32 2t32 2h198v-99h-397v103q49 52 96 109.5l88 111.5q36 48 55.5 93.5t19.5 83.5
q0 46 -26.5 74.5t-70.5 28.5q-38 0 -72.5 -16.5t-64.5 -37.5z" />
    <glyph glyph-name="three" unicode="3" horiz-adv-x="520" 
d="M69 678q52 17 89.5 23.5t78.5 6.5q48 0 87 -12.5t66 -36t42 -56.5t15 -74q0 -63 -35 -105.5t-93 -53.5v-3q62 -9 99 -55t37 -115q0 -47 -17.5 -85t-50 -65t-78.5 -41.5t-103 -14.5q-36 0 -72.5 6.5t-84.5 21.5l8 108q35 -16 66 -25.5t70 -9.5q59 0 95.5 31.5t36.5 82.5
q0 49 -35 78t-95 29h-57v94h23q27 0 44 1.5t34 5.5q39 10 61 35t22 60q0 43 -32.5 71.5t-82.5 28.5q-36 0 -67.5 -11.5t-63.5 -25.5z" />
    <glyph glyph-name="four" unicode="4" horiz-adv-x="520" 
d="M412 698v-458h78v-94h-78v-146h-117v146h-265v115l243 437h139zM122 240h178v247q0 43 3 90z" />
    <glyph glyph-name="five" unicode="5" horiz-adv-x="520" 
d="M433 698v-97h-241v-160q15 2 25 3.5t17.5 2l15 1t17.5 0.5q47 0 84 -17t62.5 -46t38.5 -68t13 -84q0 -55 -17 -100t-48 -76.5t-75 -49t-98 -17.5q-36 0 -72.5 7t-86.5 23l6 106q41 -19 69 -26.5t57 -7.5q63 0 99.5 36t36.5 99q0 60 -38.5 95t-104.5 35q-29 0 -57 -6.5
t-56 -14.5v362h353z" />
    <glyph glyph-name="six" unicode="6" horiz-adv-x="520" 
d="M436 580q-31 16 -58.5 23t-53.5 7q-47 0 -78 -22.5t-50 -57.5t-26.5 -76.5t-7.5 -79.5v-1q48 73 131 73q40 0 73.5 -17t58 -47t38 -72t13.5 -91q0 -47 -13.5 -89t-39.5 -73.5t-64.5 -49.5t-88.5 -18q-112 0 -168.5 83.5t-56.5 249.5q0 192 67 289t198 97q45 0 78.5 -9
t55.5 -14zM262 83q43 0 66.5 35t23.5 99q0 60 -24 95t-65 35q-42 0 -66 -35t-24 -95q0 -22 3.5 -45.5t13 -43t27 -32.5t45.5 -13z" />
    <glyph glyph-name="seven" unicode="7" horiz-adv-x="520" 
d="M457 698v-112l-210 -586h-137l202 534l14.5 35.5t12.5 27.5h-277v101h395z" />
    <glyph glyph-name="eight" unicode="8" horiz-adv-x="520" 
d="M167 363q-25 9 -45 27.5t-34.5 42.5t-22.5 50.5t-8 51.5q0 39 14.5 71.5t41.5 55t64.5 35t82.5 12.5q39 0 74.5 -11t63 -33t44 -54t16.5 -74q0 -51 -31 -97t-81 -70v-1q63 -25 98 -73t35 -112q0 -44 -16 -80t-45 -61.5t-69.5 -39.5t-90.5 -14q-49 0 -89 14t-68.5 40
t-44.5 62.5t-16 81.5q0 70 33.5 110.5t93.5 63.5v2zM265 406q37 25 56.5 56.5t19.5 66.5q0 38 -24.5 63t-59.5 25q-37 0 -61 -25t-24 -65t24.5 -72t68.5 -49zM250 319q-20 -12 -36.5 -24.5t-28 -27t-18 -33.5t-6.5 -44q0 -48 27.5 -79t72.5 -31q41 0 67.5 30t26.5 78
q0 25 -8.5 45t-23 35.5t-33.5 27.5t-40 23z" />
    <glyph glyph-name="nine" unicode="9" horiz-adv-x="520" 
d="M83 118q36 -17 61.5 -24t51.5 -7q47 0 78 23t50 58t26.5 76.5t7.5 79.5v1q-47 -73 -131 -73q-46 0 -80.5 20t-57 52t-34 73t-11.5 82q0 48 13.5 89.5t39.5 73t64.5 49.5t89.5 18q112 0 168 -83t56 -247q0 -65 -10 -133.5t-38 -125.5t-79 -93.5t-133 -36.5q-36 0 -73 6
t-66 17zM347 482q0 64 -23 98.5t-66 34.5t-66.5 -35t-23.5 -98q0 -61 23.5 -96t65.5 -35t66 34.5t24 96.5z" />
    <glyph glyph-name="colon" unicode=":" horiz-adv-x="260" 
d="M190 515v-129h-120v129h120zM190 129v-129h-120v129h120z" />
    <glyph glyph-name="semicolon" unicode=";" horiz-adv-x="260" 
d="M189 515v-129h-120v129h120zM200 126l-75 -244h-98l51 244h122z" />
    <glyph glyph-name="less" unicode="&#x3c;" horiz-adv-x="600" 
d="M44 297l512 200v-93l-400 -151l400 -150v-94l-512 200v88z" />
    <glyph glyph-name="equal" unicode="=" horiz-adv-x="600" 
d="M44 398h512v-83h-512v83zM44 191h512v-83h-512v83z" />
    <glyph glyph-name="greater" unicode="&#x3e;" horiz-adv-x="600" 
d="M44 9v94l399 150l-399 151v93l512 -200v-88z" />
    <glyph glyph-name="question" unicode="?" horiz-adv-x="463" 
d="M68 682q42 14 79 20t75 6q44 0 80 -12.5t62 -35t40.5 -54t14.5 -70.5q0 -41 -15.5 -79.5t-49.5 -88.5l-40 -58q-10 -15 -16.5 -26.5t-10 -23t-5 -25t-1.5 -31.5h-106q0 24 1 42.5t5.5 36t13.5 35t24 38.5l32 46q19 26 29 54t10 54q0 43 -28 70t-73 27q-26 0 -52.5 -7.5
t-62.5 -25.5zM283 126v-126h-118v126h118z" />
    <glyph glyph-name="at" unicode="@" horiz-adv-x="800" 
d="M707 93q-72 -52 -143 -79t-160 -27q-80 0 -150 26t-121.5 73t-81.5 113t-30 146q0 85 32 154.5t87 119t127.5 77t152.5 27.5q67 0 127.5 -20t106.5 -57.5t72.5 -92.5t26.5 -125q0 -42 -14 -88t-40 -84t-64 -62.5t-86 -24.5q-32 0 -56 18t-24 52q0 11 3 26
q-21 -42 -54.5 -69t-84.5 -27q-33 0 -58 12.5t-41.5 33t-25 48t-8.5 57.5q0 41 14 83t40 76.5t62 56.5t81 22q87 0 115 -77l18 61h73l-62 -209q-15 -50 -15 -71q0 -20 11.5 -30.5t31.5 -10.5q33 0 58.5 22.5t43 55t26 69t8.5 64.5q0 61 -24 107.5t-64 77t-91 46t-106 15.5
q-74 0 -138 -25t-111 -69.5t-74.5 -106t-27.5 -134.5t27.5 -131t74 -98t107.5 -61t129 -21q40 0 76 6.5t69 18.5t65 30t64 41zM484 432q0 31 -18.5 52t-50.5 21q-30 0 -54.5 -20t-41 -49t-25.5 -62t-9 -59q0 -17 3.5 -33.5t12 -30t21.5 -22t33 -8.5q30 0 54 23t40.5 56
t25.5 69.5t9 62.5z" />
    <glyph glyph-name="A" unicode="A" horiz-adv-x="611" 
d="M380 698l225 -698h-132l-49 169h-240l-53 -169h-124l233 698h140zM397 266l-55 192q-10 33 -18.5 66t-14.5 68h-3q-3 -18 -7 -34t-8.5 -31.5t-10 -32t-11.5 -37.5l-59 -191h187z" />
    <glyph glyph-name="B" unicode="B" horiz-adv-x="556" 
d="M299 698q87 0 138 -47t51 -128q0 -60 -30 -100.5t-87 -57.5v-2q64 -14 98 -58t34 -112q0 -44 -15.5 -79.5t-43.5 -61t-68 -39t-89 -13.5h-213v698h225zM198 405h45q25 0 46.5 5t38 17t26 31.5t9.5 48.5q0 97 -116 97h-49v-199zM198 97h53q62 0 93.5 27t31.5 78
q0 55 -30.5 82.5t-84.5 27.5h-63v-215z" />
    <glyph glyph-name="C" unicode="C" horiz-adv-x="556" 
d="M511 565q-64 37 -130 37q-53 0 -90.5 -21t-61.5 -55.5t-35.5 -78.5t-11.5 -91q0 -58 14 -105.5t40 -81t62.5 -52t81.5 -18.5q67 0 134 35l4 -119q-32 -12 -69.5 -18.5t-76.5 -6.5q-75 0 -135 25.5t-102 73t-64.5 115t-22.5 151.5q0 73 20.5 137.5t60 112.5t99 75.5
t137.5 27.5q38 0 76.5 -7.5t75.5 -22.5z" />
    <glyph glyph-name="D" unicode="D" horiz-adv-x="630" 
d="M260 698q161 0 242.5 -90.5t81.5 -259.5q0 -82 -23.5 -146.5t-66.5 -109.5t-104.5 -68.5t-137.5 -23.5h-184v698h192zM197 100h39q99 0 156.5 61.5t57.5 189.5q0 58 -12 103.5t-38 77.5t-68.5 49t-103.5 17h-31v-498z" />
    <glyph glyph-name="E" unicode="E" 
d="M440 698v-101h-239v-187h227v-101h-227v-208h251v-101h-378v698h366z" />
    <glyph glyph-name="F" unicode="F" horiz-adv-x="463" 
d="M426 698v-101h-226v-191h216v-102h-216v-304h-127v698h353z" />
    <glyph glyph-name="G" unicode="G" horiz-adv-x="648" 
d="M577 392v-365q-36 -18 -85.5 -27.5t-103.5 -9.5q-82 0 -145.5 26.5t-107 73.5t-66.5 113t-23 146q0 82 24 149t68.5 113.5t108 72t141.5 25.5q43 0 86 -8t83 -22l-6 -114q-35 19 -77.5 29.5t-82.5 10.5q-54 0 -93.5 -21t-65.5 -56t-38.5 -80.5t-12.5 -94.5
q0 -60 14.5 -107.5t41 -81t64.5 -51.5t85 -18q19 0 34 2.5t35 9.5v187h-105v98h227z" />
    <glyph glyph-name="H" unicode="H" horiz-adv-x="611" 
d="M537 0h-128v309h-207v-309h-128v698h128v-285h207v285h128v-698z" />
    <glyph glyph-name="I" unicode="I" horiz-adv-x="278" 
d="M203 698v-698h-128v698h128z" />
    <glyph glyph-name="J" unicode="J" horiz-adv-x="352" 
d="M286 698v-479q0 -230 -181 -230q-26 0 -46 5l-39 10l3 111q18 -8 28.5 -10.5t22.5 -2.5q27 0 43.5 10.5t25.5 28t12 39t3 43.5v475h128z" />
    <glyph glyph-name="K" unicode="K" horiz-adv-x="574" 
d="M205 698v-295h2l199 295h147l-237 -329l256 -369h-156l-209 329h-2v-329h-129v698h129z" />
    <glyph glyph-name="L" unicode="L" horiz-adv-x="444" 
d="M197 698v-597h229v-101h-358v698h129z" />
    <glyph glyph-name="M" unicode="M" horiz-adv-x="815" 
d="M263 698l109 -365q11 -38 19 -77t13 -79h6q9 79 33 156l114 365h185v-698h-119v400q0 47 3 93t7 93h-6q-14 -56 -30 -107l-149 -479h-90l-142 463q-9 30 -16.5 61t-13.5 62h-6q5 -45 8.5 -88.5t3.5 -88.5v-409h-120v698h191z" />
    <glyph glyph-name="N" unicode="N" horiz-adv-x="648" 
d="M227 698l186 -409q16 -35 29 -70.5t21 -73.5h5q-3 43 -7 86.5t-4 86.5v380h118v-698h-155l-187 417q-13 29 -26 64.5t-22 65.5h-4q4 -49 7 -97.5t3 -97.5v-352h-118v698h154z" />
    <glyph glyph-name="O" unicode="O" horiz-adv-x="648" 
d="M322 708q77 0 130.5 -30.5t86.5 -80.5t48 -114.5t15 -133.5q0 -68 -14.5 -133t-47 -115.5t-85.5 -81t-130 -30.5q-75 0 -128 30.5t-86.5 80.5t-49 114t-15.5 130q0 68 14 133.5t46.5 116.5t85 82.5t130.5 31.5zM325 610q-49 0 -78 -28t-44.5 -68.5t-20 -86t-4.5 -81.5
q0 -35 5 -79.5t20.5 -84.5t44 -67t75.5 -27q48 0 77 27.5t44.5 67.5t20.5 85t5 80t-5 80t-20.5 85.5t-44 68.5t-75.5 28z" />
    <glyph glyph-name="P" unicode="P" horiz-adv-x="519" 
d="M261 698q50 0 91.5 -12.5t71.5 -38.5t46.5 -66t16.5 -95q0 -59 -17 -100t-48 -66.5t-73.5 -36.5t-93.5 -11h-58v-272h-129v698h193zM193 371h33q24 0 47 4t42 15.5t30.5 33t11.5 57.5q0 57 -31 87.5t-90 30.5h-43v-228z" />
    <glyph glyph-name="Q" unicode="Q" horiz-adv-x="648" 
d="M444 -136l-97 126q-8 0 -12 -0.5t-12 -0.5q-75 0 -128 30.5t-86 80.5t-48 114.5t-15 132.5q0 66 14 130.5t47 116t86.5 83t131.5 31.5q77 0 130 -30t86 -80t48 -114.5t15 -133.5q0 -49 -6.5 -97t-23 -91.5t-45.5 -80t-75 -61.5l137 -156h-147zM179 344q0 -35 5 -79.5
t20 -84t44 -66.5t77 -27t76.5 28t44 68.5t20.5 86t5 80.5t-5 80t-20 84.5t-43.5 67t-76.5 27.5q-49 0 -78 -28t-44.5 -68.5t-20 -86.5t-4.5 -82z" />
    <glyph glyph-name="R" unicode="R" horiz-adv-x="556" 
d="M296 698q37 0 72 -10t63 -31.5t45 -55.5t17 -82q0 -68 -34 -112.5t-97 -57.5v-4q18 -1 31.5 -12t23.5 -26.5t16.5 -32.5l11.5 -31l81 -243h-135l-64 205q-8 24 -16 42t-20 30t-30 17.5t-45 5.5h-21v-300h-127v698h228zM192 395h35q27 0 51.5 4.5t43 16t30 32t11.5 53.5
q0 31 -10.5 50.5t-28 30.5t-40 15t-46.5 4h-46v-206z" />
    <glyph glyph-name="S" unicode="S" 
d="M68 136q71 -43 147 -43q47 0 76 27t29 70q0 62 -73 101l-76 41q-29 15 -51 33t-37 40t-23 49.5t-8 62.5q0 43 15.5 78.5t43.5 60t67.5 38t88.5 13.5q35 0 70 -5.5t80 -17.5l-6 -108q-64 32 -125 32q-48 0 -75.5 -23t-27.5 -62q0 -37 22 -57.5t52 -36.5q54 -29 84.5 -47.5
t48.5 -35.5q29 -26 45.5 -66t16.5 -83q0 -51 -17.5 -89.5t-48.5 -64.5t-72 -39.5t-89 -13.5q-80 0 -165 30l8 116v0z" />
    <glyph glyph-name="T" unicode="T" horiz-adv-x="481" 
d="M460 698v-103h-155v-595h-128v595h-156v103h439z" />
    <glyph glyph-name="U" unicode="U" horiz-adv-x="611" 
d="M196 698v-455q0 -27 5 -54.5t17 -49t33.5 -35.5t54.5 -14q41 0 63.5 19.5t33.5 49t13 63.5t2 64v412h125v-424q0 -25 -0.5 -42.5t-2 -32t-5 -28t-8.5 -29.5q-23 -73 -80.5 -113.5t-138.5 -40.5q-38 0 -73.5 9t-64.5 28t-51 46.5t-34 65.5q-5 16 -8 31.5t-5 32.5t-3 37
t-1 46v414h128z" />
    <glyph glyph-name="V" unicode="V" horiz-adv-x="574" 
d="M146 698l108 -398q11 -39 20 -78t14 -79h2q3 13 7.5 35l9.5 45l9.5 44t7.5 32l113 399h129l-213 -698h-135l-209 698h137z" />
    <glyph glyph-name="W" unicode="W" horiz-adv-x="833" 
d="M136 698l77 -398q1 -8 4 -26t6 -40l6 -46t5 -43h4q3 20 5.5 41t5.5 41l5.5 37.5t4.5 29.5l80 404h157l75 -384q8 -42 14.5 -83.5t9.5 -84.5h5q8 39 13.5 83t11.5 73l78 396h116l-144 -698h-152l-88 447l-5 27.5t-5.5 35.5l-5 38.5t-3.5 36.5h-4l-4.5 -38.5t-5.5 -42
l-5.5 -37l-3.5 -23.5l-87 -444h-151l-145 698h126z" />
    <glyph glyph-name="X" unicode="X" horiz-adv-x="574" 
d="M178 698l68 -125q4 -7 10 -20.5l13 -30t13.5 -34t11.5 -32.5h2q5 16 12.5 34l15 35t14.5 31t11 21l68 121h138l-186 -328l199 -370h-146l-88 169l-10 21l-12.5 27.5t-12.5 30t-10 27.5h-2l-13.5 -30.5l-14.5 -32l-13.5 -29l-10.5 -22.5l-88 -161h-141l208 370l-183 328
h147z" />
    <glyph glyph-name="Y" unicode="Y" horiz-adv-x="556" 
d="M150 698l92 -193l8.5 -20t10.5 -28l10.5 -31t8.5 -28h4q2 10 7 26l10.5 32.5t11 30.5t8.5 20l89 191h142l-211 -421v-277h-129v280l-209 418h147z" />
    <glyph glyph-name="Z" unicode="Z" 
d="M459 698v-109l-218 -387q-5 -9 -14 -23l-18.5 -28.5l-19 -28t-16.5 -21.5h292v-101h-429v112l213 381q16 28 36 57.5t34 46.5h-275v101h415z" />
    <glyph glyph-name="bracketleft" unicode="[" horiz-adv-x="296" 
d="M257 676h-74v-735h74v-81h-182v896h182v-80z" />
    <glyph glyph-name="backslash" unicode="\" horiz-adv-x="278" 
d="M182 -12l-174 721h85l175 -721h-86z" />
    <glyph glyph-name="bracketright" unicode="]" horiz-adv-x="296" 
d="M39 -133v81h74v730h-74v80h182v-891h-182z" />
    <glyph glyph-name="asciicircum" unicode="^" horiz-adv-x="600" 
d="M254 698h91l173 -423h-96l-124 312l-120 -312h-97z" />
    <glyph glyph-name="underscore" unicode="_" 
d="M0 -75h500v-50h-500v50z" />
    <glyph glyph-name="grave" unicode="`" horiz-adv-x="222" 
d="M115 730l60 -143h-77l-98 143h115z" />
    <glyph glyph-name="a" unicode="a" 
d="M81 487q29 12 72 24.5t90 12.5q197 0 197 -181v-212q0 -11 0.5 -29t1.5 -37t2.5 -36.5l2.5 -28.5h-114q0 14 -1.5 27t-1.5 27v6.5t1 11.5q-28 -39 -61.5 -59.5t-84.5 -20.5q-34 0 -62 11.5t-48.5 32.5t-32 49.5t-11.5 63.5q0 54 25.5 87t64.5 52t85.5 25.5t88.5 6.5h14
t17 -1q-1 60 -24 87.5t-74 27.5q-35 0 -68.5 -11.5t-70.5 -36.5l-8 101v0zM300 253q-20 0 -46.5 -3t-50.5 -13.5t-40.5 -30t-16.5 -52.5q0 -35 21 -56t53 -21q48 0 77 36t29 99v41h-26z" />
    <glyph glyph-name="b" unicode="b" horiz-adv-x="537" 
d="M182 444h2q22 38 53.5 59t78.5 21q54 0 88.5 -25.5t55 -64.5t28 -86t7.5 -90q0 -44 -8 -91t-28.5 -86t-55.5 -64t-89 -25q-50 0 -83 23t-55 65h-2l-2 -80h-115q0 5 0.5 7t1 7t0.5 15.5v32.5v688h123v-306zM278 434q-33 0 -52 -18t-29.5 -44.5t-13.5 -56.5t-3 -54t3 -54.5
t13.5 -57.5t30.5 -45.5t53 -18.5q30 0 47.5 19t26.5 46t11 56.5t2 50.5q0 177 -89 177z" />
    <glyph glyph-name="c" unicode="c" horiz-adv-x="426" 
d="M391 402q-20 10 -43.5 16t-43.5 6q-37 0 -62.5 -13t-41.5 -35.5t-23 -52t-7 -62.5q0 -84 35 -128.5t101 -44.5q23 0 44.5 5t47.5 18l4 -100q-9 -3 -23.5 -7t-31.5 -7t-34.5 -5.5t-33.5 -2.5q-54 0 -98 19t-75 54t-47.5 84.5t-16.5 111.5q0 60 17 109t47.5 84t74 54
t97.5 19q55 0 120 -23z" />
    <glyph glyph-name="d" unicode="d" horiz-adv-x="537" 
d="M365 0l-2 79q-23 -39 -55 -63t-84 -24q-54 0 -89 25.5t-56 64.5t-29 86.5t-8 91.5q0 43 7.5 89.5t28 85.5t55 64t88.5 25q46 0 81.5 -23.5t50.5 -56.5h2v306h123v-660v-15t0.5 -24t0.5 -27v-24h-114zM170 258q0 -23 2 -52.5t10.5 -56.5t26 -45.5t49.5 -18.5t51.5 18
t30 44t14 55.5t3.5 53.5q0 25 -2.5 56t-12 58t-29.5 45.5t-54 18.5q-89 0 -89 -176z" />
    <glyph glyph-name="e" unicode="e" 
d="M164 223q2 -69 36 -106t95 -37q32 0 63 9t72 31l3 -99q-35 -16 -75 -24t-78 -8q-112 0 -174 71t-62 197q0 60 15.5 109t43 84.5t66.5 54.5t87 19q62 0 101.5 -24.5t62.5 -64.5t31.5 -91t8.5 -103v-18h-296v0zM341 299q-2 75 -23.5 107.5t-63.5 32.5q-31 0 -49 -16
t-27 -38.5t-12.5 -46t-4.5 -39.5h180z" />
    <glyph glyph-name="f" unicode="f" horiz-adv-x="333" 
d="M96 515v85q0 158 154 158q35 0 79 -9l-2 -92q-14 5 -24 6.5t-19 1.5q-65 0 -65 -79v-71h94v-91h-94v-424h-123v424h-85v91h85z" />
    <glyph glyph-name="g" unicode="g" horiz-adv-x="537" 
d="M481 515l-2.5 -58t-1.5 -67v-378q0 -57 -17.5 -100t-49 -72.5t-75.5 -44.5t-98 -15q-44 0 -82.5 6.5t-88.5 23.5l5 110q82 -43 150 -43q43 0 69.5 12t41 34t20 51.5t7.5 65.5q1 13 1 22t1 26q-47 -88 -139 -88q-52 0 -86.5 24.5t-55.5 62.5t-29.5 83.5t-8.5 88.5
t8.5 89.5t29 85.5t55.5 64t89 25q90 0 138 -87q0 16 0.5 27t0.5 19t0.5 15.5t1.5 17.5h116v0zM258 429q-88 0 -88 -164q0 -175 89 -175q33 0 52.5 18t29.5 44.5t13 57t3 54.5t-3 53t-13.5 54t-30 41.5t-52.5 16.5z" />
    <glyph glyph-name="h" unicode="h" horiz-adv-x="519" 
d="M183 750v-243q0 -15 -1 -31.5t-3 -31.5q28 43 60 61.5t76 18.5q45 0 73.5 -16t45 -41t23 -56.5t6.5 -61.5v-349h-122v302q0 19 -1 40t-7.5 39t-21 30t-40.5 12q-32 0 -50 -15.5t-26.5 -39t-10 -51t-1.5 -50.5v-267h-123v750h123z" />
    <glyph glyph-name="i" unicode="i" horiz-adv-x="260" 
d="M194 734v-121h-129v121h129zM191 515v-515h-123v515h123z" />
    <glyph glyph-name="j" unicode="j" horiz-adv-x="260" 
d="M191 515v-562q0 -38 -6 -70t-22 -55.5t-43.5 -37t-70.5 -13.5q-21 0 -33.5 2t-32.5 8l3 89q9 -3 14 -4t13 -1q18 0 28.5 6.5t16.5 18t8 25.5t2 29v565h123zM194 734v-121h-129v121h129z" />
    <glyph glyph-name="k" unicode="k" 
d="M179 750v-442h3l151 207h131l-180 -232l198 -283h-144l-156 251h-3v-251h-123v750h123z" />
    <glyph glyph-name="l" unicode="l" horiz-adv-x="260" 
d="M191 750v-750h-123v750h123z" />
    <glyph glyph-name="m" unicode="m" horiz-adv-x="778" 
d="M167 515q2 -15 2.5 -38.5t0.5 -42.5q47 90 141 90q44 0 77.5 -21.5t50.5 -61.5q47 83 136 83q70 0 109 -44.5t39 -125.5v-354h-122v328q0 16 -2.5 33t-10 31t-20.5 22.5t-34 8.5q-37 0 -59 -29t-22 -78v-316h-123v331q0 43 -16.5 66.5t-48.5 23.5q-35 0 -59.5 -30
t-24.5 -74v-317h-123v379q0 68 -6 136h115v0z" />
    <glyph glyph-name="n" unicode="n" horiz-adv-x="519" 
d="M168 515q2 -15 2.5 -39t0.5 -44q42 91 141 91q72 0 111.5 -45t39.5 -127v-351h-123v328q0 94 -70 94q-42 0 -65 -32t-23 -89v-301h-123v386q0 32 -1.5 67.5t-3.5 61.5h114z" />
    <glyph glyph-name="o" unicode="o" horiz-adv-x="537" 
d="M270 524q58 0 100.5 -20.5t70.5 -56.5t41 -84.5t13 -103.5q0 -128 -59 -198t-166 -70q-108 0 -168 70.5t-60 197.5q0 126 60 195.5t168 69.5zM268 434q-33 0 -52 -18.5t-29.5 -45.5t-13.5 -58t-3 -55q0 -86 25.5 -131t73.5 -45q98 0 98 172q0 88 -25.5 134.5t-73.5 46.5z
" />
    <glyph glyph-name="p" unicode="p" horiz-adv-x="537" 
d="M171 515q2 -16 2.5 -39t0.5 -39q23 44 58.5 65.5t80.5 21.5q55 0 90 -25.5t55.5 -65t28 -87t7.5 -91.5q0 -43 -7.5 -89.5t-27.5 -85t-54.5 -63.5t-88.5 -25q-48 0 -81 22.5t-56 61.5l3 -68v-224h-124v620q0 28 -0.5 55.5t-0.5 55.5h114zM366 258q0 89 -21.5 131t-66.5 42
q-33 0 -53 -18t-30.5 -45t-13.5 -57.5t-3 -54.5t3 -54t13.5 -56.5t30 -45t51.5 -18.5q89 0 90 176z" />
    <glyph glyph-name="q" unicode="q" horiz-adv-x="537" 
d="M354 15v25t0.5 12.5t0.5 8.5v13q-23 -39 -54.5 -60.5t-79.5 -21.5q-54 0 -89 25t-55 63.5t-28 85t-8 90.5q0 71 12.5 118t40.5 85q23 30 56.5 47t70.5 17q51 0 86 -24.5t55 -64.5q-1 7 -1 11.5v8.5q0 29 3 61h115q-2 -31 -2.5 -65t-0.5 -67v-599h-122v231zM258 82
q33 0 52.5 17.5t29.5 44t13 56.5t3 54q0 25 -3 55.5t-13.5 57t-30 44.5t-53.5 18q-88 0 -88 -173q0 -174 90 -174z" />
    <glyph glyph-name="r" unicode="r" horiz-adv-x="352" 
d="M165 515q5 -47 6 -94q17 40 50.5 70t87.5 30h7t10 -1v-113q-12 2 -18 2.5t-14 0.5q-51 0 -81.5 -35.5t-30.5 -95.5v-279h-123v356q0 39 -3.5 80t-5.5 79h115z" />
    <glyph glyph-name="s" unicode="s" horiz-adv-x="407" 
d="M339 408l-52.5 16.5t-53.5 8.5q-35 0 -56 -15t-21 -41q0 -18 11 -30t27.5 -21t36 -16t36.5 -15q51 -24 78 -58t27 -89q0 -75 -49.5 -117t-134.5 -42q-35 0 -70.5 5.5t-78.5 18.5l6 105q29 -17 62.5 -26t65.5 -9q35 0 58 17.5t23 43.5q0 16 -9 28t-23.5 20.5t-32.5 15.5
l-37 14q-54 21 -83 59t-29 89q0 34 13 62.5t37 48.5t56.5 31.5t71.5 11.5q32 0 64 -4.5t64 -15.5z" />
    <glyph glyph-name="t" unicode="t" horiz-adv-x="352" 
d="M329 424h-103v-275q0 -30 16 -46.5t46 -16.5q13 0 20.5 1.5t20.5 7.5l2 -91q-27 -7 -43.5 -8.5t-42.5 -1.5q-75 0 -108.5 39t-33.5 115v276h-83v91h83v107l123 37v-144h103v-91z" />
    <glyph glyph-name="u" unicode="u" horiz-adv-x="519" 
d="M456 120q0 -30 1 -60.5t4 -59.5h-116q-2 20 -2 40.5t-2 40.5q-20 -43 -56.5 -66t-83.5 -23q-45 0 -73.5 16.5t-44 42t-21.5 57.5t-6 64v343h123v-328q0 -17 2.5 -33.5t9.5 -30.5t20 -22.5t34 -8.5q24 0 40.5 11.5t27 29.5t15.5 39.5t5 41.5v301h123v-395z" />
    <glyph glyph-name="v" unicode="v" horiz-adv-x="481" 
d="M313 0h-146l-157 515h130l75 -277l7 -26.5l8 -32.5t7.5 -34.5t5.5 -32.5h3q2 13 5.5 30.5t7.5 35l7.5 32.5l5.5 23l78 282h121z" />
    <glyph glyph-name="w" unicode="w" horiz-adv-x="741" 
d="M129 515l62 -275q7 -29 12.5 -63.5t8.5 -68.5h5q1 13 4 32l6 38t6.5 36l5.5 27l64 274h140l64 -278q6 -28 12 -63.5t8 -65.5h5q1 16 3.5 34.5t5.5 36.5t6 33.5l5 26.5l63 276h118l-137 -515h-134l-72 295l-5 23t-5.5 30l-5 32.5l-4.5 30.5h-5q-5 -29 -9.5 -58.5
t-11.5 -58.5l-68 -294h-134l-138 515h125z" />
    <glyph glyph-name="x" unicode="x" horiz-adv-x="463" 
d="M155 515l51 -99q7 -14 15.5 -33.5t13.5 -37.5h2q6 17 14 36.5t13 29.5l56 104h130l-144 -242l155 -273h-139l-58 113q-6 12 -17 36.5t-19 45.5h-1q-7 -18 -16 -38.5t-19 -40.5l-60 -116h-130l155 275l-141 240h139z" />
    <glyph glyph-name="y" unicode="y" horiz-adv-x="463" 
d="M134 515l73 -258q3 -9 6.5 -25l7.5 -34.5l8 -38.5t6 -37h6q3 32 10.5 68t15.5 65l70 260h121l-177 -578q-10 -33 -22 -62t-30 -50t-44.5 -33t-65.5 -12q-37 0 -73 10l4 95l17 -5t23 -3q27 0 45.5 15.5t26.5 40.5q4 13 6 25t7 38l-171 519h130z" />
    <glyph glyph-name="z" unicode="z" horiz-adv-x="407" 
d="M373 515v-105l-149 -230q-4 -6 -12 -17t-18 -23l-20 -24l-18 -21q16 1 37 1.5t32 0.5h153v-97h-350v108l156 236q10 15 28 37t35 40q-6 0 -17.5 -0.5l-23.5 -1t-22.5 -0.5h-14.5h-135v96h339z" />
    <glyph glyph-name="braceleft" unicode="{" horiz-adv-x="333" 
d="M333 -140q-64 3 -105 17.5t-65 41t-33.5 65t-9.5 89.5v66q0 31 -5 55t-18.5 40.5t-36.5 27t-60 14.5v64q37 4 60 14.5t36.5 27t18.5 40.5t5 55v66q0 51 9.5 89.5t33.5 65t65 41t105 17.5v-64q-66 -6 -90 -41t-24 -97v-68q0 -33 -4.5 -63.5t-19 -54.5t-41.5 -40t-72 -20
q45 -4 72 -20t41.5 -40t19 -54.5t4.5 -63.5v-68q0 -62 24 -97t90 -41v-64v0z" />
    <glyph glyph-name="bar" unicode="|" horiz-adv-x="222" 
d="M63 786h96v-1002h-96v1002z" />
    <glyph glyph-name="braceright" unicode="}" horiz-adv-x="333" 
d="M333 276q-37 -4 -60 -14.5t-36.5 -27t-18.5 -40.5t-5 -55v-66q0 -51 -9.5 -89.5t-33.5 -65t-65 -41t-105 -17.5v64q66 6 90 41t24 97v68q0 33 4.5 63.5t19 54.5t41.5 40t72 20q-45 4 -72 20t-41.5 40t-19 54.5t-4.5 63.5v68q0 62 -24 97t-90 41v64q64 -3 105 -17.5
t65 -41t33.5 -65t9.5 -89.5v-66q0 -31 5 -55t18.5 -40.5t36.5 -27t60 -14.5v-64v0z" />
    <glyph glyph-name="asciitilde" unicode="~" horiz-adv-x="600" 
d="M565 332q-3 -30 -12 -58t-25.5 -49.5t-41 -34.5t-57.5 -13q-32 0 -68 11.5l-66 21.5q-13 4 -30.5 10.5t-35.5 12.5t-35 10.5t-30 4.5q-32 0 -49.5 -23t-22.5 -51h-58q4 29 13 57t24.5 50t39.5 35.5t58 13.5q35 0 72 -12.5l70 -23.5q12 -4 28.5 -10t34 -11t34.5 -9t30 -4
q32 0 48.5 21.5t21.5 50.5h57v0z" />
    <glyph glyph-name="uni00A0" unicode="&#xa0;" horiz-adv-x="260" 
 />
    <glyph glyph-name="sterling" unicode="&#xa3;" horiz-adv-x="520" 
d="M461 585q-45 22 -97 22q-45 0 -70 -16t-36.5 -42t-13.5 -59t-2 -67v-18h156v-75h-156v-233h226v-97h-413v97h69v233h-69v75h69v37q0 53 9.5 100t34 82.5t68 56.5t111.5 21q59 0 123 -19z" />
    <glyph glyph-name="currency" unicode="&#xa4;" horiz-adv-x="520" 
d="M85 234q-19 29 -29 58.5t-10 64.5q0 67 39 123l-65 65l52 52l65 -65q29 19 59 29t65 10q36 0 64.5 -10t58.5 -29l64 65l52 -52l-65 -66q20 -26 29.5 -58.5t9.5 -64.5q0 -35 -10 -63.5t-29 -57.5l65 -66l-52 -52l-66 65q-27 -18 -58 -28.5t-63 -10.5q-33 0 -65 10t-58 30
l-66 -66l-52 52zM260 493q-29 0 -53.5 -11t-42.5 -29.5t-28.5 -43t-10.5 -52.5t10.5 -52.5t29 -43t43 -29t52.5 -10.5t52.5 10.5t43 28.5t29 42.5t10.5 53.5q0 28 -10.5 52.5t-28.5 43t-43 29.5t-53 11z" />
    <glyph glyph-name="section" unicode="&#xa7;" horiz-adv-x="519" 
d="M406 581q-65 32 -121 32q-36 0 -57.5 -16t-21.5 -44q0 -19 11.5 -34.5t28.5 -27.5t35 -21.5l32 -16.5q36 -20 61.5 -38.5t41 -38t22.5 -41t7 -46.5q0 -39 -19.5 -76.5t-54.5 -63.5q30 -24 45.5 -51.5t15.5 -68.5q0 -35 -14.5 -65t-40 -52t-61.5 -34t-78 -12
q-38 0 -80 9.5t-87 26.5l11 101q79 -44 139 -44q39 0 64 20t25 50q0 21 -10 36.5t-25 27.5t-32.5 21l-32.5 17q-74 38 -106.5 77t-32.5 90q0 40 24 76.5t62 58.5q-33 25 -50 52t-17 70q0 33 13 60.5t37 47t57 30.5t73 11q30 0 69.5 -7.5t77.5 -20.5zM217 396
q-22 -20 -31.5 -39t-9.5 -41q0 -33 20 -55q14 -15 39.5 -32t70.5 -40q35 42 35 81q0 27 -12.5 45.5t-33.5 33.5q-9 7 -16 11.5l-15.5 9.5l-19 11z" />
    <glyph glyph-name="copyright" unicode="&#xa9;" horiz-adv-x="800" 
d="M400 710q75 0 141 -28.5t115 -77.5t77.5 -115t28.5 -141t-28.5 -141t-77.5 -115t-115 -77.5t-141 -28.5t-141 28.5t-115 77.5t-77.5 115t-28.5 141t28.5 140.5t77.5 115t115 78t141 28.5zM580 283q-3 -32 -17.5 -59t-37 -46.5t-52.5 -30.5t-64 -11q-43 0 -79.5 16
t-63 44.5t-41.5 67t-15 84.5q0 47 14 86t39.5 67.5t60.5 44.5t77 16q36 0 67.5 -11.5t55 -31.5t38 -47.5t16.5 -60.5h-77q-8 40 -34 62.5t-65 22.5q-50 0 -79.5 -39.5t-29.5 -105.5q0 -69 30.5 -109t83.5 -40q38 0 62.5 20.5t32.5 60.5h78v0zM692 348q0 60 -23 113.5
t-62.5 93t-93 62.5t-113.5 23t-113.5 -23t-93 -62.5t-62.5 -93t-23 -113.5q0 -61 23 -114t62.5 -92.5t92.5 -62.5t114 -23q60 0 113.5 23t93 62.5t62.5 92.5t23 114z" />
    <glyph glyph-name="guillemotleft" unicode="&#xab;" horiz-adv-x="519" 
d="M268 464l-95 -204l95 -205h-99l-105 205l105 204h99zM445 464l-95 -204l95 -205h-100l-106 205l106 204h100z" />
    <glyph glyph-name="logicalnot" unicode="&#xac;" horiz-adv-x="600" 
d="M44 398h512v-290h-86v207h-426v83z" />
    <glyph glyph-name="registered" unicode="&#xae;" horiz-adv-x="400" 
d="M200 708q37 0 70 -14t58 -39t39 -58t14 -70q0 -38 -14 -70.5t-39 -57.5t-58 -39t-70 -14q-38 0 -70.5 14t-57.5 39t-39 57.5t-14 70.5q0 37 14 70t39 57.5t57.5 39t70.5 14.5zM196 628q15 0 31 -2t29 -8.5t21 -18t8 -30.5q0 -35 -37 -48q20 -8 26.5 -21t7.5 -46
q0 -11 1 -15.5t4 -11.5h-47q-2 7 -3 11.5t-1 16.5q-1 30 -9 38.5t-36 8.5h-20v-75h-47v201h72zM194 538q44 0 44 26q0 27 -44 27h-23v-53h23zM56 527q0 -30 11.5 -56.5t31 -46t45.5 -31t56 -11.5t56 11.5t45.5 31t31 46t11.5 56.5t-11.5 56t-31 45.5t-45.5 31t-56 11.5
t-56 -11.5t-45.5 -31t-31 -45.5t-11.5 -56z" />
    <glyph glyph-name="degree" unicode="&#xb0;" horiz-adv-x="400" 
d="M200 708q33 0 61.5 -12.5t50 -34t34 -50.5t12.5 -61q0 -33 -12.5 -62t-34 -50t-50.5 -33.5t-61 -12.5q-33 0 -62 12.5t-50 34t-33.5 50.5t-12.5 61q0 33 12.5 62t34 50t50.5 33.5t61 12.5zM200 634q-18 0 -33 -6.5t-26.5 -18t-18 -27t-6.5 -32.5q0 -35 24.5 -59.5
t59.5 -24.5t59.5 24.5t24.5 59.5q0 18 -6.5 33t-18 26.5t-27 18t-32.5 6.5z" />
    <glyph glyph-name="plusminus" unicode="&#xb1;" horiz-adv-x="600" 
d="M254 273h-210v83h210v167h91v-167h211v-83h-211v-164h-91v164zM44 71h512v-83h-512v83z" />
    <glyph glyph-name="mu" unicode="&#xb5;" horiz-adv-x="519" 
d="M351 0q-1 12 -1.5 20.5t-0.5 17t-0.5 18t-1.5 23.5h-2q-23 -35 -52 -61t-74 -26q-23 0 -39 12v-220h-124v731h124v-309q0 -60 17.5 -86t56.5 -26q42 0 63.5 32t21.5 94v295h124v-430q0 -29 1 -47.5t3 -37.5h-116z" />
    <glyph glyph-name="paragraph" unicode="&#xb6;" horiz-adv-x="600" 
d="M503 629v-809h-83v809h-100v-809h-84v418q-48 4 -86 21.5t-63.5 46.5t-39 68t-13.5 86q0 60 20 104.5t55.5 74t82.5 44.5t101 15h264v-69h-54z" />
    <glyph glyph-name="periodcentered" unicode="&#xb7;" horiz-adv-x="259" 
d="M190 369v-129h-121v129h121z" />
    <glyph glyph-name="guillemotright" unicode="&#xbb;" horiz-adv-x="519" 
d="M251 55l95 203l-95 206h99l104 -206l-104 -203h-99zM74 55l95 203l-95 206h100l106 -206l-106 -203h-100z" />
    <glyph glyph-name="divide" unicode="&#xf7;" horiz-adv-x="600" 
d="M44 294h512v-83h-512v83zM356 495v-117h-114v117h114zM356 128v-117h-114v117h114z" />
    <glyph glyph-name="florin" unicode="&#x192;" horiz-adv-x="520" 
d="M219 423l11 72q5 34 15 73.5t28 73t47 55.5t73 22q22 0 44 -4t46 -13l-12 -88q-23 16 -46 16q-22 0 -35 -15t-20.5 -36.5t-11 -44t-6.5 -37.5l-12 -74h88v-90h-103l-46 -290q-6 -38 -16 -83.5t-29.5 -85t-51.5 -66t-82 -26.5q-18 0 -36.5 4t-43.5 14l12 90q17 -9 26 -12
t20 -3q19 0 32 12.5t21.5 34t14 50.5t10.5 62l48 299h-89v90h104z" />
    <glyph glyph-name="endash" unicode="&#x2013;" 
d="M500 327v-89h-500v89h500z" />
    <glyph glyph-name="emdash" unicode="&#x2014;" horiz-adv-x="1000" 
d="M1000 327v-89h-1000v89h1000z" />
    <glyph glyph-name="quoteleft" unicode="&#x2018;" horiz-adv-x="260" 
d="M216 750l-56 -245h-116l71 245h101z" />
    <glyph glyph-name="quoteright" unicode="&#x2019;" horiz-adv-x="260" 
d="M217 750l-76 -245h-97l54 245h119z" />
    <glyph glyph-name="quotesinglbase" unicode="&#x201a;" horiz-adv-x="260" 
d="M213 125l-76 -245h-97l54 245h119z" />
    <glyph glyph-name="quotedblleft" unicode="&#x201c;" horiz-adv-x="519" 
d="M259 504l73 246h97l-50 -246h-120zM87 504l76 246h95l-52 -246h-119z" />
    <glyph glyph-name="quotedblright" unicode="&#x201d;" horiz-adv-x="519" 
d="M259 750l-74 -246h-96l51 246h119zM431 750l-75 -246h-97l54 246h118z" />
    <glyph glyph-name="quotedblbase" unicode="&#x201e;" horiz-adv-x="519" 
d="M261 126l-73 -245h-96l51 245h118zM433 126l-74 -245h-97l53 245h118z" />
    <glyph glyph-name="dagger" unicode="&#x2020;" horiz-adv-x="520" 
d="M209 523v175h104v-175h140v-94h-140v-429h-104v429h-141v94h141z" />
    <glyph glyph-name="daggerdbl" unicode="&#x2021;" horiz-adv-x="520" 
d="M210 543v155h101v-155h143v-88h-143v-212h143v-89h-143v-154h-101v154h-144v89h144v212h-144v88h144z" />
    <glyph glyph-name="bullet" unicode="&#x2022;" 
d="M250 534q37 0 69.5 -14t56.5 -38.5t38 -57t14 -68.5q0 -37 -14 -69.5t-38.5 -56.5t-57 -38t-68.5 -14q-37 0 -69.5 14t-56.5 38.5t-38 57t-14 68.5q0 37 14 69.5t38.5 56.5t57 38t68.5 14z" />
    <glyph glyph-name="ellipsis" unicode="&#x2026;" horiz-adv-x="1000" 
d="M226 129v-129h-121v129h121zM894 129v-129h-121v129h121zM560 129v-129h-121v129h121z" />
    <glyph glyph-name="perthousand" unicode="&#x2030;" horiz-adv-x="926" 
d="M46 520q0 98 29 142.5t92 44.5q62 0 91 -44t29 -140q0 -99 -29.5 -145.5t-92.5 -46.5q-62 0 -90.5 46t-28.5 143zM497 713l-275 -730h-62l276 730h61zM119 519q0 -12 0.5 -31.5t5 -39t14 -33.5t27.5 -14q19 0 28.5 14.5t13.5 34.5t4.5 40.5t0.5 32.5t-0.5 31.5t-5 38
t-13.5 32.5t-27 14q-25 0 -36.5 -29t-11.5 -91zM371 178q0 98 29 142.5t92 44.5q62 0 91 -44t29 -140q0 -99 -29.5 -145.5t-92.5 -46.5q-62 0 -90.5 46t-28.5 143zM444 177q0 -12 0.5 -31.5t5 -39t14 -33.5t27.5 -14q19 0 28.5 14.5t13.5 34.5t4.5 40.5t0.5 32.5t-0.5 31.5
t-5 38t-13.5 32.5t-27 14q-25 0 -36.5 -29t-11.5 -91zM651 178q0 98 29 142.5t92 44.5q62 0 91 -44t29 -140q0 -99 -29.5 -145.5t-92.5 -46.5q-62 0 -90.5 46t-28.5 143zM724 177q0 -12 0.5 -31.5t5 -39t14 -33.5t27.5 -14q19 0 28.5 14.5t13.5 34.5t4.5 40.5t0.5 32.5
t-0.5 31.5t-5 38t-13.5 32.5t-27 14q-25 0 -36.5 -29t-11.5 -91z" />
    <glyph glyph-name="guilsinglleft" unicode="&#x2039;" horiz-adv-x="296" 
d="M244 463l-95 -203l95 -207h-100l-105 207l105 203h100z" />
    <glyph glyph-name="guilsinglright" unicode="&#x203a;" horiz-adv-x="296" 
d="M51 54l95 203l-95 207h100l105 -207l-105 -203h-100z" />
    <glyph glyph-name="trademark" unicode="&#x2122;" horiz-adv-x="1000" 
d="M221 641h-114v57h300v-57h-112v-299h-74v299zM464 698h110l87 -245l87 245h108v-356h-67v290l-101 -290h-56l-101 290v-290h-67v356z" />
    <glyph glyph-name="Delta" unicode="&#x2206;" horiz-adv-x="667" 
d="M656 0h-645l276 698h94zM531 83l-197 515l-199 -515h396z" />
    <glyph glyph-name="radical" unicode="&#x221a;" horiz-adv-x="519" 
d="M319 -251h-86l-158 328l-49 -23l-32 70l124 58l144 -302l178 870h90z" />
    <glyph glyph-name="infinity" unicode="&#x221e;" horiz-adv-x="800" 
d="M447 253l31.5 -29t34.5 -27t38 -20t42 -8q38 0 58.5 25t20.5 60q0 38 -21.5 63.5t-60.5 25.5q-20 0 -40 -9t-38.5 -22.5t-35 -29t-29.5 -29.5zM351 254l-31 28.5t-35.5 29t-39 22.5t-40.5 9q-37 0 -58 -27t-21 -61q0 -38 22 -61.5t60 -23.5q20 0 40 8t38.5 20t35 27
t29.5 29zM401 313q19 22 39.5 43.5t44.5 38t51 27t58 10.5q37 0 67 -13t52 -36t34 -55t12 -71q0 -40 -12 -72.5t-34 -56t-52 -36.5t-67 -13q-32 0 -58.5 9.5t-49.5 25t-44 36l-41 41.5q-19 -21 -40 -41t-44.5 -35.5t-50.5 -25t-57 -9.5q-37 0 -67.5 13t-52.5 36t-34.5 55
t-12.5 71t12 71.5t33.5 55.5t52 36t66.5 13q33 0 60.5 -9.5t50.5 -26t43.5 -37.5t40.5 -45z" />
    <glyph glyph-name="approxequal" unicode="&#x2248;" horiz-adv-x="600" 
d="M566 426q-3 -30 -12 -58t-25.5 -49.5t-41 -34.5t-57.5 -13q-32 0 -68 11.5l-66 21.5q-13 4 -30.5 10.5t-35.5 12.5t-35 10.5t-30 4.5q-32 0 -49.5 -23t-22.5 -50h-58q4 28 13 56t24.5 50t39.5 35.5t58 13.5q35 0 72 -12.5l70 -23.5l28.5 -9.5l34 -11t34.5 -9.5t30 -4
q32 0 48.5 22t21.5 50h57v0zM566 237q-3 -30 -12 -58t-25.5 -49.5t-41 -34.5t-57.5 -13q-32 0 -68 11.5l-66 21.5q-13 4 -30.5 10.5t-35.5 12.5t-35 10.5t-30 4.5q-32 0 -49.5 -23t-22.5 -50h-58q4 28 13 56t24.5 50t39.5 35.5t58 13.5q35 0 72 -12.5l70 -23.5l28.5 -9.5
l34 -11t34.5 -9.5t30 -4q32 0 48.5 22t21.5 50h57v0z" />
    <glyph glyph-name="notequal" unicode="&#x2260;" horiz-adv-x="600" 
d="M284 315h-240v83h284l77 150l73 -38l-58 -112h136v-83h-179l-64 -124h243v-83h-286l-77 -149l-73 38l58 111h-134v83h177z" />
    <glyph glyph-name="lessequal" unicode="&#x2264;" horiz-adv-x="600" 
d="M44 355l512 183v-89l-398 -137l398 -134v-89l-512 180v86zM556 52v-84h-512v84h512z" />
    <glyph glyph-name="greaterequal" unicode="&#x2265;" horiz-adv-x="600" 
d="M44 89v89l397 134l-397 137v89l512 -183v-86zM556 -32h-512v84h512v-84z" />
    <glyph glyph-name="uniF8FF" unicode="&#xf8ff;" horiz-adv-x="512" 
d="M222 117v67h56v-67h-56zM225 234l-2 17q0 56 13 81q7 13 18 27.5t28 31.5q16 15 26 26.5t15 21t7 18t2 17.5q0 36 -22.5 60.5t-53.5 24.5t-53.5 -22t-28.5 -73l-50 8q7 72 44 104.5t91 32.5t89 -35.5t35 -95.5q0 -32 -12.5 -58.5t-50.5 -61.5q-37 -33 -43 -52
q-6 -20 -6 -72h-46zM462 50v617h-412v-617h412zM512 718v-718h-512v718h512z" />
    <glyph glyph-name="brokenbar" unicode="&#xa6;" horiz-adv-x="222" 
d="M63 161h96v-250h-96v250zM63 661h96v-250h-96v250z" />
    <glyph glyph-name="uni00AD" unicode="&#xad;" horiz-adv-x="315" 
d="M273 332v-100h-232v100h232z" />
    <glyph glyph-name="uni0394" unicode="&#x394;" horiz-adv-x="667" 
d="M656 0h-645l276 698h94zM531 83l-197 515l-199 -515h396z" />
    <glyph glyph-name="afii10023" unicode="&#x401;" 
d="M440 698v-101h-239v-187h227v-101h-227v-208h251v-101h-378v698h366zM220 862v-121h-100v121h100zM391 862v-121h-100v121h100z" />
    <glyph glyph-name="afii10051" unicode="&#x402;" horiz-adv-x="648" 
d="M609 193q0 -139 -53 -216t-148 -77q-26 0 -44 4.5t-26 7.5l3 109q21 -9 46 -9q51 0 70.5 44t19.5 138q0 87 -21 126t-76 39q-26 0 -44 -13.5t-29 -36t-16.5 -50.5t-5.5 -56v-203h-128v597h-136v101h445v-101h-181v-146q0 -15 -1 -31.5t-3 -31.5q8 17 22.5 32t32.5 25.5
t38 16.5t38 6q92 0 144.5 -68t52.5 -207z" />
    <glyph glyph-name="afii10052" unicode="&#x403;" horiz-adv-x="444" 
d="M205 597v-597h-127v698h346v-101h-219zM352 869l-100 -142h-76l60 142h116z" />
    <glyph glyph-name="afii10053" unicode="&#x404;" horiz-adv-x="556" 
d="M518 15q-32 -12 -69.5 -18.5t-76.5 -6.5q-75 0 -135 25.5t-102 73t-64.5 115t-22.5 151.5q0 73 20.5 137.5t60 112.5t99 75.5t137.5 27.5q38 0 76.5 -7.5t75.5 -22.5l-6 -113q-64 37 -130 37q-45 0 -79 -15.5t-58 -41.5t-38.5 -61t-20.5 -74h250v-101h-251
q5 -48 21.5 -87t42 -66t59 -42t73.5 -15q67 0 134 35l4 -119v0z" />
    <glyph glyph-name="afii10054" unicode="&#x405;" 
d="M68 136q71 -43 147 -43q47 0 76 27t29 70q0 62 -73 101l-76 41q-29 15 -51 33t-37 40t-23 49.5t-8 62.5q0 43 15.5 78.5t43.5 60t67.5 38t88.5 13.5q35 0 70 -5.5t80 -17.5l-6 -108q-64 32 -125 32q-48 0 -75.5 -23t-27.5 -62q0 -37 22 -57.5t52 -36.5q54 -29 84.5 -47.5
t48.5 -35.5q29 -26 45.5 -66t16.5 -83q0 -51 -17.5 -89.5t-48.5 -64.5t-72 -39.5t-89 -13.5q-80 0 -165 30l8 116v0z" />
    <glyph glyph-name="afii10055" unicode="&#x406;" horiz-adv-x="278" 
d="M203 698v-698h-128v698h128z" />
    <glyph glyph-name="afii10056" unicode="&#x407;" horiz-adv-x="278" 
d="M203 698v-698h-128v698h128zM103 862v-121h-100v121h100zM274 862v-121h-100v121h100z" />
    <glyph glyph-name="afii10057" unicode="&#x408;" horiz-adv-x="352" 
d="M286 698v-479q0 -230 -181 -230q-26 0 -46 5l-39 10l3 111q18 -8 28.5 -10.5t22.5 -2.5q27 0 43.5 10.5t25.5 28t12 39t3 43.5v475h128z" />
    <glyph glyph-name="afii10058" unicode="&#x409;" horiz-adv-x="863" 
d="M830 210q0 -55 -16.5 -94.5t-46 -65t-71 -38t-90.5 -12.5h-202v597h-143v-269q0 -166 -39 -250t-131 -84q-21 0 -42 4t-42 10l2 108q11 -4 24.5 -7t27.5 -3q23 0 37.5 13t22.5 41t11 70t3 101v367h397v-276h68q51 0 93 -11t72.5 -36.5t47.5 -66t17 -98.5zM700 207
q0 57 -30.5 86.5t-88.5 29.5h-51v-224h34q24 0 48 4t43.5 15.5t32 32.5t12.5 56z" />
    <glyph glyph-name="afii10059" unicode="&#x40a;" horiz-adv-x="863" 
d="M830 210q0 -55 -16.5 -94.5t-46 -65t-71 -38t-90.5 -12.5h-202v318h-202v-318h-128v698h128v-276h202v276h128v-276h68q51 0 93 -11t72.5 -36.5t47.5 -66t17 -98.5zM700 207q0 57 -30.5 86.5t-88.5 29.5h-51v-224h34q24 0 48 4t43.5 15.5t32 32.5t12.5 56z" />
    <glyph glyph-name="afii10060" unicode="&#x40b;" horiz-adv-x="648" 
d="M463 0v224q0 36 -3.5 61.5t-12.5 42t-25.5 24t-42.5 7.5q-30 0 -48 -15.5t-28.5 -39t-14 -51t-3.5 -50.5v-203h-128v597h-136v101h445v-101h-181v-146q0 -15 -1 -31.5t-3 -31.5q25 38 55.5 59t74.5 21q42 0 74.5 -10t55.5 -35.5t35 -69t12 -109.5v-244h-125z" />
    <glyph glyph-name="afii10061" unicode="&#x40c;" horiz-adv-x="574" 
d="M205 698v-295h2l199 295h147l-237 -329l256 -369h-156l-209 329h-2v-329h-129v698h129zM416 869l-100 -142h-76l60 142h116z" />
    <glyph glyph-name="afii10062" unicode="&#x40e;" horiz-adv-x="574" 
d="M288 733q-54 0 -92 28t-63 70l55 49q17 -27 42 -45t58 -18q32 0 57 18t42 45l55 -49q-25 -42 -63.5 -70t-90.5 -28zM343 159q-16 -38 -33 -68.5t-37.5 -51.5t-46.5 -32.5t-59 -11.5q-24 0 -51 3.5t-38 8.5l4 105q8 -4 24 -7t40 -3q26 0 47 18t34 54l5 14l-224 510h139
l110 -263q11 -26 21.5 -54.5t17.5 -53.5h3q5 25 16.5 55.5l19.5 52.5l102 263h129z" />
    <glyph glyph-name="afii10145" unicode="&#x40f;" horiz-adv-x="611" 
d="M367 0v-180h-124v180h-169v698h128v-597h207v597h128v-698h-170z" />
    <glyph glyph-name="afii10017" unicode="&#x410;" horiz-adv-x="611" 
d="M380 698l225 -698h-132l-49 169h-240l-53 -169h-124l233 698h140zM397 266l-55 192q-10 33 -18.5 66t-14.5 68h-3q-3 -18 -7 -34t-8.5 -31.5t-10 -32t-11.5 -37.5l-59 -191h187z" />
    <glyph glyph-name="afii10018" unicode="&#x411;" horiz-adv-x="556" 
d="M503 212q0 -55 -16.5 -95t-46.5 -66t-71.5 -38.5t-91.5 -12.5h-203v698h382v-101h-253v-171h68q51 0 93.5 -11t73.5 -36.5t48 -66.5t17 -100zM373 209q0 57 -31 87.5t-90 30.5h-53v-228h43q24 0 47 4t42 15.5t30.5 33t11.5 57.5z" />
    <glyph glyph-name="afii10019" unicode="&#x412;" horiz-adv-x="556" 
d="M299 698q87 0 138 -47t51 -128q0 -60 -30 -100.5t-87 -57.5v-2q64 -14 98 -58t34 -112q0 -44 -15.5 -79.5t-43.5 -61t-68 -39t-89 -13.5h-213v698h225zM198 405h45q25 0 46.5 5t38 17t26 31.5t9.5 48.5q0 97 -116 97h-49v-199zM198 97h53q62 0 93.5 27t31.5 78
q0 55 -30.5 82.5t-84.5 27.5h-63v-215z" />
    <glyph glyph-name="afii10020" unicode="&#x413;" horiz-adv-x="444" 
d="M205 597v-597h-127v698h346v-101h-219z" />
    <glyph glyph-name="afii10021" unicode="&#x414;" horiz-adv-x="611" 
d="M465 -180v180h-329v-180h-124v281h54q15 23 28 62.5t22.5 88t14.5 104t5 109.5v233h391v-597h62v-281h-124zM399 597h-136v-146q0 -65 -5.5 -119t-14 -97.5t-18 -77t-18.5 -56.5h192v496z" />
    <glyph glyph-name="afii10022" unicode="&#x415;" 
d="M440 698v-101h-239v-187h227v-101h-227v-208h251v-101h-378v698h366z" />
    <glyph glyph-name="afii10024" unicode="&#x416;" horiz-adv-x="841" 
d="M683 0l-196 339h-2v-339h-129v339h-2l-196 -339h-156l235 369l-216 329h147l186 -305h2v305h129v-305h2l186 305h147l-216 -329l235 -369h-156z" />
    <glyph glyph-name="afii10025" unicode="&#x417;" 
d="M62 680q40 13 83 20.5t84 7.5q48 0 87 -12.5t66 -36t42 -56.5t15 -74q0 -63 -34 -106t-91 -54v-2q62 -9 97.5 -55t35.5 -115q0 -47 -17 -85t-48.5 -65t-76.5 -42t-102 -15q-18 0 -39 2.5t-42.5 6t-42 8.5t-38.5 11l8 110q35 -16 66 -25.5t70 -9.5q59 0 96.5 31t37.5 82
q0 49 -35 77.5t-95 28.5h-59v93h33q26 0 53 4t48.5 15.5t35.5 32.5t14 55q0 46 -28.5 71.5t-78.5 25.5q-36 0 -71.5 -11.5t-67.5 -25.5z" />
    <glyph glyph-name="afii10026" unicode="&#x418;" horiz-adv-x="630" 
d="M431 0v355q0 43 4 86.5t7 86.5h-5l-23.5 -73.5t-26.5 -70.5l-159 -384h-154v698h125v-327q0 -49 -3 -97.5t-7 -97.5h4q9 30 22.5 65.5l25.5 64.5l161 392h154v-698h-125z" />
    <glyph glyph-name="afii10027" unicode="&#x419;" horiz-adv-x="630" 
d="M431 0v355q0 43 4 86.5t7 86.5h-5l-23.5 -73.5t-26.5 -70.5l-159 -384h-154v698h125v-327q0 -49 -3 -97.5t-7 -97.5h4q9 30 22.5 65.5l25.5 64.5l161 392h154v-698h-125zM315 733q-54 0 -92 28t-63 70l55 49q17 -27 42 -45t58 -18q32 0 57 18t42 45l55 -49
q-25 -42 -63.5 -70t-90.5 -28z" />
    <glyph glyph-name="afii10028" unicode="&#x41a;" horiz-adv-x="574" 
d="M205 698v-295h2l199 295h147l-237 -329l256 -369h-156l-209 329h-2v-329h-129v698h129z" />
    <glyph glyph-name="afii10029" unicode="&#x41b;" horiz-adv-x="611" 
d="M409 0v597h-148v-269q0 -166 -39 -250t-131 -84q-21 0 -42 4t-42 10l2 108q11 -4 24.5 -7t27.5 -3q23 0 37.5 13t22.5 41t11 70t3 101v367h402v-698h-128z" />
    <glyph glyph-name="afii10030" unicode="&#x41c;" horiz-adv-x="815" 
d="M263 698l109 -365q11 -38 19 -77t13 -79h6q9 79 33 156l114 365h185v-698h-119v400q0 47 3 93t7 93h-6q-14 -56 -30 -107l-149 -479h-90l-142 463q-9 30 -16.5 61t-13.5 62h-6q5 -45 8.5 -88.5t3.5 -88.5v-409h-120v698h191z" />
    <glyph glyph-name="afii10031" unicode="&#x41d;" horiz-adv-x="611" 
d="M537 0h-128v309h-207v-309h-128v698h128v-285h207v285h128v-698z" />
    <glyph glyph-name="afii10032" unicode="&#x41e;" horiz-adv-x="648" 
d="M322 708q77 0 130.5 -30.5t86.5 -80.5t48 -114.5t15 -133.5q0 -68 -14.5 -133t-47 -115.5t-85.5 -81t-130 -30.5q-75 0 -128 30.5t-86.5 80.5t-49 114t-15.5 130q0 68 14 133.5t46.5 116.5t85 82.5t130.5 31.5zM325 610q-49 0 -78 -28t-44.5 -68.5t-20 -86t-4.5 -81.5
q0 -35 5 -79.5t20.5 -84.5t44 -67t75.5 -27q48 0 77 27.5t44.5 67.5t20.5 85t5 80t-5 80t-20.5 85.5t-44 68.5t-75.5 28z" />
    <glyph glyph-name="afii10033" unicode="&#x41f;" horiz-adv-x="611" 
d="M537 0h-128v597h-207v-597h-128v698h463v-698z" />
    <glyph glyph-name="afii10034" unicode="&#x420;" horiz-adv-x="519" 
d="M261 698q50 0 91.5 -12.5t71.5 -38.5t46.5 -66t16.5 -95q0 -59 -17 -100t-48 -66.5t-73.5 -36.5t-93.5 -11h-58v-272h-129v698h193zM193 371h33q24 0 47 4t42 15.5t30.5 33t11.5 57.5q0 57 -31 87.5t-90 30.5h-43v-228z" />
    <glyph glyph-name="afii10035" unicode="&#x421;" horiz-adv-x="556" 
d="M511 565q-64 37 -130 37q-53 0 -90.5 -21t-61.5 -55.5t-35.5 -78.5t-11.5 -91q0 -58 14 -105.5t40 -81t62.5 -52t81.5 -18.5q67 0 134 35l4 -119q-32 -12 -69.5 -18.5t-76.5 -6.5q-75 0 -135 25.5t-102 73t-64.5 115t-22.5 151.5q0 73 20.5 137.5t60 112.5t99 75.5
t137.5 27.5q38 0 76.5 -7.5t75.5 -22.5z" />
    <glyph glyph-name="afii10036" unicode="&#x422;" horiz-adv-x="481" 
d="M460 698v-103h-155v-595h-128v595h-156v103h439z" />
    <glyph glyph-name="afii10037" unicode="&#x423;" horiz-adv-x="574" 
d="M343 159q-16 -38 -33 -68.5t-37.5 -51.5t-46.5 -32.5t-59 -11.5q-24 0 -51 3.5t-38 8.5l4 105q8 -4 24 -7t40 -3q26 0 47 18t34 54l5 14l-224 510h139l110 -263q11 -26 21.5 -54.5t17.5 -53.5h3q5 25 16.5 55.5l19.5 52.5l102 263h129z" />
    <glyph glyph-name="afii10038" unicode="&#x424;" horiz-adv-x="754" 
d="M717 364q0 -68 -21.5 -120t-59 -87.5t-88 -54.5t-107.5 -21v-90h-128v90q-57 2 -107.5 21t-88 54.5t-59 87.5t-21.5 120q0 70 21.5 122t59 86t87.5 51t108 19v65h128v-65q58 -2 108 -19t87.5 -51t59 -86t21.5 -122zM586 367q0 87 -33.5 130t-114.5 49v-370q84 12 116 60
t32 131zM316 546q-81 -6 -114.5 -49t-33.5 -130q0 -83 32 -131t116 -60v370z" />
    <glyph glyph-name="afii10039" unicode="&#x425;" horiz-adv-x="574" 
d="M178 698l68 -125q4 -7 10 -20.5l13 -30t13.5 -34t11.5 -32.5h2q5 16 12.5 34l15 35t14.5 31t11 21l68 121h138l-186 -328l199 -370h-146l-88 169l-10 21l-12.5 27.5t-12.5 30t-10 27.5h-2l-13.5 -30.5l-14.5 -32l-13.5 -29l-10.5 -22.5l-88 -161h-141l208 370l-183 328
h147z" />
    <glyph glyph-name="afii10040" unicode="&#x426;" horiz-adv-x="624" 
d="M475 -180v180h-401v698h128v-597h207v597h128v-597h62v-281h-124z" />
    <glyph glyph-name="afii10041" unicode="&#x427;" horiz-adv-x="574" 
d="M372 0v288q-6 -2 -18 -4l-26.5 -4.5t-30 -4t-28.5 -1.5q-50 0 -89.5 10t-66.5 35.5t-41.5 69t-14.5 109.5v200h125v-184q0 -36 4 -61.5t14.5 -42t28 -24t43.5 -7.5q13 0 28 1.5t29 3.5t25.5 4.5t17.5 4.5v305h128v-698h-128z" />
    <glyph glyph-name="afii10042" unicode="&#x428;" horiz-adv-x="889" 
d="M74 698h128v-597h179v597h128v-597h179v597h128v-698h-742v698z" />
    <glyph glyph-name="afii10043" unicode="&#x429;" horiz-adv-x="903" 
d="M754 -180v180h-680v698h128v-597h179v597h128v-597h179v597h128v-597h62v-281h-124z" />
    <glyph glyph-name="afii10044" unicode="&#x42a;" horiz-adv-x="630" 
d="M598 215q0 -56 -17 -96.5t-47.5 -67t-72.5 -39t-92 -12.5h-203v597h-149v101h278v-266h68q51 0 94.5 -11.5t74.5 -37t48.5 -67t17.5 -101.5zM468 212q0 59 -32 90t-92 31h-53v-234h36q24 0 49 4t45.5 16t33.5 34t13 59z" />
    <glyph glyph-name="afii10045" unicode="&#x42b;" horiz-adv-x="771" 
d="M506 215q0 -56 -17 -96.5t-47.5 -67t-72.5 -39t-92 -12.5h-203v698h129v-266h68q51 0 94.5 -11.5t74.5 -37t48.5 -67t17.5 -101.5zM376 212q0 59 -32 90t-92 31h-53v-234h36q24 0 49 4t45.5 16t33.5 34t13 59zM697 698v-698h-128v698h128z" />
    <glyph glyph-name="afii10046" unicode="&#x42c;" horiz-adv-x="537" 
d="M505 215q0 -56 -17 -96.5t-47.5 -67t-72.5 -39t-92 -12.5h-203v698h129v-266h68q51 0 94.5 -11.5t74.5 -37t48.5 -67t17.5 -101.5zM375 212q0 59 -32 90t-92 31h-53v-234h36q24 0 49 4t45.5 16t33.5 34t13 59z" />
    <glyph glyph-name="afii10047" unicode="&#x42d;" horiz-adv-x="556" 
d="M121 309v101h250q-6 39 -20.5 74t-38.5 61t-58 41.5t-79 15.5q-66 0 -130 -37l-6 113q37 15 75.5 22.5t76.5 7.5q78 0 137.5 -27.5t99 -75.5t60 -112.5t20.5 -137.5q0 -84 -22.5 -151.5t-64.5 -115t-102 -73t-135 -25.5q-39 0 -76.5 6.5t-69.5 18.5l4 119q67 -35 134 -35
q40 0 73.5 15t59 42t42 66t21.5 87h-251z" />
    <glyph glyph-name="afii10048" unicode="&#x42e;" horiz-adv-x="863" 
d="M542 708q75 0 127.5 -30.5t85.5 -80.5t47.5 -114.5t14.5 -133.5q0 -68 -14 -133t-46 -115.5t-84 -81t-128 -30.5q-68 0 -117.5 27t-83 71.5t-51 102t-21.5 119.5h-70v-309h-128v698h128v-285h73q6 58 24 111.5t50 94.5t79.5 65t113.5 24zM545 610q-49 0 -77 -28
t-42.5 -68.5t-18.5 -86t-4 -81.5q0 -35 4 -79.5t18.5 -84.5t42.5 -67t75 -27q48 0 76 27.5t43 67.5t19 85t4 80t-4 80t-18.5 85.5t-42.5 68.5t-75 28z" />
    <glyph glyph-name="afii10049" unicode="&#x42f;" horiz-adv-x="556" 
d="M356 0v284h-21q-27 0 -43.5 -5.5t-28 -17t-19 -29t-16.5 -41.5l-71 -191h-140l88 229q5 13 13 29t18 30t22 24.5t26 12.5v4q-63 13 -97 61.5t-34 116.5q0 48 17 84t44.5 59.5t63 35.5t72.5 12h234v-698h-128zM359 601h-51q-24 0 -46.5 -5t-40 -17.5t-28 -33t-10.5 -51.5
q0 -33 11.5 -54.5t30 -34.5t43 -18.5t51.5 -5.5h40v220z" />
    <glyph glyph-name="afii10065" unicode="&#x430;" 
d="M81 487q29 12 72 24.5t90 12.5q197 0 197 -181v-212q0 -11 0.5 -29t1.5 -37t2.5 -36.5l2.5 -28.5h-114q0 14 -1.5 27t-1.5 27v6.5t1 11.5q-28 -39 -61.5 -59.5t-84.5 -20.5q-34 0 -62 11.5t-48.5 32.5t-32 49.5t-11.5 63.5q0 54 25.5 87t64.5 52t85.5 25.5t88.5 6.5h14
t17 -1q-1 60 -24 87.5t-74 27.5q-35 0 -68.5 -11.5t-70.5 -36.5l-8 101v0zM300 253q-20 0 -46.5 -3t-50.5 -13.5t-40.5 -30t-16.5 -52.5q0 -35 21 -56t53 -21q48 0 77 36t29 99v41h-26z" />
    <glyph glyph-name="afii10066" unicode="&#x431;" horiz-adv-x="537" 
d="M495 256q0 -127 -58 -196t-164 -69q-67 0 -110.5 23.5t-69 64.5t-35.5 95t-10 116q0 66 2 118t8.5 94.5t20.5 77t38 66.5q19 25 42 41.5t48.5 27t53.5 15.5t58 7q11 1 29.5 3t39.5 4.5l41 5t34 5.5l-4 -118q-6 -2 -21 -4l-33 -4.5t-36.5 -4l-30.5 -2.5q-51 -3 -88 -14.5
t-62 -36t-40 -64.5t-21 -100h3q16 48 59.5 79t104.5 31q51 0 89 -20.5t63 -55.5t37 -82.5t12 -102.5zM367 250q0 88 -25 133t-71 45q-31 0 -50 -18t-29 -44.5t-13 -56.5t-3 -55q0 -86 25 -129.5t71 -43.5q95 0 95 169z" />
    <glyph glyph-name="afii10067" unicode="&#x432;" 
d="M455 142q0 -65 -44.5 -103.5t-117.5 -38.5h-234v515h243q64 0 102.5 -34.5t38.5 -94.5q0 -44 -23 -72t-65 -41v-3q48 -11 74 -44t26 -84zM319 369q0 27 -16 41.5t-54 14.5h-72v-115h69q34 0 53.5 13t19.5 46zM329 154q0 67 -70 67h-82v-130h75q41 0 59 16.5t18 46.5z" />
    <glyph glyph-name="afii10068" unicode="&#x433;" horiz-adv-x="378" 
d="M186 420v-420h-123v515h306v-95h-183z" />
    <glyph glyph-name="afii10069" unicode="&#x434;" horiz-adv-x="530" 
d="M390 -160v160h-264v-160h-120v255h47q11 17 20.5 46t16.5 65t11 77t4 81v151h353v-420h52v-255h-120zM335 420h-108v-67q0 -96 -14.5 -159.5t-27.5 -98.5h150v325z" />
    <glyph glyph-name="afii10070" unicode="&#x435;" 
d="M164 223q2 -69 36 -106t95 -37q32 0 63 9t72 31l3 -99q-35 -16 -75 -24t-78 -8q-112 0 -174 71t-62 197q0 60 15.5 109t43 84.5t66.5 54.5t87 19q62 0 101.5 -24.5t62.5 -64.5t31.5 -91t8.5 -103v-18h-296v0zM341 299q-2 75 -23.5 107.5t-63.5 32.5q-31 0 -49 -16
t-27 -38.5t-12.5 -46t-4.5 -39.5h180z" />
    <glyph glyph-name="afii10072" unicode="&#x436;" horiz-adv-x="700" 
d="M410 287h3l135 228h131l-155 -242l172 -273h-145l-138 248h-3v-248h-120v248h-3l-138 -248h-145l176 273l-159 242h131l135 -228h3v228h120v-228z" />
    <glyph glyph-name="afii10073" unicode="&#x437;" horiz-adv-x="426" 
d="M378 145q0 -69 -53 -112t-147 -43q-35 0 -65.5 5t-73.5 18l6 103q29 -17 57.5 -25.5t60.5 -8.5q41 0 65.5 20.5t24.5 52.5q0 30 -22.5 47.5t-64.5 17.5h-53v89h34q19 0 37.5 2.5t33 9.5t23 20t8.5 34q0 59 -81 59q-16 0 -32.5 -4.5t-31.5 -11t-28 -13.5l-22 -12l-6 95
q9 4 24.5 10t35.5 11.5t43 9.5t46 4q91 0 133 -36t42 -97q0 -46 -26 -78t-68 -40v-3q46 -7 73 -40t27 -84z" />
    <glyph glyph-name="afii10074" unicode="&#x438;" horiz-adv-x="537" 
d="M357 0v259q0 32 3.5 64t5.5 64h-3q-18 -56 -41 -107l-124 -280h-140v515h121v-238q0 -36 -2 -72t-5 -72h3q7 22 18 48.5l20 47.5l126 286h140v-515h-122z" />
    <glyph glyph-name="afii10075" unicode="&#x439;" horiz-adv-x="537" 
d="M268 579q-53 0 -88.5 28t-60.5 69l52 47q17 -26 41 -44t56 -18q33 0 57 18t41 44l52 -47q-26 -42 -61.5 -69.5t-88.5 -27.5zM357 0v259q0 32 3.5 64t5.5 64h-3q-18 -56 -41 -107l-124 -280h-140v515h121v-238q0 -36 -2 -72t-5 -72h3q7 22 18 48.5l20 47.5l126 286h140
v-515h-122z" />
    <glyph glyph-name="afii10076" unicode="&#x43a;" 
d="M183 515v-220h3l160 220h137l-187 -241l201 -274h-148l-163 241h-3v-241h-123v515h123z" />
    <glyph glyph-name="afii10077" unicode="&#x43b;" horiz-adv-x="519" 
d="M336 0v420h-113v-162q0 -53 -6 -101t-22.5 -84.5t-46.5 -58t-78 -21.5q-14 0 -33 2.5t-33 5.5l2 89q4 -1 15 -2t14 -1q23 0 36.5 14t20 37.5t8.5 54.5t2 65v257h357v-515h-123z" />
    <glyph glyph-name="afii10078" unicode="&#x43c;" horiz-adv-x="649" 
d="M473 0v265q0 16 0.5 36t2 40.5t2.5 40.5t3 36h-4q-5 -23 -10.5 -52t-11.5 -51l-85 -315h-91l-85 315q-6 22 -11.5 51t-10.5 52h-4q1 -16 2.5 -36l3 -40.5t2 -40.5t0.5 -36v-265h-118v515h171l70 -264q8 -29 14 -57.5t10 -57.5h3q4 29 10 57.5t14 57.5l70 264h171v-515
h-118z" />
    <glyph glyph-name="afii10079" unicode="&#x43d;" horiz-adv-x="519" 
d="M58 0v515h123v-200h157v200h123v-515h-123v218h-157v-218h-123z" />
    <glyph glyph-name="afii10080" unicode="&#x43e;" horiz-adv-x="537" 
d="M270 524q58 0 100.5 -20.5t70.5 -56.5t41 -84.5t13 -103.5q0 -128 -59 -198t-166 -70q-108 0 -168 70.5t-60 197.5q0 126 60 195.5t168 69.5zM268 434q-33 0 -52 -18.5t-29.5 -45.5t-13.5 -58t-3 -55q0 -86 25.5 -131t73.5 -45q98 0 98 172q0 88 -25.5 134.5t-73.5 46.5z
" />
    <glyph glyph-name="afii10081" unicode="&#x43f;" horiz-adv-x="519" 
d="M181 0h-123v515h403v-515h-123v420h-157v-420z" />
    <glyph glyph-name="afii10082" unicode="&#x440;" horiz-adv-x="537" 
d="M171 515q2 -16 2.5 -39t0.5 -39q23 44 58.5 65.5t80.5 21.5q55 0 90 -25.5t55.5 -65t28 -87t7.5 -91.5q0 -43 -7.5 -89.5t-27.5 -85t-54.5 -63.5t-88.5 -25q-48 0 -81 22.5t-56 61.5l3 -68v-224h-124v620q0 28 -0.5 55.5t-0.5 55.5h114zM366 258q0 89 -21.5 131t-66.5 42
q-33 0 -53 -18t-30.5 -45t-13.5 -57.5t-3 -54.5t3 -54t13.5 -56.5t30 -45t51.5 -18.5q89 0 90 176z" />
    <glyph glyph-name="afii10083" unicode="&#x441;" horiz-adv-x="426" 
d="M391 402q-20 10 -43.5 16t-43.5 6q-37 0 -62.5 -13t-41.5 -35.5t-23 -52t-7 -62.5q0 -84 35 -128.5t101 -44.5q23 0 44.5 5t47.5 18l4 -100q-9 -3 -23.5 -7t-31.5 -7t-34.5 -5.5t-33.5 -2.5q-54 0 -98 19t-75 54t-47.5 84.5t-16.5 111.5q0 60 17 109t47.5 84t74 54
t97.5 19q55 0 120 -23z" />
    <glyph glyph-name="afii10084" unicode="&#x442;" horiz-adv-x="426" 
d="M276 420v-420h-123v420h-140v95h403v-95h-140z" />
    <glyph glyph-name="afii10085" unicode="&#x443;" horiz-adv-x="463" 
d="M134 515l73 -258q3 -9 6.5 -25l7.5 -34.5l8 -38.5t6 -37h6q3 32 10.5 68t15.5 65l70 260h121l-177 -578q-10 -33 -22 -62t-30 -50t-44.5 -33t-65.5 -12q-37 0 -73 10l4 95l17 -5t23 -3q27 0 45.5 15.5t26.5 40.5q4 13 6 25t7 38l-171 519h130z" />
    <glyph glyph-name="afii10086" unicode="&#x444;" horiz-adv-x="751" 
d="M709 264q0 -55 -8.5 -104.5t-29.5 -87t-56 -60t-87 -22.5q-22 0 -49 12.5t-41 37.5h-3q1 -12 1.5 -35t0.5 -38v-183h-123v183q0 15 0.5 38t1.5 35h-3q-14 -25 -41 -37.5t-49 -12.5q-52 0 -87 22.5t-56 60t-29.5 87t-8.5 104.5q0 54 9 101t29 82.5t52.5 55.5t79.5 20
q26 0 56 -14.5t46 -41.5h2q-2 14 -2 33.5v34.5v215h123v-215v-34.5t-2 -33.5h2q16 27 46 41.5t56 14.5q47 0 79.5 -20t52.5 -55.5t29 -82.5t9 -101zM582 258q0 79 -16.5 126t-64.5 47q-24 0 -40.5 -14.5t-26.5 -38.5v-243q7 -21 23.5 -37t42.5 -16q23 0 38.5 13t25.5 36
t14 55.5t4 71.5zM316 378q-9 24 -25.5 38.5t-40.5 14.5q-48 0 -64.5 -47t-16.5 -126q0 -78 18 -127t63 -49q26 0 43 16t23 37v243z" />
    <glyph glyph-name="afii10087" unicode="&#x445;" horiz-adv-x="463" 
d="M155 515l51 -99q7 -14 15.5 -33.5t13.5 -37.5h2q6 17 14 36.5t13 29.5l56 104h130l-144 -242l155 -273h-139l-58 113q-6 12 -17 36.5t-19 45.5h-1q-7 -18 -16 -38.5t-19 -40.5l-60 -116h-130l155 275l-141 240h139z" />
    <glyph glyph-name="afii10088" unicode="&#x446;" horiz-adv-x="530" 
d="M390 -160v160h-332v515h123v-420h154v420h123v-420h52v-255h-120z" />
    <glyph glyph-name="afii10089" unicode="&#x447;" 
d="M315 0v195q-6 -2 -20 -4t-30.5 -4t-32.5 -3.5t-26 -1.5q-35 0 -64.5 8.5t-50.5 28.5t-33 52.5t-12 81.5v162h123v-136q0 -54 16 -77.5t54 -23.5q20 0 43.5 4.5t32.5 7.5v225h123v-515h-123z" />
    <glyph glyph-name="afii10090" unicode="&#x448;" horiz-adv-x="741" 
d="M58 0v515h123v-420h128v420h123v-420h128v420h123v-515h-625z" />
    <glyph glyph-name="afii10091" unicode="&#x449;" horiz-adv-x="755" 
d="M615 -160v160h-557v515h123v-420h128v420h123v-420h128v420h123v-420h52v-255h-120z" />
    <glyph glyph-name="afii10092" unicode="&#x44a;" horiz-adv-x="556" 
d="M530 168q0 -44 -13.5 -75.5t-37.5 -52t-56.5 -30.5t-70.5 -10h-215v420h-128v95h251v-178h87q39 0 72.5 -9t58 -29t38.5 -52.5t14 -78.5zM405 165q0 79 -80 79h-67v-151h55q17 0 33.5 3t29.5 10.5t21 21.5t8 37z" />
    <glyph glyph-name="afii10093" unicode="&#x44b;" horiz-adv-x="679" 
d="M621 515v-515h-123v515h123zM443 168q0 -44 -13.5 -75.5t-37.5 -52t-56.5 -30.5t-70.5 -10h-207v515h123v-178h79q39 0 72.5 -9t58 -29t38.5 -52.5t14 -78.5zM318 165q0 79 -80 79h-59v-151h47q17 0 33.5 3t29.5 10.5t21 21.5t8 37z" />
    <glyph glyph-name="afii10094" unicode="&#x44c;" horiz-adv-x="481" 
d="M453 168q0 -44 -13.5 -75.5t-37.5 -52t-56.5 -30.5t-70.5 -10h-215v515h123v-178h87q39 0 72.5 -9t58 -29t38.5 -52.5t14 -78.5zM328 165q0 79 -80 79h-67v-151h55q17 0 33.5 3t29.5 10.5t21 21.5t8 37z" />
    <glyph glyph-name="afii10095" unicode="&#x44d;" horiz-adv-x="426" 
d="M385 258q0 -62 -16.5 -111.5t-47.5 -84.5t-75 -54t-98 -19q-16 0 -33.5 2.5t-34.5 5.5t-31.5 7t-23.5 7l3 95q27 -13 48 -17.5t45 -4.5q60 0 95 35.5t43 101.5h-172v91h170q-5 25 -15 46t-26 36.5t-39 24.5t-54 9q-21 0 -44 -6t-44 -16l-6 95q65 23 120 23q54 0 97.5 -19
t74 -54t47.5 -84t17 -109z" />
    <glyph glyph-name="afii10096" unicode="&#x44e;" horiz-adv-x="722" 
d="M458 524q58 0 100 -20.5t69 -56.5t40 -84.5t13 -103.5q0 -128 -57.5 -198t-164.5 -70q-100 0 -157 60t-66 169h-54v-220h-123v515h123v-202h55q12 101 69 156t153 55zM456 434q-33 0 -51.5 -18.5t-28.5 -45.5t-12.5 -58t-2.5 -55q0 -86 24 -131t72 -45q95 0 95 172
q0 88 -24 134.5t-72 46.5z" />
    <glyph glyph-name="afii10097" unicode="&#x44f;" 
d="M319 0v188h-31q-20 0 -32 -4t-20 -12.5t-14 -21.5t-13 -30l-52 -120h-139l68 148q5 12 12.5 24t16 22t18 17t20.5 8v3q-45 8 -74 46.5t-29 95.5q0 35 13 63t33.5 47.5t47 30t53.5 10.5h245v-515h-123zM322 423h-68q-34 0 -55.5 -17.5t-21.5 -52.5q0 -38 23.5 -55.5
t61.5 -17.5h60v143z" />
    <glyph glyph-name="afii10071" unicode="&#x451;" 
d="M164 223q2 -69 36 -106t95 -37q32 0 63 9t72 31l3 -99q-35 -16 -75 -24t-78 -8q-112 0 -174 71t-62 197q0 60 15.5 109t43 84.5t66.5 54.5t87 19q62 0 101.5 -24.5t62.5 -64.5t31.5 -91t8.5 -103v-18h-296v0zM341 299q-2 75 -23.5 107.5t-63.5 32.5q-31 0 -49 -16
t-27 -38.5t-12.5 -46t-4.5 -39.5h180zM224 734v-121h-100v121h100zM384 734v-121h-100v121h100z" />
    <glyph glyph-name="afii10099" unicode="&#x452;" horiz-adv-x="519" 
d="M67 433h-57v91h57v226h123v-226h220v-91h-220v-72q0 -15 -1 -31.5t-3 -31.5q6 14 17 29t27.5 28t37.5 21t46 8q42 0 74 -18t53.5 -49.5t33 -75.5t11.5 -95q0 -124 -49 -194t-142 -70q-14 0 -28.5 3t-23.5 6l4 90q8 -2 19.5 -3t20.5 -1q31 0 51 39t20 127q0 73 -21 110.5
t-60 37.5q-45 0 -66 -46.5t-21 -136.5v-108h-123v433z" />
    <glyph glyph-name="afii10100" unicode="&#x453;" horiz-adv-x="378" 
d="M186 420v-420h-123v515h306v-95h-183zM305 734l-100 -142h-76l60 142h116z" />
    <glyph glyph-name="afii10101" unicode="&#x454;" horiz-adv-x="426" 
d="M385 11q-9 -3 -23.5 -7t-31.5 -7t-34.5 -5.5t-33.5 -2.5q-54 0 -98 19t-75 54t-47.5 84.5t-16.5 111.5q0 60 17 109t47.5 84t74 54t97.5 19q55 0 120 -23l-6 -95q-21 10 -44 16t-44 6q-31 0 -54 -9t-39 -24.5t-26 -36.5t-15 -46h170v-91h-172q8 -66 43 -101.5t95 -35.5
q24 0 45 4.5t48 17.5l3 -95v0z" />
    <glyph glyph-name="afii10102" unicode="&#x455;" horiz-adv-x="407" 
d="M339 408l-52.5 16.5t-53.5 8.5q-35 0 -56 -15t-21 -41q0 -18 11 -30t27.5 -21t36 -16t36.5 -15q51 -24 78 -58t27 -89q0 -75 -49.5 -117t-134.5 -42q-35 0 -70.5 5.5t-78.5 18.5l6 105q29 -17 62.5 -26t65.5 -9q35 0 58 17.5t23 43.5q0 16 -9 28t-23.5 20.5t-32.5 15.5
l-37 14q-54 21 -83 59t-29 89q0 34 13 62.5t37 48.5t56.5 31.5t71.5 11.5q32 0 64 -4.5t64 -15.5z" />
    <glyph glyph-name="afii10103" unicode="&#x456;" horiz-adv-x="260" 
d="M194 734v-121h-129v121h129zM191 515v-515h-123v515h123z" />
    <glyph glyph-name="afii10104" unicode="&#x457;" horiz-adv-x="260" 
d="M191 515v-515h-123v515h123zM100 734v-121h-100v121h100zM260 734v-121h-100v121h100z" />
    <glyph glyph-name="afii10105" unicode="&#x458;" horiz-adv-x="260" 
d="M191 515v-562q0 -38 -6 -70t-22 -55.5t-43.5 -37t-70.5 -13.5q-21 0 -33.5 2t-32.5 8l3 89q9 -3 14 -4t13 -1q18 0 28.5 6.5t16.5 18t8 25.5t2 29v565h123zM194 734v-121h-129v121h129z" />
    <glyph glyph-name="afii10106" unicode="&#x459;" horiz-adv-x="749" 
d="M721 163q0 -42 -13 -73t-36 -51t-55 -29.5t-69 -9.5h-215v420h-110v-162q0 -53 -6 -101t-22.5 -84.5t-46.5 -58t-78 -21.5q-14 0 -33 2.5t-33 5.5l2 89q4 -1 15 -2t14 -1q23 0 36.5 14t20 37.5t8.5 54.5t2 65v257h354v-188h87q39 0 71.5 -8.5t56 -28t37 -51t13.5 -76.5z
M596 160q0 74 -75 74h-65v-141h53q17 0 33 2.5t28 10t19 20.5t7 34z" />
    <glyph glyph-name="afii10107" unicode="&#x45a;" horiz-adv-x="749" 
d="M721 163q0 -42 -13 -73t-36 -51t-55 -29.5t-69 -9.5h-215v230h-152v-230h-123v515h123v-188h152v188h123v-188h87q39 0 71.5 -8.5t56 -28t37 -51t13.5 -76.5zM596 160q0 74 -75 74h-65v-141h53q17 0 33 2.5t28 10t19 20.5t7 34z" />
    <glyph glyph-name="afii10108" unicode="&#x45b;" horiz-adv-x="519" 
d="M10 524h57v226h123v-226h220v-91h-220v-72q0 -15 -1 -31.5t-3 -31.5q28 43 60 61.5t76 18.5q45 0 73.5 -16t45 -41t23 -56.5t6.5 -61.5v-203h-122v156q0 19 -1 40t-7.5 39t-21 30t-40.5 12q-32 0 -50 -15.5t-26.5 -39t-10 -51t-1.5 -50.5v-121h-123v433h-57v91z" />
    <glyph glyph-name="afii10109" unicode="&#x45c;" 
d="M183 515v-220h3l160 220h137l-187 -241l201 -274h-148l-163 241h-3v-241h-123v515h123zM372 734l-100 -142h-76l60 142h116z" />
    <glyph glyph-name="afii10110" unicode="&#x45e;" horiz-adv-x="463" 
d="M231 579q-53 0 -88.5 28t-60.5 69l52 47q17 -26 41 -44t56 -18q33 0 57 18t41 44l52 -47q-26 -42 -61.5 -69.5t-88.5 -27.5zM134 515l73 -258q3 -9 6.5 -25l7.5 -34.5l8 -38.5t6 -37h6q3 32 10.5 68t15.5 65l70 260h121l-177 -578q-10 -33 -22 -62t-30 -50t-44.5 -33
t-65.5 -12q-37 0 -73 10l4 95l17 -5t23 -3q27 0 45.5 15.5t26.5 40.5q4 13 6 25t7 38l-171 519h130z" />
    <glyph glyph-name="afii10193" unicode="&#x45f;" horiz-adv-x="519" 
d="M319 0v-160h-120v160h-141v515h123v-420h157v420h123v-515h-142z" />
    <glyph glyph-name="afii10050" unicode="&#x490;" horiz-adv-x="444" 
d="M205 597v-597h-127v698h225v122h121v-223h-219z" />
    <glyph glyph-name="afii10098" unicode="&#x491;" horiz-adv-x="378" 
d="M186 420v-420h-123v515h189v108h117v-203h-183z" />
    <glyph glyph-name="Euro" unicode="&#x20ac;" horiz-adv-x="520" 
d="M498 571q-19 14 -50 21t-53 7q-33 0 -59.5 -12t-46.5 -32t-34 -48t-22 -59h240l-14 -60h-236q-2 -20 -2 -39t2 -39h222l-13 -60h-198q9 -30 23.5 -57t35 -47.5t46.5 -32t58 -11.5q23 0 51.5 5.5t49.5 17.5l6 -117q-32 -10 -62.5 -14t-63.5 -4q-60 0 -107 20t-82.5 55
t-58.5 82.5t-33 102.5h-87l14 60h66q-3 39 0 78h-80l14 60h73q10 52 32.5 99.5t57 83t81 56.5t103.5 21q42 0 77 -7t73 -25z" />
    <glyph glyph-name="afii61352" unicode="&#x2116;" horiz-adv-x="941" 
d="M891 308q0 -97 -36 -142.5t-102 -45.5t-103 45.5t-37 142.5q0 37 7 71t23 60t43 41t66 15t66 -15t43 -41t23 -60t7 -71zM613 0v73h279v-73h-279zM396 0l-163 413l-25 64.5t-23 65.5h-4q4 -49 7 -97.5t3 -97.5v-348h-118v698h154l162 -405l28 -71t22 -73h5q-3 43 -7 86.5
t-4 86.5v376h118v-698h-155zM797 307q0 67 -13 92.5t-33 25.5t-32 -25.5t-12 -92.5q0 -66 13 -91t33 -25t32 24.5t12 91.5z" />
    <glyph glyph-name="uni2219" unicode="&#x2219;" horiz-adv-x="259" 
d="M190 369v-129h-121v129h121z" />
  </font>
</defs>
</svg>
