<?xml version="1.0" standalone="no"?>
<!DOCTYPE svg PUBLIC "-//W3C//DTD SVG 1.1//EN" "http://www.w3.org/Graphics/SVG/1.1/DTD/svg11.dtd" >
<svg>
<metadata>
Created by FontForge 20090622 at Thu Mar 29 15:39:27 2018
 By deploy user
Part of the digitally encoded machine readable outline data for producing the Typefaces provided is copyrighted (c) 1981,2005 Linotype Library GmbH, www.linotype.com. All rights reserved. This software is the property of Linotype Library GmbH, and may not be reproduced, used, displayed, modified, disclosed or transferred without the express written approval of Linotype Library GmbH.Copyright (c) 1981, 1993 Adobe Systems Incorporated. All rights reserved. All Cyrillic characters are designed for Linotype Library by Double Alex.
</metadata>
<defs>
<font id="FrutigerLTCYR-Black" horiz-adv-x="611" >
  <font-face 
    font-family="Frutiger LT CYR 55 Roman"
    font-weight="750"
    font-stretch="normal"
    units-per-em="1000"
    panose-1="2 0 10 3 5 0 0 2 0 4"
    ascent="800"
    descent="-200"
    x-height="521"
    cap-height="698"
    bbox="-38 -220 1118 898"
    underline-thickness="50"
    underline-position="-50"
    unicode-range="U+0020-U+F8FF"
  />
<missing-glyph horiz-adv-x="512" 
d="M222 117v67h56v-67h-56zM225 234l-2 17q0 56 13 81q7 13 18 27.5t28 31.5q16 15 26 26.5t15 21t7 18t2 17.5q0 36 -22.5 60.5t-53.5 24.5t-53.5 -22t-28.5 -73l-50 8q7 72 44 104.5t91 32.5t89 -35.5t35 -95.5q0 -32 -12.5 -58.5t-50.5 -61.5q-37 -33 -43 -52
q-6 -20 -6 -72h-46zM462 50v617h-412v-617h412zM512 718v-718h-512v718h512z" />
    <glyph glyph-name=".notdef" horiz-adv-x="512" 
d="M222 117v67h56v-67h-56zM225 234l-2 17q0 56 13 81q7 13 18 27.5t28 31.5q16 15 26 26.5t15 21t7 18t2 17.5q0 36 -22.5 60.5t-53.5 24.5t-53.5 -22t-28.5 -73l-50 8q7 72 44 104.5t91 32.5t89 -35.5t35 -95.5q0 -32 -12.5 -58.5t-50.5 -61.5q-37 -33 -43 -52
q-6 -20 -6 -72h-46zM462 50v617h-412v-617h412zM512 718v-718h-512v718h512z" />
    <glyph glyph-name=".null" horiz-adv-x="0" 
 />
    <glyph glyph-name="nonmarkingreturn" horiz-adv-x="306" 
 />
    <glyph glyph-name="space" unicode=" " horiz-adv-x="306" 
 />
    <glyph glyph-name="exclam" unicode="!" horiz-adv-x="444" 
d="M290 229h-135l-25 469h185zM139 0v155h166v-155h-166z" />
    <glyph glyph-name="quotedbl" unicode="&#x22;" 
d="M452 394h-93l-27 304h147zM251 394h-92l-27 304h147z" />
    <glyph glyph-name="numbersign" unicode="#" horiz-adv-x="612" 
d="M500 410l-22 -120h78v-121h-100l-31 -169h-141l31 169h-84l-31 -169h-142l32 169h-78v121h101l21 120h-78v120h100l31 168h141l-31 -168h84l31 168h142l-32 -168h78v-120h-100zM275 410l-21 -120h83l22 120h-84z" />
    <glyph glyph-name="dollar" unicode="$" horiz-adv-x="612" 
d="M574 218q0 -55 -19 -94t-52 -66t-76.5 -42t-91.5 -22v-86h-58v86q-56 0 -109 6.5t-107 18.5l15 143q49 -17 99 -27.5t102 -12.5v165q-42 12 -85 28t-77 40.5t-55.5 60t-21.5 88.5q0 52 20.5 89.5t54.5 62.5t77 37t87 13v86h58v-86l94.5 -10t92.5 -19l-11 -131
q-84 39 -176 39v-150q44 -12 87 -26.5t76.5 -38.5t54.5 -60t21 -92zM277 582q-36 -4 -56 -21t-20 -45q0 -17 6.5 -29t17.5 -20t24.5 -13.5t27.5 -9.5v138zM411 203q0 52 -76 74v-154q30 7 53 26t23 54z" />
    <glyph glyph-name="percent" unicode="%" horiz-adv-x="1000" 
d="M953 196q0 -106 -44 -157t-136 -51q-85 0 -128 52t-43 153q0 104 44 157t132 53q86 0 130.5 -52.5t44.5 -154.5zM363 -22h-110l382 743h109zM398 504q0 -106 -44 -157t-136 -51q-85 0 -128 52t-43 153q0 104 44 157t132 53q86 0 130.5 -52.5t44.5 -154.5zM826 201
q0 60 -11 85.5t-38 25.5q-19 0 -29 -13t-14.5 -31t-5 -37t-0.5 -32t0.5 -33.5t4.5 -40t14 -33.5t30 -14q21 0 31.5 14t14 33.5t3.5 40.5v35zM271 509q0 60 -11 85.5t-38 25.5q-19 0 -29 -13t-14.5 -31t-5 -37t-0.5 -32t0.5 -33.5t4.5 -40t14 -33.5t30 -14q21 0 31.5 14
t14 33.5t3.5 40.5v35z" />
    <glyph glyph-name="ampersand" unicode="&#x26;" horiz-adv-x="778" 
d="M567 0l-41 51q-25 -18 -49 -30t-49 -19.5t-52 -10.5t-58 -3q-62 0 -112.5 15.5t-86.5 44t-55.5 68t-19.5 88.5q0 63 33 107.5t104 78.5q-38 33 -63 68t-25 89q0 39 17 70.5t48 54t75 34.5t98 12t98 -12.5t75 -35t47.5 -54.5t16.5 -72q0 -37 -12.5 -64t-33.5 -48
t-47.5 -37.5l-53.5 -32.5l120 -112q27 29 36.5 59.5t12.5 68.5h155q-2 -41 -8.5 -73t-18.5 -59.5t-30.5 -53.5t-45.5 -55l124 -137h-199zM409 540q0 29 -20.5 45.5t-56.5 16.5q-34 0 -54.5 -17.5t-20.5 -46.5q0 -15 6 -29t16 -26t22 -22.5l23 -19.5q48 26 66.5 48t18.5 51z
M277 300q-34 -21 -48 -42t-14 -51q0 -43 31 -70.5t81 -27.5q31 0 55.5 10t49.5 26z" />
    <glyph glyph-name="quotesingle" unicode="'" horiz-adv-x="333" 
d="M210 394h-87l-30 304h147z" />
    <glyph glyph-name="parenleft" unicode="(" horiz-adv-x="389" 
d="M229 -141q-38 52 -68 103t-51 105t-32 112t-11 125t11 126.5t32 114.5t51 107t68 105h145q-33 -55 -59 -107.5t-44 -106.5t-27.5 -112t-9.5 -124q0 -67 9.5 -124.5t27.5 -111t44 -105.5t59 -107h-145z" />
    <glyph glyph-name="parenright" unicode=")" horiz-adv-x="389" 
d="M324 304q0 -67 -11 -125t-32 -112t-51 -105t-68 -103h-145q33 55 59 107t44 105.5t27.5 111t9.5 124.5q0 66 -9.5 124t-27.5 112t-44 106.5t-59 107.5h145q38 -53 68 -105t51 -107t32 -114.5t11 -126.5z" />
    <glyph glyph-name="asterisk" unicode="*" 
d="M372 525l101 -103l-101 -72l-66 131l-72 -131l-99 72l106 103l-144 25l38 116l134 -66l-23 150h126l-26 -150l132 66l36 -116z" />
    <glyph glyph-name="plus" unicode="+" horiz-adv-x="600" 
d="M374 177v-177h-148v177h-176v146h176v177h148v-177h176v-146h-176z" />
    <glyph glyph-name="comma" unicode="," horiz-adv-x="306" 
d="M141 -111h-137l66 270h171z" />
    <glyph glyph-name="hyphen" unicode="-" horiz-adv-x="333" 
d="M30 201v134h273v-134h-273z" />
    <glyph glyph-name="period" unicode="." horiz-adv-x="306" 
d="M67 0v159h171v-159h-171z" />
    <glyph glyph-name="slash" unicode="/" horiz-adv-x="278" 
d="M88 -17h-126l227 732h126z" />
    <glyph glyph-name="zero" unicode="0" horiz-adv-x="612" 
d="M577 359q0 -73 -9.5 -140.5t-38.5 -119.5t-82 -83t-140 -31q-83 0 -135.5 28t-83 76.5t-42 113t-11.5 136.5q0 73 10 140.5t39 119.5t83 83t141 31q139 0 204 -85.5t65 -268.5zM398 345v40.5t-2.5 51.5t-8 54t-16 48.5t-27 35t-40.5 13.5q-22 0 -37.5 -13t-25.5 -33.5
t-15.5 -46t-8 -51t-3 -48.5t-0.5 -37q0 -127 22.5 -188t70.5 -61q33 0 51.5 28.5t27 67t10.5 78t2 61.5z" />
    <glyph glyph-name="one" unicode="1" horiz-adv-x="612" 
d="M280 0v515l-132 -96l-83 122l238 157h160v-698h-183z" />
    <glyph glyph-name="two" unicode="2" horiz-adv-x="612" 
d="M42 0v133l94 80l91 84q66 63 93.5 106t27.5 82q0 41 -28.5 65t-77.5 24q-47 0 -91 -15t-86 -35l-8 148q54 18 109.5 29.5t113.5 11.5t105 -14.5t80 -41t50.5 -64.5t17.5 -86q0 -26 -5 -49.5t-16 -48t-28 -51t-42 -57.5q-38 -46 -80 -89.5t-90 -79.5l276 1v-133h-506z" />
    <glyph glyph-name="three" unicode="3" horiz-adv-x="612" 
d="M552 197q0 -47 -22 -85.5t-61.5 -66t-96 -42.5t-125.5 -15q-51 0 -101.5 6.5t-99.5 18.5l8 146q18 -9 39 -15.5t43.5 -11t45 -7t41.5 -2.5q71 0 107.5 22.5t36.5 66.5q0 33 -17.5 50t-43.5 24t-55 7.5t-51 0.5h-37v126h59q20 0 44.5 2t45.5 9.5t35.5 23t14.5 43.5
q0 38 -33.5 59.5t-90.5 21.5q-42 0 -82 -8.5t-80 -21.5l-12 135q51 13 101 21t102 8q134 0 203.5 -49t69.5 -143q0 -34 -9 -59.5t-26 -44t-41 -31.5t-53 -22q63 -14 102 -54.5t39 -112.5z" />
    <glyph glyph-name="four" unicode="4" horiz-adv-x="612" 
d="M494 133v-133h-173v133h-311v152l280 413h204v-440h100v-125h-100zM329 554l-187 -296h187v296z" />
    <glyph glyph-name="five" unicode="5" horiz-adv-x="612" 
d="M562 239q0 -67 -26 -114.5t-69 -78t-98.5 -44.5t-114.5 -14q-47 0 -94 7t-92 20v150q40 -18 79 -29.5t84 -11.5q72 0 110 26t38 75q0 35 -16 56t-40.5 32t-54 14.5t-56.5 3.5q-36 0 -68 -3t-67 -11v381h456v-129h-294v-117q24 4 38.5 5t38.5 1q51 0 95.5 -13.5t78 -40.5
t53 -68.5t19.5 -96.5z" />
    <glyph glyph-name="six" unicode="6" horiz-adv-x="612" 
d="M571 224q0 -53 -19 -96.5t-52.5 -74.5t-80.5 -48.5t-104 -17.5q-77 0 -129.5 27t-84.5 73t-46 108t-14 131q0 80 16 150.5t53.5 123t98.5 82.5t150 30q44 0 87 -7.5t85 -21.5l-13 -137q-32 17 -73.5 26t-76.5 9q-49 0 -80 -17t-48 -45.5t-23.5 -65t-6.5 -74.5
q28 34 65 52.5t84 18.5t86 -16.5t67 -46.5t43.5 -71.5t15.5 -91.5zM396 212q0 52 -22.5 79.5t-64.5 27.5t-66 -27.5t-24 -76.5q0 -48 25 -77.5t65 -29.5q38 0 62.5 29t24.5 75z" />
    <glyph glyph-name="seven" unicode="7" horiz-adv-x="612" 
d="M308 0h-199l264 566h-336v132h520v-146z" />
    <glyph glyph-name="eight" unicode="8" horiz-adv-x="612" 
d="M577 192q0 -58 -24 -97t-63 -63t-87.5 -34.5t-97.5 -10.5q-61 0 -111 14.5t-85 40.5t-54.5 63.5t-19.5 82.5q0 70 38 112.5t100 59.5q-56 21 -89.5 60.5t-33.5 103.5q0 42 18.5 77t52.5 59.5t81 38.5t103 14q55 0 100.5 -13t77.5 -36t49.5 -56.5t17.5 -73.5
q0 -55 -29 -96.5t-86 -66.5q69 -22 105.5 -68t36.5 -111zM389 518q0 34 -24.5 55t-62.5 21q-39 0 -63.5 -22.5t-24.5 -57.5q0 -62 90 -97q36 11 60.5 36.5t24.5 64.5zM404 204q0 71 -110 100q-86 -34 -86 -104q0 -20 7.5 -36.5t21 -29t31.5 -19.5t39 -7q42 0 69.5 27
t27.5 69z" />
    <glyph glyph-name="nine" unicode="9" horiz-adv-x="612" 
d="M571 372q0 -192 -81 -288.5t-241 -96.5q-44 0 -85.5 8.5t-83.5 19.5l14 137q36 -14 72.5 -24t75.5 -10q49 0 80.5 17t49.5 45.5t24.5 64.5t6.5 74q-28 -33 -65 -52t-84 -19q-48 0 -87.5 17t-67 47t-43 70.5t-15.5 88.5q0 54 18.5 98.5t52 76t80.5 49t104 17.5
q136 0 205.5 -86t69.5 -254zM392 482q0 48 -25 78t-64 30t-63 -28.5t-24 -74.5q0 -49 24 -78.5t62 -29.5q39 0 64.5 29t25.5 74z" />
    <glyph glyph-name="colon" unicode=":" horiz-adv-x="306" 
d="M68 362v159h170v-159h-170zM68 0v159h170v-159h-170z" />
    <glyph glyph-name="semicolon" unicode=";" horiz-adv-x="306" 
d="M68 362v159h170v-159h-170zM143 -111h-137l66 270h171z" />
    <glyph glyph-name="less" unicode="&#x3c;" horiz-adv-x="600" 
d="M30 175v151l540 211v-156l-369 -131l369 -131v-156z" />
    <glyph glyph-name="equal" unicode="=" horiz-adv-x="600" 
d="M30 297v146h540v-146h-540zM30 57v146h540v-146h-540z" />
    <glyph glyph-name="greater" unicode="&#x3e;" horiz-adv-x="600" 
d="M30 -37v156l369 131l-369 131v156l540 -211v-151z" />
    <glyph glyph-name="question" unicode="?" horiz-adv-x="556" 
d="M516 543q0 -30 -8.5 -55t-22 -46.5t-31 -42l-36.5 -42.5l-26 -31t-20.5 -28t-13.5 -31t-6 -39h-146q0 27 3.5 48t11.5 39t20.5 35t30.5 37q35 38 49.5 65t14.5 52q0 38 -31.5 58.5t-87.5 20.5q-40 0 -76 -9t-72 -25l-6 137q50 13 99.5 20.5t113.5 7.5q38 0 80.5 -7.5
t78 -27t58.5 -52.5t23 -84zM196 0v155h166v-155h-166z" />
    <glyph glyph-name="at" unicode="@" horiz-adv-x="800" 
d="M766 421q0 -52 -17 -98.5t-45.5 -81t-66.5 -55t-81 -20.5q-35 0 -60.5 22.5t-27.5 55.5q-46 -82 -130 -82q-61 0 -98 42t-37 112q0 47 16 90t43.5 75.5t63.5 51.5t76 19q38 0 64.5 -15t37.5 -44l12 42h108l-56 -192l-10.5 -34.5t-5.5 -35.5q0 -15 9.5 -24.5t24.5 -9.5
q27 0 47.5 21.5t34 51.5t20.5 62t7 53q0 51 -19 93t-53.5 71.5t-83.5 46t-108 16.5q-71 0 -130.5 -23.5t-103 -65.5t-68 -100t-24.5 -126q0 -65 23 -119t65 -93t100 -61t128 -22q72 0 139.5 25.5t122.5 70.5l36 -49q-77 -56 -149 -82t-153 -26q-83 0 -153 27t-121 75
t-80 114t-29 143q0 79 30.5 147t84 118t125.5 79t156 29q73 0 135 -22t106.5 -61t69.5 -93t25 -118zM473 430q0 20 -11.5 32.5t-31.5 12.5q-24 0 -42.5 -20t-31.5 -47.5t-19.5 -56.5t-6.5 -47q0 -26 9 -45t39 -19q18 0 31 14.5t23 35t16.5 42.5t11.5 37q13 43 13 61z" />
    <glyph glyph-name="A" unicode="A" horiz-adv-x="778" 
d="M566 0l-52 149h-262l-55 -149h-189l267 698h225l270 -698h-204zM387 562l-91 -282h173z" />
    <glyph glyph-name="B" unicode="B" horiz-adv-x="667" 
d="M626 189q0 -54 -23 -90.5t-58.5 -58.5t-79.5 -31t-86 -9h-317v698h305q41 0 83.5 -6.5t77 -25.5t56.5 -53.5t22 -90.5q0 -69 -32.5 -106t-89.5 -59q32 -8 58 -21.5t45 -33.5t29 -48t10 -65zM421 494q0 25 -10 39.5t-25 22.5t-32 10.5t-32 2.5h-76v-152h56q19 0 40.5 2.5
t38.5 11t28.5 23.5t11.5 40zM437 212q0 27 -10.5 43t-27.5 24t-37.5 10.5t-41.5 2.5h-74v-162h78q113 0 113 82z" />
    <glyph glyph-name="C" unicode="C" horiz-adv-x="667" 
d="M647 14q-86 -29 -208 -29q-83 0 -156 23t-127.5 68.5t-86 114t-31.5 160.5q0 84 27 151.5t78 114.5t123.5 72.5t162.5 25.5q54 0 108 -9t105 -29l-15 -146q-38 21 -84 32.5t-89 11.5q-51 0 -92 -15.5t-70 -44t-44.5 -69.5t-15.5 -91q0 -51 17 -93t47.5 -71.5t74.5 -45.5
t98 -16q41 0 80.5 10t86.5 30l11 -155v0z" />
    <glyph glyph-name="D" unicode="D" horiz-adv-x="778" 
d="M733 347q0 -45 -8.5 -88.5t-27 -82.5t-47.5 -71.5t-69 -55.5q-47 -27 -109.5 -38t-163.5 -11h-243v698h223q91 0 172 -12t141.5 -49t96 -106t35.5 -184zM539 346q0 108 -57.5 160.5t-169.5 52.5h-60v-423h64q51 0 92 13.5t70 39.5t45 65.5t16 91.5z" />
    <glyph glyph-name="E" unicode="E" 
d="M62 0v698h490v-134h-304v-140h287v-135h-287v-155h315v-134h-501z" />
    <glyph glyph-name="F" unicode="F" horiz-adv-x="556" 
d="M248 564v-150h266v-132h-266v-282h-186v698h464v-134h-278z" />
    <glyph glyph-name="G" unicode="G" horiz-adv-x="778" 
d="M711 20q-31 -9 -58.5 -15.5t-54.5 -10.5t-55.5 -6t-61.5 -2q-216 0 -327.5 90t-111.5 264q0 97 33.5 167.5t92 116.5t137.5 67.5t170 21.5q54 0 104.5 -8t114.5 -27l-15 -151q-18 11 -42.5 20t-51 15t-52.5 9t-47 3q-56 0 -102 -16.5t-79 -46.5t-51.5 -71.5t-18.5 -92.5
q0 -50 15 -91t43 -70t68 -45t91 -16q22 0 37.5 2t41.5 8v135h-107v130h287v-380v0z" />
    <glyph glyph-name="H" unicode="H" horiz-adv-x="722" 
d="M469 0v292h-216v-292h-188v698h188v-266h216v266h188v-698h-188z" />
    <glyph glyph-name="I" unicode="I" horiz-adv-x="334" 
d="M73 0v698h188v-698h-188z" />
    <glyph glyph-name="J" unicode="J" horiz-adv-x="444" 
d="M380 227q0 -115 -60 -178t-182 -63q-18 0 -31.5 0.5t-27 3t-29 6.5t-35.5 10v151q23 -8 36 -10.5t32 -2.5q61 0 85 34.5t24 90.5v429h188v-471v0z" />
    <glyph glyph-name="K" unicode="K" horiz-adv-x="722" 
d="M472 0l-217 316v-316h-188v698h188v-285l210 285h224l-258 -327l278 -371h-237z" />
    <glyph glyph-name="L" unicode="L" horiz-adv-x="556" 
d="M65 0v698h188v-559h284v-139h-472z" />
    <glyph glyph-name="M" unicode="M" horiz-adv-x="1000" 
d="M753 0v515l-174 -515h-171l-169 515v-515h-175v698h286l150 -463l150 463h287v-698h-184z" />
    <glyph glyph-name="N" unicode="N" horiz-adv-x="778" 
d="M480 0l-240 474v-474h-174v698h235l237 -475v475h174v-698h-232z" />
    <glyph glyph-name="O" unicode="O" horiz-adv-x="778" 
d="M740 351q0 -85 -23 -153t-68 -116t-111.5 -73.5t-153.5 -25.5q-82 0 -146.5 25t-108.5 72.5t-67.5 116.5t-23.5 157q0 81 23.5 147.5t68 114t109 73.5t147.5 26t149 -24.5t111.5 -71.5t69.5 -114.5t24 -153.5zM545 346q0 110 -41.5 171t-116.5 61q-73 0 -114 -61
t-41 -171q0 -104 42.5 -164.5t115.5 -60.5q46 0 76 21.5t47.5 54.5t24.5 72.5t7 76.5z" />
    <glyph glyph-name="P" unicode="P" 
d="M592 473q0 -65 -21 -109t-58 -70t-87 -37t-107 -11h-76v-246h-188v698h249q58 0 110 -8.5t91.5 -32.5t63 -68t23.5 -116zM404 473q0 43 -29.5 67.5t-80.5 24.5h-51v-185h50q53 0 82 24t29 69z" />
    <glyph glyph-name="Q" unicode="Q" horiz-adv-x="778" 
d="M740 354q0 -52 -8.5 -101.5t-28 -93t-52.5 -78.5t-82 -58l160 -155l-207 -1l-111 117q-11 0 -20 -0.5t-14 -0.5q-85 0 -148.5 28t-106 77.5t-63.5 117.5t-21 148q0 83 23.5 149.5t68.5 113.5t110.5 72.5t149.5 25.5t149 -26t110 -73.5t68 -114t23 -147.5zM545 346
q0 110 -41.5 171t-116.5 61q-73 0 -114 -61t-41 -171q0 -104 42.5 -164.5t115.5 -60.5q46 0 76 21.5t47.5 54.5t24.5 72.5t7 76.5z" />
    <glyph glyph-name="R" unicode="R" horiz-adv-x="667" 
d="M455 0l-48 148l-17 49.5t-20.5 38.5t-33 24.5t-54.5 8.5h-33v-269h-188v698h294q42 0 88.5 -5.5t85.5 -25t64.5 -56.5t25.5 -99q0 -72 -38.5 -113t-104.5 -56q23 -8 38 -20t25 -27.5t16.5 -34l14.5 -39.5l81 -222h-196zM430 482q0 81 -115 81h-66v-160h58q21 0 43 2
t39.5 9.5t29 23.5t11.5 44z" />
    <glyph glyph-name="S" unicode="S" 
d="M567 217q0 -111 -76.5 -170t-220.5 -59q-56 0 -109.5 7t-107.5 23l15 152q48 -20 95 -31.5t99 -11.5t82 19t30 52q0 22 -11 36t-31.5 24t-48.5 18t-61 19q-38 12 -70 28t-56 40t-37.5 56.5t-13.5 76.5q0 59 24.5 100t63 66.5t86.5 37t95 11.5q54 0 107 -5.5t106 -19.5
l-10 -141q-37 15 -79.5 24.5t-81.5 9.5q-57 0 -88 -17.5t-31 -49.5q0 -21 13.5 -34.5t34.5 -23t47 -16.5l51 -14q40 -12 73.5 -28.5t58 -41t38.5 -58t14 -79.5z" />
    <glyph glyph-name="T" unicode="T" horiz-adv-x="556" 
d="M371 559v-559h-188v559h-170v139h530v-139h-172z" />
    <glyph glyph-name="U" unicode="U" horiz-adv-x="722" 
d="M662 294q0 -51 -4 -88t-14.5 -65t-28 -50.5t-44.5 -43.5q-79 -64 -212 -64q-72 0 -125.5 18.5t-95.5 58.5q-22 20 -37 42.5t-24 50t-13 62t-4 78.5v405h188v-403q0 -31 2.5 -62t13.5 -56.5t33.5 -41.5t63.5 -16q42 0 65.5 16.5t34.5 42.5t13.5 58t2.5 64v398h185v-404v0z
" />
    <glyph glyph-name="V" unicode="V" horiz-adv-x="722" 
d="M478 0h-230l-237 698h197l159 -517l154 517h190z" />
    <glyph glyph-name="W" unicode="W" horiz-adv-x="1000" 
d="M839 0h-239l-101 527l-94 -527h-238l-157 698h191l93 -517l90 517h238l99 -517l90 517h180z" />
    <glyph glyph-name="X" unicode="X" horiz-adv-x="722" 
d="M488 0l-133 250l-136 -250h-209l225 366l-204 332h217l119 -227l121 227h202l-202 -332l225 -366h-225z" />
    <glyph glyph-name="Y" unicode="Y" horiz-adv-x="722" 
d="M456 257v-257h-189v257l-257 441h219l138 -280l135 280h210z" />
    <glyph glyph-name="Z" unicode="Z" 
d="M31 0v154l321 407h-313v137h534v-148l-329 -414h335v-136h-548z" />
    <glyph glyph-name="bracketleft" unicode="[" horiz-adv-x="389" 
d="M90 -140v898h263v-112h-114v-675h114v-111h-263z" />
    <glyph glyph-name="backslash" unicode="\" horiz-adv-x="278" 
d="M189 -17l-227 732h126l227 -732h-126z" />
    <glyph glyph-name="bracketright" unicode="]" horiz-adv-x="389" 
d="M37 -140v111h114v676h-114v111h262v-898h-262z" />
    <glyph glyph-name="asciicircum" unicode="^" horiz-adv-x="600" 
d="M392 260l-93 262l-93 -262h-156l184 438h131l184 -438h-157z" />
    <glyph glyph-name="underscore" unicode="_" horiz-adv-x="500" 
d="M0 -125v50h500v-50h-500z" />
    <glyph glyph-name="grave" unicode="`" horiz-adv-x="333" 
d="M179 585l-188 147h209l109 -147h-130z" />
    <glyph glyph-name="a" unicode="a" 
d="M399 0q0 17 -2 34.5t-2 34.5v16q-35 -46 -74 -70t-101 -24q-42 0 -76.5 12t-59 34t-38.5 53t-14 68q0 83 69.5 125.5t206.5 42.5q15 0 31 -0.5t45 -2.5q0 19 -5.5 36t-19 29.5t-35.5 20t-55 7.5q-37 0 -81.5 -10t-87.5 -30l-4 120q45 20 99.5 28t102.5 8q146 0 211 -78
q17 -20 25 -45t11.5 -52t3.5 -54v-52l1 -89q1 -81 6 -162h-157zM384 231q-16 2 -24.5 2h-22.5q-133 0 -133 -71q0 -26 20.5 -43t51.5 -17q28 0 48 11t32.5 29.5t19 41.5t8.5 47z" />
    <glyph glyph-name="b" unicode="b" horiz-adv-x="668" 
d="M636 264q0 -54 -14 -104t-42.5 -88.5t-72.5 -62t-103 -23.5q-66 0 -109.5 26.5t-75.5 80.5v-93h-163v750h180v-306q36 43 78 65.5t101 22.5q50 0 90.5 -19t69.5 -54.5t45 -85t16 -109.5zM454 263q0 62 -28 98.5t-76 36.5q-29 0 -50.5 -12t-35.5 -31.5t-21 -44t-7 -50.5
q0 -64 30.5 -101.5t81.5 -37.5q50 0 78 38t28 104z" />
    <glyph glyph-name="c" unicode="c" horiz-adv-x="500" 
d="M481 17q-71 -26 -150 -26q-64 0 -118.5 17t-94.5 50.5t-62.5 84.5t-22.5 120q0 60 20.5 109t58.5 83.5t92 53.5t121 19q42 0 76.5 -7t74.5 -21l-12 -132q-25 14 -48 20.5t-52 6.5q-32 0 -59 -10t-46.5 -28t-30.5 -43t-11 -55t11.5 -55t31.5 -43t48.5 -28t63.5 -10
q29 0 54.5 7.5t51.5 18.5l3 -132v0z" />
    <glyph glyph-name="d" unicode="d" horiz-adv-x="668" 
d="M447 0v93q-62 -105 -184 -105q-60 0 -104 22.5t-72.5 60.5t-42 88t-13.5 105q0 60 16.5 109.5t46.5 84.5t72 54.5t93 19.5q112 0 171 -88v306h180v-610q0 -35 2 -70l4 -70h-169zM432 261q0 63 -31 100.5t-83 37.5q-48 0 -76.5 -36.5t-28.5 -99.5t30 -102.5t78 -39.5
q50 0 80.5 38.5t30.5 101.5z" />
    <glyph glyph-name="e" unicode="e" 
d="M207 207q5 -50 40 -78t98 -28q95 0 178 42l4 -126q-47 -18 -89.5 -25.5t-96.5 -7.5q-67 0 -123.5 16t-98 50t-64.5 86.5t-23 125.5q0 63 19.5 113t55.5 85t87.5 53.5t116.5 18.5q79 0 129.5 -25.5t80 -70t41 -103.5t11.5 -126h-366zM410 309q-5 54 -30 82.5t-69 28.5
q-46 0 -75 -30.5t-31 -80.5h205v0z" />
    <glyph glyph-name="f" unicode="f" horiz-adv-x="444" 
d="M302 395v-395h-180v395h-105v126h105v37q0 103 50.5 151t159.5 48q15 0 26.5 -0.5t22 -2t22 -3.5t26.5 -6l-10 -121q-17 5 -26 6.5t-22 1.5q-69 0 -69 -85v-26h127v-126h-127z" />
    <glyph glyph-name="g" unicode="g" horiz-adv-x="668" 
d="M611 73q0 -27 -1.5 -48.5t-4.5 -39.5t-8 -34.5t-12 -33.5q-27 -64 -101 -100.5t-177 -36.5q-52 0 -106 9t-105 26l9 137q45 -20 87.5 -32t93.5 -12q50 0 80.5 12.5t46.5 34.5t21 52.5t5 66.5v20q-30 -45 -76.5 -68t-100.5 -23q-58 0 -101.5 22t-72 58.5t-43 85
t-14.5 102.5q0 58 17 106t47 82.5t72.5 53.5t93.5 19q129 0 184 -103v92h166v-448v0zM432 265q0 59 -31.5 96.5t-81.5 37.5q-47 0 -76.5 -36.5t-29.5 -93.5q0 -29 8 -53t22.5 -42t34 -28t42.5 -10q24 0 44.5 10t35.5 27.5t23.5 41t8.5 50.5z" />
    <glyph glyph-name="h" unicode="h" horiz-adv-x="667" 
d="M432 0v260q0 22 -2.5 44.5t-11 40.5t-25.5 29t-45 11q-40 0 -62 -18t-32.5 -45.5t-12.5 -60t-2 -60.5v-201h-180v750h180v-312q32 46 75 69t101 23q49 0 86 -16t62 -44t37 -67t12 -84v-319h-180z" />
    <glyph glyph-name="i" unicode="i" horiz-adv-x="334" 
d="M76 606v133h180v-133h-180zM76 0v521h180v-521h-180z" />
    <glyph glyph-name="j" unicode="j" horiz-adv-x="334" 
d="M77 606v134h180v-134h-180zM257 -11q0 -45 -9.5 -83t-31 -65t-56.5 -42t-85 -15q-13 0 -23.5 0.5t-21 1.5t-23.5 3l-32 5l4 115q10 -2 15 -2.5t11 -0.5q26 0 40.5 10t21.5 26.5t8.5 36.5t1.5 40v502h180v-532v0z" />
    <glyph glyph-name="k" unicode="k" 
d="M383 0l-145 258v-258h-180v750h180v-448l151 219h197l-181 -239l196 -282h-218z" />
    <glyph glyph-name="l" unicode="l" horiz-adv-x="334" 
d="M77 0v750h180v-750h-180z" />
    <glyph glyph-name="m" unicode="m" horiz-adv-x="1000" 
d="M766 0v258q0 20 -2 42t-9.5 40.5t-23.5 30.5t-43 12q-28 0 -46.5 -12.5t-29 -32t-15 -43.5t-4.5 -46v-249h-180v258q0 20 -1.5 42t-8.5 40.5t-22 30.5t-42 12q-33 0 -52.5 -16t-30 -40.5t-13.5 -53t-3 -52.5v-221h-180v374q0 37 -2 73.5t-2 73.5h164v-112q63 122 202 122
q121 0 156 -103q34 55 80.5 78.5t111.5 23.5q48 0 81.5 -14t54.5 -40t30.5 -62.5t9.5 -81.5v-332h-180z" />
    <glyph glyph-name="n" unicode="n" horiz-adv-x="667" 
d="M433 0v267q0 21 -3 42.5t-12 38t-25.5 27t-43.5 10.5q-33 0 -54 -13t-33 -33.5t-17 -45.5t-5 -50v-243h-180v351q0 43 -1.5 85t-3.5 85h166v-104q32 54 81.5 83t112.5 29q53 0 90.5 -16.5t61.5 -46.5t35 -71t11 -90v-305h-180z" />
    <glyph glyph-name="o" unicode="o" horiz-adv-x="668" 
d="M634 259q0 -67 -23.5 -118t-64 -85.5t-95.5 -52.5t-118 -18q-68 0 -123 19.5t-94 55.5t-60.5 86t-21.5 112q0 63 21 113.5t59.5 86.5t93.5 55t124 19q65 0 120.5 -17t96 -51t63 -85.5t22.5 -119.5zM449 259q0 33 -8.5 60.5t-23.5 47.5t-36 31t-46 11q-51 0 -83.5 -41
t-32.5 -107q0 -68 32 -110.5t84 -42.5q51 0 82.5 41.5t31.5 109.5z" />
    <glyph glyph-name="p" unicode="p" horiz-adv-x="668" 
d="M637 264q0 -54 -14.5 -103.5t-43.5 -88t-73 -61.5t-102 -23q-60 0 -97 22t-73 66q1 -7 1.5 -12t0.5 -8v-266h-180v577q0 38 -1 77t-3 77h167v-106q32 57 78.5 87t115.5 30q51 0 92.5 -19t70.5 -54t45 -84.5t16 -110.5zM453 266q0 60 -27.5 96t-73.5 36q-54 0 -85 -37
t-31 -100q0 -64 30 -101.5t81 -37.5t78.5 37.5t27.5 106.5z" />
    <glyph glyph-name="q" unicode="q" horiz-adv-x="668" 
d="M432 -210v244v18t0.5 9.5t0.5 6.5v11q-25 -50 -70 -71t-100 -21q-53 0 -96 19.5t-73 56t-46.5 87.5t-16.5 114q0 60 16.5 109.5t47 85t73.5 54.5t95 19q71 0 114 -32.5t72 -83.5v105h163v-731h-180zM432 259q0 26 -6.5 51t-20.5 45t-35.5 32t-50.5 12q-48 0 -76.5 -37
t-28.5 -100q0 -64 29 -102.5t78 -38.5q51 0 81 37.5t30 100.5z" />
    <glyph glyph-name="r" unicode="r" horiz-adv-x="444" 
d="M430 367q-20 5 -32.5 7t-28.5 2q-44 0 -70 -17t-39 -43t-16.5 -58.5t-3.5 -62.5v-195h-180v396q0 31 -1 62.5t-3 62.5h164l3 -122q16 59 52.5 92.5t103.5 33.5q15 0 26 -1.5t31 -5.5z" />
    <glyph glyph-name="s" unicode="s" horiz-adv-x="500" 
d="M468 160q0 -81 -61.5 -126t-173.5 -45q-49 0 -97 6.5t-95 21.5l7 130q45 -19 84 -28t89 -9q34 0 52.5 11.5t18.5 32.5q0 12 -8 20t-19.5 13t-24 7.5t-20.5 4.5q-34 8 -67.5 18t-60 28t-43 45.5t-16.5 70.5q0 48 21.5 80.5t54.5 52t72.5 27.5t75.5 8q51 0 93 -6.5
t86 -22.5l-14 -122q-43 19 -75.5 27t-68.5 8q-35 0 -53.5 -11t-18.5 -32q0 -13 9 -21t24 -13t33.5 -8.5t37.5 -7.5q33 -7 62 -18.5t50 -30t33.5 -45.5t12.5 -66z" />
    <glyph glyph-name="t" unicode="t" horiz-adv-x="444" 
d="M426 0q-17 -3 -30 -4.5t-24 -2.5t-22 -1.5t-24 -0.5q-68 0 -109 15t-63.5 44.5t-30 72.5t-7.5 100v172h-105v126h105v114l177 56v-170h127v-126h-127v-172q0 -21 1.5 -41t8.5 -35.5t22 -25.5t42 -10q13 0 24 1.5t29 6.5l6 -119v0z" />
    <glyph glyph-name="u" unicode="u" horiz-adv-x="667" 
d="M440 0v92q-35 -52 -79 -78t-112 -26q-60 0 -97.5 20t-59 52.5t-29 73.5t-7.5 83v304h180v-277q0 -21 3.5 -40.5t12.5 -35.5t25 -25.5t42 -9.5q31 0 51.5 15t32.5 37.5t17 47.5t5 46v242h180v-393q0 -12 0.5 -30.5t1.5 -37.5t2 -35.5t2 -24.5h-171z" />
    <glyph glyph-name="v" unicode="v" 
d="M405 0h-202l-194 521h194l108 -362l110 362h180z" />
    <glyph glyph-name="w" unicode="w" horiz-adv-x="944" 
d="M775 0h-207l-91 379l-98 -379h-210l-160 521h190l83 -366l93 366h214l89 -366l82 366h174z" />
    <glyph glyph-name="x" unicode="x" 
d="M391 0l-91 158l-88 -158h-202l177 266l-161 255h209l79 -154l77 154h198l-162 -255l174 -266h-210z" />
    <glyph glyph-name="y" unicode="y" 
d="M384 -29q-17 -42 -36 -76.5t-45.5 -59.5t-63 -39t-87.5 -14q-16 0 -28 0.5t-23.5 2t-24.5 4.5t-31 8l12 130q24 -5 39.5 -7.5t31.5 -2.5q32 0 53.5 15.5t38.5 51.5l-211 537h193l113 -345l107 345h180z" />
    <glyph glyph-name="z" unicode="z" horiz-adv-x="500" 
d="M27 0v145l231 246h-227v130h438v-137l-235 -253h240v-131h-447z" />
    <glyph glyph-name="braceleft" unicode="{" horiz-adv-x="389" 
d="M379 -140q-68 3 -117 16.5t-80.5 40t-46.5 66t-15 95.5v67q0 54 -26.5 79t-83.5 36v98q57 11 83.5 36t26.5 79v67q0 56 15 95.5t46.5 66t80.5 40t117 16.5v-92q-60 -2 -84 -33t-24 -91v-55q0 -47 -11 -79t-32 -52t-52 -31t-72 -16q41 -5 72 -16t52 -31t32 -52t11 -79v-55
q0 -60 24 -91t84 -33v-92v0z" />
    <glyph glyph-name="bar" unicode="|" horiz-adv-x="222" 
d="M38 -214v1000h147v-1000h-147z" />
    <glyph glyph-name="braceright" unicode="}" horiz-adv-x="389" 
d="M379 260q-57 -11 -83.5 -36t-26.5 -79v-67q0 -56 -15 -95.5t-46.5 -66t-80.5 -40t-117 -16.5v92q60 2 84 33t24 91v55q0 47 11 79t32 52t52 31t72 16q-41 5 -72 16t-52 31t-32 52t-11 79v55q0 60 -24 91t-84 33v92q68 -3 117 -16.5t80.5 -40t46.5 -66t15 -95.5v-67
q0 -54 26.5 -79t83.5 -36v-98v0z" />
    <glyph glyph-name="asciitilde" unicode="~" horiz-adv-x="600" 
d="M579 352q-3 -47 -16 -85.5t-33 -65.5t-47 -41.5t-59 -14.5q-15 0 -48.5 7.5t-72.5 19.5q-8 2 -25.5 8t-38 12t-40 10.5t-29.5 4.5q-47 0 -55 -56h-95q2 44 14.5 81.5t33.5 64.5t48.5 42.5t59.5 15.5q22 0 55.5 -8.5t85.5 -25.5q24 -8 54 -17t56 -9q29 0 40 15.5t16 41.5
h96v0z" />
    <glyph glyph-name="uni00A0" unicode="&#xa0;" horiz-adv-x="306" 
 />
    <glyph glyph-name="sterling" unicode="&#xa3;" horiz-adv-x="612" 
d="M558 558q-29 8 -49.5 11.5t-41.5 3.5q-63 0 -98.5 -39.5t-35.5 -108.5v-15h152v-93h-148v-188h221v-129h-502v129h96v188h-84v93h84v43q0 54 17 100.5t51.5 81t85 54t118.5 19.5q18 0 32.5 -1t30 -3t34 -6t43.5 -10z" />
    <glyph glyph-name="currency" unicode="&#xa4;" horiz-adv-x="612" 
d="M483 85l-67 67q-27 -14 -52 -21t-57 -7q-31 0 -56.5 7t-53.5 21l-67 -67l-87 88l67 67q-28 50 -28 109q0 32 7 56.5t21 52.5l-67 67l87 88l68 -67q29 13 52.5 20.5t56.5 7.5t56.5 -7.5t52.5 -21.5l66 67l87 -87l-66 -67q14 -27 21.5 -52.5t7.5 -57.5q0 -31 -7.5 -56.5
t-21.5 -52.5l67 -66zM402 349q0 40 -28 67.5t-68 27.5q-20 0 -37 -7.5t-30 -20.5t-20.5 -30.5t-7.5 -36.5q0 -20 7.5 -37.5t20.5 -30t30 -20t37 -7.5q40 0 68 27.5t28 67.5z" />
    <glyph glyph-name="section" unicode="&#xa7;" 
d="M545 288q0 -42 -20 -77.5t-55 -58.5q34 -23 51.5 -48t17.5 -68q0 -52 -25 -85.5t-62 -53.5t-80.5 -28t-79.5 -8q-56 0 -107.5 7.5t-99.5 21.5l10 131q22 -10 42.5 -17.5t41 -12t42 -6.5t46.5 -2q99 0 99 54q0 15 -11 26t-30 20.5t-44.5 19.5l-54.5 22q-32 13 -61 28
t-51 34t-35 44.5t-13 60.5q0 48 25 78t58 53q-40 22 -57.5 50.5t-17.5 70.5q0 50 23 82t57.5 51t75 26t75.5 7q52 0 96.5 -6t91.5 -17l-12 -122q-37 12 -75.5 20t-77.5 8q-42 0 -65.5 -13t-23.5 -36t25.5 -36t84.5 -33q34 -12 68.5 -26.5t63 -36t46.5 -51.5t18 -73zM401 263
q0 19 -7.5 32.5t-19.5 23.5t-27 17l-31 14l-73 33q-17 -17 -25 -32.5t-8 -34.5q0 -17 8 -29t20.5 -21t27 -16l27.5 -13l79 -39l20 30t9 35z" />
    <glyph glyph-name="copyright" unicode="&#xa9;" horiz-adv-x="800" 
d="M766 349q0 -76 -29 -142.5t-78.5 -116t-116 -78.5t-142.5 -29t-142.5 29t-116 78.5t-78.5 116t-29 142.5t29 142.5t78.5 116t116 78.5t142.5 29t142.5 -29t116 -78.5t78.5 -116t29 -142.5zM680 349q0 58 -22 109t-60 89.5t-89 60.5t-109 22t-109 -22t-89.5 -60
t-60.5 -89.5t-22 -109.5t22 -109t60.5 -89t89.5 -60t109 -22t109 22t89 60t60 89t22 109zM585 292q-4 -36 -18.5 -65t-38 -49.5t-54 -32t-66.5 -11.5q-44 0 -81.5 16t-65 45t-43 68t-15.5 86q0 48 14.5 88t41 69t62.5 45t79 16q38 0 71 -12t57 -33t39 -50t17 -64h-95
q-6 34 -28 53t-55 19q-42 0 -65.5 -34t-23.5 -95q0 -62 24.5 -96t69.5 -34q36 0 54.5 18.5t23.5 52.5h96v0z" />
    <glyph glyph-name="guillemotleft" unicode="&#xab;" 
d="M405 59l-117 203l117 204h148l-106 -204l106 -203h-148zM165 59l-117 203l117 204h148l-105 -204l105 -203h-148z" />
    <glyph glyph-name="logicalnot" unicode="&#xac;" horiz-adv-x="600" 
d="M419 57v240h-389v146h540v-386h-151z" />
    <glyph glyph-name="registered" unicode="&#xae;" horiz-adv-x="400" 
d="M383 532q0 -38 -14.5 -71.5t-39 -58t-58 -39t-71.5 -14.5t-71.5 14.5t-58 39t-39 58t-14.5 71.5t14.5 71.5t39 58t58 39t71.5 14.5t71.5 -14.5t58 -39t39 -58t14.5 -71.5zM344 532q0 30 -11.5 56t-31 45.5t-45.5 31t-56 11.5t-56.5 -11.5t-46 -31t-30.5 -45.5t-11 -56
t11 -56t30.5 -45.5t46 -31t56.5 -11.5t56 11.5t45.5 31t31 45.5t11.5 56zM232 430q-2 8 -2.5 12t-1.5 15q-1 28 -7 35.5t-31 7.5h-10v-70h-60v205h75q16 0 33 -1.5t30.5 -8t22 -19t8.5 -33.5q0 -37 -36 -49q20 -10 26.5 -23t6.5 -36q0 -11 0.5 -18t4.5 -17h-59zM228 568
q0 23 -35 23h-13v-47h13q35 0 35 24z" />
    <glyph glyph-name="degree" unicode="&#xb0;" horiz-adv-x="400" 
d="M373 541q0 -36 -13.5 -67.5t-37 -55t-55 -37t-67.5 -13.5t-67.5 13.5t-55 37t-37 55t-13.5 67.5t13.5 67t37 54.5t55 37t67.5 13.5t67.5 -13.5t55 -37t37 -54.5t13.5 -67zM260 541q0 25 -17.5 42.5t-42.5 17.5t-42.5 -17.5t-17.5 -42.5t17.5 -42.5t42.5 -17.5t42.5 17.5
t17.5 42.5z" />
    <glyph glyph-name="plusminus" unicode="&#xb1;" horiz-adv-x="600" 
d="M374 284v-145h-148v145h-196v146h196v154h148v-154h196v-146h-196zM30 -43v146h540v-146h-540z" />
    <glyph glyph-name="mu" unicode="&#xb5;" horiz-adv-x="667" 
d="M455 0v76q-18 -34 -46 -59t-74 -25q-37 0 -62.5 18t-42.5 50v-270h-174v731h180v-214q0 -27 1 -57t9.5 -55t27.5 -41.5t55 -16.5q34 0 54.5 16t31 41t13.5 56.5t3 61.5v209h179v-521h-155z" />
    <glyph glyph-name="paragraph" unicode="&#xb6;" horiz-adv-x="620" 
d="M565 582v-784h-141v784h-87v-784h-141v421q-96 11 -145.5 66.5t-49.5 157.5q0 60 19.5 107.5t54.5 80.5t84 50t108 17h347v-116h-49z" />
    <glyph glyph-name="periodcentered" unicode="&#xb7;" horiz-adv-x="306" 
d="M67 201v159h171v-159h-171z" />
    <glyph glyph-name="guillemotright" unicode="&#xbb;" 
d="M437 59h-149l106 204l-106 203h149l116 -203zM197 59h-149l107 204l-107 203h149l117 -203z" />
    <glyph glyph-name="divide" unicode="&#xf7;" horiz-adv-x="600" 
d="M218 366v153h164v-153h-164zM30 177v146h540v-146h-540zM218 -18v153h164v-153h-164z" />
    <glyph glyph-name="florin" unicode="&#x192;" horiz-adv-x="612" 
d="M558 562q-18 5 -27.5 6t-21.5 1q-24 0 -39.5 -8t-25.5 -21.5t-16 -31.5t-10 -37l-10 -43h123l-23 -130h-125l-60 -296q-11 -51 -24 -92t-36 -69t-59.5 -43t-94.5 -15q-14 0 -25 0.5l-23 1t-26.5 2.5l-34.5 5l27 139q17 -4 27 -5t19 -1q21 0 33 8.5t19 22t11 30.5t7 33
l57 279h-117l23 130h119l14 68q10 48 24.5 88t39.5 68.5t63 44.5t96 16q27 0 53 -4.5t68 -16.5z" />
    <glyph glyph-name="endash" unicode="&#x2013;" horiz-adv-x="500" 
d="M0 201v134h500v-134h-500z" />
    <glyph glyph-name="emdash" unicode="&#x2014;" horiz-adv-x="1000" 
d="M0 201v134h1000v-134h-1000z" />
    <glyph glyph-name="quoteleft" unicode="&#x2018;" horiz-adv-x="333" 
d="M217 428h-170l99 270h139z" />
    <glyph glyph-name="quoteright" unicode="&#x2019;" horiz-adv-x="333" 
d="M186 428h-138l66 270h171z" />
    <glyph glyph-name="quotesinglbase" unicode="&#x201a;" horiz-adv-x="333" 
d="M186 -112h-138l66 271h171z" />
    <glyph glyph-name="quotedblleft" unicode="&#x201c;" 
d="M473 428h-171l99 270h137zM244 428h-170l99 270h138z" />
    <glyph glyph-name="quotedblright" unicode="&#x201d;" 
d="M439 428h-138l67 270h170zM211 428h-137l66 270h171z" />
    <glyph glyph-name="quotedblbase" unicode="&#x201e;" 
d="M439 -111h-138l67 270h170zM211 -111h-137l66 270h171z" />
    <glyph glyph-name="dagger" unicode="&#x2020;" 
d="M386 404v-404h-161v404h-171v118h171v176h161v-176h171v-118h-171z" />
    <glyph glyph-name="daggerdbl" unicode="&#x2021;" 
d="M386 138v-138h-163v138h-169v118h169v188h-169v119h169v135h163v-135h171v-119h-171v-188h171v-118h-171z" />
    <glyph glyph-name="bullet" unicode="&#x2022;" horiz-adv-x="500" 
d="M425 350q0 -36 -13.5 -68t-37.5 -56t-56 -37.5t-68 -13.5t-68 13.5t-55.5 37.5t-37.5 56t-14 68t14 67.5t37.5 55.5t55.5 37.5t68 13.5t68 -13.5t56 -37.5t37.5 -55.5t13.5 -67.5z" />
    <glyph glyph-name="ellipsis" unicode="&#x2026;" horiz-adv-x="1000" 
d="M751 0v153h164v-153h-164zM418 0v153h164v-153h-164zM85 0v153h164v-153h-164z" />
    <glyph glyph-name="perthousand" unicode="&#x2030;" horiz-adv-x="1000" 
d="M1000 184q0 -40 -8 -75.5t-26 -62.5t-48.5 -42.5t-75.5 -15.5q-46 0 -75.5 16.5t-47 44t-24 64t-6.5 75.5q0 193 157 193q45 0 74.5 -16.5t47 -43.5t25 -62.5t7.5 -74.5zM661 184q0 -40 -8 -75.5t-26 -62.5t-48.5 -42.5t-75.5 -15.5q-46 0 -75.5 16.5t-47 44t-24 64
t-6.5 75.5q0 193 157 193q45 0 74.5 -16.5t47 -43.5t25 -62.5t7.5 -74.5zM175 -22h-79l388 743h80zM311 514q0 -40 -8 -75.5t-26 -62.5t-48.5 -42.5t-75.5 -15.5q-46 0 -75.5 16.5t-47 44t-24 64t-6.5 75.5q0 193 157 193q45 0 74.5 -16.5t47 -43.5t25 -62.5t7.5 -74.5z
M886 187q0 56 -9.5 79.5t-32.5 23.5q-22 0 -31.5 -25t-9.5 -85q0 -54 10 -78t31 -24q23 0 32.5 24.5t9.5 84.5zM547 187q0 56 -9.5 79.5t-32.5 23.5q-22 0 -31.5 -25t-9.5 -85q0 -54 10 -78t31 -24q23 0 32.5 24.5t9.5 84.5zM197 517q0 56 -9.5 79.5t-32.5 23.5
q-22 0 -31.5 -25t-9.5 -85q0 -54 10 -78t31 -24q23 0 32.5 24.5t9.5 84.5z" />
    <glyph glyph-name="guilsinglleft" unicode="&#x2039;" horiz-adv-x="333" 
d="M148 59l-117 203l117 204h148l-106 -204l106 -203h-148z" />
    <glyph glyph-name="guilsinglright" unicode="&#x203a;" horiz-adv-x="333" 
d="M180 59h-149l106 204l-106 203h149l116 -203z" />
    <glyph glyph-name="trademark" unicode="&#x2122;" horiz-adv-x="1000" 
d="M760 342v267l-84 -267h-74l-84 267v-267h-92v356h150l63 -201l63 201h150v-356h-92zM285 620v-278h-100v278h-105v78h310v-78h-105z" />
    <glyph glyph-name="Delta" unicode="&#x2206;" horiz-adv-x="685" 
d="M6 0l247 698h159l268 -698h-674zM334 536l-131 -400h273z" />
    <glyph glyph-name="radical" unicode="&#x221a;" horiz-adv-x="600" 
d="M380 -214h-134l-143 293l-56 -26l-54 114l187 86l109 -241l158 774h155z" />
    <glyph glyph-name="infinity" unicode="&#x221e;" horiz-adv-x="872" 
d="M828 253q0 -48 -14 -87t-40 -66.5t-62 -43t-80 -15.5q-33 0 -60.5 9.5t-51.5 25t-44.5 37t-39.5 45.5q-18 -24 -38.5 -45t-43.5 -37t-50 -25t-59 -9q-45 0 -82 15t-63 42.5t-40.5 66.5t-14.5 86t14 85t39.5 65t61.5 42t80 15q35 0 62.5 -10t51 -26.5t43.5 -39.5t39 -48
q19 25 39 48t43.5 40t51 27t63.5 10q44 0 80 -15t61.5 -42t39.5 -65.5t14 -84.5zM705 250q0 36 -21 58.5t-56 22.5q-54 0 -117 -83q57 -78 121 -78q33 0 53 22t20 58zM362 248q-11 13 -24.5 27.5t-29 27t-32.5 20.5t-35 8q-32 0 -52.5 -23t-20.5 -58q0 -36 20.5 -57.5
t54.5 -21.5q60 0 119 77z" />
    <glyph glyph-name="approxequal" unicode="&#x2248;" horiz-adv-x="600" 
d="M580 473q-3 -47 -16 -85.5t-33 -65.5t-47 -41.5t-59 -14.5q-15 0 -48.5 7.5t-72.5 19.5q-8 2 -25.5 8t-38 12t-40 10.5t-29.5 4.5q-47 0 -55 -56h-95q2 44 14.5 81.5t33.5 64.5t48.5 42.5t59.5 15.5q22 0 55.5 -8.5t85.5 -25.5q24 -8 54 -17t56 -9q29 0 40 15.5t16 41.5
h96v0zM580 233q-3 -47 -16 -85.5t-33 -65.5t-47 -41.5t-59 -14.5q-15 0 -48.5 7.5t-72.5 19.5q-8 2 -25.5 8t-38 12t-40 10.5t-29.5 4.5q-47 0 -55 -56h-95q2 44 14.5 81.5t33.5 64.5t48.5 42.5t59.5 15.5q22 0 55.5 -8.5t85.5 -25.5q24 -8 54 -17t56 -9q29 0 40 15.5
t16 41.5h96v0z" />
    <glyph glyph-name="notequal" unicode="&#x2260;" horiz-adv-x="600" 
d="M285 58l-79 -161l-128 63l48 98h-96v146h168l46 93h-214v146h287l79 160l128 -63l-48 -97h94v-146h-166l-47 -93h213v-146h-285z" />
    <glyph glyph-name="lessequal" unicode="&#x2264;" horiz-adv-x="600" 
d="M30 288v146l540 155v-151l-337 -76l337 -89v-150zM30 -48v146h540v-146h-540z" />
    <glyph glyph-name="greaterequal" unicode="&#x2265;" horiz-adv-x="600" 
d="M30 123v150l337 89l-337 76v151l540 -155v-146zM30 -48v146h540v-146h-540z" />
    <glyph glyph-name="uniF8FF" unicode="&#xf8ff;" horiz-adv-x="512" 
d="M222 117v67h56v-67h-56zM225 234l-2 17q0 56 13 81q7 13 18 27.5t28 31.5q16 15 26 26.5t15 21t7 18t2 17.5q0 36 -22.5 60.5t-53.5 24.5t-53.5 -22t-28.5 -73l-50 8q7 72 44 104.5t91 32.5t89 -35.5t35 -95.5q0 -32 -12.5 -58.5t-50.5 -61.5q-37 -33 -43 -52
q-6 -20 -6 -72h-46zM462 50v617h-412v-617h412zM512 718v-718h-512v718h512z" />
    <glyph glyph-name="brokenbar" unicode="&#xa6;" horiz-adv-x="222" 
d="M38 411v250h147v-250h-147zM38 -89v250h147v-250h-147z" />
    <glyph glyph-name="uni00AD" unicode="&#xad;" horiz-adv-x="333" 
d="M30 201v134h273v-134h-273z" />
    <glyph glyph-name="uni0394" unicode="&#x394;" horiz-adv-x="685" 
d="M6 0l247 698h159l268 -698h-674zM334 536l-131 -400h273z" />
    <glyph glyph-name="afii10023" unicode="&#x401;" 
d="M349 735v144h145v-144h-145zM117 735v144h145v-144h-145zM62 0v698h490v-134h-304v-140h287v-135h-287v-155h315v-134h-501z" />
    <glyph glyph-name="afii10051" unicode="&#x402;" horiz-adv-x="778" 
d="M732 201q0 -173 -61.5 -253t-188.5 -80q-20 0 -44 5.5t-41 13.5v149q12 -5 27.5 -8t34.5 -3q24 0 40 11.5t26 31t14 46t4 56.5q0 22 -3 46.5t-12.5 45t-27 33.5t-46.5 13q-38 0 -59.5 -17t-31.5 -43.5t-12 -58.5t-2 -61v-128h-188v559h-150v139h530v-139h-192v-186
q8 16 24.5 32t39.5 28.5t50.5 20t56.5 7.5q102 0 157 -63.5t55 -196.5z" />
    <glyph glyph-name="afii10052" unicode="&#x403;" horiz-adv-x="537" 
d="M278 731h-130l109 147h209zM251 564v-564h-188v698h467v-134h-279z" />
    <glyph glyph-name="afii10053" unicode="&#x404;" horiz-adv-x="667" 
d="M647 16q-40 -10 -88 -19t-119 -9q-70 0 -141.5 19t-129 61t-94 110.5t-36.5 167.5q0 91 30 159.5t83.5 114t127 68t159.5 22.5q54 0 105 -10.5t102 -25.5l-15 -151q-45 25 -89.5 37t-92.5 12q-79 0 -134 -41t-75 -109h275v-128h-280q9 -39 29.5 -70t50.5 -52.5
t67.5 -33.5t81.5 -12q46 0 91 10.5t83 25.5l9 -146v0z" />
    <glyph glyph-name="afii10054" unicode="&#x405;" 
d="M567 217q0 -111 -76.5 -170t-220.5 -59q-56 0 -109.5 7t-107.5 23l15 152q48 -20 95 -31.5t99 -11.5t82 19t30 52q0 22 -11 36t-31.5 24t-48.5 18t-61 19q-38 12 -70 28t-56 40t-37.5 56.5t-13.5 76.5q0 59 24.5 100t63 66.5t86.5 37t95 11.5q54 0 107 -5.5t106 -19.5
l-10 -141q-37 15 -79.5 24.5t-81.5 9.5q-57 0 -88 -17.5t-31 -49.5q0 -21 13.5 -34.5t34.5 -23t47 -16.5l51 -14q40 -12 73.5 -28.5t58 -41t38.5 -58t14 -79.5z" />
    <glyph glyph-name="afii10055" unicode="&#x406;" horiz-adv-x="334" 
d="M73 0v698h188v-698h-188z" />
    <glyph glyph-name="afii10056" unicode="&#x407;" horiz-adv-x="334" 
d="M209 735v144h145v-144h-145zM-20 735v144h145v-144h-145zM73 0v698h188v-698h-188z" />
    <glyph glyph-name="afii10057" unicode="&#x408;" horiz-adv-x="444" 
d="M380 227q0 -115 -60 -178t-182 -63q-18 0 -31.5 0.5t-27 3t-29 6.5t-35.5 10v151q23 -8 36 -10.5t32 -2.5q61 0 85 34.5t24 90.5v429h188v-471v0z" />
    <glyph glyph-name="afii10058" unicode="&#x409;" horiz-adv-x="1000" 
d="M976 221q0 -47 -12 -87.5t-42.5 -70t-84.5 -46.5t-138 -17h-250v564h-133v-251q0 -66 -10 -124t-33.5 -102t-62 -69.5t-95.5 -25.5q-12 0 -27 1.5t-30 4t-28.5 6t-22.5 6.5v151q11 -5 27.5 -8.5t30.5 -3.5q24 0 37 16t19 43t7.5 61.5t1.5 71.5v357h507v-260h68
q138 0 204.5 -51t66.5 -166zM788 218q0 25 -8 41.5t-22.5 27t-34 15t-42.5 4.5h-44v-174h44q47 0 77 19t30 67z" />
    <glyph glyph-name="afii10059" unicode="&#x40a;" horiz-adv-x="1000" 
d="M976 221q0 -47 -12 -87.5t-42.5 -70t-84.5 -46.5t-138 -17h-250v298h-196v-298h-188v698h188v-260h196v260h188v-260h68q138 0 204.5 -51t66.5 -166zM788 218q0 25 -8 41.5t-22.5 27t-34 15t-42.5 4.5h-44v-174h44q47 0 77 19t30 67z" />
    <glyph glyph-name="afii10060" unicode="&#x40b;" horiz-adv-x="778" 
d="M534 0v187q0 22 -2.5 44t-10.5 39t-24 27.5t-43 10.5q-38 0 -59.5 -17t-31.5 -43.5t-12 -58.5t-2 -61v-128h-188v559h-150v139h530v-139h-192v-186q27 41 70 64.5t102 23.5q51 0 88.5 -16.5t62.5 -45.5t37.5 -68t12.5 -85v-246h-188z" />
    <glyph glyph-name="afii10061" unicode="&#x40c;" horiz-adv-x="722" 
d="M390 731h-130l109 147h209zM480 0l-225 337v-337h-188v698h188v-312l218 312h220l-248 -331l268 -367h-233z" />
    <glyph glyph-name="afii10062" unicode="&#x40e;" horiz-adv-x="722" 
d="M549 833q-37 -43 -83 -71t-105 -28q-62 0 -107 26t-81 74l61 64q27 -31 55.5 -47t71.5 -16q42 0 70.5 16t55.5 47l62 -65v0zM423 132q-15 -29 -32 -54.5t-41 -44.5t-56.5 -30t-78.5 -11q-58 0 -115 12l13 140q18 -7 35.5 -9.5t36.5 -2.5q34 0 56.5 16.5t30.5 38.5
l-266 511h203l154 -337l155 337h196z" />
    <glyph glyph-name="afii10145" unicode="&#x40f;" horiz-adv-x="722" 
d="M455 0v-170h-182v170h-208v698h188v-564h216v564h188v-698h-202z" />
    <glyph glyph-name="afii10017" unicode="&#x410;" horiz-adv-x="778" 
d="M566 0l-52 149h-262l-55 -149h-189l267 698h225l270 -698h-204zM387 562l-91 -282h173z" />
    <glyph glyph-name="afii10018" unicode="&#x411;" horiz-adv-x="667" 
d="M632 222q0 -68 -19.5 -111t-54 -68t-83 -34t-105.5 -9h-304v698h502v-134h-316v-142h122q51 0 97.5 -8t82.5 -30t57 -61t21 -101zM446 210q0 28 -11 45t-28.5 25t-40.5 10.5t-47 2.5h-67v-164h65q25 0 48.5 2.5t41.5 11t28.5 24.5t10.5 43z" />
    <glyph glyph-name="afii10019" unicode="&#x412;" horiz-adv-x="667" 
d="M626 189q0 -54 -23 -90.5t-58.5 -58.5t-79.5 -31t-86 -9h-317v698h305q41 0 83.5 -6.5t77 -25.5t56.5 -53.5t22 -90.5q0 -69 -32.5 -106t-89.5 -59q32 -8 58 -21.5t45 -33.5t29 -48t10 -65zM421 494q0 25 -10 39.5t-25 22.5t-32 10.5t-32 2.5h-76v-152h56q19 0 40.5 2.5
t38.5 11t28.5 23.5t11.5 40zM437 212q0 27 -10.5 43t-27.5 24t-37.5 10.5t-41.5 2.5h-74v-162h78q113 0 113 82z" />
    <glyph glyph-name="afii10020" unicode="&#x413;" horiz-adv-x="537" 
d="M251 564v-564h-188v698h467v-134h-279z" />
    <glyph glyph-name="afii10021" unicode="&#x414;" horiz-adv-x="741" 
d="M546 -170v170h-357v-170h-180v304h64q16 22 28 58t20 79.5t12 92.5t4 97v237h515v-564h74v-304h-180zM467 566h-146v-118q0 -110 -15 -187.5t-32 -126.5h193v432z" />
    <glyph glyph-name="afii10022" unicode="&#x415;" 
d="M62 0v698h490v-134h-304v-140h287v-135h-287v-155h315v-134h-501z" />
    <glyph glyph-name="afii10024" unicode="&#x416;" horiz-adv-x="1086" 
d="M846 0l-211 346v-346h-184v346l-211 -346h-232l248 369l-228 329h219l204 -321v321h184v-321l204 321h219l-228 -329l248 -369h-232z" />
    <glyph glyph-name="afii10025" unicode="&#x417;" 
d="M570 205q0 -65 -28.5 -106.5t-73 -66.5t-98.5 -34.5t-105 -9.5q-29 0 -60 2t-59.5 6t-54 10t-43.5 13l15 147q33 -18 81.5 -29t98.5 -11q25 0 50 4t45 13.5t33 27t13 44.5t-11 43t-28.5 24t-40.5 10.5t-47 2.5q-23 0 -44.5 -0.5t-38.5 -1.5v124q24 -2 44.5 -2h40.5t40 4
t36.5 13t27 24t10.5 36q0 25 -9 41.5t-25 26t-38 13.5t-48 4q-47 0 -94.5 -9.5t-77.5 -23.5l-9 137q98 29 213 29q56 0 106 -8.5t87.5 -30t59 -58.5t21.5 -94q0 -60 -35 -98.5t-93 -54.5v-2q61 -11 100 -52t39 -107z" />
    <glyph glyph-name="afii10026" unicode="&#x418;" horiz-adv-x="734" 
d="M492 0v437h-3l-220 -437h-204v698h177v-434h3l220 434h204v-698h-177z" />
    <glyph glyph-name="afii10027" unicode="&#x419;" horiz-adv-x="734" 
d="M555 833q-37 -43 -83 -71t-105 -28q-62 0 -107 26t-81 74l61 64q27 -31 55.5 -47t71.5 -16q42 0 70.5 16t55.5 47l62 -65v0zM492 0v437h-3l-220 -437h-204v698h177v-434h3l220 434h204v-698h-177z" />
    <glyph glyph-name="afii10028" unicode="&#x41a;" horiz-adv-x="722" 
d="M480 0l-225 337v-337h-188v698h188v-312l218 312h220l-248 -331l268 -367h-233z" />
    <glyph glyph-name="afii10029" unicode="&#x41b;" horiz-adv-x="722" 
d="M469 0v564h-153v-251q0 -66 -10 -124t-33.5 -102t-62 -69.5t-95.5 -25.5q-12 0 -27 1.5t-30 4t-28.5 6t-22.5 6.5v151q11 -5 27.5 -8.5t30.5 -3.5q24 0 37 16t19 43t7.5 61.5t1.5 71.5v357h527v-698h-188z" />
    <glyph glyph-name="afii10030" unicode="&#x41c;" horiz-adv-x="1000" 
d="M753 0v515l-174 -515h-171l-169 515v-515h-175v698h286l150 -463l150 463h287v-698h-184z" />
    <glyph glyph-name="afii10031" unicode="&#x41d;" horiz-adv-x="722" 
d="M469 0v292h-216v-292h-188v698h188v-266h216v266h188v-698h-188z" />
    <glyph glyph-name="afii10032" unicode="&#x41e;" horiz-adv-x="778" 
d="M740 351q0 -85 -23 -153t-68 -116t-111.5 -73.5t-153.5 -25.5q-82 0 -146.5 25t-108.5 72.5t-67.5 116.5t-23.5 157q0 81 23.5 147.5t68 114t109 73.5t147.5 26t149 -24.5t111.5 -71.5t69.5 -114.5t24 -153.5zM545 346q0 110 -41.5 171t-116.5 61q-73 0 -114 -61
t-41 -171q0 -104 42.5 -164.5t115.5 -60.5q46 0 76 21.5t47.5 54.5t24.5 72.5t7 76.5z" />
    <glyph glyph-name="afii10033" unicode="&#x41f;" horiz-adv-x="722" 
d="M469 0v564h-216v-564h-188v698h592v-698h-188z" />
    <glyph glyph-name="afii10034" unicode="&#x420;" 
d="M592 473q0 -65 -21 -109t-58 -70t-87 -37t-107 -11h-76v-246h-188v698h249q58 0 110 -8.5t91.5 -32.5t63 -68t23.5 -116zM404 473q0 43 -29.5 67.5t-80.5 24.5h-51v-185h50q53 0 82 24t29 69z" />
    <glyph glyph-name="afii10035" unicode="&#x421;" horiz-adv-x="667" 
d="M647 14q-86 -29 -208 -29q-83 0 -156 23t-127.5 68.5t-86 114t-31.5 160.5q0 84 27 151.5t78 114.5t123.5 72.5t162.5 25.5q54 0 108 -9t105 -29l-15 -146q-38 21 -84 32.5t-89 11.5q-51 0 -92 -15.5t-70 -44t-44.5 -69.5t-15.5 -91q0 -51 17 -93t47.5 -71.5t74.5 -45.5
t98 -16q41 0 80.5 10t86.5 30l11 -155v0z" />
    <glyph glyph-name="afii10036" unicode="&#x422;" horiz-adv-x="556" 
d="M371 559v-559h-188v559h-170v139h530v-139h-172z" />
    <glyph glyph-name="afii10037" unicode="&#x423;" horiz-adv-x="722" 
d="M423 132q-15 -29 -32 -54.5t-41 -44.5t-56.5 -30t-78.5 -11q-58 0 -115 12l13 140q18 -7 35.5 -9.5t36.5 -2.5q34 0 56.5 16.5t30.5 38.5l-266 511h203l154 -337l155 337h196z" />
    <glyph glyph-name="afii10038" unicode="&#x424;" horiz-adv-x="870" 
d="M838 355q0 -66 -24.5 -117t-67 -86t-99.5 -54t-121 -21v-87h-183v87q-64 2 -121 21t-99.5 54t-67 86t-24.5 117q0 73 23.5 125t65.5 85.5t99 49.5t124 17v76h183v-76q67 -1 124 -17t99 -49.5t65.5 -85.5t23.5 -125zM643 357q0 33 -5.5 60.5t-19 47t-37 30t-59.5 10.5
v-299q36 0 59 11t37 31t19.5 48t5.5 61zM347 505q-36 0 -59.5 -10.5t-37 -30t-19 -47t-5.5 -60.5t5.5 -61t19.5 -48t37 -31t59 -11v299z" />
    <glyph glyph-name="afii10039" unicode="&#x425;" horiz-adv-x="722" 
d="M488 0l-133 250l-136 -250h-209l225 366l-204 332h217l119 -227l121 227h202l-202 -332l225 -366h-225z" />
    <glyph glyph-name="afii10040" unicode="&#x426;" horiz-adv-x="741" 
d="M551 -170v170h-486v698h188v-564h211v564h188v-564h79v-304h-180z" />
    <glyph glyph-name="afii10041" unicode="&#x427;" horiz-adv-x="667" 
d="M415 0v258q-3 -1 -16.5 -3t-29.5 -3.5t-32.5 -2.5t-25.5 -1q-67 0 -118.5 14t-86.5 45t-53 80.5t-18 121.5v189h186v-178q0 -29 2.5 -53t12 -41t29.5 -26.5t56 -9.5q12 0 28 1.5t31 3.5q17 2 35 5v298h188v-698h-188z" />
    <glyph glyph-name="afii10042" unicode="&#x428;" horiz-adv-x="1080" 
d="M65 0v698h188v-564h193v564h188v-564h193v564h188v-698h-950z" />
    <glyph glyph-name="afii10043" unicode="&#x429;" horiz-adv-x="1104" 
d="M914 -170v170h-849v698h188v-564h193v564h188v-564h193v564h188v-564h79v-304h-180z" />
    <glyph glyph-name="afii10044" unicode="&#x42a;" horiz-adv-x="722" 
d="M703 229q0 -49 -12.5 -91t-44.5 -72.5t-87.5 -48t-140.5 -17.5h-252v563h-154v135h342v-244h70q139 0 209 -53t70 -172zM515 226q0 27 -9 45.5t-24.5 30t-36.5 16t-45 4.5h-46v-190h46q24 0 45 4.5t36.5 15.5t24.5 29t9 45z" />
    <glyph glyph-name="afii10045" unicode="&#x42b;" horiz-adv-x="900" 
d="M649 0v698h188v-698h-188zM589 229q0 -49 -12.5 -91t-44.5 -72.5t-87.5 -48t-140.5 -17.5h-245v698h188v-244h63q139 0 209 -53t70 -172zM401 226q0 27 -9 45.5t-24.5 30t-36.5 16t-45 4.5h-39v-190h39q24 0 45 4.5t36.5 15.5t24.5 29t9 45z" />
    <glyph glyph-name="afii10046" unicode="&#x42c;" 
d="M592 229q0 -49 -12.5 -91t-44.5 -72.5t-87.5 -48t-140.5 -17.5h-252v698h188v-244h70q139 0 209 -53t70 -172zM404 226q0 27 -9 45.5t-24.5 30t-36.5 16t-45 4.5h-46v-190h46q24 0 45 4.5t36.5 15.5t24.5 29t9 45z" />
    <glyph glyph-name="afii10047" unicode="&#x42d;" horiz-adv-x="667" 
d="M633 346q0 -99 -36.5 -168t-94.5 -111.5t-129 -62t-141 -19.5q-71 0 -119 10.5t-88 20.5l9 146q38 -15 83 -27t91 -12q43 0 81.5 11.5t68.5 33.5t50.5 52.5t29.5 69.5h-283v132h279q-10 34 -29.5 62t-46.5 48.5t-61.5 32t-73.5 11.5q-48 0 -91.5 -11.5t-87.5 -34.5
l-15 147q38 16 89.5 26t114.5 10q88 0 162 -23t126.5 -69t82 -115t29.5 -160z" />
    <glyph glyph-name="afii10048" unicode="&#x42e;" horiz-adv-x="1039" 
d="M1001 351q0 -177 -86 -272.5t-254 -95.5q-145 0 -229 80t-98 232h-83v-295h-186v698h186v-269h85q18 136 102 211t225 75q160 0 249 -93.5t89 -270.5zM810 346q0 110 -37 171t-109 61t-107.5 -61t-35.5 -171q0 -104 37 -164.5t109 -60.5q44 0 72 21.5t43.5 54.5
t21.5 72.5t6 76.5z" />
    <glyph glyph-name="afii10049" unicode="&#x42f;" horiz-adv-x="667" 
d="M419 0v264h-26q-26 0 -43 -4.5t-29.5 -15.5t-22.5 -31t-22 -50l-64 -163h-205l83 190l25 55t22.5 41.5t25.5 28.5t35 17v2q-70 14 -109 60t-39 116q0 45 17.5 80t48.5 59t71.5 36.5t87.5 12.5h332v-698h-188zM419 570h-36q-26 0 -52 -3t-47 -12t-34 -26.5t-13 -45.5
q0 -34 15 -52.5t37 -27t47.5 -10t46.5 -1.5h36v178z" />
    <glyph glyph-name="afii10065" unicode="&#x430;" 
d="M399 0q0 17 -2 34.5t-2 34.5v16q-35 -46 -74 -70t-101 -24q-42 0 -76.5 12t-59 34t-38.5 53t-14 68q0 83 69.5 125.5t206.5 42.5q15 0 31 -0.5t45 -2.5q0 19 -5.5 36t-19 29.5t-35.5 20t-55 7.5q-37 0 -81.5 -10t-87.5 -30l-4 120q45 20 99.5 28t102.5 8q146 0 211 -78
q17 -20 25 -45t11.5 -52t3.5 -54v-52l1 -89q1 -81 6 -162h-157zM384 231q-16 2 -24.5 2h-22.5q-133 0 -133 -71q0 -26 20.5 -43t51.5 -17q28 0 48 11t32.5 29.5t19 41.5t8.5 47z" />
    <glyph glyph-name="afii10066" unicode="&#x431;" horiz-adv-x="667" 
d="M634 255q0 -66 -23 -116.5t-63 -84.5t-94 -51.5t-117 -17.5q-146 0 -220.5 83.5t-74.5 241.5q0 81 8.5 153t38 128.5t85 93.5t149.5 47q31 3 64.5 5l67 4t65.5 5.5t61 9.5l-11 -155q-27 -6 -58.5 -8.5t-65 -4l-67.5 -3t-66 -5.5q-33 -4 -59 -14.5t-44.5 -30t-29.5 -50
t-13 -75.5h3q10 24 29.5 44.5t45 35.5t55.5 23.5t62 8.5q59 0 109 -16.5t86 -50t56.5 -83.5t20.5 -117zM449 255q0 33 -8 59.5t-23 46t-35 30t-44 10.5t-44.5 -10.5t-35.5 -29.5t-23.5 -45.5t-8.5 -58.5q0 -67 31 -108t81 -41q48 0 79 40t31 107z" />
    <glyph glyph-name="afii10067" unicode="&#x432;" 
d="M579 157q0 -80 -52.5 -118.5t-142.5 -38.5h-325v521h317q89 0 138 -30.5t49 -101.5q0 -27 -8 -48t-21 -35.5t-28.5 -22.5t-30.5 -11v-2q45 -5 74.5 -31t29.5 -82zM387 365q0 29 -19 37.5t-43 8.5h-91v-92h85q12 0 24 1.5t22 6.5t16 14t6 24zM403 163q0 19 -7 30t-17.5 16
t-23.5 6.5t-25 1.5h-96v-108h97q12 0 24.5 2.5t23 8.5t17.5 16.5t7 26.5z" />
    <glyph glyph-name="afii10068" unicode="&#x433;" horiz-adv-x="444" 
d="M232 395v-395h-180v521h383v-126h-203z" />
    <glyph glyph-name="afii10069" unicode="&#x434;" horiz-adv-x="667" 
d="M478 -150v150h-298v-150h-170v276h60q9 11 18 37t16.5 58t12 67.5t4.5 65.5v167h457v-395h70v-276h-170zM402 395h-113v-61q0 -29 -3.5 -60t-8.5 -59.5t-11.5 -52t-13.5 -36.5h150v269z" />
    <glyph glyph-name="afii10070" unicode="&#x435;" 
d="M207 207q5 -50 40 -78t98 -28q95 0 178 42l4 -126q-47 -18 -89.5 -25.5t-96.5 -7.5q-67 0 -123.5 16t-98 50t-64.5 86.5t-23 125.5q0 63 19.5 113t55.5 85t87.5 53.5t116.5 18.5q79 0 129.5 -25.5t80 -70t41 -103.5t11.5 -126h-366zM410 309q-5 54 -30 82.5t-69 28.5
q-46 0 -75 -30.5t-31 -80.5h205v0z" />
    <glyph glyph-name="afii10072" unicode="&#x436;" horiz-adv-x="911" 
d="M688 0l-145 260v-260h-175v260l-145 -260h-214l190 271l-175 250h193l151 -240v240h175v-240l151 240h193l-175 -250l190 -271h-214z" />
    <glyph glyph-name="afii10073" unicode="&#x437;" horiz-adv-x="519" 
d="M474 151q0 -49 -21 -81t-56.5 -51t-82 -26.5t-97.5 -7.5q-109 0 -187 25l8 130q32 -14 76 -25t93 -11q48 0 67.5 15t19.5 39q0 29 -23.5 42.5t-75.5 13.5h-49v103h60q47 0 66 13.5t19 36.5q0 28 -22.5 38.5t-59.5 10.5q-17 0 -37.5 -2t-41.5 -6.5t-40.5 -11t-33.5 -15.5
l-14 119q44 17 97.5 23.5t108.5 6.5q40 0 79 -6t69 -22t48.5 -43.5t18.5 -70.5q0 -45 -28.5 -73t-76.5 -40v-3q51 -7 83.5 -37t32.5 -84z" />
    <glyph glyph-name="afii10074" unicode="&#x438;" horiz-adv-x="678" 
d="M449 0v315h-2l-186 -315h-205v521h173v-316h3l185 316h205v-521h-173z" />
    <glyph glyph-name="afii10075" unicode="&#x439;" horiz-adv-x="678" 
d="M527 677q-36 -43 -82.5 -71t-105.5 -28q-62 0 -106.5 26t-81.5 74l61 64q27 -31 55.5 -47t71.5 -16q42 0 70.5 16t56.5 47l61 -65v0zM449 0v315h-2l-186 -315h-205v521h173v-316h3l185 316h205v-521h-173z" />
    <glyph glyph-name="afii10076" unicode="&#x43a;" 
d="M392 0l-151 254v-254h-180v521h180v-240l155 240h200l-178 -249l192 -272h-218z" />
    <glyph glyph-name="afii10077" unicode="&#x43b;" horiz-adv-x="650" 
d="M410 0v395h-122v-141q0 -47 -9 -93.5t-31 -84t-57.5 -61t-88.5 -23.5q-18 0 -42.5 3t-43.5 8l5 127q4 -2 16.5 -4t20.5 -2q20 0 31 13t16 32.5t6 42t1 42.5v267h478v-521h-180z" />
    <glyph glyph-name="afii10078" unicode="&#x43c;" horiz-adv-x="809" 
d="M585 0v355h-2l-101 -355h-156l-101 355h-2v-355h-167v521h245l102 -377h2l102 377h245v-521h-167z" />
    <glyph glyph-name="afii10079" unicode="&#x43d;" horiz-adv-x="667" 
d="M431 0v203h-195v-203h-180v521h180v-192h195v192h180v-521h-180z" />
    <glyph glyph-name="afii10080" unicode="&#x43e;" horiz-adv-x="668" 
d="M634 259q0 -67 -23.5 -118t-64 -85.5t-95.5 -52.5t-118 -18q-68 0 -123 19.5t-94 55.5t-60.5 86t-21.5 112q0 63 21 113.5t59.5 86.5t93.5 55t124 19q65 0 120.5 -17t96 -51t63 -85.5t22.5 -119.5zM449 259q0 33 -8.5 60.5t-23.5 47.5t-36 31t-46 11q-51 0 -83.5 -41
t-32.5 -107q0 -68 32 -110.5t84 -42.5q51 0 82.5 41.5t31.5 109.5z" />
    <glyph glyph-name="afii10081" unicode="&#x43f;" horiz-adv-x="667" 
d="M431 0v395h-195v-395h-180v521h555v-521h-180z" />
    <glyph glyph-name="afii10082" unicode="&#x440;" horiz-adv-x="668" 
d="M637 264q0 -54 -14.5 -103.5t-43.5 -88t-73 -61.5t-102 -23q-60 0 -97 22t-73 66q1 -7 1.5 -12t0.5 -8v-266h-180v577q0 38 -1 77t-3 77h167v-106q32 57 78.5 87t115.5 30q51 0 92.5 -19t70.5 -54t45 -84.5t16 -110.5zM453 266q0 60 -27.5 96t-73.5 36q-54 0 -85 -37
t-31 -100q0 -64 30 -101.5t81 -37.5t78.5 37.5t27.5 106.5z" />
    <glyph glyph-name="afii10083" unicode="&#x441;" horiz-adv-x="500" 
d="M481 17q-71 -26 -150 -26q-64 0 -118.5 17t-94.5 50.5t-62.5 84.5t-22.5 120q0 60 20.5 109t58.5 83.5t92 53.5t121 19q42 0 76.5 -7t74.5 -21l-12 -132q-25 14 -48 20.5t-52 6.5q-32 0 -59 -10t-46.5 -28t-30.5 -43t-11 -55t11.5 -55t31.5 -43t48.5 -28t63.5 -10
q29 0 54.5 7.5t51.5 18.5l3 -132v0z" />
    <glyph glyph-name="afii10084" unicode="&#x442;" horiz-adv-x="500" 
d="M340 395v-395h-180v395h-145v126h470v-126h-145z" />
    <glyph glyph-name="afii10085" unicode="&#x443;" 
d="M384 -29q-17 -42 -36 -76.5t-45.5 -59.5t-63 -39t-87.5 -14q-16 0 -28 0.5t-23.5 2t-24.5 4.5t-31 8l12 130q24 -5 39.5 -7.5t31.5 -2.5q32 0 53.5 15.5t38.5 51.5l-211 537h193l113 -345l107 345h180z" />
    <glyph glyph-name="afii10086" unicode="&#x444;" horiz-adv-x="889" 
d="M854 268q0 -58 -12.5 -109t-38.5 -89.5t-65 -61t-91 -22.5q-45 0 -71.5 15.5t-39.5 40.5h-2v-252h-180v252h-2q-13 -25 -39.5 -40.5t-71.5 -15.5q-53 0 -91.5 22.5t-64.5 61t-38.5 89.5t-12.5 109q0 54 12 101.5t36 83.5t59 57t81 21q52 0 84 -18t46 -41h2v278h180v-278
h2q14 23 46 41t84 18q46 0 81 -21t59 -57t36 -83.5t12 -101.5zM672 264q0 27 -6 52t-18 44t-29 30t-39 11t-32 -10.5t-18 -24.5v-216q5 -12 17.5 -23t32.5 -11q43 0 67.5 41t24.5 107zM358 366q-8 14 -18 24.5t-32 10.5t-39 -11t-29 -30t-18 -44t-6 -52q0 -66 24.5 -107
t67.5 -41q20 0 32.5 11t17.5 23v216z" />
    <glyph glyph-name="afii10087" unicode="&#x445;" 
d="M391 0l-91 158l-88 -158h-202l177 266l-161 255h209l79 -154l77 154h198l-162 -255l174 -266h-210z" />
    <glyph glyph-name="afii10088" unicode="&#x446;" horiz-adv-x="692" 
d="M511 -150v150h-455v521h180v-395h192v395h180v-395h73v-276h-170z" />
    <glyph glyph-name="afii10089" unicode="&#x447;" 
d="M375 0v193q-25 -8 -61.5 -13.5t-73.5 -5.5q-53 0 -91 15.5t-62 42t-35 62t-11 76.5v151h180v-107q0 -37 5 -59t15 -33.5t25.5 -15t37.5 -3.5q16 0 38 2.5t33 8.5v207h180v-521h-180z" />
    <glyph glyph-name="afii10090" unicode="&#x448;" horiz-adv-x="926" 
d="M56 0v521h180v-395h137v395h180v-395h137v395h180v-521h-814z" />
    <glyph glyph-name="afii10091" unicode="&#x449;" horiz-adv-x="954" 
d="M773 -150v150h-717v521h180v-395h137v395h180v-395h137v395h180v-395h73v-276h-170z" />
    <glyph glyph-name="afii10092" unicode="&#x44a;" horiz-adv-x="685" 
d="M656 179q0 -50 -16.5 -84t-47 -55t-73 -30.5t-94.5 -9.5h-284v395h-133v126h313v-166h121q109 0 161.5 -41t52.5 -135zM480 172q0 18 -7 29.5t-17.5 18t-23 8.5t-24.5 2h-87v-115h88q29 0 50 13t21 44z" />
    <glyph glyph-name="afii10093" unicode="&#x44b;" horiz-adv-x="833" 
d="M597 0v521h180v-521h-180zM541 179q0 -50 -16.5 -84t-47 -55t-73 -30.5t-94.5 -9.5h-254v521h180v-166h91q109 0 161.5 -41t52.5 -135zM365 172q0 18 -7 29.5t-17.5 18t-23 8.5t-24.5 2h-57v-115h58q29 0 50 13t21 44z" />
    <glyph glyph-name="afii10094" unicode="&#x44c;" horiz-adv-x="600" 
d="M571 179q0 -50 -16.5 -84t-47 -55t-73 -30.5t-94.5 -9.5h-284v521h180v-166h121q109 0 161.5 -41t52.5 -135zM395 172q0 18 -7 29.5t-17.5 18t-23 8.5t-24.5 2h-87v-115h88q29 0 50 13t21 44z" />
    <glyph glyph-name="afii10095" unicode="&#x44d;" horiz-adv-x="500" 
d="M472 260q0 -65 -22.5 -115.5t-63 -85t-95.5 -53t-119 -18.5q-36 0 -73.5 6t-71.5 17l4 134q47 -25 110 -25q24 0 47.5 6.5t44 18.5t35.5 29.5t22 39.5h-167v102h163q-15 41 -52.5 63t-82.5 22q-32 0 -57 -7t-50 -22l-13 132q27 13 63.5 20t77.5 7q64 0 119 -18
t95.5 -52.5t63 -85t22.5 -115.5z" />
    <glyph glyph-name="afii10096" unicode="&#x44e;" horiz-adv-x="903" 
d="M869 259q0 -67 -22.5 -118t-61.5 -85.5t-91.5 -52.5t-113.5 -18q-58 0 -106 15.5t-85 44.5t-60.5 69.5t-31.5 91.5h-64v-206h-177v521h177v-195h67q20 97 92.5 151.5t186.5 54.5q63 0 116 -17t91.5 -51t60.5 -85.5t22 -119.5zM686 259q0 66 -28.5 108t-75.5 42t-76.5 -41
t-29.5 -107q0 -68 29 -110.5t77 -42.5q47 0 75.5 41.5t28.5 109.5z" />
    <glyph glyph-name="afii10097" unicode="&#x44f;" 
d="M375 0v180h-32q-40 0 -58 -41l-64 -139h-207l90 167q14 27 31.5 39.5t26.5 15.5v2q-15 3 -35.5 13t-39 28t-31 44t-12.5 59q0 36 13 64t36 48t54.5 30.5t68.5 10.5h339v-521h-180zM375 403h-72q-12 0 -25.5 -2.5t-24.5 -9.5t-18.5 -18t-7.5 -27q0 -19 7.5 -30.5t19 -17.5
t25 -8t25.5 -2h71v115z" />
    <glyph glyph-name="afii10071" unicode="&#x451;" 
d="M350 585v144h145v-144h-145zM118 585v144h145v-144h-145zM207 207q5 -50 40 -78t98 -28q95 0 178 42l4 -126q-47 -18 -89.5 -25.5t-96.5 -7.5q-67 0 -123.5 16t-98 50t-64.5 86.5t-23 125.5q0 63 19.5 113t55.5 85t87.5 53.5t116.5 18.5q79 0 129.5 -25.5t80 -70
t41 -103.5t11.5 -126h-366zM410 309q-5 54 -30 82.5t-69 28.5q-46 0 -75 -30.5t-31 -80.5h205v0z" />
    <glyph glyph-name="afii10099" unicode="&#x452;" horiz-adv-x="650" 
d="M620 141q0 -46 -6 -93t-26.5 -85.5t-59.5 -62.5t-104 -24q-29 0 -53 2t-48 7l4 114q10 -2 19.5 -2.5t18.5 -0.5q23 0 36.5 12t21 30.5t10 40.5t2.5 43q0 54 -25.5 82.5t-67.5 28.5q-50 0 -76 -39t-26 -124v-70h-180v445h-48v119h48v186h180v-186h241v-119h-241v-151h2
q29 41 72 65t102 24t98 -19t62.5 -51.5t33.5 -76.5t10 -95z" />
    <glyph glyph-name="afii10100" unicode="&#x453;" horiz-adv-x="444" 
d="M226 586h-130l109 147h209zM232 395v-395h-180v521h383v-126h-203z" />
    <glyph glyph-name="afii10101" unicode="&#x454;" horiz-adv-x="500" 
d="M481 11q-34 -11 -72.5 -17t-74.5 -6q-65 0 -119.5 18.5t-95 53t-63 85t-22.5 115.5t22.5 115.5t63 85t95 52.5t119.5 18q41 0 76.5 -7t66.5 -22l-13 -132q-25 15 -51 22t-58 7q-45 0 -82.5 -21t-52.5 -62h163v-102h-166q7 -22 22 -39.5t35 -29.5t43.5 -18.5t47.5 -6.5
q31 0 60 6.5t52 18.5l4 -134v0z" />
    <glyph glyph-name="afii10102" unicode="&#x455;" horiz-adv-x="500" 
d="M468 160q0 -81 -61.5 -126t-173.5 -45q-49 0 -97 6.5t-95 21.5l7 130q45 -19 84 -28t89 -9q34 0 52.5 11.5t18.5 32.5q0 12 -8 20t-19.5 13t-24 7.5t-20.5 4.5q-34 8 -67.5 18t-60 28t-43 45.5t-16.5 70.5q0 48 21.5 80.5t54.5 52t72.5 27.5t75.5 8q51 0 93 -6.5
t86 -22.5l-14 -122q-43 19 -75.5 27t-68.5 8q-35 0 -53.5 -11t-18.5 -32q0 -13 9 -21t24 -13t33.5 -8.5t37.5 -7.5q33 -7 62 -18.5t50 -30t33.5 -45.5t12.5 -66z" />
    <glyph glyph-name="afii10103" unicode="&#x456;" horiz-adv-x="334" 
d="M76 596v133h180v-133h-180zM76 0v521h180v-521h-180z" />
    <glyph glyph-name="afii10104" unicode="&#x457;" horiz-adv-x="334" 
d="M77 0v521h180v-521h-180zM209 585v144h145v-144h-145zM-20 585v144h145v-144h-145z" />
    <glyph glyph-name="afii10105" unicode="&#x458;" horiz-adv-x="334" 
d="M77 606v134h180v-134h-180zM257 -11q0 -45 -9.5 -83t-31 -65t-56.5 -42t-85 -15q-13 0 -23.5 0.5t-21 1.5t-23.5 3l-32 5l4 115q10 -2 15 -2.5t11 -0.5q26 0 40.5 10t21.5 26.5t8.5 36.5t1.5 40v502h180v-532v0z" />
    <glyph glyph-name="afii10106" unicode="&#x459;" horiz-adv-x="907" 
d="M880 174q0 -48 -16 -81.5t-45.5 -54t-71 -29.5t-93.5 -9h-256v395h-110v-141q0 -47 -9 -93.5t-31 -84t-57.5 -61t-88.5 -23.5q-18 0 -42.5 3t-43.5 8l5 127q4 -2 16.5 -4t20.5 -2q20 0 31 13t16 32.5t6 42t1 42.5v267h466v-176h93q107 0 158 -40t51 -131zM704 172
q0 16 -6 26.5t-15.5 16.5t-21.5 8t-24 2h-59v-105h60q28 0 47 12t19 40z" />
    <glyph glyph-name="afii10107" unicode="&#x45a;" horiz-adv-x="907" 
d="M880 174q0 -48 -16 -81.5t-45.5 -54t-71 -29.5t-93.5 -9h-256v217h-162v-217h-180v521h180v-176h162v176h180v-176h93q107 0 158 -40t51 -131zM704 172q0 16 -6 26.5t-15.5 16.5t-21.5 8t-24 2h-59v-105h60q28 0 47 12t19 40z" />
    <glyph glyph-name="afii10108" unicode="&#x45b;" horiz-adv-x="650" 
d="M435 0v102q0 73 -23 102t-60 29q-56 0 -84 -39t-28 -124v-70h-180v445h-48v119h48v186h180v-186h241v-119h-241v-151h2q29 41 72 65t102 24q53 0 91 -17.5t62 -46t35 -66.5t11 -78v-175h-180z" />
    <glyph glyph-name="afii10109" unicode="&#x45c;" 
d="M306 586h-130l109 147h209zM392 0l-151 254v-254h-180v521h180v-240l155 240h200l-178 -249l192 -272h-218z" />
    <glyph glyph-name="afii10110" unicode="&#x45e;" 
d="M494 677q-36 -43 -82.5 -71t-105.5 -28q-62 0 -106.5 26t-81.5 74l61 64q27 -31 55.5 -47t71.5 -16q42 0 70.5 16t56.5 47l61 -65v0zM384 -29q-17 -42 -36 -76.5t-45.5 -59.5t-63 -39t-87.5 -14q-16 0 -28 0.5t-23.5 2t-24.5 4.5t-31 8l12 130q24 -5 39.5 -7.5t31.5 -2.5
q32 0 53.5 15.5t38.5 51.5l-211 537h193l113 -345l107 345h180z" />
    <glyph glyph-name="afii10193" unicode="&#x45f;" horiz-adv-x="667" 
d="M418 0v-160h-170v160h-192v521h180v-395h195v395h180v-521h-193z" />
    <glyph glyph-name="afii10050" unicode="&#x490;" horiz-adv-x="537" 
d="M246 564v-564h-188v698h297v117h178v-251h-287z" />
    <glyph glyph-name="afii10098" unicode="&#x491;" horiz-adv-x="444" 
d="M232 395v-395h-180v521h212v125h170v-251h-202z" />
    <glyph glyph-name="Euro" unicode="&#x20ac;" horiz-adv-x="612" 
d="M597 554q-24 11 -54 15.5t-56 4.5q-63 0 -109.5 -32t-69.5 -89h264l-17 -69h-267q-5 -35 0 -70h250l-18 -69h-212q23 -55 70 -86.5t108 -31.5q26 0 56.5 5t54.5 15l6 -140q-35 -11 -73 -15t-74 -4q-63 0 -120 16t-103 48.5t-79 80.5t-48 112h-104l17 69h77q-3 35 0 70
h-94l17 69h88q15 60 48 107.5t78.5 80.5t101 51t116.5 18q94 0 179 -28z" />
    <glyph glyph-name="afii61352" unicode="&#x2116;" horiz-adv-x="1187" 
d="M767 0v106h351v-106h-351zM451 0l-205 477h-2v-477h-176v698h242l200 -474h2v474h176v-698h-237zM1118 350q0 -97 -44 -143.5t-136 -46.5q-85 0 -128 47.5t-43 139.5q0 94 44 142.5t132 48.5q86 0 130.5 -48t44.5 -140zM991 354q0 55 -11 78t-38 23q-19 0 -29 -11.5
t-14.5 -28t-5 -34t-0.5 -29.5t0.5 -30.5t4.5 -36t14 -30.5t30 -13q21 0 31.5 13t14 31t3.5 37v31z" />
    <glyph glyph-name="uni2219" unicode="&#x2219;" horiz-adv-x="306" 
d="M67 201v159h171v-159h-171z" />
  </font>
</defs>
</svg>
