<svg xmlns="http://www.w3.org/2000/svg" viewBox="-713.084 450.929 38.657 42.072"><defs><style>.a{fill:none;stroke:#000;stroke-width:2px;}</style></defs><g transform="translate(-2533 270)"><path class="a" d="M-182.263,2665.948c-1.2-.187-8.038,3.3-7.815,11.454a21.848,21.848,0,0,0,1.544,8.038,41.1,41.1,0,0,0,6.271,9.807,46.5,46.5,0,0,0,4.635,4.637c1.491,1.32,5.238,4.512,9.017,5.582a15.619,15.619,0,0,0,7.557,0s6.87-3.521,7.471-5.582-.086-1.975-1.2-3.435a36.046,36.046,0,0,0-5.067-4.294,6.059,6.059,0,0,0-3.349-.773c-1.546.258-4.466,3.865-4.466,3.865a3.655,3.655,0,0,1-3.177,0,32.431,32.431,0,0,1-5.067-3.865c-.773-.859-4.38-5.943-4.38-5.943s-1.8-2.989,0-4.534,3.779-3.5,3.779-3.5a3.517,3.517,0,0,0,0-4.311c-1.632-2.49-.6-1.718-2.49-4.036S-181.063,2666.135-182.263,2665.948Z" transform="translate(2011 -2484)"/></g></svg>