<svg xmlns="http://www.w3.org/2000/svg" xmlns:xlink="http://www.w3.org/1999/xlink" width="45" height="51" viewBox="0 0 45 51"><defs><path id="rpawa" d="M287 95c0-1 1-2 2-2h39.84c1 0 2 1 2 2v46c0 1-1 2-2 2H289c-1 0-2-1-2-2z"/><path id="rpawb" d="M293.85 121.77a15.07 15.07 0 1 1 30.14 0 15.07 15.07 0 0 1-30.14 0z"/><path id="rpawe" d="M319.15 100.25a2.46 2.46 0 1 1 4.92 0 2.46 2.46 0 0 1-4.92 0z"/><path id="rpawf" d="M294.15 100.25a2.46 2.46 0 1 1 4.92 0 2.46 2.46 0 0 1-4.92 0z"/><path id="rpawg" d="M306.15 100.25a2.46 2.46 0 1 1 4.92 0 2.46 2.46 0 0 1-4.92 0z"/><clipPath id="rpawc"><use fill="#fff" xlink:href="#rpawa"/></clipPath><clipPath id="rpawd"><use fill="#fff" xlink:href="#rpawb"/></clipPath></defs><g><g transform="translate(-287 -93)"><g><use fill="#fff" fill-opacity="0" stroke="#aaa" stroke-miterlimit="50" stroke-width="4" clip-path="url(&quot;#rpawc&quot;)" xlink:href="#rpawa"/></g><g><use fill="#fff" fill-opacity="0" stroke="#aaa" stroke-miterlimit="50" stroke-width="4" clip-path="url(&quot;#rpawd&quot;)" xlink:href="#rpawb"/></g><g><use fill="#aaa" xlink:href="#rpawe"/></g><g><use fill="#aaa" xlink:href="#rpawe"/></g><g><use fill="#aaa" xlink:href="#rpawf"/></g><g><use fill="#aaa" xlink:href="#rpawg"/></g></g></g></svg>