<svg xmlns="http://www.w3.org/2000/svg" xmlns:xlink="http://www.w3.org/1999/xlink" width="36" height="51" viewBox="0 0 36 51"><defs><path id="5x1ra" d="M749 1437.8c0-1 1-2 2-2h31.75c1 0 2 1 2 2v18.72c0 1-1 2-2 2H751c-1 0-2-1-2-2z"/><path id="5x1rb" d="M758.3 1431.28c0-1 1-2 2-2h13.15c1 0 2 1 2 2v3.84c0 1-1 2-2 2H760.3c-1 0-2-1-2-2z"/><path id="5x1rc" d="M753.65 1458.94c0-1 1-2 2-2h22.07c1 0 2 1 2 2v18.34c0 1-1 2-2 2h-22.07c-1 0-2-1-2-2z"/><clipPath id="5x1rd"><use fill="#fff" xlink:href="#5x1ra"/></clipPath><clipPath id="5x1re"><use fill="#fff" xlink:href="#5x1rb"/></clipPath><clipPath id="5x1rf"><use fill="#fff" xlink:href="#5x1rc"/></clipPath></defs><g><g transform="translate(-749 -1429)"><use fill="#fff" fill-opacity="0" stroke="#95989a" stroke-miterlimit="50" stroke-width="4" clip-path="url(&quot;#5x1rd&quot;)" xlink:href="#5x1ra"/></g><g transform="translate(-749 -1429)"><use fill="#fff" fill-opacity="0" stroke="#95989a" stroke-miterlimit="50" stroke-width="2" clip-path="url(&quot;#5x1re&quot;)" xlink:href="#5x1rb"/></g><g transform="translate(-749 -1429)"><use fill="#fff" fill-opacity="0" stroke="#95989a" stroke-miterlimit="50" stroke-width="2" clip-path="url(&quot;#5x1rf&quot;)" xlink:href="#5x1rc"/></g></g></svg>