<svg xmlns="http://www.w3.org/2000/svg" viewBox="-3011 396.175 67.467 51"><defs><style>.a,.b,.d{fill:none;}.a,.b{stroke:#000;}.a{stroke-width:2px;}.c{stroke:none;}</style></defs><g transform="translate(281 -1208.825)"><path class="a" d="M-3285.338,1615.191h10.737v22.667s0,13.719,13.123,14.912,13.123-14.912,13.123-14.912.3-12.526,11.632-12.228,14.614,0,14.614,0v9.563s-8.065.063-12.685,0c-2.357-.033-3.524,3.452-3.666,4.615a35.875,35.875,0,0,1-3.394,11.4,29.823,29.823,0,0,1-1.465,2.967,13.213,13.213,0,0,0-1.027,1.271c-1.952,2.621-4.893,6.865-17.133,6.865-14.316,0-24.158-13.123-23.86-24.456S-3285.338,1615.191-3285.338,1615.191Z" transform="translate(-4.776 -7.314)"/><g class="b" transform="matrix(0.985, -0.174, 0.174, 0.985, -3290.183, 1633.384)"><rect class="c" width="11.291" height="2.823"/><rect class="d" x="0.5" y="0.5" width="10.291" height="1.823"/></g><g class="b" transform="translate(-3253.117 1631.773) rotate(7)"><rect class="c" width="10.162" height="2.823"/><rect class="d" x="0.5" y="0.5" width="9.162" height="1.823"/></g><g class="b" transform="translate(-3292 1605)"><rect class="c" width="13.832" height="2.823"/><rect class="d" x="0.5" y="0.5" width="12.832" height="1.823"/></g><g class="b" transform="translate(-3226.792 1616.856)"><rect class="c" width="2.258" height="12.421"/><rect class="d" x="0.5" y="0.5" width="1.258" height="11.421"/></g></g></svg>