<svg xmlns="http://www.w3.org/2000/svg" viewBox="-3184 314.991 42.568 50.896"><defs><style>.a,.b,.d{fill:none;}.a,.b{stroke:#000;}.a{stroke-width:2px;}.c{stroke:none;}</style></defs><g transform="translate(-3183 316)"><path class="a" d="M8445.358,8308.567v-7.006a3.376,3.376,0,0,1,2.943-2h34.473s2.943-.429,3.082,2,0,7.006,0,7.006Z" transform="translate(-8445.358 -8299.53)"/><path class="a" d="M8445.358,8326.821H8485.7v37.489s-.063,1.758-1.4,1.822-37.442,0-37.442,0-1.532-.2-1.5-1.432S8445.358,8326.821,8445.358,8326.821Z" transform="translate(-8445.357 -8317.271)"/><g class="b" transform="translate(2.895 2.5)"><ellipse class="c" cx="1.894" cy="1.933" rx="1.894" ry="1.933"/><ellipse class="d" cx="1.894" cy="1.933" rx="1.394" ry="1.433"/></g><g class="b" transform="translate(22.214 2.5)"><ellipse class="c" cx="1.894" cy="1.933" rx="1.894" ry="1.933"/><ellipse class="d" cx="1.894" cy="1.933" rx="1.394" ry="1.433"/></g><g class="b" transform="translate(27.897 2.5)"><ellipse class="c" cx="1.894" cy="1.933" rx="1.894" ry="1.933"/><ellipse class="d" cx="1.894" cy="1.933" rx="1.394" ry="1.433"/></g><g class="b" transform="translate(33.579 2.5)"><ellipse class="c" cx="1.894" cy="1.933" rx="1.894" ry="1.933"/><ellipse class="d" cx="1.894" cy="1.933" rx="1.394" ry="1.433"/></g><g class="b" transform="translate(6.304 15.031)"><ellipse class="c" cx="14.016" cy="14.302" rx="14.016" ry="14.302"/><ellipse class="d" cx="14.016" cy="14.302" rx="13.516" ry="13.802"/></g></g></svg>