<svg xmlns="http://www.w3.org/2000/svg" xmlns:xlink="http://www.w3.org/1999/xlink" width="51" height="52" viewBox="0 0 51 52"><defs><path id="uah0a" d="M946.48 269h12.66v11.3h-12.66z"/><path id="uah0b" d="M959.14 280.3l9.34 11.9h8.44v9.35H929v-9.34h7.54l10.24-11.9"/><path id="uah0c" d="M936.5 292.28h32.1"/><path id="uah0d" d="M963.94 305.9s-.68.69 0 2.13c.69 1.44 1.86 1.3 1.72 3.9-.14 2.61-1.17 2.54-1.72 4.12a4.57 4.57 0 0 0 0 2.95"/><path id="uah0e" d="M955.8 305.9s-.69.69 0 2.13c.68 1.44 1.85 1.3 1.71 3.9-.13 2.61-1.16 2.54-1.71 4.12a4.57 4.57 0 0 0 0 2.95"/><path id="uah0f" d="M947.65 305.9s-.68.69 0 2.13c.69 1.44 1.85 1.3 1.72 3.9-.14 2.61-1.17 2.54-1.72 4.12a4.57 4.57 0 0 0 0 2.95"/><path id="uah0g" d="M939.5 305.9s-.68.69 0 2.13c.69 1.44 1.86 1.3 1.72 3.9-.14 2.61-1.17 2.54-1.72 4.12a4.57 4.57 0 0 0 0 2.95"/></defs><g><g transform="translate(-928 -268)"><g><use fill="#fff" fill-opacity="0" stroke="#aaa" stroke-miterlimit="50" stroke-width="2" xlink:href="#uah0a"/></g><g><use fill="#fff" fill-opacity="0" stroke="#aaa" stroke-miterlimit="50" stroke-width="2" xlink:href="#uah0b"/></g><g><use fill="#fff" fill-opacity="0" stroke="#aaa" stroke-miterlimit="50" stroke-width="2" xlink:href="#uah0c"/></g><g><use fill="#fff" fill-opacity="0" stroke="#95989a" stroke-miterlimit="50" xlink:href="#uah0d"/></g><g><use fill="#fff" fill-opacity="0" stroke="#95989a" stroke-miterlimit="50" xlink:href="#uah0e"/></g><g><use fill="#fff" fill-opacity="0" stroke="#95989a" stroke-miterlimit="50" xlink:href="#uah0f"/></g><g><use fill="#fff" fill-opacity="0" stroke="#95989a" stroke-miterlimit="50" xlink:href="#uah0g"/></g></g></g></svg>