<svg xmlns="http://www.w3.org/2000/svg" xmlns:xlink="http://www.w3.org/1999/xlink" width="68" height="51" viewBox="0 0 68 51"><defs><path id="se0ra" d="M1314.3 1460.16l-.48-2.78 11.12-1.96.49 2.78z"/><path id="se0rb" d="M1350.54 1458.58l.34-2.8 10.09 1.23-.34 2.8z"/><path id="se0rc" d="M1312 1431.82V1429h13.83v2.82z"/><path id="se0rd" d="M1377.2 1453.28v-12.42h2.27v12.42z"/><path id="se0re" d="M1313.89 1431.88h10.73v22.66s0 13.72 13.13 14.92c13.12 1.19 13.12-14.92 13.12-14.92s.3-12.52 11.63-12.22c11.33.3 14.61 0 14.61 0v9.56s-8.06.06-12.68 0c-2.36-.03-3.52 3.45-3.67 4.61-.34 2.84-1.48 7.95-3.39 11.4-.29.53-1.13 2.62-1.47 2.97-.32.34-.63.75-1.02 1.27-1.95 2.63-4.9 6.87-17.13 6.87-14.32 0-24.16-13.12-23.86-24.46.3-11.33 0-22.66 0-22.66z"/><clipPath id="se0rf"><use fill="#fff" xlink:href="#se0ra"/></clipPath><clipPath id="se0rg"><use fill="#fff" xlink:href="#se0rb"/></clipPath><clipPath id="se0rh"><use fill="#fff" xlink:href="#se0rc"/></clipPath><clipPath id="se0ri"><use fill="#fff" xlink:href="#se0rd"/></clipPath></defs><g><g transform="translate(-1312 -1429)"><use fill="#fff" fill-opacity="0" stroke="#95989a" stroke-miterlimit="50" stroke-width="2" xlink:href="#se0re"/></g><g transform="translate(-1312 -1429)"><use fill="#fff" fill-opacity="0" stroke="#95989a" stroke-miterlimit="50" stroke-width="2" clip-path="url(&quot;#se0rf&quot;)" xlink:href="#se0ra"/></g><g transform="translate(-1312 -1429)"><use fill="#fff" fill-opacity="0" stroke="#95989a" stroke-miterlimit="50" stroke-width="2" clip-path="url(&quot;#se0rg&quot;)" xlink:href="#se0rb"/></g><g transform="translate(-1312 -1429)"><use fill="#fff" fill-opacity="0" stroke="#95989a" stroke-miterlimit="50" stroke-width="2" clip-path="url(&quot;#se0rh&quot;)" xlink:href="#se0rc"/></g><g transform="translate(-1312 -1429)"><use fill="#fff" fill-opacity="0" stroke="#95989a" stroke-miterlimit="50" stroke-width="2" clip-path="url(&quot;#se0ri&quot;)" xlink:href="#se0rd"/></g></g></svg>