<svg xmlns="http://www.w3.org/2000/svg" xmlns:xlink="http://www.w3.org/1999/xlink" width="50" height="51"
     viewBox="0 0 50 51">
    <defs>
        <path id="c33ia" d="M786.48 1195h12.66v11.3h-12.66z"/>
        <path id="c33ib" d="M799.14 1206.3l9.34 11.9h8.44v9.35H769v-9.34h7.53l10.25-11.9"/>
        <path id="c33ic" d="M776.5 1218.28h32.1"/>
        <path id="c33id"
              d="M803.94 1231.9s-.68.69 0 2.13c.69 1.44 1.86 1.3 1.72 3.9-.14 2.61-1.17 2.54-1.72 4.12a4.57 4.57 0 0 0 0 2.95"/>
        <path id="c33ie"
              d="M795.8 1231.9s-.69.69 0 2.13c.68 1.44 1.85 1.3 1.71 3.9-.14 2.61-1.16 2.54-1.71 4.12a4.57 4.57 0 0 0 0 2.95"/>
        <path id="c33if"
              d="M787.65 1231.9s-.68.69 0 2.13c.69 1.44 1.85 1.3 1.71 3.9-.13 2.61-1.16 2.54-1.7 4.12a4.57 4.57 0 0 0 0 2.95"/>
        <path id="c33ig"
              d="M779.5 1231.9s-.68.69 0 2.13c.69 1.44 1.86 1.3 1.72 3.9-.14 2.61-1.17 2.54-1.72 4.12a4.57 4.57 0 0 0 0 2.95"/>
    </defs>
    <g>
        <g transform="translate(-768 -1194)">
            <use fill="#fff" fill-opacity="0" stroke="#f0f0f0" stroke-miterlimit="50" stroke-width="2"
                 xlink:href="#c33ia"/>
        </g>
        <g transform="translate(-768 -1194)">
            <use fill="#fff" fill-opacity="0" stroke="#f0f0f0" stroke-miterlimit="50" stroke-width="2"
                 xlink:href="#c33ib"/>
        </g>
        <g transform="translate(-768 -1194)">
            <use fill="#fff" fill-opacity="0" stroke="#f0f0f0" stroke-miterlimit="50" stroke-width="2"
                 xlink:href="#c33ic"/>
        </g>
        <g transform="translate(-768 -1194)">
            <use fill="#fff" fill-opacity="0" stroke="#95989a" stroke-miterlimit="50" xlink:href="#c33id"/>
        </g>
        <g transform="translate(-768 -1194)">
            <use fill="#fff" fill-opacity="0" stroke="#95989a" stroke-miterlimit="50" xlink:href="#c33ie"/>
        </g>
        <g transform="translate(-768 -1194)">
            <use fill="#fff" fill-opacity="0" stroke="#95989a" stroke-miterlimit="50" xlink:href="#c33if"/>
        </g>
        <g transform="translate(-768 -1194)">
            <use fill="#fff" fill-opacity="0" stroke="#95989a" stroke-miterlimit="50" xlink:href="#c33ig"/>
        </g>
    </g>
</svg>