<svg xmlns="http://www.w3.org/2000/svg" xmlns:xlink="http://www.w3.org/1999/xlink" width="45" height="49"
     viewBox="0 0 45 49">
    <defs>
        <path id="ditta" d="M449 1234.28v-6.11h44.6v6.11z"/>
        <path id="dittb" d="M454.47 1244v-11.82h33.75V1244z"/>
        <path id="dittc"
              d="M461.81 1215.56c0-1.33.89-2.4 1.98-2.4 1.08 0 1.97 1.07 1.97 2.4 0 1.34-.89 2.42-1.97 2.42-1.1 0-1.98-1.08-1.98-2.42z"/>
        <path id="dittd"
              d="M461.81 1225.21c0-1.33.89-2.41 1.98-2.41 1.08 0 1.97 1.08 1.97 2.41s-.89 2.41-1.97 2.41c-1.1 0-1.98-1.08-1.98-2.4z"/>
        <path id="ditte"
              d="M475.37 1228.13v-21.48s.42-11.27-7-10.62a6.28 6.28 0 0 0-3.5 2.83c-1.53 2.72-1.63 7.24-1.63 7.24"/>
        <clipPath id="dittf">
            <use fill="#fff" xlink:href="#ditta"/>
        </clipPath>
        <clipPath id="dittg">
            <use fill="#fff" xlink:href="#dittb"/>
        </clipPath>
        <clipPath id="ditth">
            <use fill="#fff" xlink:href="#dittc"/>
        </clipPath>
        <clipPath id="ditti">
            <use fill="#fff" xlink:href="#dittd"/>
        </clipPath>
    </defs>
    <g>
        <g transform="translate(-449 -1195)">
            <g>
                <use fill="#fff" fill-opacity="0" stroke="#e00006" stroke-miterlimit="50" stroke-width="2"
                     xlink:href="#ditte"/>
            </g>
            <g>
                <use fill="#fff" fill-opacity="0" stroke="#e00006" stroke-miterlimit="50" stroke-width="4"
                     clip-path="url(&quot;#dittf&quot;)" xlink:href="#ditta"/>
            </g>
            <g>
                <use fill="#fff" fill-opacity="0" stroke="#e00006" stroke-miterlimit="50" stroke-width="4"
                     clip-path="url(&quot;#dittg&quot;)" xlink:href="#dittb"/>
            </g>
            <g/>
        </g>
        <g transform="translate(-449 -1195)">
            <use fill="#fff" fill-opacity="0" stroke="#e00006" stroke-miterlimit="50" stroke-width="2"
                 clip-path="url(&quot;#ditth&quot;)" xlink:href="#dittc"/>
        </g>
        <g transform="translate(-449 -1195)">
            <use fill="#fff" fill-opacity="0" stroke="#e00006" stroke-miterlimit="50" stroke-width="2"
                 clip-path="url(&quot;#ditti&quot;)" xlink:href="#dittd"/>
        </g>
    </g>
</svg>