<svg xmlns="http://www.w3.org/2000/svg" viewBox="-3263 314.997 44.594 49.003"><defs><style>.a,.b,.d{fill:none;}.a,.b{stroke:#000;}.a{stroke-width:2px;}.c{stroke:none;}</style></defs><g transform="translate(-3263 316)"><path class="a" d="M944.222,6886.906V6865.43s.414-11.273-7.006-10.625a6.278,6.278,0,0,0-3.494,2.836c-1.529,2.719-1.628,7.236-1.628,7.236" transform="translate(-917.85 -6854.779)"/><g class="a" transform="translate(0 32.166)"><rect class="c" width="44.594" height="6.118"/><rect class="d" x="1" y="1" width="42.594" height="4.118"/></g><g class="a" transform="translate(5.475 36.18)"><rect class="c" width="33.744" height="11.82"/><rect class="d" x="1" y="1" width="31.744" height="9.82"/></g><path class="b" d="M1060.979,7062.415" transform="translate(-1037.391 -7041.404)"/><g class="b" transform="translate(12.814 17.152)"><ellipse class="c" cx="1.971" cy="2.412" rx="1.971" ry="2.412"/><ellipse class="d" cx="1.971" cy="2.412" rx="1.471" ry="1.912"/></g><g class="b" transform="translate(12.814 26.8)"><ellipse class="c" cx="1.971" cy="2.412" rx="1.971" ry="2.412"/><ellipse class="d" cx="1.971" cy="2.412" rx="1.471" ry="1.912"/></g></g></svg>