<svg xmlns="http://www.w3.org/2000/svg" xmlns:xlink="http://www.w3.org/1999/xlink" width="52" height="50" viewBox="0 0 52 50"><defs><path id="37dia" d="M425.33 1453.89c0-13.8 11.39-25 25.43-25 14.05 0 25.43 11.2 25.43 25s-11.38 25-25.43 25c-14.04 0-25.43-11.2-25.43-25z"/><path id="37dib" d="M445.55 1445.82c0-2.93 2.44-5.3 5.44-5.3 3 0 5.43 2.37 5.43 5.3 0 2.93-2.43 5.3-5.43 5.3-3 0-5.44-2.37-5.44-5.3z"/><path id="37dic" d="M446.68 1445.82c0-2.33 1.93-4.21 4.3-4.21 2.39 0 4.31 1.88 4.31 4.2 0 2.33-1.92 4.21-4.3 4.21a4.26 4.26 0 0 1-4.31-4.2z"/><path id="37did" d="M428.58 1454.01c0-11.32 9.98-20.49 22.28-20.49s22.28 9.17 22.28 20.49c0 11.31-9.97 20.49-22.28 20.49-12.3 0-22.28-9.18-22.28-20.49z"/><clipPath id="37die"><use fill="#fff" xlink:href="#37dia"/></clipPath><clipPath id="37dif"><use fill="#fff" xlink:href="#37dib"/></clipPath><clipPath id="37dig"><use fill="#fff" xlink:href="#37dic"/></clipPath><clipPath id="37dih"><use fill="#fff" xlink:href="#37did"/></clipPath></defs><g><g transform="translate(-425 -1429)"><use fill="#fff" fill-opacity="0" stroke="#aaa" stroke-miterlimit="50" stroke-width="4" clip-path="url(&quot;#37die&quot;)" xlink:href="#37dia"/></g><g transform="translate(-425 -1429)"><g><use fill="#fff" fill-opacity="0" stroke="#aaa" stroke-miterlimit="50" stroke-width="2" clip-path="url(&quot;#37dif&quot;)" xlink:href="#37dib"/></g><g><use fill="#fff" fill-opacity="0" stroke="#aaa" stroke-miterlimit="50" stroke-width="2" clip-path="url(&quot;#37dig&quot;)" xlink:href="#37dic"/></g></g><g transform="translate(-425 -1429)"><use fill="#fff" fill-opacity="0" stroke="#aaa" stroke-miterlimit="50" stroke-width="2" clip-path="url(&quot;#37dih&quot;)" xlink:href="#37did"/></g></g></svg>