<svg xmlns="http://www.w3.org/2000/svg" xmlns:xlink="http://www.w3.org/1999/xlink" width="26" height="57" viewBox="0 0 26 57"><defs><path id="h727a" d="M641 265c0-1 1-2 2-2h21.2c1 0 2 1 2 2v19.4c0 1-1 2-2 2H643c-1 0-2-1-2-2z"/><path id="h727b" d="M641 286.8c0-1 1-2 2-2h21.2c1 0 2 1 2 2V317c0 1-1 2-2 2H643c-1 0-2-1-2-2z"/><path id="h727e" d="M643.7 282.1h9.9"/><path id="h727f" d="M643.7 289.1h9.9"/><clipPath id="h727c"><use fill="#fff" xlink:href="#h727a"/></clipPath><clipPath id="h727d"><use fill="#fff" xlink:href="#h727b"/></clipPath></defs><g><g transform="translate(-641 -263)"><g><use fill="#fff" fill-opacity="0" stroke="#95989a" stroke-miterlimit="50" stroke-width="4" clip-path="url(&quot;#h727c&quot;)" xlink:href="#h727a"/></g><g><use fill="#fff" fill-opacity="0" stroke="#95989a" stroke-miterlimit="50" stroke-width="4" clip-path="url(&quot;#h727d&quot;)" xlink:href="#h727b"/></g><g><use fill="#fff" fill-opacity="0" stroke="#95989a" stroke-miterlimit="50" xlink:href="#h727e"/></g><g><use fill="#fff" fill-opacity="0" stroke="#95989a" stroke-miterlimit="50" xlink:href="#h727f"/></g></g></g></svg>