<svg xmlns="http://www.w3.org/2000/svg" xmlns:xlink="http://www.w3.org/1999/xlink" width="43" height="51" viewBox="0 0 43 51"><defs><path id="vgkua" d="M1399.9 1199.43c0-1.06.84-1.93 1.89-1.93 1.05 0 1.9.87 1.9 1.93 0 1.07-.85 1.94-1.9 1.94-1.05 0-1.9-.87-1.9-1.94z"/><path id="vgkub" d="M1419.21 1199.43c0-1.06.85-1.93 1.9-1.93 1.04 0 1.9.87 1.9 1.93 0 1.07-.86 1.94-1.9 1.94-1.05 0-1.9-.87-1.9-1.94z"/><path id="vgkuc" d="M1424.9 1199.43c0-1.06.85-1.93 1.9-1.93 1.04 0 1.89.87 1.89 1.93 0 1.07-.85 1.94-1.9 1.94-1.04 0-1.9-.87-1.9-1.94z"/><path id="vgkud" d="M1430.58 1199.43c0-1.06.85-1.93 1.9-1.93 1.04 0 1.89.87 1.89 1.93 0 1.07-.85 1.94-1.9 1.94-1.04 0-1.9-.87-1.9-1.94z"/><path id="vgkue" d="M1403.3 1224.33c0-7.9 6.28-14.3 14.02-14.3 7.74 0 14.02 6.4 14.02 14.3s-6.28 14.3-14.02 14.3c-7.74 0-14.02-6.4-14.02-14.3z"/><path id="vgkuf" d="M1397 1204.04v-7s.84-2.01 2.94-2.01h34.48s2.94-.43 3.08 2c.14 2.43 0 7 0 7z"/><path id="vgkug" d="M1397 1204.55h40.34v37.49s-.06 1.76-1.4 1.82c-1.34.07-37.44 0-37.44 0s-1.53-.2-1.5-1.43c.03-1.24 0-37.88 0-37.88z"/><clipPath id="vgkuh"><use fill="#fff" xlink:href="#vgkua"/></clipPath><clipPath id="vgkui"><use fill="#fff" xlink:href="#vgkub"/></clipPath><clipPath id="vgkuj"><use fill="#fff" xlink:href="#vgkuc"/></clipPath><clipPath id="vgkuk"><use fill="#fff" xlink:href="#vgkud"/></clipPath><clipPath id="vgkul"><use fill="#fff" xlink:href="#vgkue"/></clipPath></defs><g><g transform="translate(-1396 -1194)"><use fill="#fff" fill-opacity="0" stroke="#f0f0f0" stroke-miterlimit="50" stroke-width="2" xlink:href="#vgkuf"/></g><g transform="translate(-1396 -1194)"><use fill="#fff" fill-opacity="0" stroke="#f0f0f0" stroke-miterlimit="50" stroke-width="2" xlink:href="#vgkug"/></g><g transform="translate(-1396 -1194)"><use fill="#fff" fill-opacity="0" stroke="#f0f0f0" stroke-miterlimit="50" stroke-width="2" clip-path="url(&quot;#vgkuh&quot;)" xlink:href="#vgkua"/></g><g transform="translate(-1396 -1194)"><use fill="#fff" fill-opacity="0" stroke="#f0f0f0" stroke-miterlimit="50" stroke-width="2" clip-path="url(&quot;#vgkui&quot;)" xlink:href="#vgkub"/></g><g transform="translate(-1396 -1194)"><use fill="#fff" fill-opacity="0" stroke="#f0f0f0" stroke-miterlimit="50" stroke-width="2" clip-path="url(&quot;#vgkuj&quot;)" xlink:href="#vgkuc"/></g><g transform="translate(-1396 -1194)"><use fill="#fff" fill-opacity="0" stroke="#f0f0f0" stroke-miterlimit="50" stroke-width="2" clip-path="url(&quot;#vgkuk&quot;)" xlink:href="#vgkud"/></g><g transform="translate(-1396 -1194)"><use fill="#fff" fill-opacity="0" stroke="#f0f0f0" stroke-miterlimit="50" stroke-width="2" clip-path="url(&quot;#vgkul&quot;)" xlink:href="#vgkue"/></g></g></svg>