<svg xmlns="http://www.w3.org/2000/svg" viewBox="-11638.604 -4244.515 35.62 38.753">
    <defs>
        <style>
            .cls-1 {
            fill: none;
            stroke: #aaa;
            stroke-width: 2px;
            }
        </style>
    </defs>
    <path id="Path_322" data-name="Path 322" class="cls-1"
          d="M-182.911,2665.948c-1.1-.171-7.372,3.031-7.167,10.505a20.039,20.039,0,0,0,1.416,7.372,37.693,37.693,0,0,0,5.752,8.995,42.64,42.64,0,0,0,4.251,4.253c1.367,1.211,4.8,4.139,8.27,5.12a14.326,14.326,0,0,0,6.931,0s6.3-3.229,6.852-5.12-.079-1.812-1.1-3.15a33.054,33.054,0,0,0-4.647-3.938,5.558,5.558,0,0,0-3.072-.709c-1.418.236-4.1,3.544-4.1,3.544a3.353,3.353,0,0,1-2.914,0,29.744,29.744,0,0,1-4.647-3.544c-.709-.788-4.017-5.45-4.017-5.45s-1.654-2.741,0-4.159,3.466-3.213,3.466-3.213a3.225,3.225,0,0,0,0-3.954c-1.5-2.284-.551-1.575-2.284-3.7S-181.81,2666.119-182.911,2665.948Z"
          transform="translate(-11447.52 -6909.444)"/>
</svg>
