<svg xmlns="http://www.w3.org/2000/svg" xmlns:xlink="http://www.w3.org/1999/xlink" width="47" height="52" viewBox="0 0 47 52"><defs><path id="2guwa" d="M740 1550c0-1 1-2 2-2h42.46c1 0 2 1 2 2v2.83c0 1-1 2-2 2H742c-1 0-2-1-2-2z"/><path id="2guwc" d="M763.23 1548v-30.97s-.08-7.17 3.17-10.15a7.39 7.39 0 0 1 10.22 0c4.44 4.52 3.7 11.37 3.74 11.5"/><path id="2guwd" d="M773.18 1548.68s.6-3.25 3.79-3.4c3.19-.17 3.84 3.4 3.84 3.4"/><path id="2guwe" d="M745.85 1548.68s.59-3.25 3.78-3.4c3.2-.17 3.85 3.4 3.85 3.4"/><clipPath id="2guwb"><use fill="#fff" xlink:href="#2guwa"/></clipPath></defs><g><g transform="translate(-740 -1503)"><g><use fill="#fff" fill-opacity="0" stroke="#95989a" stroke-miterlimit="50" stroke-width="4" clip-path="url(&quot;#2guwb&quot;)" xlink:href="#2guwa"/></g><g><use fill="#fff" fill-opacity="0" stroke="#95989a" stroke-miterlimit="50" stroke-width="2" xlink:href="#2guwc"/></g><g><use fill="#fff" fill-opacity="0" stroke="#95989a" stroke-miterlimit="50" xlink:href="#2guwd"/></g><g><use fill="#fff" fill-opacity="0" stroke="#95989a" stroke-miterlimit="50" xlink:href="#2guwe"/></g></g></g></svg>