<svg xmlns="http://www.w3.org/2000/svg" xmlns:xlink="http://www.w3.org/1999/xlink" width="66" height="42" viewBox="0 0 66 42"><defs><path id="oye3a" d="M914.7 368.32c0-1 1-2 2-2h60.22c1 0 2 1 2 2V405c0 1-1 2-2 2H916.7c-1 0-2-1-2-2z"/><path id="oye3b" d="M966.17 398.05a3.2 3.2 0 1 1 6.4 0 3.2 3.2 0 0 1-6.4 0z"/><path id="oye3c" d="M966.17 375.88a3.2 3.2 0 1 1 6.4 0 3.2 3.2 0 0 1-6.4 0z"/><path id="oye3d" d="M966.17 387.21a3.2 3.2 0 1 1 6.4 0 3.2 3.2 0 0 1-6.4 0z"/><path id="oye3e" d="M920.59 401.12v-28.43h41.17v28.43z"/><clipPath id="oye3f"><use fill="#fff" xlink:href="#oye3a"/></clipPath><clipPath id="oye3g"><use fill="#fff" xlink:href="#oye3b"/></clipPath><clipPath id="oye3h"><use fill="#fff" xlink:href="#oye3c"/></clipPath><clipPath id="oye3i"><use fill="#fff" xlink:href="#oye3d"/></clipPath><clipPath id="oye3j"><use fill="#fff" xlink:href="#oye3e"/></clipPath></defs><g><g transform="translate(-914 -366)"><g><use fill="#fff" fill-opacity="0" stroke="#95989a" stroke-miterlimit="50" stroke-width="4" clip-path="url(&quot;#oye3f&quot;)" xlink:href="#oye3a"/></g><g><use fill="#fff" fill-opacity="0" stroke="#95989a" stroke-miterlimit="50" stroke-width="2" clip-path="url(&quot;#oye3g&quot;)" xlink:href="#oye3b"/></g><g><use fill="#fff" fill-opacity="0" stroke="#95989a" stroke-miterlimit="50" stroke-width="2" clip-path="url(&quot;#oye3h&quot;)" xlink:href="#oye3c"/></g><g><use fill="#fff" fill-opacity="0" stroke="#95989a" stroke-miterlimit="50" stroke-width="2" clip-path="url(&quot;#oye3i&quot;)" xlink:href="#oye3d"/></g><g><use fill="#fff" fill-opacity="0" stroke="#95989a" stroke-miterlimit="50" stroke-width="2" clip-path="url(&quot;#oye3j&quot;)" xlink:href="#oye3e"/></g></g></g></svg>