<svg xmlns="http://www.w3.org/2000/svg" viewBox="-3012 315 49.917 51.185"><defs><style>.a,.b{fill:none;stroke:#000;}.a{stroke-width:2px;}</style></defs><g transform="translate(-11754.174 -7837.507)"><path class="a" d="M8786.085,8153.507h12.658v11.3h-12.658Z" transform="translate(-25.432)"/><path class="a" d="M8773.311,8181.252l9.342,11.9h8.438v9.342h-47.917v-9.342h7.535l10.245-11.9" transform="translate(0 -16.444)"/><path class="a" d="M8761.57,8210.651h32.1" transform="translate(-10.903 -33.868)"/><path class="b" d="M8828.521,8244.1s-.686.687,0,2.127,1.852,1.3,1.714,3.909-1.165,2.538-1.714,4.114a4.573,4.573,0,0,0,0,2.949" transform="translate(-50.402 -53.691)"/><path class="b" d="M8828.521,8244.1s-.686.687,0,2.127,1.852,1.3,1.714,3.909-1.165,2.538-1.714,4.114a4.573,4.573,0,0,0,0,2.949" transform="translate(-58.549 -53.691)"/><path class="b" d="M8828.521,8244.1s-.686.687,0,2.127,1.852,1.3,1.714,3.909-1.165,2.538-1.714,4.114a4.573,4.573,0,0,0,0,2.949" transform="translate(-66.695 -53.691)"/><path class="b" d="M8828.521,8244.1s-.686.687,0,2.127,1.852,1.3,1.714,3.909-1.165,2.538-1.714,4.114a4.573,4.573,0,0,0,0,2.949" transform="translate(-74.842 -53.691)"/></g></svg>