<svg xmlns="http://www.w3.org/2000/svg" xmlns:xlink="http://www.w3.org/1999/xlink" width="51" height="51" viewBox="0 0 51 51"><defs><path id="hzuba" d="M287 360.1c0-1 1-2 2-2h46.04c1 0 2 1 2 2V403c0 1-1 2-2 2H289c-1 0-2-1-2-2z"/><path id="hzubb" d="M293.6 400.36V381.8h37.94v18.56z"/><path id="hzubc" d="M293.6 378.2v-14.95h37.94v14.95z"/><path id="hzubd" d="M293.6 356.8c0-.9.9-1.8 1.8-1.8h3c.9 0 1.8.9 1.8 1.8s-.9 1.8-1.8 1.8h-3c-.9 0-1.8-.9-1.8-1.8z"/><path id="hzube" d="M324.94 356.8c0-.9.9-1.8 1.8-1.8h3c.9 0 1.8.9 1.8 1.8s-.9 1.8-1.8 1.8h-3c-.9 0-1.8-.9-1.8-1.8z"/><path id="hzubf" d="M309.54 356.8c0-.9.9-1.8 1.8-1.8h3c.9 0 1.8.9 1.8 1.8s-.9 1.8-1.8 1.8h-3c-.9 0-1.8-.9-1.8-1.8z"/><clipPath id="hzubg"><use fill="#fff" xlink:href="#hzuba"/></clipPath><clipPath id="hzubh"><use fill="#fff" xlink:href="#hzubb"/></clipPath><clipPath id="hzubi"><use fill="#fff" xlink:href="#hzubc"/></clipPath><clipPath id="hzubj"><use fill="#fff" xlink:href="#hzubd"/></clipPath><clipPath id="hzubk"><use fill="#fff" xlink:href="#hzube"/></clipPath><clipPath id="hzubl"><use fill="#fff" xlink:href="#hzubf"/></clipPath></defs><g><g transform="translate(-287 -355)"><g><use fill="#fff" fill-opacity="0" stroke="#95989a" stroke-miterlimit="50" stroke-width="4" clip-path="url(&quot;#hzubg&quot;)" xlink:href="#hzuba"/></g><g><use fill="#fff" fill-opacity="0" stroke="#95989a" stroke-miterlimit="50" stroke-width="2" clip-path="url(&quot;#hzubh&quot;)" xlink:href="#hzubb"/></g><g><use fill="#fff" fill-opacity="0" stroke="#95989a" stroke-miterlimit="50" stroke-width="2" clip-path="url(&quot;#hzubi&quot;)" xlink:href="#hzubc"/></g><g><use fill="#fff" xlink:href="#hzubd"/><use fill="#fff" fill-opacity="0" stroke="#95989a" stroke-miterlimit="50" stroke-width="2" clip-path="url(&quot;#hzubj&quot;)" xlink:href="#hzubd"/></g><g><use fill="#fff" xlink:href="#hzube"/><use fill="#fff" fill-opacity="0" stroke="#95989a" stroke-miterlimit="50" stroke-width="2" clip-path="url(&quot;#hzubk&quot;)" xlink:href="#hzube"/></g><g><use fill="#fff" xlink:href="#hzubf"/><use fill="#fff" fill-opacity="0" stroke="#95989a" stroke-miterlimit="50" stroke-width="2" clip-path="url(&quot;#hzubl&quot;)" xlink:href="#hzubf"/></g></g></g></svg>