<svg xmlns="http://www.w3.org/2000/svg" viewBox="-2835 394.997 46.464 51.003"><defs><style>.a,.b,.d{fill:none;}.a,.b{stroke:#000;}.a{stroke-width:2px;}.c{stroke:none;}</style></defs><g transform="translate(-315 -1354.825)"><g class="a" transform="translate(-2520 1793.992)"><rect class="c" width="46.464" height="6.833" rx="2"/><rect class="d" x="1" y="1" width="44.464" height="4.833" rx="1"/></g><path class="a" d="M-2486,1793.992v-30.966s-.078-7.169,3.163-10.144a7.39,7.39,0,0,1,10.227,0c4.442,4.517,3.7,11.37,3.739,11.5" transform="translate(-10.768)"/><path class="b" d="M-2471.437,1812.42a4.187,4.187,0,0,1,3.783-3.4c3.194-.157,3.845,3.4,3.845,3.4" transform="translate(-15.38 -17.744)"/><path class="b" d="M-2471.437,1812.42a4.187,4.187,0,0,1,3.783-3.4c3.194-.157,3.845,3.4,3.845,3.4" transform="translate(-42.712 -17.744)"/></g></svg>