<svg xmlns="http://www.w3.org/2000/svg" xmlns:xlink="http://www.w3.org/1999/xlink" width="51" height="51" viewBox="0 0 51 51"><defs><path id="4dwka" d="M287 270c0-1 1-2 2-2h46c1 0 2 1 2 2v46c0 1-1 2-2 2h-46c-1 0-2-1-2-2z"/><path id="4dwkb" d="M291.41 313.1v-28.43h41.18v28.43z"/><path id="4dwkc" d="M308.57 276.33a3.43 3.43 0 1 1 6.86 0 3.43 3.43 0 0 1-6.86 0z"/><path id="4dwkd" d="M301.22 276.33a1.96 1.96 0 1 1 3.92 0 1.96 1.96 0 0 1-3.92 0z"/><path id="4dwke" d="M318.86 276.33a1.96 1.96 0 1 1 3.92 0 1.96 1.96 0 0 1-3.92 0z"/><clipPath id="4dwkf"><use fill="#fff" xlink:href="#4dwka"/></clipPath><clipPath id="4dwkg"><use fill="#fff" xlink:href="#4dwkb"/></clipPath><clipPath id="4dwkh"><use fill="#fff" xlink:href="#4dwkc"/></clipPath><clipPath id="4dwki"><use fill="#fff" xlink:href="#4dwkd"/></clipPath><clipPath id="4dwkj"><use fill="#fff" xlink:href="#4dwke"/></clipPath></defs><g><g transform="translate(-287 -268)"><g><use fill="#fff" fill-opacity="0" stroke="#95989a" stroke-miterlimit="50" stroke-width="4" clip-path="url(&quot;#4dwkf&quot;)" xlink:href="#4dwka"/></g><g><use fill="#fff" fill-opacity="0" stroke="#95989a" stroke-miterlimit="50" stroke-width="2" clip-path="url(&quot;#4dwkg&quot;)" xlink:href="#4dwkb"/></g><g><use fill="#fff" fill-opacity="0" stroke="#95989a" stroke-miterlimit="50" stroke-width="2" clip-path="url(&quot;#4dwkh&quot;)" xlink:href="#4dwkc"/></g><g><use fill="#fff" fill-opacity="0" stroke="#95989a" stroke-miterlimit="50" stroke-width="2" clip-path="url(&quot;#4dwki&quot;)" xlink:href="#4dwkd"/></g><g><use fill="#fff" fill-opacity="0" stroke="#95989a" stroke-miterlimit="50" stroke-width="2" clip-path="url(&quot;#4dwkj&quot;)" xlink:href="#4dwke"/></g></g></g></svg>