<svg xmlns="http://www.w3.org/2000/svg" xmlns:xlink="http://www.w3.org/1999/xlink" width="21" height="27" viewBox="0 0 21 27"><defs><path id="7d31a" d="M819 41a5 5 0 1 1 10 0 5 5 0 0 1-10 0z"/><path id="7d31b" d="M824.01 56l-5.9-8.6s-1.57-1.69-2.45-4.45c-.57-1.76-.52-4.53 0-5.75 1.15-2.68 3.22-4.6 8.35-4.6 5.14 0 7.67 2 8.9 5.3 1.22 3.29-.7 7.2-2.38 9.5C828.84 49.7 824 56 824 56z"/><clipPath id="7d31c"><use fill="#fff" xlink:href="#7d31a"/></clipPath></defs><g><g transform="translate(-814 -31)"><use fill="#fff" fill-opacity="0" stroke="#aaa" stroke-miterlimit="50" stroke-width="2" xlink:href="#7d31b"/></g><g transform="translate(-814 -31)"><use fill="#fff" fill-opacity="0" stroke="#aaa" stroke-miterlimit="50" stroke-width="2" clip-path="url(&quot;#7d31c&quot;)" xlink:href="#7d31a"/></g></g></svg>