<svg xmlns="http://www.w3.org/2000/svg" viewBox="-722.441 1276.948 51.091 43.512"><defs><style>.a,.c{fill:none;}.a{stroke:#000;stroke-width:2px;}.b{stroke:none;}</style></defs><g transform="translate(-2533 270)"><path class="a" d="M-407.678,1813.36a12.632,12.632,0,0,0,.759-3.817,32.741,32.741,0,0,1,1.946-12.7c3.379-6.226,9.876-10.9,19.765-10.9,6.924,0,10.671,1.045,12.862,2.376,10.179,5.223,10.835,17.02,6.165,23.9,0,0-5.489,8.52-21.906,6.855-1.315-.052-5.5-.45-6.462-.552a20.258,20.258,0,0,0-4.374-.1l-.153.017c-2.195.229-5.9,2.835-5.9,2.835l-6.636,4.67,3.931-12.588Z" transform="translate(2224 -778)"/><g class="a" transform="translate(1828.014 1021.866)"><ellipse class="b" cx="2.471" cy="2.471" rx="2.471" ry="2.471"/><ellipse class="c" cx="2.471" cy="2.471" rx="1.471" ry="1.471"/></g><g class="a" transform="translate(1837.254 1021.866)"><ellipse class="b" cx="2.471" cy="2.471" rx="2.471" ry="2.471"/><ellipse class="c" cx="2.471" cy="2.471" rx="1.471" ry="1.471"/></g><g class="a" transform="translate(1846.494 1021.866)"><ellipse class="b" cx="2.471" cy="2.471" rx="2.471" ry="2.471"/><ellipse class="c" cx="2.471" cy="2.471" rx="1.471" ry="1.471"/></g></g></svg>